<svg id="Group_1117" data-name="Group 1117" xmlns="http://www.w3.org/2000/svg" width="38" height="22" viewBox="0 0 38 22">
  <path id="Path_322" data-name="Path 322" d="M398.285,431.724a5.6,5.6,0,0,1-.176-1.342,37.655,37.655,0,0,0-1.192-5.215c-.108-.446-.227-.889-.354-1.329a2.718,2.718,0,0,0-2.591-2.023c-.445-.007-.89,0-1.336,0h-29.9a2.216,2.216,0,0,0-2.447,2.524q0,6.8,0,13.6a2.186,2.186,0,0,0,1.625,2.273,4.545,4.545,0,0,0,1.144.059c.544,0,1.089-.012,1.632.007.229.008.278-.065.3-.294a4.145,4.145,0,0,1,8.283-.059c.014.292.093.354.363.353q5.862-.014,11.724,0c.274,0,.348-.077.372-.355a4.138,4.138,0,0,1,8.269.025c.023.27.109.336.356.328.605-.019,1.212.007,1.818-.011a2.083,2.083,0,0,0,2.01-1.519c.023-.066.011-.16.1-.185Zm-14.123-8.6c1.262,0,2.523.005,3.785-.005.23,0,.318.043.317.31q-.016,3.651,0,7.3c0,.261-.077.312-.311.311q-3.766-.012-7.533,0c-.256,0-.3-.087-.3-.326q.011-3.632,0-7.263c0-.275.08-.338.333-.335C381.688,423.13,382.925,423.123,384.161,423.123Zm-9.335,7.912c-1.261,0-2.521,0-3.782,0-.192,0-.308,0-.307-.271q.018-3.686,0-7.373c0-.219.06-.276.269-.275q3.782.011,7.564,0c.23,0,.289.063.288.3q-.012,3.667,0,7.335c0,.246-.07.292-.29.29C377.324,431.029,376.075,431.035,374.827,431.035Zm-5.347-3.962c0,1.2-.009,2.406.007,3.609,0,.279-.053.364-.339.362-1.952-.015-3.9,0-5.857-.009a1.608,1.608,0,0,1-1.71-1.735c-.019-1.471-.016-2.944,0-4.415a1.624,1.624,0,0,1,1.731-1.76c1.952-.005,3.9,0,5.857-.008.273,0,.32.092.318.348C369.473,424.666,369.48,425.869,369.48,427.072Zm24.954,3.963c-1.6,0-3.147,0-4.692,0-.183,0-.224-.06-.223-.239q.008-3.706,0-7.411c0-.182.022-.272.235-.271,1.31.011,2.62-.009,3.93.012a1.939,1.939,0,0,1,1.83,1.424c.415,1.616.8,3.24,1.184,4.864a1.326,1.326,0,0,1-.643,1.461c-.2.107-.289.086-.377-.147-.252-.665-.529-1.319-.8-1.975-.2-.471-.534-.644-.9-.474-.342.16-.446.531-.265.986C393.942,429.845,394.181,430.416,394.434,431.035Z" transform="translate(-360.285 -421.812)" fill="#ffffff"/>
  <path id="Path_323" data-name="Path 323" d="M399.949,527.393a3.527,3.527,0,1,0,3.524,3.507A3.544,3.544,0,0,0,399.949,527.393ZM398.42,530.9a1.527,1.527,0,0,1,3.053.028,1.527,1.527,0,1,1-3.053-.028Z" transform="translate(-370.371 -512.447)" fill="#ffffff"/>
  <path id="Path_324" data-name="Path 324" d="M549.338,530.935a3.524,3.524,0,1,0,7.048.011,3.524,3.524,0,0,0-7.048-.011Zm1.995.022a1.516,1.516,0,0,1,1.508-1.543,1.532,1.532,0,0,1,1.553,1.507,1.55,1.55,0,0,1-1.517,1.552A1.534,1.534,0,0,1,551.333,530.957Z" transform="translate(-544.012 -512.471)" fill="#ffffff"/>
</svg>
