<svg xmlns="http://www.w3.org/2000/svg" width="38" height="22" viewBox="0 0 38 22">
  <g id="Group_1115" data-name="Group 1115" transform="translate(-311.94 -383.494)">
    <path id="Path_315" data-name="Path 315" d="M331.523,434.817c-1.934,0-3.868,0-5.8,0-.219,0-.3-.02-.261-.286a4.9,4.9,0,0,0-3.822-5.469,4.832,4.832,0,0,0-5.623,3.618,4.512,4.512,0,0,0-.091,1.9c.036.193-.016.239-.2.236-.678-.011-1.357.009-2.034-.01a1.8,1.8,0,0,1-1.734-1.775q-.025-2.823,0-5.646a1.8,1.8,0,0,1,1.8-1.792c1-.011,2.009-.012,3.014,0a.392.392,0,0,0,.435-.3c.529-1.337,1.071-2.668,1.611-4a2.716,2.716,0,0,1,2.713-1.852c4.559,0,9.117,0,13.676-.006a2.136,2.136,0,0,1,1.615.677c1.7,1.726,3.415,3.435,5.111,5.164a1.3,1.3,0,0,0,.744.385q3.2.57,6.407,1.152a.923.923,0,0,1,.861,1.02c0,1.421.014,2.842,0,4.263a2.749,2.749,0,0,1-2.49,2.706c-.2.015-.315.025-.274-.267a4.893,4.893,0,0,0-3.847-5.483,4.826,4.826,0,0,0-5.6,3.651,4.32,4.32,0,0,0-.091,1.825c.052.273-.052.283-.264.283C335.416,434.814,333.47,434.817,331.523,434.817Zm4.346-9.221c1.218,0,2.436,0,3.655,0,.239,0,.452-.031.564-.284s-.02-.438-.19-.607q-1.551-1.541-3.1-3.083a1.084,1.084,0,0,0-.811-.333c-1.243.007-2.487,0-3.73,0a.928.928,0,0,0-1.012,1.054q-.005,1.095,0,2.189a.936.936,0,0,0,1.047,1.058C333.483,425.6,334.676,425.6,335.869,425.6Zm-9.259,0c.69,0,1.381,0,2.071,0a.937.937,0,0,0,1.053-1.051q.006-1.113,0-2.226a.923.923,0,0,0-1-1.023q-2.127-.007-4.255,0a.922.922,0,0,0-1,1.03q-.007,1.113,0,2.226a.93.93,0,0,0,1.022,1.044C325.2,425.6,325.907,425.6,326.61,425.6Zm-4.639-2.166c0-.358,0-.716,0-1.074a.96.96,0,0,0-.74-1.049c-.7-.144-1.226.049-1.446.575-.417,1-.818,2-1.215,3-.169.428.017.7.472.71.664.008,1.329.01,1.994,0a.91.91,0,0,0,.935-.975C321.977,424.222,321.971,423.826,321.971,423.429Zm10.783,3.705c-.213,0-.427-.011-.639,0a.918.918,0,0,0-.029,1.832c.438.023.878.022,1.316,0a.9.9,0,0,0,.853-.9.915.915,0,0,0-.861-.932C333.181,427.124,332.968,427.135,332.754,427.135Z" transform="translate(0 -32.336)" fill="#ffffff"/>
    <path id="Path_316" data-name="Path 316" d="M363.883,529.337a3.919,3.919,0,1,1,3.954-3.855A3.922,3.922,0,0,1,363.883,529.337Zm2.145-3.9a2.11,2.11,0,1,0-2.123,2.089A2.115,2.115,0,0,0,366.028,525.441Z" transform="translate(-43.228 -123.844)" fill="#ffffff"/>
    <path id="Path_317" data-name="Path 317" d="M579.9,529.338a3.919,3.919,0,1,1,3.942-3.867A3.922,3.922,0,0,1,579.9,529.338Zm2.133-3.9a2.11,2.11,0,1,0-2.124,2.088A2.115,2.115,0,0,0,582.028,525.443Z" transform="translate(-237.521 -123.844)" fill="#ffffff"/>
    <path id="Path_318" data-name="Path 318" d="M437.476,386.208c.262-.767.491-1.5.769-2.224a.791.791,0,0,1,.785-.487q2.408-.005,4.816,0a.854.854,0,0,1,.86.606c.222.624.426,1.254.64,1.881.048.142.057.228-.145.227C442.645,386.206,440.088,386.208,437.476,386.208Z" transform="translate(-112.92)" fill="#ffffff"/>
  </g>
</svg>
