<svg xmlns="http://www.w3.org/2000/svg" width="38" height="21" viewBox="0 0 38 21">
  <g id="Group_1112" data-name="Group 1112" transform="translate(38 -3866)">
    <g id="Group_1111" data-name="Group 1111" transform="translate(-38 3866)">
      <path id="Path_307" data-name="Path 307" d="M443.614,415.406c-.1-.144-.266-.1-.4-.126a5.379,5.379,0,0,1-4.34-3.835,5.229,5.229,0,0,1,1.524-5.609.347.347,0,0,0,.082-.513c-.533-.952-1.049-1.913-1.573-2.871-.057-.1-.122-.206-.2-.328-.152.136-.088.29-.085.418a14.09,14.09,0,0,1-.751,5.133,9.418,9.418,0,0,1-1.791,3.106,6.954,6.954,0,0,1-5.5,2.387c-2.086-.011-4.171,0-6.257,0a1.775,1.775,0,0,1-.624-.079,1.091,1.091,0,0,1,.26-2.117,3.892,3.892,0,0,1,.409-.012c2.272-.009,4.545.028,6.814-.042a4.714,4.714,0,0,0,3.9-2.522c-.362.092-.651.18-.947.239a14.678,14.678,0,0,1-2.71.117c-.5.007-.993,0-1.49,0-.174,0-.268-.016-.267-.231q.012-3.4,0-6.8a.27.27,0,0,1,.2-.293,19.7,19.7,0,0,1,6.19-1.455c.256-.016.346-.075.321-.333a3.493,3.493,0,0,1,0-.771,2.941,2.941,0,0,0-.542-2.039.4.4,0,0,0-.379-.22q-1.434.014-2.868,0a.54.54,0,0,0-.418.187q-.809.813-1.632,1.613a1.143,1.143,0,0,1-1.655.084,1.1,1.1,0,0,1,.068-1.631c.691-.687,1.39-1.366,2.078-2.057a1.286,1.286,0,0,1,.962-.4q2.16.007,4.32,0a1.147,1.147,0,0,1,1.084.644c.293.538.6,1.072.873,1.618.11.216.2.268.441.158.875-.4,1.764-.773,2.647-1.157a1.127,1.127,0,0,1,1.72,1.085q0,2.06,0,4.119a1.141,1.141,0,0,1-1.259,1.261,1.343,1.343,0,0,0-.535.042c.407.75.813,1.489,1.207,2.234.1.193.242.118.379.089a5.517,5.517,0,0,1,5.374,1.562,5.288,5.288,0,0,1,1.462,2.875c.01.057-.007.126.077.143V410.7c-.141.066-.1.212-.127.318a5.524,5.524,0,0,1-4.212,4.218,2.855,2.855,0,0,0-.8.172Zm-1.877-7.757a3.233,3.233,0,0,0-.416,3.88,3.372,3.372,0,0,0,3.712,1.527,3.3,3.3,0,0,0-.909-6.509c-.438.014-.438.014-.239.381q.633,1.163,1.267,2.325a1.135,1.135,0,0,1,.142.848,1.122,1.122,0,0,1-2.075.253C442.725,409.466,442.243,408.571,441.738,407.649Z" transform="translate(-411.798 -394.406)" fill="#ffffff"/>
      <path id="Path_308" data-name="Path 308" d="M313.937,466.205c-.1-.144-.263-.1-.394-.125a5.517,5.517,0,1,1,4.291-9.843c0-.569,0-1.087,0-1.6,0-.158-.143-.188-.237-.25a9.032,9.032,0,0,0-4.384-1.417c-.33-.026-.663-.017-.991-.052a1.093,1.093,0,0,1-1.006-1.111,1.077,1.077,0,0,1,1.085-1.072,11.14,11.14,0,0,1,7.277,2.39,3.664,3.664,0,0,0,3.98.625c.336-.14.673-.276,1.047-.43v1.676c0,1.41-.009,2.82.008,4.23,0,.287-.083.339-.349.337-1.336-.014-2.673,0-4.009-.011-.238,0-.319.047-.28.3a5.5,5.5,0,0,1-4.938,6.289c-.025,0-.046.044-.069.067Zm.542-2.25a3.3,3.3,0,1,0-3.261-3.406A3.312,3.312,0,0,0,314.479,463.955Z" transform="translate(-309.009 -445.205)" fill="#ffffff"/>
      <path id="Path_309" data-name="Path 309" d="M355.118,542.874a1.1,1.1,0,1,1,1.093-1.1A1.107,1.107,0,0,1,355.118,542.874Z" transform="translate(-349.591 -526.33)" fill="#ffffff"/>
    </g>
  </g>
</svg>
