<svg xmlns="http://www.w3.org/2000/svg" width="38" height="20.267" viewBox="0 0 38 20.267">
  <path id="Path_314" data-name="Path 314" d="M295.921,406.833h3.532c-.016.175-.138.21-.211.279a3.385,3.385,0,0,0-.277,4.692,3.273,3.273,0,0,0,4.5.5.328.328,0,0,1,.475-.014,3.273,3.273,0,0,0,5.035-1.319.329.329,0,0,1,.349-.239q6.7.01,13.392,0c.215,0,.288.086.372.261a3.307,3.307,0,0,0,6.052.019.4.4,0,0,1,.435-.279c1.335.011,2.671,0,4.006.011.238,0,.338-.026.337-.311-.012-2.526-.008-5.053,0-7.579a1.126,1.126,0,0,0-.1-.468q-1.564-3.552-3.12-7.108a.421.421,0,0,0-.457-.308c-2.374.013-4.748,0-7.123.015-.282,0-.351-.072-.339-.349.023-.549,0-1.1.012-1.651.006-.218-.064-.292-.269-.261a1.266,1.266,0,0,1-.185,0H295.921Zm18.974.019c1.78,0,3.559.005,5.339-.006.254,0,.348.055.33.326a10.56,10.56,0,0,0,0,1.087c.007.18-.048.23-.227.23q-5.413-.008-10.826,0c-.214,0-.24-.083-.234-.26a9.923,9.923,0,0,0,0-1.012c-.021-.287.058-.376.358-.374C311.385,406.86,313.14,406.852,314.894,406.852Zm16.193-5.123c-1.506,0-2.948,0-4.39,0-.163,0-.208-.047-.207-.21q.009-2.041,0-4.083c0-.154.028-.22.2-.217.741.009,1.481,0,2.222,0,.116,0,.2.008.262.144C329.8,398.8,330.429,400.232,331.087,401.729Zm-6.077,7.892a1.112,1.112,0,1,1,1.113,1.113A1.129,1.129,0,0,1,325.01,409.621Zm-20.184,0a1.112,1.112,0,1,1,1.116,1.11A1.129,1.129,0,0,1,304.827,409.624Zm-3.335-1.139a1.124,1.124,0,1,1-1.117,1.109A1.128,1.128,0,0,1,301.492,408.486Z" transform="translate(-295.921 -392.715)" fill="#ffffff"/>
</svg>
