<?xml version="1.0" encoding="utf-8"?>
<!-- Generator: Adobe Illustrator 25.2.0, SVG Export Plug-In . SVG Version: 6.00 Build 0)  -->
<svg version="1.1" id="Layer_1" xmlns="http://www.w3.org/2000/svg" xmlns:xlink="http://www.w3.org/1999/xlink" x="0px" y="0px"
	 viewBox="0 0 2000 1000" style="enable-background:new 0 0 2000 1000;" xml:space="preserve">
<style type="text/css">
	.st0{fill:#EDEDED;}
</style>
<path id="Path_3676" class="st0" d="M2.3,857.6c8.2,23.6,67.9,36.7,106.3,35.3s73.2-14,106.4-26.1c33.3-12.1,68.4-24.4,106.8-25.4
	c43.2-1.1,83.7,12.4,126,18.2c133.3,18.1,276.2-40.7,404.2-11c66.7,15.5,114.1,52,162.3,84.9c48.2,32.8,107,65.2,178.1,67.3
	c82.9,2.5,158.9-37.2,241.5-32.3c45.4,2.7,86.4,18.7,131.6,22.8c76.1,6.9,147.9-20.4,215.4-43.4s150-42.8,218.9-21.4V1.9L1.9,1.9
	L2.3,857.6z"/>
</svg>
