<?xml version="1.0" encoding="utf-8"?>
<!-- Generator: Adobe Illustrator 25.2.0, SVG Export Plug-In . SVG Version: 6.00 Build 0)  -->
<svg version="1.1" id="Layer_1" xmlns="http://www.w3.org/2000/svg" xmlns:xlink="http://www.w3.org/1999/xlink" x="0px" y="0px"
	 viewBox="0 0 1680 300" style="enable-background:new 0 0 1680 300;" xml:space="preserve">
<style type="text/css">
	.st0{fill:#F5F5F5;}
</style>
<path id="Path_3676" class="st0" d="M0.1,170.1c6.9,21.1,57.1,32.9,89.4,31.6s61.5-12.6,89.5-23.4c28-10.9,57.5-21.9,89.8-22.7
	c36.4-1,70.4,11.1,106,16.3c112.1,16.3,232.4-36.5,340-9.9c56.1,13.9,95.9,46.7,136.5,76.1c40.6,29.4,90,58.4,149.8,60.3
	c69.7,2.2,133.6-33.4,203.1-28.9c38.2,2.4,72.7,16.8,110.7,20.5c64,6.2,124.4-18.3,181.2-38.9c56.8-20.6,126.2-38.3,184.1-19.2v-232
	L-0.2-0.2L0.1,170.1z"/>
</svg>
