<?xml version="1.0" encoding="utf-8"?>
<!-- Generator: Adobe Illustrator 25.4.1, SVG Export Plug-In . SVG Version: 6.00 Build 0)  -->
<svg version="1.1" id="Layer_1" xmlns="http://www.w3.org/2000/svg" xmlns:xlink="http://www.w3.org/1999/xlink" x="0px" y="0px"
	 viewBox="0 0 300 50" style="enable-background:new 0 0 300 50;" xml:space="preserve">
<style type="text/css">
	.st0{fill:#EF3C23;}
</style>
<g>
	<path class="st0" d="M30.65,24.29c0,3.15-0.93,5.93-2.78,8.34l0,0c1.28,1.37,1.18,3.52-0.22,4.76l-2.09,1.85L23,36.51
		c-1.86,0.89-3.85,1.33-5.98,1.33c-3.81,0-7.03-1.3-9.67-3.92c-2.64-2.61-3.95-5.82-3.95-9.63c0-3.81,1.32-7.02,3.95-9.63
		c2.64-2.61,5.86-3.92,9.67-3.92c3.81,0,7.03,1.31,9.67,3.92C29.33,17.27,30.65,20.48,30.65,24.29z M17.03,31.35
		c0.27,0,0.63-0.03,1.08-0.08l-1.15-1.23c-1.28-1.38-1.17-3.54,0.24-4.78l2.08-1.82l3.95,4.23c0.53-1.04,0.8-2.17,0.8-3.38
		c0-2.05-0.67-3.74-2-5.07c-1.34-1.32-3.01-1.99-5.01-1.99c-2,0-3.67,0.66-5.01,1.99c-1.34,1.32-2,3.01-2,5.07
		c0,2.05,0.67,3.74,2.01,5.07C13.35,30.69,15.02,31.35,17.03,31.35z"/>
	<path class="st0" d="M58.65,35.36c-1.92,1.66-4.39,2.49-7.41,2.49c-3.02,0-5.49-0.83-7.41-2.49c-1.92-1.66-2.88-3.86-2.88-6.61
		V11.3h3.31c1.84,0,3.33,1.49,3.33,3.33v13.48c0,2.18,1.21,3.27,3.64,3.27c2.42,0,3.64-1.09,3.64-3.27V14.63
		c0-1.84,1.49-3.33,3.33-3.33h3.31v17.45C61.53,31.5,60.57,33.7,58.65,35.36z"/>
	<path class="st0" d="M87.45,35.01l-0.49-1.47h-8.84l-0.41,1.37c-0.42,1.41-1.72,2.38-3.19,2.38h-4.71l8.28-25.98h8.37l8.6,25.98
		h-4.44C89.17,37.29,87.9,36.37,87.45,35.01z M79.83,27.82h5.23l-2.64-8.83L79.83,27.82z"/>
	<path class="st0" d="M122.02,11.3h3.28v25.98h-3.39c-1.09,0-2.1-0.53-2.73-1.42l-8.17-11.65v9.74c0,1.84-1.49,3.33-3.33,3.33h-3.31
		V11.3h3.43c1.09,0,2.1,0.53,2.73,1.42l8.17,11.65v-9.74C118.69,12.79,120.18,11.3,122.02,11.3z"/>
	<path class="st0" d="M154.66,11.3v3.09c0,1.84-1.49,3.33-3.33,3.33h-3.09v19.56h-3.31c-1.84,0-3.33-1.49-3.33-3.33V17.72h-6.42
		v-3.09c0-1.84,1.49-3.33,3.33-3.33H154.66z"/>
	<path class="st0" d="M178.06,35.01l-0.49-1.47h-8.84l-0.41,1.37c-0.42,1.41-1.72,2.38-3.19,2.38h-4.71l8.28-25.98h8.37l8.6,25.98
		h-4.44C179.78,37.29,178.51,36.37,178.06,35.01z M170.44,27.82h5.23l-2.64-8.83L170.44,27.82z"/>
	<path class="st0" d="M201.61,30.86h5.62c1.84,0,3.33,1.49,3.33,3.33v3.09h-15.59V11.3h3.31c1.84,0,3.33,1.49,3.33,3.33V30.86z"/>
	<path class="st0" d="M220.4,11.3h3.31c1.84,0,3.33,1.49,3.33,3.33v22.65h-6.64V11.3z"/>
	<path class="st0" d="M255.97,35.36c-1.92,1.66-4.39,2.49-7.41,2.49c-3.02,0-5.49-0.83-7.41-2.49c-1.92-1.66-2.88-3.86-2.88-6.61
		V11.3h3.31c1.84,0,3.33,1.49,3.33,3.33v13.48c0,2.18,1.21,3.27,3.64,3.27c2.42,0,3.64-1.09,3.64-3.27V14.63
		c0-1.84,1.49-3.33,3.33-3.33h3.31v17.45C258.85,31.5,257.89,33.7,255.97,35.36z"/>
	<path class="st0" d="M296.6,11.3v25.98h-3.28c-1.84,0-3.33-1.49-3.33-3.33V23.29l-6.31,10.43h-0.67l-6.27-10.39v10.63
		c0,1.84-1.49,3.33-3.33,3.33h-3.31V11.3h4.75c1.17,0,2.26,0.62,2.86,1.63l5.64,9.47l5.67-9.48c0.6-1,1.69-1.62,2.86-1.62H296.6z"/>
</g>
</svg>
