<?xml version="1.0" encoding="utf-8"?>
<!-- Generator: Adobe Illustrator 25.4.1, SVG Export Plug-In . SVG Version: 6.00 Build 0)  -->
<svg version="1.1" id="Layer_1" xmlns="http://www.w3.org/2000/svg" xmlns:xlink="http://www.w3.org/1999/xlink" x="0px" y="0px"
	 viewBox="0 0 600 70" style="enable-background:new 0 0 600 70;" xml:space="preserve">
<style type="text/css">
	.st0{fill:#EF3C23;}
</style>
<g>
	<path class="st0" d="M61.66,33.59c0,6.3-1.85,11.85-5.54,16.66l0,0c2.55,2.73,2.35,7.03-0.45,9.51l-4.17,3.7l-5.11-5.48
		c-3.71,1.77-7.69,2.66-11.94,2.66c-7.61,0-14.05-2.61-19.31-7.82C9.88,47.61,7.25,41.2,7.25,33.59c0-7.61,2.63-14.02,7.89-19.24
		c5.26-5.21,11.7-7.82,19.31-7.82c7.61,0,14.05,2.61,19.31,7.82C59.02,19.57,61.66,25.98,61.66,33.59z M34.47,47.68
		c0.54,0,1.26-0.05,2.15-0.15l-2.29-2.46c-2.57-2.75-2.35-7.08,0.49-9.55l4.16-3.63l7.89,8.45c1.07-2.08,1.6-4.32,1.6-6.75
		c0-4.1-1.33-7.47-4-10.12c-2.67-2.64-6-3.97-10.01-3.97c-4,0-7.34,1.32-10.01,3.97c-2.67,2.64-4,6.02-4,10.12
		c0,4.1,1.34,7.47,4.01,10.12C27.12,46.35,30.46,47.68,34.47,47.68z"/>
	<path class="st0" d="M117.58,55.68c-3.83,3.31-8.76,4.97-14.79,4.97c-6.03,0-10.96-1.66-14.79-4.97
		c-3.83-3.31-5.74-7.71-5.74-13.19V7.65h6.62c3.67,0,6.65,2.98,6.65,6.65v26.93c0,4.35,2.42,6.52,7.26,6.52
		c4.84,0,7.26-2.17,7.26-6.52V14.3c0-3.67,2.98-6.65,6.65-6.65h6.62v34.84C123.33,47.97,121.41,52.37,117.58,55.68z"/>
	<path class="st0" d="M175.09,54.98l-0.97-2.93h-17.66l-0.82,2.74c-0.84,2.82-3.43,4.74-6.37,4.74h-9.41l16.53-51.89h16.71
		l17.16,51.89h-8.86C178.54,59.54,175.99,57.7,175.09,54.98z M159.87,40.63h10.45l-5.26-17.64L159.87,40.63z"/>
	<path class="st0" d="M244.13,7.65h6.54v51.89h-6.77c-2.17,0-4.2-1.06-5.44-2.83l-16.32-23.26v19.44c0,3.67-2.98,6.65-6.65,6.65
		h-6.62V7.65h6.85c2.17,0,4.2,1.06,5.44,2.83l16.32,23.26V14.3C237.48,10.63,240.46,7.65,244.13,7.65z"/>
	<path class="st0" d="M309.3,7.65v6.17c0,3.67-2.98,6.65-6.65,6.65h-6.17v39.06h-6.62c-3.67,0-6.65-2.98-6.65-6.65V20.47h-12.82
		V14.3c0-3.67,2.98-6.65,6.65-6.65H309.3z"/>
	<path class="st0" d="M356.03,54.98l-0.97-2.93h-17.66l-0.82,2.74c-0.84,2.82-3.43,4.75-6.37,4.75h-9.41l16.53-51.89h16.71
		l17.16,51.89h-8.86C359.47,59.54,356.93,57.7,356.03,54.98z M340.81,40.63h10.45L346,22.99L340.81,40.63z"/>
	<path class="st0" d="M403.07,46.71h11.21c3.67,0,6.65,2.98,6.65,6.65v6.17H389.8V7.65h6.62c3.67,0,6.65,2.98,6.65,6.65V46.71z"/>
	<path class="st0" d="M440.58,7.65h6.62c3.67,0,6.65,2.98,6.65,6.65v45.24h-13.27V7.65z"/>
	<path class="st0" d="M511.62,55.68c-3.83,3.31-8.76,4.97-14.79,4.97c-6.03,0-10.96-1.66-14.79-4.97
		c-3.83-3.31-5.74-7.71-5.74-13.19V7.65h6.62c3.67,0,6.65,2.98,6.65,6.65v26.93c0,4.35,2.42,6.52,7.26,6.52
		c4.84,0,7.26-2.17,7.26-6.52V14.3c0-3.67,2.98-6.65,6.65-6.65h6.62v34.84C517.37,47.97,515.45,52.37,511.62,55.68z"/>
	<path class="st0" d="M592.75,7.65v51.89h-6.54c-3.67,0-6.65-2.98-6.65-6.65V31.59l-12.6,20.83h-1.33L553.1,31.66v21.22
		c0,3.67-2.98,6.65-6.65,6.65h-6.62V7.65h9.49c2.34,0,4.52,1.23,5.71,3.25l11.26,18.91l11.33-18.93c1.2-2.01,3.37-3.23,5.71-3.23
		H592.75z"/>
</g>
</svg>
