<svg xmlns="http://www.w3.org/2000/svg" width="130" height="130" viewBox="0 0 130 130">
  <g id="Group_5437" data-name="Group 5437" transform="translate(7405 -2195)">
    <circle id="Ellipse_400" data-name="Ellipse 400" cx="27" cy="27" r="27" transform="translate(-7329 2241)" fill="#00a651"/>
    <path id="Path_11188" data-name="Path 11188" d="M354,308.5h57.345c.006,9.666.037,19.332-.015,29-.006,1.2.367,1.409,1.469,1.4,9.3-.042,18.6-.017,27.9-.036.818,0,1.345.013,1.285,1.1-.1,1.8-.069,3.614-.008,5.419.028.857-.2,1.159-1.112,1.168a33.1,33.1,0,0,0-11.938,2.5c-24.078,9.54-28.9,42.18-8.589,58.189a34.347,34.347,0,0,0,20.507,7.579c.847.031,1.176.227,1.135,1.132a44.1,44.1,0,0,0,.007,5.04c.085,1.232-.3,1.508-1.521,1.506q-42.488-.057-84.977,0c-1.28,0-1.479-.376-1.478-1.538C354.044,383.978,354.013,309,354,308.5Z" transform="translate(-7743 1886.5)" fill="#feba26"/>
    <path id="Path_11189" data-name="Path 11189" d="M576.734,464.828c-.224-.252-.408-.478-.612-.684-1.338-1.351-2.713-2.666-4-4.06-.562-.606-.867-.573-1.433,0-3.668,3.741-7.393,7.426-11.056,11.172-.628.642-.969.638-1.561-.012-1.137-1.249-2.378-2.4-3.547-3.621-.415-.432-.7-.534-1.169-.038q-2.1,2.2-4.29,4.311c-.5.48-.385.759.047,1.188q4.582,4.56,9.121,9.164c.422.428.673.577,1.185.059q8.373-8.478,16.794-16.91C576.38,465.229,576.539,465.042,576.734,464.828Z" transform="translate(-7863.734 1796.358)" fill="#fff"/>
    <path id="Path_11190" data-name="Path 11190" d="M308.942,391.949q0-29.792-.03-59.583c0-1.187.335-1.466,1.459-1.405,1.736.094,3.484.077,5.222,0,.873-.037,1.054.264,1.029,1.061-.056,1.811-.018,3.626-.018,5.439q0,53.2-.031,106.39c0,1.224.288,1.5,1.512,1.5q42.683-.059,85.367-.056c1.128,0,1.526.23,1.452,1.413-.112,1.806-.051,3.625-.017,5.438.011.584-.12.885-.765.786a4.3,4.3,0,0,0-.636,0q-46.57,0-93.139.027c-1.152,0-1.434-.274-1.432-1.42Q308.972,421.741,308.942,391.949Z" transform="translate(-7713.912 1872.047)" fill="#e64934"/>
    <path id="Path_11191" data-name="Path 11191" d="M546.066,315.7l19.977,19.975h-.957c-5.944,0-11.888-.025-17.831.024-.989.008-1.219-.27-1.211-1.23.045-5.9.022-11.8.022-17.705Z" transform="translate(-7870.043 1881.296)" fill="#e64934"/>
    <rect id="Rectangle_2074" data-name="Rectangle 2074" width="31" height="8" rx="1" transform="translate(-7379 2218)" fill="#fff"/>
    <rect id="Rectangle_2075" data-name="Rectangle 2075" width="35" height="8" rx="1" transform="translate(-7379 2233)" fill="#fff"/>
    <rect id="Rectangle_2076" data-name="Rectangle 2076" width="31" height="8" rx="1" transform="translate(-7379 2248)" fill="#fff"/>
    <rect id="Rectangle_2077" data-name="Rectangle 2077" width="31" height="8" rx="1" transform="translate(-7379 2263)" fill="#fff"/>
    <rect id="Rectangle_2078" data-name="Rectangle 2078" width="31" height="8" rx="1" transform="translate(-7379 2278)" fill="#fff"/>
  </g>
</svg>
