<svg xmlns="http://www.w3.org/2000/svg" width="134.005" height="130" viewBox="0 0 134.005 130">
  <g id="Group_28" data-name="Group 28" transform="translate(-4203 -2026)">
    <rect id="Rectangle_800" data-name="Rectangle 800" width="93" height="79" rx="5" transform="translate(4234 2026)" fill="#feba26"/>
    <path id="Path_40" data-name="Path 40" d="M494.654,355.564c.8,2.223,1.54,4.287,2.3,6.345q6.97,18.949,13.943,37.9a5.342,5.342,0,0,1,.434,3.494,4.235,4.235,0,0,1-3.675,3.187,4.085,4.085,0,0,1-4.136-2.047,10.252,10.252,0,0,1-.831-1.827c-5.605-15.241-11.228-30.475-16.753-45.745-.474-1.309-1.184-1.262-2.227-1.344-1.182-.093-1.526.494-1.867,1.436q-8.324,22.968-16.69,45.92c-.622,1.714-1.512,3.093-3.436,3.512a4.171,4.171,0,0,1-5.042-5.2c1.259-4.019,2.778-7.957,4.216-11.918q5.881-16.211,11.786-32.412c.144-.4.271-.8.436-1.294Z" transform="translate(3796.522 1749.484)" fill="#010101"/>
    <rect id="Rectangle_801" data-name="Rectangle 801" width="72" height="5" rx="2.5" transform="translate(4244 2040)" fill="#fff"/>
    <rect id="Rectangle_802" data-name="Rectangle 802" width="72" height="5" rx="2.5" transform="translate(4244 2055)" fill="#fff"/>
    <rect id="Rectangle_803" data-name="Rectangle 803" width="72" height="5" rx="2.5" transform="translate(4244 2070)" fill="#fff"/>
    <rect id="Rectangle_804" data-name="Rectangle 804" width="72" height="5" rx="2.5" transform="translate(4244 2085)" fill="#fff"/>
    <path id="Path_41" data-name="Path 41" d="M246.131,347.567q4.327-10.877,15.745-12.884c.273-.048.546-.1.817-.155a2.41,2.41,0,0,0,.312-.116,13.908,13.908,0,0,1-11.585-16.435,13.606,13.606,0,0,1,26.961,2.615c.139,6.432-4.97,12.691-11.067,13.556.017.3.225.35.462.341,3.81-.153,7.17,1.314,10.474,2.968,5.484,2.745,10.971,5.483,16.428,8.282.763.391.952.181,1.27-.473,1.983-4.069,4.015-8.113,6.015-12.173a3.144,3.144,0,0,1,3.011-2.01,3.083,3.083,0,0,1,2.864,4.1,13.218,13.218,0,0,1-.722,1.62q-3.387,6.831-6.783,13.658a1.836,1.836,0,0,0-.281,1.279,8.121,8.121,0,0,1-3.351,8.736c-2.858,2.095-5.992,2.115-9.134.55-2.915-1.452-5.825-2.913-8.715-4.413-.794-.412-.941-.26-.939.609q.036,16.694.016,33.388c0,3.036-1.074,4.132-4.047,4.132q-9.211,0-18.422,0c-2.7,0-3.868-1.175-3.869-3.893q0-8.032,0-16.064c0-.452.049-.831-.537-1.076a9.68,9.68,0,0,1-5.909-7.075C245.109,366.473,243.684,355.567,246.131,347.567Z" transform="translate(3958.3 1761.253)" fill="#e64934"/>
    <path id="Path_42" data-name="Path 42" d="M322.157,308.5h3.515c.009.015.016.042.029.045a1.824,1.824,0,0,1,1.536,1.646q.146,1.013.249,2.032a.364.364,0,0,0,.293.367,7.036,7.036,0,0,1,1.265.525.305.305,0,0,0,.388-.043c.526-.42,1.059-.829,1.591-1.241a1.856,1.856,0,0,1,2.632.146q.928.914,1.842,1.842a1.852,1.852,0,0,1,.164,2.609q-.623.813-1.259,1.615a.3.3,0,0,0-.045.387,7.269,7.269,0,0,1,.537,1.291.328.328,0,0,0,.329.261c.678.074,1.356.154,2.032.249a1.837,1.837,0,0,1,1.664,1.455,20.484,20.484,0,0,1-.03,3.767,1.877,1.877,0,0,1-1.635,1.315c-.667.09-1.335.176-2,.245a.364.364,0,0,0-.367.294,6.573,6.573,0,0,1-.513,1.239.339.339,0,0,0,.053.437c.422.525.833,1.058,1.242,1.592a1.852,1.852,0,0,1-.152,2.59q-.934.951-1.885,1.884a1.845,1.845,0,0,1-2.566.15c-.549-.422-1.1-.845-1.639-1.278a.287.287,0,0,0-.362-.044,7.993,7.993,0,0,1-1.319.549.311.311,0,0,0-.248.3c-.076.678-.161,1.356-.248,2.033a1.882,1.882,0,0,1-1.966,1.734c-.908,0-1.816.007-2.724,0a1.826,1.826,0,0,1-1.81-1.527c-.122-.731-.2-1.468-.288-2.2a.351.351,0,0,0-.273-.352,6.91,6.91,0,0,1-1.266-.524.325.325,0,0,0-.413.047q-.8.64-1.616,1.259a1.852,1.852,0,0,1-2.589-.163q-.938-.926-1.864-1.864a1.846,1.846,0,0,1-.158-2.587c.421-.55.843-1.1,1.277-1.639a.285.285,0,0,0,.036-.362,7.763,7.763,0,0,1-.537-1.293.33.33,0,0,0-.323-.268c-.679-.073-1.356-.159-2.033-.247a1.88,1.88,0,0,1-1.725-1.973c0-.9-.006-1.8,0-2.695a1.829,1.829,0,0,1,1.536-1.831c.721-.12,1.449-.2,2.175-.284a.368.368,0,0,0,.374-.285,7.1,7.1,0,0,1,.523-1.266.3.3,0,0,0-.036-.387c-.434-.54-.857-1.089-1.277-1.639a1.85,1.85,0,0,1,.174-2.588q.929-.935,1.865-1.863a1.843,1.843,0,0,1,2.565-.165c.56.425,1.112.858,1.665,1.291.1.076.172.127.308.055a8.52,8.52,0,0,1,1.4-.581c.156-.05.186-.145.2-.279.061-.523.152-1.044.185-1.569a2.143,2.143,0,0,1,1.513-2.184C322.153,308.525,322.154,308.509,322.157,308.5Zm1.631,21.248a6.252,6.252,0,1,0-6.062-6.471A6.28,6.28,0,0,0,323.787,329.748Z" transform="translate(3998.028 1725.5)" fill="#00a651"/>
  </g>
</svg>
