<svg xmlns="http://www.w3.org/2000/svg" width="132" height="130" viewBox="0 0 132 130">
  <g id="Group_5439" data-name="Group 5439" transform="translate(6528 -2195)">
    <path id="Path_11193" data-name="Path 11193" d="M487.58,474.957c-.273-6.392,1.871-8.518,7.212-6.934a5.7,5.7,0,0,1-.6-3.41,4.735,4.735,0,0,1,7.727-2.756c1.262,1.08,2.363,2.348,3.558,3.553.254-.324.114-.625.051-.915a4.741,4.741,0,0,1,7.994-4.556c2.138,2.087,4.228,4.223,6.341,6.336q3.417,3.417,6.838,6.829a18.1,18.1,0,0,1,5.542,13.446c-.012,1.862-.436,3.924.22,5.529.637,1.557,2.414,2.65,3.7,3.937,2.9,2.907,5.795,5.825,8.729,8.7.62.607.722.946.035,1.626q-9.355,9.265-18.619,18.621c-.7.7-1.026.549-1.624-.056-3.872-3.92-7.8-7.786-11.658-11.716a2.9,2.9,0,0,0-2.321-.941c-3.22.03-6.453.13-9.658-.1a17.767,17.767,0,0,1-10.521-4.735c-2.7-2.375-5.469-4.655-9.068-5.612a21.013,21.013,0,0,0-5.1-.738,4.4,4.4,0,0,1-4.446-3.142,4.341,4.341,0,0,1,2.019-5.05,15.511,15.511,0,0,1,15.787-1.561c.281.121.531.412.9.159-.117-.556-.616-.794-.976-1.129q-11.177-10.4-22.368-20.78c-2.638-2.452-3.011-5.165-1.051-7.324,1.553-1.711,4.772-2.365,7.571.336,4.164,4.018,8.507,7.851,12.784,11.752C486.859,474.584,487.06,475.037,487.58,474.957Zm3.322,16.582c-.033.035-.092.073-.086.1a.847.847,0,0,0,.087.183c.031-.03.091-.067.086-.089A.877.877,0,0,0,490.9,491.539Z" transform="translate(-6941.397 1785.807)" fill="#e64934"/>
    <path id="Path_11194" data-name="Path 11194" d="M429.349,433.345c-9.856,3.316-11.717,7.889-10.764,12.944-4.729,0-9.438-.007-14.146.006-.876,0-.629-.635-.667-1.086-.278-3.349-.5-6.7-.816-10.047a7.454,7.454,0,0,0-14.63-1.278,37.146,37.146,0,0,1-1.379,4.38v-1.29q0-30.4-.031-60.792c0-1.282.323-1.589,1.592-1.585q23.112.07,46.224,0c1.336,0,1.562.4,1.557,1.62-.044,12.093-.024,24.186-.037,36.279,0,.48.28,1.165-.3,1.391-.462.181-.751-.45-1.082-.746-1.771-1.59-4.212-2.906-5.079-4.9-.891-2.048-.241-4.768-.255-7.193-.01-1.827,0-1.828-1.82-1.828-3.549,0-7.1.023-10.645-.018-.787-.009-1.1.2-.995,1,.05.367-.015.748.013,1.119a6.12,6.12,0,0,1-2.04,5.568c-3.693,3.438-3.206,9.218.641,12.829,4.493,4.218,9.029,8.39,13.545,12.582C428.579,432.611,428.913,432.933,429.349,433.345ZM400.48,381.284c-1.961,0-3.922.029-5.881-.016-.711-.016-.96.157-.944.915.051,2.38.044,4.762,0,7.142-.012.713.16.95.916.943q5.811-.06,11.623,0c.709.006.96-.156.944-.915-.051-2.379-.044-4.762,0-7.141.012-.712-.159-.965-.916-.943C404.309,381.321,402.394,381.284,400.48,381.284Zm22.35,0c-1.961,0-3.922.024-5.881-.014-.65-.013-.888.141-.875.84.042,2.427.037,4.855,0,7.282-.009.651.145.88.841.874q5.882-.05,11.763,0c.649,0,.887-.141.875-.84-.042-2.427-.058-4.856.007-7.281.022-.841-.355-.876-.99-.867C426.658,381.3,424.744,381.284,422.83,381.284Zm-22.432,26.9c1.961,0,3.922-.028,5.881.015.674.015.869-.183.858-.857q-.058-3.64,0-7.282c.011-.674-.186-.862-.858-.857q-5.881.045-11.763,0c-.672-.005-.869.182-.858.857q.058,3.64,0,7.282c-.011.674.185.872.858.857C396.476,408.155,398.437,408.182,400.4,408.182Zm.021,8.968c-1.961,0-3.922.024-5.881-.014-.643-.012-.893.13-.88.835.043,2.427.037,4.855,0,7.282-.009.644.133.885.836.879q5.881-.051,11.763,0c.642,0,.893-.129.88-.835-.043-2.427-.058-4.856.006-7.281.022-.832-.342-.882-.985-.873C404.246,417.167,402.332,417.15,400.418,417.15Z" transform="translate(-6892.531 1838.338)" fill="#fedc92"/>
    <path id="Path_11195" data-name="Path 11195" d="M335.982,503.882v1.3c0,9.707-.017,19.415.011,29.122a6.394,6.394,0,0,0,10.388,5,7.235,7.235,0,0,0,1.985-2.664c3.064-6.074,4.829-12.578,6.385-19.153.118-.5.216-1,.377-1.488a3.014,3.014,0,0,1,3.074-2.162,2.909,2.909,0,0,1,2.758,2.679c.311,3.109.536,6.227.781,9.343.352,4.465.68,8.931,1.036,13.395a38.766,38.766,0,0,1-3.393,18.785.941.941,0,0,1-1.052.628c-7.42-.012-14.841-.025-22.261.015-.822,0-.953-.458-1.219-1.009-3.293-6.811-4.455-14.171-5.592-21.541-.646-4.19-1.42-8.362-2.016-12.558a19.31,19.31,0,0,1,4.681-15.838A51.632,51.632,0,0,1,335.982,503.882Z" transform="translate(-6855.025 1757.353)" fill="#e64934"/>
    <path id="Path_11196" data-name="Path 11196" d="M362.994,377.927q0-21.852,0-43.7c0-4.927,2.677-7.589,7.628-7.592,2.988,0,5.978.055,8.964-.029,1.118-.031,1.383.3,1.369,1.384-.052,3.917,1.69,6.44,4.912,7.378a8.827,8.827,0,0,0,2.5.229q8.264.012,16.529,0c4.755-.01,7.458-2.7,7.379-7.492-.021-1.275.341-1.535,1.542-1.5,3.173.089,6.349.01,9.524.036a6.613,6.613,0,0,1,6.146,3.67c.341.627.331.873-.486,1.105a9.822,9.822,0,0,0-7.432,7.886c-.192.93-.742.78-1.324.78q-7.354.006-14.708,0c-12.187,0-24.374.019-36.56-.03-1.215-.005-1.531.257-1.529,1.509q.063,39.712.057,79.424a6.346,6.346,0,0,1-.908,3.162,1.792,1.792,0,0,1-2.118.981A1.845,1.845,0,0,1,363,423.312c-.021-.419-.009-.84-.009-1.26Q362.994,399.989,362.994,377.927Z" transform="translate(-6877.554 1868.402)" fill="#feba26"/>
    <path id="Path_11197" data-name="Path 11197" d="M558.026,350.487q10.226,0,20.452,0c4.588,0,7.138,3.22,6.064,7.682-.806,3.35-1.655,6.691-2.509,10.029a5.792,5.792,0,0,1-6.083,4.7c-5,.009-9.993.035-14.988-.022a4.165,4.165,0,0,0-2.794.958c-2.241,1.752-4.536,3.437-6.819,5.134-.508.377-.987.891-1.748.468-.732-.408-.616-1.077-.619-1.719-.005-1.307-.05-2.617.017-3.921.04-.773-.25-.918-.949-.909-2.755.036-5.51.033-8.265.009a5.747,5.747,0,0,1-5.9-4.582c-.917-3.563-1.806-7.134-2.645-10.717a5.67,5.67,0,0,1,5.631-7.1C543.924,350.463,550.975,350.487,558.026,350.487Z" transform="translate(-6982.801 1853.444)" fill="#00a651"/>
    <path id="Path_11198" data-name="Path 11198" d="M430.342,600.793a38.448,38.448,0,0,0,1.219-5.83c.062-.674.4-.82,1.015-.8,1.352.039,2.706.035,4.058.006a6.77,6.77,0,0,0,6.6-5.735c.335-2.088-.606-3.213-2.724-3.222-2.519-.011-5.04-.039-7.558.018-.849.019-1.128-.222-1.148-1.08-.038-1.63-.18-3.259-.331-4.884-.058-.619.12-.8.737-.792q7.908.031,15.816,0a2.01,2.01,0,0,1,1.234.551,8.692,8.692,0,0,0,5.221,1.7,13.766,13.766,0,0,1,9.225,3.416c2.556,2.168,5.065,4.414,8.2,5.749.336.143.548.311.527.706-.094,1.717.211,3.453-.217,5.155a6.581,6.581,0,0,1-6.358,5.131c-11.711.034-23.421.014-35.132.01A2.112,2.112,0,0,1,430.342,600.793ZM456.77,585.2c-4.976-.288-4.586,1.215-4.493,4.712a4.466,4.466,0,0,0,8.918.061C461.3,586.542,461.757,584.9,456.77,585.2Z" transform="translate(-6919.726 1710.632)" fill="#feba26"/>
    <path id="Path_11200" data-name="Path 11200" d="M434.043,326.633c3.315,0,6.632.037,9.946-.023.944-.017,1.156.275,1.147,1.175-.028,2.678-.62,3.338-3.25,3.339q-8.055,0-16.111,0c-2.534,0-3.734-1.608-3.095-4.043.174-.662.635-.434.995-.436C427.131,326.626,430.587,326.633,434.043,326.633Z" transform="translate(-6914.825 1868.396)" fill="#feba26"/>
    <path id="Path_11201" data-name="Path 11201" d="M531.142,433.314V410.923a11.287,11.287,0,0,0,4.057,3.28c.438.18.375.586.375.958q0,5.94,0,11.881c0,.366.069.746-.324,1A11.028,11.028,0,0,0,531.142,433.314Z" transform="translate(-6982.86 1815.582)" fill="#feba26"/>
    <path id="Path_11202" data-name="Path 11202" d="M534.226,547a.878.878,0,0,1,.087.19c0,.022-.056.059-.086.089a.846.846,0,0,1-.087-.183C534.134,547.077,534.193,547.039,534.226,547Z" transform="translate(-6984.737 1730.341)" fill="#fdfdfd"/>
    <rect id="Rectangle_2091" data-name="Rectangle 2091" width="37" height="6" rx="1" transform="translate(-6443 2208)" fill="#fff"/>
    <rect id="Rectangle_2092" data-name="Rectangle 2092" width="27" height="6" rx="1" transform="translate(-6443 2217)" fill="#fff"/>
    <rect id="Rectangle_2093" data-name="Rectangle 2093" width="6" height="6" rx="1" transform="translate(-6412 2217)" fill="#fff"/>
    <path id="Rectangle_2094" data-name="Rectangle 2094" d="M4,0H19a4,4,0,0,1,4,4V4a1,1,0,0,1-1,1H1A1,1,0,0,1,0,4V4A4,4,0,0,1,4,0Z" transform="translate(-6519 2320)" fill="#e64934"/>
  </g>
</svg>
