<svg xmlns="http://www.w3.org/2000/svg" width="614" height="710" viewBox="0 0 614 710">
  <g id="Group_6465" data-name="Group 6465" transform="translate(-28 -199)">
    <path id="Path_3677" data-name="Path 3677" d="M113.029,184.463c41.52-61.957,116.381-94.928,177.765-103.09a371.078,371.078,0,0,1,54.142-3.015c178.225,2.491,270.3,103.411,258.926,152s-43.608,78.494,2.845,145.774,58.653,168.2,32.109,269.12S499.752,783.517,346.107,786.594,80.444,798.5,47.264,705.059,86.64,547.5,96.813,467.423c6.31-49.649-19.885-99.7-21.073-149.223C74.459,264.7,89.157,220.086,113.029,184.463Z" transform="translate(-10.641 120.684)" fill="#fff7e6"/>
    <text id="Contact_Us" data-name="Contact Us" transform="translate(347 285)" font-size="38" font-family="SegoeUI-Bold, Segoe UI" font-weight="700" letter-spacing="0.004em"><tspan x="-97" y="0">Contact Us</tspan></text>
    <text id="Let_s_get_to_know_each_other" data-name="Let&apos;s get to know each other" transform="translate(346 335)" fill="#393939" font-size="27" font-family="SegoeUI, Segoe UI" letter-spacing="0.004em"><tspan x="-170" y="0">Let&apos;s get to know each other</tspan></text>
    <g id="Group_5838" data-name="Group 5838" transform="translate(-10665.361 -341.111)">
      <path id="Path_13196" data-name="Path 13196" d="M596.079,311.383c-9.093-1.6-18.934-28.106-2-36.986s22.644-13.587,26.183-34.27,15.579-10.866,12.867,1.24,15.365,10.6,19.137,16.376c6.536,10.006-7.921,11.6-16.2,17.3s6.5,9.593.62,19.23S611.584,314.113,596.079,311.383Z" transform="translate(10643.448 881.996)" fill="#9adbba"/>
      <path id="Path_13197" data-name="Path 13197" d="M594.7,309.418c.845-.993,18.054-29.841,28.457-43.68" transform="translate(10644.077 883.445)" fill="none" stroke="#fff" stroke-width="1"/>
      <line id="Line_1" data-name="Line 1" y1="5.148" x2="22.163" transform="translate(11248.133 1172.686)" fill="none" stroke="#fff" stroke-width="1.177"/>
      <line id="Line_2" data-name="Line 2" y1="13.277" x2="0.455" transform="translate(11257.164 1150.546)" fill="none" stroke="#fff" stroke-width="1"/>
      <path id="Path_13198" data-name="Path 13198" d="M600.284,323.635s-5.1-9.96,3.609-16.344,12.565-14.589,7.6-22.13-17.727-2.84-23.121-6.445-3.075-11.319-7.5-19.662c-5.927-11.182-17.4-8.23-20.083-6.5s-7.441,7-1.215,17.147,1.637,13.7-3.318,21.663,3.729,11.057,17.827,13.747,16.532,20.005,16.532,20.005l9.671-1.477" transform="translate(10642.512 882.57)" fill="#7fd2a8"/>
      <path id="Path_13199" data-name="Path 13199" d="M596.126,333.17s2.117-37.562-28.685-71.888" transform="translate(10643.085 883.044)" fill="none" stroke="#fff" stroke-width="1"/>
      <path id="Path_13200" data-name="Path 13200" d="M590.365,299.471s-8.033-11.06-27.326-9.163" transform="translate(10643.721 885.657)" fill="none" stroke="#fff" stroke-width="1"/>
      <path id="Path_13201" data-name="Path 13201" d="M591.256,305.907s-3.949-15.915,12.189-21.061" transform="translate(10643.966 883.447)" fill="none" stroke="#fff" stroke-width="1"/>
      <path id="Path_13202" data-name="Path 13202" d="M628.913,317.456c16.148,4.084,16.539-9.988,6.645-17.835-6.184-4.906,6.441-7.524,11.33-12.291,8.4-8.195-5.072-18.5-12.06-11.318s-11.323,9.381-16.414,10.008-19.46.782-18.22,9.923c.773,5.7-4.153,10.562-3.481,16.271C611.647,307.162,620.5,315.328,628.913,317.456Z" transform="translate(10643.985 883.743)" fill="#00a651"/>
      <path id="Path_13203" data-name="Path 13203" d="M596.711,311.612s21.621-16.229,39.347-24.777" transform="translate(10644.109 884.346)" fill="none" stroke="#fff" stroke-width="1"/>
      <line id="Line_3" data-name="Line 3" y1="12.447" x2="2.026" transform="translate(11257.452 1172)" fill="none" stroke="#fff" stroke-width="1"/>
      <line id="Line_4" data-name="Line 4" x2="22.931" y2="0.068" transform="translate(11252.984 1187.36)" fill="none" stroke="#fff" stroke-width="1"/>
      <path id="Path_13204" data-name="Path 13204" d="M614.424,336.709h-23.63l-5.5-23.619h34.632Z" transform="translate(10643.69 885.403)"/>
      <rect id="Rectangle_2136" data-name="Rectangle 2136" width="42.028" height="9.507" transform="translate(11225.285 1192.569)" fill="#393939"/>
    </g>
    <g id="Group_5895" data-name="Group 5895" transform="translate(-308 -341)">
      <circle id="Ellipse_412" data-name="Ellipse 412" cx="24" cy="24" r="24" transform="translate(358 872)" fill="#393939"/>
      <circle id="Ellipse_413" data-name="Ellipse 413" cx="19" cy="19" r="19" transform="translate(363 877)" fill="#fff"/>
      <line id="Line_5" data-name="Line 5" y1="11" transform="translate(382 884)" fill="none" stroke="#393939" stroke-linecap="round" stroke-linejoin="round" stroke-width="0.978"/>
      <line id="Line_6" data-name="Line 6" x2="7" y2="4" transform="translate(382 896)" fill="none" stroke="#393939" stroke-linecap="round" stroke-linejoin="round" stroke-width="0.978"/>
      <line id="Line_7" data-name="Line 7" y1="2" transform="translate(382 911)" fill="none" stroke="#393939" stroke-linecap="round" stroke-linejoin="round" stroke-width="0.684"/>
      <line id="Line_8" data-name="Line 8" x1="2" y1="2" transform="translate(390.069 908.707)" fill="none" stroke="#393939" stroke-linecap="round" stroke-linejoin="round" stroke-width="0.684"/>
      <line id="Line_9" data-name="Line 9" x1="2" y1="1" transform="translate(395 904)" fill="none" stroke="#393939" stroke-linecap="round" stroke-linejoin="round" stroke-width="0.684"/>
      <line id="Line_10" data-name="Line 10" x1="2" transform="translate(397 896)" fill="none" stroke="#393939" stroke-linecap="round" stroke-linejoin="round" stroke-width="0.684"/>
      <line id="Line_11" data-name="Line 11" x1="2" y2="1" transform="translate(395 888)" fill="none" stroke="#393939" stroke-linecap="round" stroke-linejoin="round" stroke-width="0.684"/>
      <line id="Line_12" data-name="Line 12" x1="2" y2="2" transform="translate(390.069 881.704)" fill="none" stroke="#393939" stroke-linecap="round" stroke-linejoin="round" stroke-width="0.684"/>
      <line id="Line_13" data-name="Line 13" y1="2" transform="translate(382 879)" fill="none" stroke="#393939" stroke-linecap="round" stroke-linejoin="round" stroke-width="0.684"/>
      <line id="Line_14" data-name="Line 14" x1="2" y1="2" transform="translate(374.479 881.704)" fill="none" stroke="#393939" stroke-linecap="round" stroke-linejoin="round" stroke-width="0.684"/>
      <line id="Line_15" data-name="Line 15" x1="2" y1="1" transform="translate(368 888)" fill="none" stroke="#393939" stroke-linecap="round" stroke-linejoin="round" stroke-width="0.684"/>
      <line id="Line_16" data-name="Line 16" x1="2" transform="translate(365 896)" fill="none" stroke="#393939" stroke-linecap="round" stroke-linejoin="round" stroke-width="0.684"/>
      <line id="Line_17" data-name="Line 17" x1="2" y2="1" transform="translate(368 904)" fill="none" stroke="#393939" stroke-linecap="round" stroke-linejoin="round" stroke-width="0.684"/>
      <line id="Line_18" data-name="Line 18" x1="2" y2="2" transform="translate(374.479 908.707)" fill="none" stroke="#393939" stroke-linecap="round" stroke-linejoin="round" stroke-width="0.684"/>
      <circle id="Ellipse_414" data-name="Ellipse 414" cx="1" cy="1" r="1" transform="translate(381 895)" fill="#393939" stroke="#393939" stroke-width="1"/>
    </g>
    <g id="Group_5900" data-name="Group 5900" transform="translate(-68.998 -75)">
      <path id="Path_13211" data-name="Path 13211" d="M577.746,189.021s2.632-11.627-8.556-21.608-28.477-9.071-37.956-3.867c-12.285,6.746-24.345,24.6-13.322,50.1s-39.486,14.972-22.54,49.522,46.232,10.7,56.761,25.009,46.98-23.214,15.84-49.449S575.388,212.6,577.746,189.021Z" transform="translate(-353.401 575.839)"/>
      <path id="Path_13212" data-name="Path 13212" d="M481.922,244.092c12.782,5.448,23.364,37.838,24.352,106.94H478.728S461.992,235.6,481.922,244.092Z" transform="translate(-254.728 596.893)" fill="#4f6cb6"/>
      <path id="Path_13213" data-name="Path 13213" d="M534.172,235.847c-15.106-1.491-39.731,1.018-48.581,10.791-1.953,2.157-1.963,6.2-.916,11.783,3.7,19.743,20.586,58.813,11.609,102.407H574.93s-7.459-34.066-3.291-44.814c4.766-12.29,8.89-23.4,4.2-33.662-10.684-23.374-1.116-33.051-7.886-36.43A98.308,98.308,0,0,0,534.172,235.847Z" transform="translate(-341.153 594.836)" fill="#708cd5"/>
      <path id="Path_13214" data-name="Path 13214" d="M529.389,288.479c3.29,19.086,25.392,21.444,36.47,17.714,0,0-16.124,9.762-27.75,4.278,0,0-2.962,9.323,1.466,38.643h-14.46s0-.059.009-.15a146.109,146.109,0,0,0-.427-43.336,61.414,61.414,0,0,0-1.545-8.924l-.021-.081c-1.833-9.348-4.125-17.892-6.183-25.352a83.284,83.284,0,0,1-1.215-15.038A78.69,78.69,0,0,1,529.389,288.479Z" transform="translate(-368.826 600.051)" fill="#4f6cb6"/>
      <path id="Path_13215" data-name="Path 13215" d="M515.432,314.762s13.737,16.873,20.381,12.3c8.8-6.052,16.036-5.943,21.849-2.471A21.314,21.314,0,0,1,566,334.429H518.847l-13.724-11.877Z" transform="translate(-355.693 614.735)" fill="#f4ae98"/>
      <path id="Path_13216" data-name="Path 13216" d="M559.225,245.619s-12.122,31.663-22.517,57.547c-8.391,20.895,42.209,49.369,42.209,49.369l8.356-11.2-29.141-32.3,17.823-37.581s10.332-20.5-5.354-27.764C561.874,239.647,559.225,245.619,559.225,245.619Z" transform="translate(-415.303 596.551)" fill="#708cd5"/>
      <path id="Path_13217" data-name="Path 13217" d="M511.664,211.118s1.906,24-3.852,30.273c-7.4,8.062,5.594,25.447,25.118,38.609,0,0,10.914-12.12,2.358-31.863s-.263-30.895-.263-30.895Z" transform="translate(-328.988 588.732)" fill="#f4ae98"/>
      <path id="Path_13218" data-name="Path 13218" d="M494.174,208.805c0,16.447,11.587,29.765,21.376,29.765s22.021-10.938,23.667-31.175c1.332-16.393-7.5-28.37-20.857-28.37S494.174,192.358,494.174,208.805Z" transform="translate(-315.35 580.68)" fill="#ffb99f"/>
      <path id="Path_13219" data-name="Path 13219" d="M526.205,176.687c1.375.793,4.354,2.724,7.827,5.035,3.781,2.518,7.812,6.879,9.2,11.65,2.38,8.193-3.649,18.573-15.641,14.908s-17.723-22.9-27.453-11.782c-12.092,13.821-16.48,6.118-16.48,6.118s2.426-17.207,14.679-24.952C504.9,173.514,514.8,170.106,526.205,176.687Z" transform="translate(-306.587 579.166)"/>
      <g id="Group_5837" data-name="Group 5837" transform="translate(-10670 -88)">
        <path id="Path_13222" data-name="Path 13222" d="M515.348,200.632s-1.975,21.956,18.207,24.04" transform="translate(10334.026 674.101)" fill="none" stroke="#00a651" stroke-width="1"/>
        <g id="Group_5836" data-name="Group 5836">
          <path id="Path_13220" data-name="Path 13220" d="M525.419,200.045c0,5.365,3.171,9.714,7.084,9.714s7.084-4.349,7.084-9.714-3.171-9.714-7.084-9.714S525.419,194.68,525.419,200.045Z" transform="translate(10315.33 671.516)" fill="#00a651"/>
          <path id="Path_13221" data-name="Path 13221" d="M514.1,172.32c10.9-2.1,21.4,2.019,27.319,9.707a31.659,31.659,0,0,0-23.849-4.713c-14.473,2.787-24.724,14.542-25.064,27.593a23.283,23.283,0,0,1-.665-2.609C489.208,188.616,499.174,175.195,514.1,172.32Z" transform="translate(10356.024 666.861)" fill="#00a651"/>
          <path id="Path_13223" data-name="Path 13223" d="M512.074,222.352h3.181a1.865,1.865,0,0,0,1.864-1.865h0a1.865,1.865,0,0,0-1.864-1.865h-3.181a1.865,1.865,0,0,0-1.865,1.865h0A1.865,1.865,0,0,0,512.074,222.352Z" transform="translate(10356.824 678.615)" fill="#00a651"/>
        </g>
      </g>
      <g id="Group_5831" data-name="Group 5831" transform="translate(148.85 949.087)">
        <rect id="Rectangle_2137" data-name="Rectangle 2137" width="120.341" height="6.578" rx="2.317" fill="#feba26"/>
      </g>
      <path id="Path_13224" data-name="Path 13224" d="M406.688,352.017H512.475a6.838,6.838,0,0,0,6.426-4.5l24.666-67.772a6.838,6.838,0,0,0-6.426-9.178H431.355a6.84,6.84,0,0,0-6.426,4.5l-24.668,67.773A6.838,6.838,0,0,0,406.688,352.017Z" transform="translate(-201.988 603.647)" fill="#f4b426"/>
      <path id="Path_13225" data-name="Path 13225" d="M542.581,271.016c-.4,40.056-54.043,72.454-120.169,72.454-6.483,0-12.844-.315-19.049-.914l24.564-67.488a6.84,6.84,0,0,1,6.426-4.5H540.139A6.829,6.829,0,0,1,542.581,271.016Z" transform="translate(-204.985 603.647)" fill="#feba26"/>
      <path id="Path_13226" data-name="Path 13226" d="M449.794,303.653a8.007,8.007,0,1,0,8.007-8.007A8.006,8.006,0,0,0,449.794,303.653Z" transform="translate(-186.293 609.939)" fill="#fedc92"/>
    </g>
    <g id="Group_5901" data-name="Group 5901" transform="translate(358.073 -247.785)">
      <path id="Path_13227" data-name="Path 13227" d="M555.438,133.4a18.887,18.887,0,1,1,3.628,29.542,2.8,2.8,0,0,0-2.24-.27l-4.776,1.421a.477.477,0,0,1-.594-.594l1.421-4.776a2.809,2.809,0,0,0-.274-2.248A18.888,18.888,0,0,1,555.438,133.4Z" transform="translate(-317.723 559.032)" fill="#fedc92"/>
      <circle id="Ellipse_415" data-name="Ellipse 415" cx="3.049" cy="3.049" r="3.049" transform="translate(237.531 702.736)" fill="#fff"/>
      <circle id="Ellipse_416" data-name="Ellipse 416" cx="3.049" cy="3.049" r="3.049" transform="translate(248.008 702.736)" fill="#fff"/>
      <circle id="Ellipse_417" data-name="Ellipse 417" cx="3.049" cy="3.049" r="3.049" transform="translate(258.483 702.736)" fill="#fff"/>
    </g>
    <rect id="Rectangle_2138" data-name="Rectangle 2138" width="588" height="18" rx="9" transform="translate(50 881)"/>
    <rect id="Rectangle_2139" data-name="Rectangle 2139" width="568" height="10" rx="5" transform="translate(60 899)" fill="#393939"/>
    <g id="Group_5896" data-name="Group 5896" transform="translate(-76 -256)">
      <path id="Path_13244" data-name="Path 13244" d="M452.88,135.031a16.991,16.991,0,0,1,14.7,28.915l2.295,4.659-5.15-2.406a17,17,0,1,1-11.843-31.168Z" transform="translate(-229.707 502.209)" fill="#f8c8c1"/>
      <path id="Path_13245" data-name="Path 13245" d="M462.882,159.408l1.715-2.047a1.854,1.854,0,0,0-.237-2.62l-1.975-1.64a1.874,1.874,0,0,0-2.631.236s-.912,1.366-1.983,1.122c-1.218-.277-3.866-2.2-5.291-3.693-1-1.05.684-2.9.684-2.9a1.856,1.856,0,0,0-.238-2.62l-1.975-1.64a1.873,1.873,0,0,0-2.631.237l-1.715,2.046C442.741,150.5,459.515,163.427,462.882,159.408Z" transform="translate(-230.031 502.828)" fill="#fff"/>
    </g>
    <g id="Group_5899" data-name="Group 5899" transform="translate(-229.939 -114.385)">
      <path id="Path_13248" data-name="Path 13248" d="M611.314,183.7l-30.258-16.192,7.968-23.652,36.828,19.067Z" transform="translate(-17.688 771.13)" fill="#1c1c1c"/>
      <path id="Path_13249" data-name="Path 13249" d="M625.851,162.927,589.023,143.86l26.252-5.605Z" transform="translate(-17.688 771.13)" fill="#1c1c1c"/>
      <rect id="Rectangle_2140" data-name="Rectangle 2140" width="33.199" height="28.043" transform="translate(575.871 914.98) rotate(27.373)" fill="#fff"/>
      <path id="Path_13250" data-name="Path 13250" d="M589.023,143.86l-12.4,23.943L600.8,166.21Z" transform="translate(-17.688 771.13)" fill="#393939"/>
      <path id="Path_13251" data-name="Path 13251" d="M625.851,162.927l-12.4,23.943L600.8,166.21Z" transform="translate(-17.688 771.13)" fill="#393939"/>
      <path id="Path_13252" data-name="Path 13252" d="M613.454,186.87,576.627,167.8l28.006-8.872Z" transform="translate(-17.688 771.13)" fill="#e6f1fc" style="mix-blend-mode: multiply;isolation: isolate"/>
      <path id="Path_13253" data-name="Path 13253" d="M613.454,186.87,576.627,167.8l26.252-5.606Z" transform="translate(-17.688 771.13)" fill="#4e4e4e"/>
    </g>
    <g id="Group_5898" data-name="Group 5898" transform="translate(-24 -152)">
      <path id="Path_13282" data-name="Path 13282" d="M535.485,170.313l-155,135.574V492.313h310V305.887Z" transform="translate(-95.485 352.687)" fill="#f2b021"/>
      <rect id="Rectangle_2142" data-name="Rectangle 2142" width="278" height="255" rx="10" transform="translate(301 574)" fill="#fedc92"/>
      <rect id="Rectangle_2143" data-name="Rectangle 2143" width="246" height="19" rx="9.5" transform="translate(317 590)" fill="#fff"/>
      <rect id="Rectangle_2144" data-name="Rectangle 2144" width="246" height="19" rx="9.5" transform="translate(317 619)" fill="#fff"/>
      <rect id="Rectangle_2145" data-name="Rectangle 2145" width="246" height="130" rx="10" transform="translate(317 648)" fill="#fff"/>
      <text id="EMAIL" transform="translate(327 631)" font-size="7" font-family="OpenSans-Bold, Open Sans" font-weight="700" letter-spacing="0.108em"><tspan x="0" y="0">EMAIL</tspan></text>
      <text id="MESSAGE" transform="translate(327 665)" font-size="7" font-family="OpenSans-Bold, Open Sans" font-weight="700" letter-spacing="0.108em"><tspan x="0" y="0">MESSAGE</tspan></text>
      <path id="Path_13283" data-name="Path 13283" d="M535.485,383.107l-155-118.93v168h310v-168Z" transform="translate(-95.485 395.823)" fill="#ebaf26" opacity="0.5"/>
      <path id="Path_13284" data-name="Path 13284" d="M535.485,401.486l-155-137.309v186h310v-186Z" transform="translate(-95.485 395.823)" fill="#feba26"/>
      <path id="Path_13285" data-name="Path 13285" d="M535.485,292.189l-155,146h310Z" transform="translate(-95.485 407.811)" fill="#ebaf26" opacity="0.5"/>
      <path id="Path_13286" data-name="Path 13286" d="M535.485,302.039l-155,132h310Z" transform="translate(-95.485 411.961)" fill="#feba26"/>
      <text id="NAME" transform="translate(327 602)" font-size="7" font-family="OpenSans-Bold, Open Sans" font-weight="700" letter-spacing="0.108em"><tspan x="0" y="0">NAME</tspan></text>
    </g>
  </g>
</svg>
