<svg id="Layer_1" data-name="Layer 1" xmlns="http://www.w3.org/2000/svg" viewBox="0 0 600 150"><defs><style>.cls-1{fill:#171717;}</style></defs><path id="Path_325" data-name="Path 325" class="cls-1" d="M.69,74.16c2.45-9.86,20.46-15.41,32-14.79s21.92,5.85,31.89,10.91S85,80.5,96.54,80.89c13,.45,25.08-5.18,37.75-7.59,40-7.58,82.77,17,121.11,4.61,20-6.47,34.17-21.75,48.62-35.48s32.07-27.24,53.37-28.12c24.83-1,47.6,15.56,72.35,13.5,13.61-1.13,25.9-7.84,39.43-9.55,22.79-2.89,44.31,8.54,64.55,18.16s44.94,17.88,65.59,8.94V150H.7Z"/></svg>