<svg id="Layer_1" data-name="Layer 1" xmlns="http://www.w3.org/2000/svg" viewBox="0 0 400 400"><defs><style>.cls-1{fill:#fff7e7;}.cls-2{fill:#393939;}.cls-3{fill:#fff;}.cls-4{fill:#fdb926;}.cls-5{fill:#fedc92;}.cls-6{fill:#83cba6;}.cls-7{fill:#00a64f;}</style></defs><g id="Group_6384" data-name="Group 6384"><path id="Path_3677" data-name="Path 3677" class="cls-1" d="M61.33,101.59c22.56-24.34,57.81-37.3,91.16-40.51a277.85,277.85,0,0,1,29.42-1.18c96.83,1,125.16,40.63,119,59.73s-23.69,30.84,1.55,57.28S356,243,341.58,282.66,266,337,182.55,338.21s-144.35,4.67-162.38-32,21.4-61.92,26.93-93.39c3.42-19.51-5.38-39.17-6-58.63C40.38,133.12,48.36,115.59,61.33,101.59Z"/><g id="Group_3110" data-name="Group 3110"><path id="Rectangle_1779-2" data-name="Rectangle 1779-2" class="cls-2" d="M125,288.88H226a13.49,13.49,0,0,1,13.5,13.5h0a13.49,13.49,0,0,1-13.5,13.5H125a13.5,13.5,0,0,1-13.5-13.5h0A13.5,13.5,0,0,1,125,288.88Z"/></g><g id="Group_5718" data-name="Group 5718"><rect id="Rectangle_1772-2" data-name="Rectangle 1772-2" class="cls-3" x="64.49" y="186.88" width="223" height="72" rx="5"/><g id="Group_5717" data-name="Group 5717"><circle id="Ellipse_361" data-name="Ellipse 361" class="cls-4" cx="173.99" cy="223.38" r="7.5"/><ellipse id="Ellipse_376" data-name="Ellipse 376" class="cls-4" cx="228.49" cy="223.38" rx="7" ry="7.5"/><ellipse id="Ellipse_374" data-name="Ellipse 374" class="cls-4" cx="201.49" cy="223.38" rx="7" ry="7.5"/><circle id="Ellipse_375" data-name="Ellipse 375" class="cls-4" cx="255.99" cy="223.38" r="7.5"/></g><g id="Group_5921" data-name="Group 5921"><path id="Path_13320" data-name="Path 13320" class="cls-4" d="M141,216.48v21.63c-.14,0-.13.13-.16.21a4.73,4.73,0,0,1-4.88,3.24H94.21c-3,0-5-1.84-5-4.55V216.37l.18.08,21.05,12.66a8.5,8.5,0,0,0,9.34,0l20.88-12.55C140.72,216.51,140.8,216.31,141,216.48Z"/><path id="Path_13321" data-name="Path 13321" class="cls-4" d="M141,209.66s-.07,0-.08,0a5.06,5.06,0,0,1-2.68,3.05q-10,6-20,12.07a5.25,5.25,0,0,1-6.17,0L91.41,212.42a4,4,0,0,1-2-4.78,4.78,4.78,0,0,1,4.57-3.09c.49,0,1,0,1.46,0h40.37c2.77,0,4.44,1.18,5.13,3.6,0,0,0,0,.08,0Z"/></g></g><g id="Group_6381" data-name="Group 6381"><g id="Group_5956" data-name="Group 5956"><path id="Path_13369" data-name="Path 13369" class="cls-4" d="M74.1,167.88c-1.16-.34-2.33-.64-3.46-1A16.65,16.65,0,0,1,59.56,151.5c-.09-11.84-.11-23.69,0-35.53a16.77,16.77,0,0,1,16.28-16.4c1.54,0,3.1-.08,4.64,0,.88.05,1-.27,1-1,0-4.46,0-8.93,0-13.39a25,25,0,0,1,20.32-24.74,25.4,25.4,0,0,1,29.13,16.8,25.13,25.13,0,0,1,1.21,8c0,4.47,0,8.93,0,13.39,0,.87.27,1,1,1A38.5,38.5,0,0,1,141,100c2.73.57,4.25,2.6,3.76,5.13-.45,2.3-2.64,3.62-5.24,3.15a16,16,0,0,0-2.93-.26H77.1c-5.6,0-9.14,3.54-9.14,9.15v33.22c0,5.53,3.55,9.08,9.09,9.08H113.7c2.3,0,3.92,1.06,4.51,2.92a4.15,4.15,0,0,1-2.63,5.25l-.2.06c-.14,0-.28,0-.32.21Zm32.6-68.33c5.38,0,10.75,0,16.13,0,.69,0,.87-.18.86-.87,0-4.46,0-8.92,0-13.38A16.88,16.88,0,0,0,89.92,85c0,4.53,0,9.06,0,13.59,0,.82.24,1,1,1,5.27,0,10.55,0,15.82,0Z"/><path id="Path_13370" data-name="Path 13370" class="cls-4" d="M129,167.88c-.16-.32-.52-.29-.79-.42a4.23,4.23,0,1,1,3,.22c-.13,0-.27,0-.31.2Z"/><path id="Path_13371" data-name="Path 13371" class="cls-2" d="M125.82,147.73a11.83,11.83,0,0,1,2.49-8.3,10.57,10.57,0,0,1,3.91-3.07,6.71,6.71,0,0,0,4.09-4.69,6.47,6.47,0,1,0-12.59-3,.83.83,0,0,0,0,.15,13.54,13.54,0,0,0-.18,1.56,4.18,4.18,0,0,1-8.36-.26,14.86,14.86,0,1,1,22,13.07c-.56.29-1.12.57-1.65.91a2.75,2.75,0,0,0-1.25,2.5c0,1.15,0,2.3,0,3.45a4.18,4.18,0,1,1-8.35.06h0C125.8,149.41,125.82,148.68,125.82,147.73Z"/><path id="Path_13372" data-name="Path 13372" class="cls-4" d="M83.13,137.07a4.19,4.19,0,1,1,4.2-4.18,4.18,4.18,0,0,1-4.2,4.18Z"/><path id="Path_13373" data-name="Path 13373" class="cls-4" d="M103.17,132.88A4.18,4.18,0,1,1,99,128.7,4.18,4.18,0,0,1,103.17,132.88Z"/></g><g id="Group_5957" data-name="Group 5957"><path id="Path_13375" data-name="Path 13375" class="cls-2" d="M200.89,135.78h6.86V118H178.53v17.74h6.87V131h4.31v4.75h6.86V131h4.32Z"/><path id="Rectangle_2165" data-name="Rectangle 2165" class="cls-4" d="M253,109.21v9.34a.39.39,0,0,1-.39.39H178.08a5.06,5.06,0,0,1-5.05-5.06h0a5.06,5.06,0,0,1,5.05-5.06h74.48a.4.4,0,0,1,.39.39Z"/><ellipse id="Ellipse_422" data-name="Ellipse 422" class="cls-4" cx="265.49" cy="113.82" rx="26" ry="25.5"/><path id="Path_13376" data-name="Path 13376" class="cls-5" d="M285.72,106c-.18-.44-.38-.87-.59-1.29A1.65,1.65,0,0,0,283,104h0a1.68,1.68,0,0,0-.8,2.24l0,.05c.16.33.31.67.46,1a1.66,1.66,0,0,0,2.12.94l0,0a1.66,1.66,0,0,0,1-2.14Z"/><path id="Path_13377" data-name="Path 13377" class="cls-5" d="M287,113.88c0-.64,0-1.27-.08-1.89a1.67,1.67,0,0,0-1.82-1.5l-.3.06h0a1.67,1.67,0,0,0-1.2,1.76,18,18,0,0,1-.28,5.13,18.21,18.21,0,0,1-33.19,6.26,1.63,1.63,0,0,0-2.25-.52l-.06,0-.1.07a1.65,1.65,0,0,0-.45,2.2A21.57,21.57,0,0,0,287,113.88Z"/><circle id="Ellipse_424" data-name="Ellipse 424" class="cls-5" cx="271.68" cy="113.88" r="4.57"/></g></g><g id="Group_3108" data-name="Group 3108"><path id="Path_5178" data-name="Path 5178" class="cls-6" d="M354,292.38c.7-42.23-18.16-59.55-18.16-59.55-4.6,23.3,2.75,48.24,6.85,59.55Z"/><path id="Path_5179" data-name="Path 5179" class="cls-6" d="M364.12,292.3c20.57-28,17.25-50,17.25-50-17.77,14.81-26.95,39.4-30.15,49.56l.53.46Z"/><path id="Path_5180" data-name="Path 5180" class="cls-7" d="M376.34,292.25c17.54-17.74,21.15-32.07,21.15-32.07-21.66,8.74-32.3,22.92-37.8,32.07Z"/><path id="Path_5181" data-name="Path 5181" class="cls-7" d="M345.58,292.27c-6.72-30.36-23.09-39.52-23.09-39.52.35,15.71,7.53,30.72,12.67,39.52Z"/><path id="Path_5182" data-name="Path 5182" class="cls-7" d="M363.55,292.38c8.9-49.45-5.32-68.5-5.32-68.5-17,17.2-10.54,57.89-8.5,68.5Z"/><path id="Path_5183" data-name="Path 5183" class="cls-3" d="M359.62,292.07c-1.3-18.24-2.18-36.66-2.57-54.88a.38.38,0,0,0-.39-.38h0a.38.38,0,0,0-.38.4h0c.38,18.22,1.26,36.62,2.56,54.86Z"/><path id="Path_5184" data-name="Path 5184" class="cls-3" d="M348.1,292h.81a188.77,188.77,0,0,1-5.26-21.88L338,241.41a.4.4,0,0,0-.45-.31h0a.38.38,0,0,0-.3.45l5.69,28.7A190.27,190.27,0,0,0,348.1,292Z"/><path id="Path_5185" data-name="Path 5185" class="cls-3" d="M340.11,291.94c-4.69-10-9-20.23-12.75-30.56a.39.39,0,0,0-.73.26c3.74,10.25,8,20.39,12.63,30.3Z"/><path id="Path_5186" data-name="Path 5186" class="cls-3" d="M361.82,292c.73-1.38,1.43-2.79,2-4.23a75.84,75.84,0,0,0,2.79-8.57c.48-1.68,1-3.42,1.52-5.1A127.52,127.52,0,0,1,373,262.17c1.57-3.54,3.2-7.2,4.5-10.92a.4.4,0,0,0-.26-.49.39.39,0,0,0-.48.23c-1.28,3.7-2.9,7.34-4.47,10.86a126.43,126.43,0,0,0-4.85,12c-.56,1.7-1.05,3.44-1.53,5.13a76.28,76.28,0,0,1-2.76,8.48c-.65,1.54-1.4,3.05-2.2,4.53Z"/><path id="Path_5187" data-name="Path 5187" class="cls-3" d="M364.39,291.93c1.5-1.68,3.13-3.26,4.74-4.8l21.54-20.51a.39.39,0,0,0,0-.55.38.38,0,0,0-.55,0L368.6,286.57a73.76,73.76,0,0,0-5.24,5.36Z"/><path id="Path_5188" data-name="Path 5188" class="cls-2" d="M335,299.37l5.12,31.71a9.28,9.28,0,0,0,9.17,7.8h15.61a9.28,9.28,0,0,0,9.16-7.8l5.13-31.71Z"/><path id="Path_5189" data-name="Path 5189" d="M379.2,299.37H335l.71,4.39h34.06l-4.41,27.32a9.28,9.28,0,0,1-9.16,7.8h8.7a9.28,9.28,0,0,0,9.16-7.8l4.41-27.32h0Z"/><path id="Path_5190" data-name="Path 5190" class="cls-2" d="M379.87,290.35H334.69a4.63,4.63,0,0,0-4.61,4.62h0a4.63,4.63,0,0,0,4.61,4.62h45.18a4.63,4.63,0,0,0,4.61-4.62h0A4.63,4.63,0,0,0,379.87,290.35Z"/></g></g></svg>