<svg id="Layer_1" data-name="Layer 1" xmlns="http://www.w3.org/2000/svg" viewBox="0 0 600 600"><defs><style>.cls-1{fill:#fff7e7;}.cls-2,.cls-22,.cls-26,.cls-3,.cls-7{isolation:isolate;}.cls-3{font-size:31.31px;font-family:SegoeUI-Bold, Segoe UI;font-weight:700;letter-spacing:0em;}.cls-4{letter-spacing:-0.01em;}.cls-5{letter-spacing:0em;}.cls-6{letter-spacing:-0.02em;}.cls-7{font-size:22.25px;font-family:SegoeUI, Segoe UI;letter-spacing:0em;}.cls-13,.cls-7{fill:#393939;}.cls-8{fill:#fedc92;}.cls-9{fill:#fdb926;}.cls-10{fill:#e64934;}.cls-11{fill:#00a64f;}.cls-12{fill:#fff;}.cls-14{fill:#1b1b1b;}.cls-15{fill:#505150;}.cls-16{fill:#f2a499;}.cls-17{fill:#f9b384;}.cls-18{fill:#e58478;}.cls-19{fill:#748bc6;}.cls-20{fill:#142047;}.cls-21{fill:#e28a6c;}.cls-22,.cls-23{fill:#253e86;}.cls-22,.cls-26{opacity:0.4;}.cls-24{fill:#eeb023;}.cls-25{fill:none;stroke:#e28a6c;stroke-miterlimit:10;stroke-width:2.5px;}.cls-26{fill:#ed6e57;}.cls-27{fill:#83cba6;}</style></defs><path id="Path_3677" data-name="Path 3677" class="cls-1" d="M108.56,94.44c34.2-51,95.88-78.21,146.46-84.93A305,305,0,0,1,299.62,7C446.46,9.07,522.32,92.22,513,132.26S477,196.93,515.3,252.36s48.32,138.58,26.45,221.73S427.18,588,300.59,590.54,81.71,600.35,54.37,523.36,86.81,393.55,95.19,327.57c5.2-40.9-16.38-82.14-17.36-122.94C76.78,160.55,88.89,123.79,108.56,94.44Z"/><g id="Make_Payment" data-name="Make Payment" class="cls-2"><text class="cls-3" transform="translate(199.41 67.13)">Ma<tspan class="cls-4" x="47.06" y="0">k</tspan><tspan class="cls-5" x="64.25" y="0">e </tspan><tspan class="cls-6" x="90.07" y="0">P</tspan><tspan class="cls-5" x="108.65" y="0">ayment</tspan></text></g><g id="Let_s_get_to_know_each_other" data-name="Let s get to know each other" class="cls-2"><text class="cls-7" transform="translate(168.76 108.33)">Let&apos;s get to know each other</text></g><g id="Group_5801" data-name="Group 5801"><rect id="Rectangle_2106-2" data-name="Rectangle 2106-2" class="cls-8" x="151.08" y="137.99" width="402.06" height="265.3" rx="4.12"/><path id="Rectangle_2107" data-name="Rectangle 2107" class="cls-9" d="M155.2,138H549a4.11,4.11,0,0,1,4.12,4.12v37.07H151.08V142.11A4.11,4.11,0,0,1,155.2,138Z"/><circle id="Ellipse_405" data-name="Ellipse 405" class="cls-10" cx="171.68" cy="158.59" r="4.12"/><circle id="Ellipse_406" data-name="Ellipse 406" class="cls-11" cx="188.15" cy="158.59" r="4.12"/><circle id="Ellipse_407" data-name="Ellipse 407" cx="204.63" cy="158.59" r="4.12"/><path id="Path_13162" data-name="Path 13162" class="cls-9" d="M436.43,195.44a6.82,6.82,0,0,0-1.79.63l-1.9-2.16-2.32,2.14,1.82,2.06a7.18,7.18,0,0,0-1,1.83l-3.19-.17-.16,3.18,2.93.16a7.32,7.32,0,0,0,.73,2.59l-2.11,1.94,2.09,2.37,2-1.87a6.9,6.9,0,0,0,2.16,1.14l-.14,2.69,3.12.17.13-2.61a6.92,6.92,0,0,0,2.63-1l1.82,2.07,2.32-2.13-1.91-2.16a7.31,7.31,0,0,0,.81-1.75l3,.16.16-3.18-2.92-.16a7,7,0,0,0-.95-2.68l2-1.87-2.09-2.36-2.11,1.94a7,7,0,0,0-2.09-.93l.16-3-3.12-.16ZM440,200.5a3,3,0,0,1-.21,4.12,2.84,2.84,0,0,1-4-.16l-.05-.06a3,3,0,0,1,.21-4.12,2.83,2.83,0,0,1,4,.16l.05.06Z"/><path id="Path_13163" data-name="Path 13163" class="cls-12" d="M189.26,352.8a6.84,6.84,0,0,0-1.79.64l-1.9-2.16-2.32,2.13,1.82,2.07a6.86,6.86,0,0,0-1,1.83l-3.19-.17-.16,3.18,2.93.16a7.21,7.21,0,0,0,.73,2.58L182.29,365l2.09,2.37,2-1.87a6.9,6.9,0,0,0,2.16,1.14l-.14,2.69,3.11.17.14-2.61a6.92,6.92,0,0,0,2.63-1l1.82,2.07,2.32-2.13-1.91-2.16a7.2,7.2,0,0,0,.81-1.76l3,.16.16-3.18-2.92-.15a7.22,7.22,0,0,0-1-2.69l2-1.86-2.09-2.36-2.12,1.94a6.6,6.6,0,0,0-2.08-.93l.15-3-3.11-.17Zm3.52,5.06a3,3,0,0,1-.21,4.12,2.82,2.82,0,0,1-4-.16l-.05-.05a3,3,0,0,1,.21-4.12,2.82,2.82,0,0,1,4,.16l.05.05Z"/><g id="Group_5800" data-name="Group 5800"><g id="Group_5768" data-name="Group 5768"><g id="Group_5750" data-name="Group 5750"><path id="Path_13164" data-name="Path 13164" class="cls-9" d="M511.92,381.93a4.88,4.88,0,1,1-4.87-4.88A4.86,4.86,0,0,1,511.92,381.93Zm-1.53,0a3.35,3.35,0,1,0-3.34,3.35h0A3.35,3.35,0,0,0,510.39,381.93Z"/></g><g id="Group_5752" data-name="Group 5752"><g id="Group_5751" data-name="Group 5751"><path id="Path_13165" data-name="Path 13165" class="cls-9" d="M533.89,367.93a4.88,4.88,0,1,1-4.88-4.87A4.88,4.88,0,0,1,533.89,367.93Zm-1.53,0a3.35,3.35,0,1,0-3.35,3.35h0a3.35,3.35,0,0,0,3.35-3.35Z"/></g></g><g id="Group_5759" data-name="Group 5759"><g id="Group_5755" data-name="Group 5755"><g id="Group_5753" data-name="Group 5753"><path id="Path_13166" data-name="Path 13166" class="cls-9" d="M531.16,349.87a.76.76,0,0,0-.76.76h0V354a.77.77,0,0,0,1.53,0v-3.38A.76.76,0,0,0,531.16,349.87Z"/></g><g id="Group_5754" data-name="Group 5754"><path id="Path_13167" data-name="Path 13167" class="cls-9" d="M531.16,344a.77.77,0,0,0-.76.77h0v3.38a.77.77,0,0,0,.79.74.78.78,0,0,0,.74-.74v-3.38A.77.77,0,0,0,531.16,344Z"/></g></g><g id="Group_5758" data-name="Group 5758"><g id="Group_5756" data-name="Group 5756"><path id="Path_13168" data-name="Path 13168" class="cls-9" d="M535.9,348.6h-3a.77.77,0,0,0-.77.77.76.76,0,0,0,.77.76h3a.76.76,0,0,0,.76-.76.77.77,0,0,0-.76-.77Z"/></g><g id="Group_5757" data-name="Group 5757"><path id="Path_13169" data-name="Path 13169" class="cls-9" d="M529.46,348.6h-3a.78.78,0,0,0-.77.77.77.77,0,0,0,.77.76h3a.76.76,0,0,0,.76-.76.77.77,0,0,0-.76-.77Z"/></g></g></g><g id="Group_5767" data-name="Group 5767"><g id="Group_5766" data-name="Group 5766"><g id="Group_5762" data-name="Group 5762"><g id="Group_5760" data-name="Group 5760"><path id="Path_13170" data-name="Path 13170" class="cls-9" d="M504.27,362.37a.77.77,0,0,0-.77.77v3.38a.77.77,0,0,0,1.53,0v-3.38a.77.77,0,0,0-.76-.77Z"/></g><g id="Group_5761" data-name="Group 5761"><path id="Path_13171" data-name="Path 13171" class="cls-9" d="M504.27,356.47a.76.76,0,0,0-.77.77v3.37a.77.77,0,1,0,1.53,0v-3.37a.76.76,0,0,0-.76-.77Z"/></g></g><g id="Group_5765" data-name="Group 5765"><g id="Group_5763" data-name="Group 5763"><path id="Path_13172" data-name="Path 13172" class="cls-9" d="M509,361.11h-3a.77.77,0,1,0,0,1.53h3a.77.77,0,1,0,0-1.53Z"/></g><g id="Group_5764" data-name="Group 5764"><path id="Path_13173" data-name="Path 13173" class="cls-9" d="M502.56,361.11h-3a.77.77,0,1,0,0,1.53h3a.77.77,0,1,0,0-1.53Z"/></g></g></g></g></g></g><g id="Group_5795" data-name="Group 5795"><g id="Group_5789" data-name="Group 5789"><g id="Group_5770" data-name="Group 5770"><g id="Group_5769" data-name="Group 5769"><path id="Path_13174" data-name="Path 13174" class="cls-9" d="M184.51,209.58a4.88,4.88,0,1,1,4.87-4.87h0A4.87,4.87,0,0,1,184.51,209.58Zm0-1.53a3.35,3.35,0,1,0-3.35-3.34A3.35,3.35,0,0,0,184.51,208.05Z"/></g></g><g id="Group_5772" data-name="Group 5772"><g id="Group_5771" data-name="Group 5771"><path id="Path_13175" data-name="Path 13175" class="cls-9" d="M198.56,225.72a4.88,4.88,0,1,1,4.88-4.87A4.87,4.87,0,0,1,198.56,225.72Zm0-1.53a3.35,3.35,0,1,0-3.34-3.34A3.35,3.35,0,0,0,198.56,224.19Z"/></g></g><g id="Group_5779" data-name="Group 5779"><g id="Group_5775" data-name="Group 5775"><g id="Group_5773" data-name="Group 5773"><path id="Path_13176" data-name="Path 13176" class="cls-9" d="M211.08,201.16a.75.75,0,0,0-.76-.76H207a.77.77,0,1,0,0,1.53h3.37a.76.76,0,0,0,.76-.77Z"/></g><g id="Group_5774" data-name="Group 5774"><path id="Path_13177" data-name="Path 13177" class="cls-9" d="M217,201.16a.76.76,0,0,0-.77-.76h-3.37a.77.77,0,1,0,0,1.53h3.37a.76.76,0,0,0,.77-.77Z"/></g></g><g id="Group_5778" data-name="Group 5778"><g id="Group_5776" data-name="Group 5776"><path id="Path_13178" data-name="Path 13178" class="cls-9" d="M212.35,205.9v-3a.77.77,0,1,0-1.53,0v3a.77.77,0,0,0,1.53,0Z"/></g><g id="Group_5777" data-name="Group 5777"><path id="Path_13179" data-name="Path 13179" class="cls-9" d="M212.35,199.46v-3a.77.77,0,1,0-1.53,0v3a.77.77,0,0,0,1.53,0Z"/></g></g></g><g id="Group_5788" data-name="Group 5788"><g id="Group_5787" data-name="Group 5787"><g id="Group_5783" data-name="Group 5783"><g id="Group_5780" data-name="Group 5780"><path id="Path_13180" data-name="Path 13180" class="cls-9" d="M172.46,229.71a.76.76,0,0,0-.77-.77h-3.37a.77.77,0,0,0-.76.77.76.76,0,0,0,.76.76h3.37a.76.76,0,0,0,.77-.76Z"/></g><g id="Group_5782" data-name="Group 5782"><g id="Group_5781" data-name="Group 5781"><path id="Path_13181" data-name="Path 13181" class="cls-9" d="M178.36,229.71a.76.76,0,0,0-.76-.77h-3.38a.77.77,0,0,0-.76.77.76.76,0,0,0,.76.76h3.38a.76.76,0,0,0,.76-.76Z"/></g></g></g><g id="Group_5786" data-name="Group 5786"><g id="Group_5784" data-name="Group 5784"><path id="Path_13182" data-name="Path 13182" class="cls-9" d="M173.73,234.44v-3a.78.78,0,0,0-.74-.79.76.76,0,0,0-.79.74,0,0,0,0,0,0,0v3a.75.75,0,0,0,.73.79.76.76,0,0,0,.8-.74Z"/></g><g id="Group_5785" data-name="Group 5785"><path id="Path_13183" data-name="Path 13183" class="cls-9" d="M173.73,228v-3a.78.78,0,0,0-.8-.74.76.76,0,0,0-.73.74v3a.75.75,0,0,0,.73.79.76.76,0,0,0,.8-.74Z"/></g></g></g></g></g></g><path id="Rectangle_2128-2" data-name="Rectangle 2128-2" class="cls-13" d="M318.33,371.15h67.56a9.06,9.06,0,0,1,9.06,9.07h0a9.06,9.06,0,0,1-9.06,9.06H318.33a9.06,9.06,0,0,1-9.06-9.06h0A9.06,9.06,0,0,1,318.33,371.15Z"/><g id="Group_5797" data-name="Group 5797"><path id="Path_13184" data-name="Path 13184" class="cls-14" d="M357.05,228.51v109a11.54,11.54,0,0,1-23.07,0v-109a11.55,11.55,0,0,1,19.69-8.07A11.34,11.34,0,0,1,357.05,228.51Z"/><path id="Path_13185" data-name="Path 13185" class="cls-13" d="M357.05,228.71V337.28a11.42,11.42,0,0,1-7.82,10.8,11.42,11.42,0,0,1-7.83-10.8V228.71a11.42,11.42,0,0,1,7.83-10.8,11.43,11.43,0,0,1,7.82,10.8Z"/><path id="Path_13186-2" data-name="Path 13186-2" class="cls-9" d="M352.11,237.65v90.69a7.37,7.37,0,0,1-7.36,7.38H191.39a7.37,7.37,0,0,1-7.36-7.38h0V237.65a7.39,7.39,0,0,1,7.36-7.39H344.75A7.38,7.38,0,0,1,352.11,237.65Z"/><rect id="Rectangle_2116" data-name="Rectangle 2116" class="cls-15" x="184.03" y="249.53" width="168.17" height="20.03"/><rect id="Rectangle_2117" data-name="Rectangle 2117" class="cls-12" x="300.2" y="310.18" width="39.55" height="13.18" rx="3.49"/><rect id="Rectangle_2125" data-name="Rectangle 2125" class="cls-12" x="184.03" y="238.92" width="168.17" height="3.84"/><rect id="Rectangle_2126" data-name="Rectangle 2126" class="cls-12" x="192.27" y="306.89" width="20.6" height="20.6" rx="5.71"/><rect id="Rectangle_2127" data-name="Rectangle 2127" class="cls-12" x="221.11" y="313.48" width="72.5" height="6.59" rx="1.96"/><g id="Group_5796" data-name="Group 5796"><rect id="Rectangle_2118" data-name="Rectangle 2118" class="cls-12" x="197.22" y="285.47" width="13.18" height="7.42" rx="1.65"/><rect id="Rectangle_2129" data-name="Rectangle 2129" class="cls-12" x="218.64" y="285.47" width="13.18" height="7.42" rx="1.65"/><rect id="Rectangle_2130" data-name="Rectangle 2130" class="cls-12" x="240.06" y="285.47" width="13.18" height="7.42" rx="1.65"/><rect id="Rectangle_2131" data-name="Rectangle 2131" class="cls-12" x="261.48" y="285.47" width="13.18" height="7.42" rx="1.65"/><rect id="Rectangle_2132" data-name="Rectangle 2132" class="cls-12" x="282.9" y="285.47" width="13.18" height="7.42" rx="1.65"/><rect id="Rectangle_2133" data-name="Rectangle 2133" class="cls-12" x="304.32" y="285.47" width="13.18" height="7.42" rx="1.65"/><rect id="Rectangle_2134" data-name="Rectangle 2134" class="cls-12" x="325.74" y="285.47" width="13.18" height="7.42" rx="1.65"/></g></g><g id="Group_5798" data-name="Group 5798"><path id="Path_13187" data-name="Path 13187" class="cls-9" d="M491.22,239c-4.67,3.22-13.37,6.92-26.8,4-13.89-3.06-20.58-11-23.6-16.34a2.52,2.52,0,0,0-3.45-1,2.47,2.47,0,0,0-1,1,29.63,29.63,0,0,1-2.1,3.22,31.75,31.75,0,0,1-4.25,4.65,32.83,32.83,0,0,1-2.84,2.27,38.83,38.83,0,0,1-14.38,6.2,46.54,46.54,0,0,1-7.06,1c-.73,0-1.45.07-2.14.07a37.23,37.23,0,0,1-3.81-.17,32.36,32.36,0,0,1-3.68-.57,30.78,30.78,0,0,1-3.13-.85,28.23,28.23,0,0,1-3.94-1.64c-.38-.19-.75-.39-1.11-.59-.71-.41-1.36-.82-1.94-1.22a2.72,2.72,0,0,0-1.43-.48,2.76,2.76,0,0,0-2.41,1.28,2.67,2.67,0,0,0-.4,1.45c0,1.37,0,2.94.07,4.68,0,1.15.07,2.39.11,3.69.08,2,.17,4.06.3,6.29a245.89,245.89,0,0,0,3.12,27.72c.16.89.33,1.78.5,2.67a118.05,118.05,0,0,0,7.52,25.4c.68,1.52,1.4,3,2.16,4.42a136.22,136.22,0,0,0,9.05,14.78c1.53,2.13,3.07,4.11,4.66,6a66.76,66.76,0,0,0,10.17,9.64c1.85,1.4,3.76,2.72,5.74,3.93s4.12,2.39,6.34,3.5,4.57,2.17,7.05,3.2l.06,0c9.94-4.12,17.66-8.72,24.43-15.12s12.55-14.59,18.63-25.9c12.18-22.69,13.68-60.3,13.79-74.87a2.72,2.72,0,0,0-4.25-2.25Z"/><path id="Path_13188" data-name="Path 13188" class="cls-8" d="M438.62,348.08c-1.25-.56-2.46-1.14-3.63-1.73-2.06-1-3.92-2.07-5.71-3.18a58.08,58.08,0,0,1-14-12c-1.41-1.66-2.83-3.48-4.2-5.41a129.21,129.21,0,0,1-8.47-14c-.65-1.22-1.29-2.54-1.89-3.91a110.37,110.37,0,0,1-6.95-23.72c-.16-.85-.32-1.71-.47-2.57a234.72,234.72,0,0,1-3-26.83c-.13-2.12-.22-4.13-.29-6l.92.32a37.24,37.24,0,0,0,3.89,1.06,40.65,40.65,0,0,0,4.51.71q2.15.21,4.29.21h.3c.82,0,1.66,0,2.53-.08a54,54,0,0,0,8.2-1.18,46.21,46.21,0,0,0,17.09-7.46,40.7,40.7,0,0,0,3.48-2.81,38.76,38.76,0,0,0,3.41-3.49c4.6,5.3,12.13,11.13,24,13.76a51.29,51.29,0,0,0,11,1.26,39.55,39.55,0,0,0,13.58-2.3c-.62,16-3.09,45.21-12.59,63-5.81,10.89-11.06,18.29-17,24A65.29,65.29,0,0,1,438.62,348.08Z"/><path id="Path_13189" data-name="Path 13189" class="cls-9" d="M449.33,283.72a10.71,10.71,0,1,0-14.46,9.92L431.2,308.1a1,1,0,0,0,.74,1.23l.25,0h12.86a1,1,0,0,0,1-1,1.13,1.13,0,0,0,0-.25l-3.66-14.46A10.58,10.58,0,0,0,449.33,283.72Z"/></g><path id="Path_13191" data-name="Path 13191" class="cls-13" d="M512.61,283.82H458.55c-5.55,0-10-4.8-10-10.71h0c0-5.92,4.49-10.71,10-10.71h54.06c5.55,0,10,4.79,10,10.71h0C522.66,279,518.16,283.82,512.61,283.82Z"/><path id="Path_13192" data-name="Path 13192" class="cls-12" d="M456.75,273.11a4.12,4.12,0,1,1,4.11,4.12A4.11,4.11,0,0,1,456.75,273.11Z"/><path id="Path_13193" data-name="Path 13193" class="cls-12" d="M473.22,273.11a4.12,4.12,0,1,1,4.12,4.12A4.12,4.12,0,0,1,473.22,273.11Z"/><path id="Path_13194" data-name="Path 13194" class="cls-12" d="M489.7,273.11a4.12,4.12,0,1,1,4.12,4.12A4.12,4.12,0,0,1,489.7,273.11Z"/><path id="Path_13195" data-name="Path 13195" class="cls-12" d="M506.18,273.11a4.12,4.12,0,1,1,4.12,4.12A4.12,4.12,0,0,1,506.18,273.11Z"/></g><g id="Group_5725" data-name="Group 5725"><path id="Path_5232" data-name="Path 5232" class="cls-16" d="M315.76,519.37c-1.1,18.27-10.33,36.52-25.46,46.57-18,12-43.26,9.33-63.79,10.85-17.76,1.32-35.65,2.46-53.41.57-14.55-1.55-29.23-7.3-36.18-21.4s-7.72-32.9-.75-47.2a45.83,45.83,0,0,1,8.68-12.16c.57-.58,1.16-1.15,1.76-1.7.41-.38.82-.74,1.24-1.11.64-.55,1.3-1.09,2-1.62l.66-.51.68-.5.68-.5.51-.36c.29-.21.57-.4.87-.6a60.33,60.33,0,0,1,8.14-4.6,65.54,65.54,0,0,1,8.41-3.26c9.35-2.9,19.1-3.92,28.74-5.19a476.19,476.19,0,0,1,61.91-3.57c16.82,0,35.77,2.51,47,16.92C313.79,498.14,316.4,509,315.76,519.37Z"/><path id="Path_5233" data-name="Path 5233" class="cls-17" d="M281.2,488.34s4.33-4.07,6.63-6.43-2.71-2.43-5.18.5A6.45,6.45,0,0,0,281.2,488.34Z"/><path id="Path_5234" data-name="Path 5234" class="cls-18" d="M161.3,485a60.84,60.84,0,0,0-8.13,4.6l-.86.6-.52.36-.68.5-.67.5-.66.51c-.66.53-1.31,1.06-1.94,1.61h0q-.62.54-1.23,1.11c-.6.55-1.19,1.12-1.76,1.7a1.15,1.15,0,0,0,.87,1c3.38.68,5.07,3.91,7.8,5.74a7.45,7.45,0,0,0,6.69.95c-2.46,5.22-3.82,10.39-2.75,16.22a20.74,20.74,0,0,0,1.64,5.11c-3.16-2.35-6.21-7.38-7.46-12.49a1.35,1.35,0,1,0-2.62.65c1.55,6.32,5.5,12.39,9.6,14.76a8.89,8.89,0,0,0,3,1.1,20.5,20.5,0,0,0,2.72,2.87l6.06,1.7,4.95-32Z"/><path id="Path_5235" data-name="Path 5235" class="cls-19" d="M178.89,506.36a131.53,131.53,0,0,1-26.32-13.54,10.17,10.17,0,0,1-4.26-10.11L154.78,445a11.65,11.65,0,0,1,6.86-8.74A115,115,0,0,1,191,428a70.65,70.65,0,0,1,11.36.22c4.19.41,13.79,3.24,19.89,5.14a11.8,11.8,0,0,1,7.52,7c2.55,6.6,6.71,17.73,8,23.75,4.57,20.78,3.82,19.24,3.82,19.24l4.73,32-50.19,2.81-12.83-5.85Z"/><path id="Path_5236" data-name="Path 5236" class="cls-20" d="M210.07,392s-4.44-9.11-16.26-4.95c-8.55-1.85-15.07,8.27-8.77,22.06l11.87,2.76Z"/><path id="Path_5237" data-name="Path 5237" class="cls-17" d="M203.78,417.85V434a6.85,6.85,0,0,1-6.84,6.84,9.27,9.27,0,0,1-9.26-9.26v-13.7Z"/><path id="Path_5238" data-name="Path 5238" class="cls-21" d="M203.78,424.54v8.8c-7.17,0-11.93-9.24-11.93-9.24Z"/><path id="Path_5239" data-name="Path 5239" class="cls-17" d="M210.87,415.76a31,31,0,0,1-1.93,6.53c-1.55,3.54-3.91,6.23-7.52,6.31-8.45.18-15-11.37-15-11.37l1.35-15.75,6.41-7.21,17.67,10.92A59.41,59.41,0,0,1,210.87,415.76Z"/><path id="Path_5240" data-name="Path 5240" class="cls-20" d="M187.52,412.62a23.23,23.23,0,0,1,7.83-11.7s8.83,11.53,18.17,6,5.29-16.54-3.43-14.85l-10-1.13-12.55,4-2.14,9.84Z"/><path id="Path_5241" data-name="Path 5241" class="cls-22" d="M196.34,494.46c-8.51-18.39-19.24-9.62-21.86-16.37-3.68-9.46-3-20.16-3-23.4l-5.12,28.86s11.44,1.09,15.68,8Z"/><path id="Path_5242" data-name="Path 5242" class="cls-23" d="M171.72,454.19c-.32,2.47-.69,4.93-1.08,7.38s-.83,4.91-1.23,7.36-.88,4.9-1.36,7.34l-.73,3.66c-.27,1.22-.51,2.44-.8,3.65l-.37-.07c.15-1.23.33-2.47.5-3.7l.57-3.69c.38-2.45.8-4.91,1.24-7.35s.89-4.9,1.37-7.34,1-4.88,1.52-7.31Z"/><path id="Path_5243" data-name="Path 5243" class="cls-23" d="M221.57,449.62c.68,3.2,1.31,6.42,1.93,9.64s1.19,6.44,1.79,9.66,1.13,6.46,1.67,9.69l.79,4.85c.24,1.62.5,3.24.72,4.86l-.34.07c-.35-1.61-.67-3.22-1-4.82l-.94-4.82c-.61-3.22-1.2-6.45-1.78-9.67s-1.14-6.46-1.66-9.69-1.05-6.47-1.52-9.71Z"/><path id="Path_5244" data-name="Path 5244" class="cls-22" d="M223.94,464.54c.6,5.85-.3,36.16-14.4,36.61l.15,6.6,22.2-1.35Z"/><path id="Path_5245" data-name="Path 5245" class="cls-21" d="M194.91,500.35c10-4.28,11.93-4.12,13.28-4.05,4.61.22,11.25,9.45,11.25,9.45l-.11,1.69H194Z"/><rect id="Rectangle_1781" data-name="Rectangle 1781" class="cls-9" x="202.29" y="505.8" width="31.17" height="4.73"/><path id="Path_5246" data-name="Path 5246" class="cls-9" d="M276,510.49H221.8L234,462.09h54.16Z"/><path id="Path_5247" data-name="Path 5247" class="cls-24" d="M280.86,490.72c-5.36-.8-22.69-4.4-58.4,17.35l-.82,3,54.31-.55Z"/><g id="Group_3119" data-name="Group 3119"><path id="Path_5248" data-name="Path 5248" class="cls-17" d="M281.93,501.47c-.34,2.28-.45,5.62-7.52,5.2l-2.08-1.07,2-2.17,4.25-2.16Z"/><path id="Path_5249" data-name="Path 5249" class="cls-17" d="M282.59,495.32s3.87,5,0,6.6a22.45,22.45,0,0,1-8.27,1.52c1.8-5.07,7.65-4.73,7.65-4.73Z"/><path id="Path_5250" data-name="Path 5250" class="cls-17" d="M282.7,492.05s5.33,4.95.38,6.34c-7,2-9.15,2.1-9.15,2.1-.38-3.71,6.56-6.11,6.56-6.11Z"/><path id="Path_5251" data-name="Path 5251" class="cls-17" d="M281.62,487.74s7.27,4.42.45,6.9-8.44,2.44-8.44,2.44c-.38-3.72,6.94-5,6.94-5Z"/><path id="Path_5252" data-name="Path 5252" class="cls-25" d="M273.63,497.08s7.93-1.13,10.3-3"/><path id="Path_5253" data-name="Path 5253" class="cls-25" d="M273.93,500.49s8.25-1.16,10.84-3"/><path id="Path_5254" data-name="Path 5254" class="cls-25" d="M274.3,503.44s4.9.16,7.65-1.19"/></g><path id="Path_5255" data-name="Path 5255" class="cls-20" d="M197.28,574.53c.83-.45,13.88,2.4,28.36-8.32L207,560.88Z"/><path id="Path_5256" data-name="Path 5256" class="cls-18" d="M280.32,512.48c.62-.89,1.16-2.19.38-2.94s-2.15-.09-3,.64a36.75,36.75,0,0,0-4.14,4.23L242,520.28l-43.22,10.5,7.43,9.48c21.61,1.58,33.92,2,47.44-.41,6.89-1.21,13.05-2.47,17.64-6.21,1.1-.9,2.13-2.4,1.42-3.62a2.65,2.65,0,0,0-2.48-1,31.64,31.64,0,0,0,6.68-2.38c.95-.46,2-1.18,2-2.23a1.94,1.94,0,0,0-1.33-1.67,5,5,0,0,0-2.22-.19,30.16,30.16,0,0,0-8.44,1.86C271.85,520.94,276.86,517.38,280.32,512.48Zm-13.47,11.95,0,0h0Z"/><path id="Path_5257" data-name="Path 5257" class="cls-20" d="M208,516.59s42.09-20,55.82-19.13,13.28,18,8.1,25.43-17.33,17.33-62.12,14.4Z"/><path id="Path_5258" data-name="Path 5258" d="M225.61,587.81c-2.28.64-5.51.8-10,.09,0,0-5.76,1.5-11.43,2.67a51.75,51.75,0,0,1-9.58,1.38l-.5,0c-3.72-.27-8.41-2.21-10.9-5l0,0a6.93,6.93,0,0,1-1.48-2.47c-1.35-4.21,1.5-9.31,16.95-8.26,0,0,5.1-1.2,6.3-5s-7.65-21.75-7.65-21.75L210,541l12.38,13.72s1.87,12.38,1.87,16.43c0,0,5.25,7.51,6,10.81C230.68,584,229.63,586.67,225.61,587.81Z"/><path id="Path_5259" data-name="Path 5259" class="cls-23" d="M157.89,485.18c1.45-.55,2.92-1,4.4-1.41.74-.21,1.5-.4,2.26-.55.38-.07.77-.14,1.15-.19l.6-.07a4.42,4.42,0,0,1,.63,0,18.8,18.8,0,0,1,4.54,1.21c1.45.55,2.87,1.17,4.26,1.84s2.75,1.4,4.09,2.17,2.65,1.58,3.93,2.45a41.92,41.92,0,0,1,7.08,5.94l-.26.27q-1.69-1.53-3.54-2.9c-1.21-.91-2.47-1.78-3.76-2.59a78.67,78.67,0,0,0-8-4.49c-1.37-.67-2.76-1.3-4.17-1.85a20.19,20.19,0,0,0-4.29-1.29,4.53,4.53,0,0,0-.52,0l-.55,0c-.37,0-.74.1-1.12.16-.74.13-1.49.28-2.23.45-1.48.34-3,.73-4.42,1.18Z"/><path id="Path_5260" data-name="Path 5260" class="cls-18" d="M165.46,544.18c5.07-.33,10,0,13.66-1.23,3.86-1.35,13.95-.45,13.95-.45l-5.55-8L165,540.13Z"/><path id="Path_5261" data-name="Path 5261" class="cls-23" d="M165.71,529.52c-5.18-8.33-5.18-24.76,1.35-32.18,7.46-8.49,23.41-11.7,31.73-1.8s23.63,46.13,26.78,70.67c0,0-16.87-5.63-28.35,8.32,0,0-15.08-34.43-18.23-47l-8.55,6.76Z"/><path id="Path_5262" data-name="Path 5262" d="M178.89,527.42s-2.25-.83-5.4,1.27c0,0-24.61-.52-30.09,5s-1.27,13,6.75,13.8c6.74.7,19.82-4.53,23.85-6.23a8.18,8.18,0,0,1,2.57-.61l6.67-.43Z"/><path id="Path_5263" data-name="Path 5263" class="cls-17" d="M188.83,413.08s-1.65-5.47-5.29-4.11-1.69,8.49,5.47,10.47Z"/><path id="Path_5264" data-name="Path 5264" class="cls-23" d="M185,443.33a26.29,26.29,0,0,0,5.73,3.12,17,17,0,0,0,6.3,1.19,13.92,13.92,0,0,0,6.16-1.53l.72-.37c.24-.13.45-.29.68-.43a11.22,11.22,0,0,0,1.31-.95l.63-.52.32-.25.29-.29,1.17-1.15.27.22c-.35.43-.71.86-1.08,1.28-.09.11-.18.22-.28.32l-.3.28-.62.58a10,10,0,0,1-1.31,1.05c-.23.17-.45.35-.69.5l-.74.42a13.55,13.55,0,0,1-6.52,1.73,16.65,16.65,0,0,1-6.6-1.38,21.5,21.5,0,0,1-5.66-3.55Z"/><path id="Path_5265" data-name="Path 5265" class="cls-20" d="M175.26,513l2,6.83c.66,2.27,1.28,4.55,2,6.81s1.36,4.52,2.07,6.77c.35,1.13.71,2.26,1.1,3.37.19.56.36,1.13.56,1.68s.4,1.11.59,1.67l-.33.14q-.75-1.62-1.41-3.27c-.45-1.1-.85-2.22-1.26-3.34-.8-2.23-1.5-4.5-2.17-6.77s-1.29-4.57-1.86-6.87-1.11-4.61-1.56-6.94Z"/><path id="Path_5267" data-name="Path 5267" class="cls-20" d="M201.65,515.21a9,9,0,0,1-4.65,2.85,12.85,12.85,0,0,1-2.89.42c-3.72-.26-8.41-2.2-10.9-5l0,0a12,12,0,0,1-.73-1.12,18.2,18.2,0,0,0,4.32,3,16,16,0,0,0,2.39,1,16.31,16.31,0,0,0,2.5.62A14,14,0,0,0,201.65,515.21Z"/><path id="Path_5268" data-name="Path 5268" class="cls-21" d="M187.2,413.85a3.71,3.71,0,0,0-.59-1.37,4.2,4.2,0,0,0-1-1.07,1.1,1.1,0,0,0-1.15-.21,2.61,2.61,0,0,0-.92,1.08l-.24-.08a2.23,2.23,0,0,1,.86-1.51,1.36,1.36,0,0,1,1-.2,2.09,2.09,0,0,1,.86.38,3.69,3.69,0,0,1,1.1,1.32,2.94,2.94,0,0,1,.35,1.67Z"/><path id="Path_5269" data-name="Path 5269" class="cls-20" d="M208.66,413.72c-.15.77-.74,1.31-1.3,1.19a1.28,1.28,0,0,1-.74-1.61c.16-.78.74-1.31,1.31-1.2A1.28,1.28,0,0,1,208.66,413.72Z"/><ellipse id="Ellipse_378" data-name="Ellipse 378" class="cls-20" cx="198.85" cy="413.21" rx="1.43" ry="1.04" transform="translate(-240.98 542.96) rotate(-80.74)"/><path id="Path_5270" data-name="Path 5270" class="cls-21" d="M203.61,414.43c0,.64.08,1.28.08,1.9a1.13,1.13,0,0,0,.33.66,5.9,5.9,0,0,1,.66.75,1.52,1.52,0,0,1,.23.54,2.27,2.27,0,0,1,0,.58,1.93,1.93,0,0,1-.41,1.05,1.54,1.54,0,0,1-.47.37,1.39,1.39,0,0,1-.57.12,1.86,1.86,0,0,1-1-.36l.12-.23a1.87,1.87,0,0,0,.84.12.88.88,0,0,0,.6-.39,1.39,1.39,0,0,0,.05-1.43c-.14-.22-.37-.43-.59-.71a1.6,1.6,0,0,1-.41-1.06c0-.65.12-1.29.22-1.93Z"/><path id="Path_5271" data-name="Path 5271" class="cls-20" d="M196.34,410.66a4.24,4.24,0,0,1,1.26-.87,3.52,3.52,0,0,1,1.57-.3,2.85,2.85,0,0,1,1.51.56,3.58,3.58,0,0,1,1,1.17l-.21.17a7,7,0,0,0-1.13-.84,2.85,2.85,0,0,0-1.24-.38,5.19,5.19,0,0,0-2.63.71Z"/><path id="Path_5272" data-name="Path 5272" class="cls-20" d="M205.52,411.43a1.94,1.94,0,0,1,1-1.08,3.06,3.06,0,0,1,1.43-.32,2.94,2.94,0,0,1,1.42.39,2.36,2.36,0,0,1,1,1.07l-.23.15a3.15,3.15,0,0,0-2.18-.94,2.64,2.64,0,0,0-2.17.85Z"/><path id="Path_5273" data-name="Path 5273" class="cls-12" d="M199.36,422l6,.43S202,426.85,199.36,422Z"/><path id="Path_5274" data-name="Path 5274" class="cls-26" d="M210.9,415.76a31,31,0,0,1-1.93,6.53,3.45,3.45,0,0,1,1.48-6.56Z"/><circle id="Ellipse_379" data-name="Ellipse 379" class="cls-26" cx="195.68" cy="418.39" r="3.45"/></g><g id="Group_3108" data-name="Group 3108"><path id="Path_5178" data-name="Path 5178" class="cls-27" d="M492.61,547.06c.58-34.8-15-49.07-15-49.07-3.79,19.2,2.26,39.75,5.64,49.07Z"/><path id="Path_5179" data-name="Path 5179" class="cls-27" d="M500.93,547c16.95-23.1,14.21-41.21,14.21-41.21-14.63,12.2-22.2,32.46-24.84,40.83l.44.38Z"/><path id="Path_5180" data-name="Path 5180" class="cls-11" d="M511,547c14.45-14.62,17.43-26.42,17.43-26.42A62.25,62.25,0,0,0,497.28,547Z"/><path id="Path_5181" data-name="Path 5181" class="cls-11" d="M485.65,547c-5.53-25-19-32.56-19-32.56.29,13,6.2,25.31,10.44,32.56Z"/><path id="Path_5182" data-name="Path 5182" class="cls-11" d="M500.46,547.06c7.33-40.75-4.38-56.44-4.38-56.44-14,14.17-8.68,47.69-7,56.44Z"/><path id="Path_5183" data-name="Path 5183" class="cls-12" d="M497.22,546.8c-1.07-15-1.8-30.2-2.11-45.22a.32.32,0,0,0-.32-.31h0a.32.32,0,0,0-.31.33h0c.31,15,1,30.17,2.11,45.2Z"/><path id="Path_5184" data-name="Path 5184" class="cls-12" d="M487.73,546.73h.67a154.41,154.41,0,0,1-4.33-18l-4.69-23.65a.32.32,0,0,0-.37-.25h0a.33.33,0,0,0-.25.38l4.69,23.64A156.92,156.92,0,0,0,487.73,546.73Z"/><path id="Path_5185" data-name="Path 5185" class="cls-12" d="M481.15,546.69c-3.86-8.23-7.4-16.66-10.5-25.18a.32.32,0,0,0-.42-.17.3.3,0,0,0-.18.39c3.08,8.44,6.57,16.8,10.4,25Z"/><path id="Path_5186" data-name="Path 5186" class="cls-12" d="M499,546.71c.6-1.14,1.17-2.3,1.67-3.49a60,60,0,0,0,2.3-7.06c.39-1.38.8-2.81,1.25-4.2a105.22,105.22,0,0,1,4-9.8c1.29-2.91,2.64-5.93,3.7-9a.32.32,0,0,0-.21-.4.32.32,0,0,0-.39.19c-1.06,3-2.39,6-3.69,8.95-1.49,3.22-2.83,6.51-4,9.86-.46,1.4-.87,2.84-1.26,4.23a62,62,0,0,1-2.28,7c-.53,1.27-1.15,2.51-1.8,3.73Z"/><path id="Path_5187" data-name="Path 5187" class="cls-12" d="M501.16,546.69c1.23-1.39,2.57-2.69,3.9-4l17.75-16.9a.32.32,0,0,0,0-.45.31.31,0,0,0-.45,0l-17.75,16.89c-1.47,1.4-3,2.85-4.31,4.42Z"/><path id="Path_5188" data-name="Path 5188" class="cls-13" d="M477,552.81l4.22,26.13a7.67,7.67,0,0,0,7.55,6.43h12.86a7.67,7.67,0,0,0,7.55-6.43l4.23-26.13Z"/><path id="Path_5189" data-name="Path 5189" d="M513.36,552.81H477l.58,3.62H505.6L502,578.94a7.66,7.66,0,0,1-7.55,6.43h7.17a7.66,7.66,0,0,0,7.55-6.43l3.64-22.51h0Z"/><path id="Path_5190" data-name="Path 5190" class="cls-13" d="M513.91,545.39H476.69a3.81,3.81,0,0,0-3.81,3.8h0a3.81,3.81,0,0,0,3.81,3.8h37.22a3.81,3.81,0,0,0,3.8-3.8h0A3.81,3.81,0,0,0,513.91,545.39Z"/></g></svg>