<svg id="Layer_1" data-name="Layer 1" xmlns="http://www.w3.org/2000/svg" viewBox="0 0 6000 4000"><path id="Union_69" data-name="Union 69" d="M3575.17,3999.65c-213.43-6.56-390-42.61-534.86-144.69-85-59.91-169.07-57.13-264.55-54.37-67.2,1.94-140,3.9-222.81-16a901.07,901.07,0,0,0-90.83-16.85H2125.47c-71.71,6.86-144,16.55-216.49,26.24-191.25,25.56-383.69,51.12-569.88,24.91-94.19-13.27-185.28-39.71-279-51.15H895.67c-90.4,12.24-174.79,43.13-255.64,73.61-99.91,37.66-204.35,76.66-319.68,81.2S24.64,3885.83,0,3812.49v-44.75H0V231.33c207,66.49,454.55,5.1,657.42-66.49S1076,8.26,1304.42,29.73c135.61,12.74,258.82,62.61,395.2,71,127.53,7.87,249.86-20.92,372.45-49.73,115.8-27.19,231.84-54.4,352.74-50.68C2638.28,6.9,2990.55,43,3135.37,145c82.84,58.38,164.79,46.68,257.27,35,69.2-8.74,144.31-17.49,230.11,3.13,205.52,49.42,298.25,20,401.35-9.4,89.6-25.56,187-51.12,373.28-24.9,127,17.9,248.45,59.77,378.33,56.45,115.43-2.93,220.8-41.25,320.73-78.91S5564.34,82,5679.65,77.43s295.74,36.72,320.35,110l-.06,273.75h-4.35V3538.7h4.4v230c-1.47-.48-2.93-.94-4.4-1.4v.48H5573.05c-79.94,17.6-158.08,41.86-230.51,67.42-202.87,71.58-418.5,156.59-647,135.11-135.59-12.74-258.82-62.6-395.21-71-127.54-7.89-249.87,20.92-372.44,49.71-108.67,25.52-217.51,51.05-330.38,51Q3586.38,4000,3575.17,3999.65Z" fill="#f5f5f5"/></svg>