<svg id="Layer_1" data-name="Layer 1" xmlns="http://www.w3.org/2000/svg" viewBox="0 0 600 600"><defs><style>.cls-1{fill:#fff7e7;}.cls-11,.cls-17,.cls-2,.cls-3,.cls-31,.cls-35,.cls-4{isolation:isolate;}.cls-3{font-size:30.71px;letter-spacing:0em;}.cls-11,.cls-3{font-family:SegoeUI-Bold, Segoe UI;font-weight:700;}.cls-4{font-size:21.82px;letter-spacing:0em;}.cls-10,.cls-4{fill:#393939;}.cls-17,.cls-4{font-family:SegoeUI, Segoe UI;}.cls-5{fill:#fedc92;}.cls-6{fill:#fdb926;}.cls-7{fill:#e64934;}.cls-8{fill:#00a64f;}.cls-11,.cls-9{fill:#fff;}.cls-11{font-size:8.08px;letter-spacing:0em;}.cls-12{letter-spacing:-0.07em;}.cls-13{letter-spacing:-0.01em;}.cls-14{letter-spacing:-0.07em;}.cls-15{letter-spacing:-0.01em;}.cls-16{letter-spacing:0.03em;}.cls-17{font-size:6.47px;}.cls-18{letter-spacing:-0.03em;}.cls-19{letter-spacing:-0.03em;}.cls-20{letter-spacing:-0.09em;}.cls-21{letter-spacing:-0.06em;}.cls-22{letter-spacing:-0.03em;}.cls-23{fill:#e8e8e8;}.cls-24{fill:#83cba6;}.cls-25{fill:#f2a499;}.cls-26{fill:#f9b384;}.cls-27{fill:#e58478;}.cls-28{fill:#748bc6;}.cls-29{fill:#142047;}.cls-30{fill:#e28a6c;}.cls-31,.cls-32{fill:#253e86;}.cls-31,.cls-35{opacity:0.4;}.cls-33{fill:#eeb023;}.cls-34{fill:none;stroke:#e28a6c;stroke-miterlimit:10;stroke-width:2.5px;}.cls-35{fill:#ed6e57;}</style></defs><g id="Group_6350" data-name="Group 6350"><path id="Path_3677" data-name="Path 3677" class="cls-1" d="M112,97.68C145.57,47.61,206.07,21,255.67,14.37a299.21,299.21,0,0,1,43.76-2.44c144,2,218.45,83.57,209.26,122.84S473.44,198.21,511,252.58s47.41,135.93,25.95,217.49S424.55,581.81,300.38,584.3s-214.7,9.62-241.52-65.89,31.82-127.34,40.05-192c5.1-40.13-16.07-80.58-17-120.6C80.84,162.52,92.72,126.47,112,97.68Z"/><g id="Plan_and_Addons" data-name="Plan and Addons" class="cls-2"><text class="cls-3" transform="translate(186.86 79.78)">Plan and Addons</text></g><g id="Let_s_get_to_know_each_other" data-name="Let s get to know each other" class="cls-2"><text class="cls-4" transform="translate(166.65 116.15)">Let&apos;s get to know each other</text></g><g id="Group_5728" data-name="Group 5728"><rect id="Rectangle_2106-2" data-name="Rectangle 2106-2" class="cls-5" x="153.72" y="141.2" width="394.38" height="260.23" rx="4.04"/><path id="Rectangle_2107" data-name="Rectangle 2107" class="cls-6" d="M157.76,141.2H544.07a4,4,0,0,1,4,4v36.37H153.72V145.24A4,4,0,0,1,157.76,141.2Z"/><circle id="Ellipse_405" data-name="Ellipse 405" class="cls-7" cx="173.93" cy="161.41" r="4.04"/><circle id="Ellipse_406" data-name="Ellipse 406" class="cls-8" cx="190.09" cy="161.41" r="4.04"/><circle id="Ellipse_407" data-name="Ellipse 407" cx="206.25" cy="161.41" r="4.04"/><g id="Group_5730" data-name="Group 5730"><rect id="Rectangle_1782-2" data-name="Rectangle 1782-2" class="cls-9" x="191.71" y="205.04" width="100.21" height="180.22" rx="4.04"/><rect id="Rectangle_1783-2" data-name="Rectangle 1783-2" class="cls-9" x="312.93" y="195.35" width="100.21" height="181.03" rx="4.04"/><rect id="Rectangle_1784-2" data-name="Rectangle 1784-2" class="cls-9" x="424.46" y="205.04" width="100.21" height="180.22" rx="4.04"/><path id="Union_5" data-name="Union 5" class="cls-6" d="M237,240.61h9.7l-4.85,4.84Zm-45.25,0V209.09a4,4,0,0,1,4-4h92.13a4,4,0,0,1,4,4v31.52Z"/><path id="Union_7" data-name="Union 7" class="cls-10" d="M358.19,230.91h9.7L363,235.76Zm-45.26,0V199.39a4,4,0,0,1,4-4H409.1a4,4,0,0,1,4,4v31.52Z"/><path id="Union_6" data-name="Union 6" class="cls-6" d="M469.71,240.61h9.7l-4.85,4.84Zm-45.25,0V209.09a4,4,0,0,1,4-4h92.13a4,4,0,0,1,4,4v31.52Z"/><g id="STANDARD" class="cls-2"><text class="cls-11" transform="translate(219.94 227.84)">S<tspan class="cls-12" x="4.56" y="0">T</tspan><tspan x="8.77" y="0">AN</tspan><tspan class="cls-13" x="20.9" y="0">D</tspan><tspan x="26.77" y="0">ARD</tspan></text></g><g id="ADDONS_STANDARD" data-name="ADDONS STANDARD" class="cls-2"><text class="cls-11" transform="translate(319.42 218.15)">ADDONS + S<tspan class="cls-14" x="49.67" y="0">T</tspan><tspan x="53.87" y="0">AN</tspan><tspan class="cls-15" x="66" y="0">D</tspan><tspan x="71.87" y="0">ARD</tspan></text></g><g id="BESPOKE_PLAN" data-name="BESPOKE PLAN" class="cls-2"><text class="cls-11" transform="translate(446.08 227.84)">BESPOKE P<tspan class="cls-16" x="42.14" y="0">L</tspan><tspan x="46.48" y="0">AN</tspan></text></g><g id="Remember_Me" data-name="Remember Me" class="cls-2"><text class="cls-17" transform="translate(213.53 261.62)">5 <tspan class="cls-18" x="5.26" y="0">S</tspan><tspan x="8.48" y="0">taff</tspan></text></g><g id="Remember_Me-2" data-name="Remember Me-2" class="cls-2"><text class="cls-17" transform="translate(213.53 297.18)">1 Admin</text></g><g id="Remember_Me-3" data-name="Remember Me-3" class="cls-2"><text class="cls-17" transform="translate(213.53 332.74)">300 <tspan class="cls-19" x="12.23" y="0">S</tspan><tspan x="15.45" y="0">tudents/</tspan><tspan class="cls-20" x="39.6" y="0">Y</tspan><tspan x="42.61" y="0">ear</tspan></text></g><g id="Remember_Me-4" data-name="Remember Me-4" class="cls-2"><text class="cls-17" transform="translate(213.53 279.4)">2 Instructor</text></g><g id="Remember_Me-5" data-name="Remember Me-5" class="cls-2"><text class="cls-17" transform="translate(213.53 314.96)">1 Owner</text></g><path id="check" d="M203.18,262.43a.47.47,0,0,1-.33-.14l-2.92-2.78a.44.44,0,0,1,0-.62l0,0a.48.48,0,0,1,.67,0l2.58,2.46,5.49-5.24a.5.5,0,0,1,.68,0,.45.45,0,0,1,0,.62l0,0-5.83,5.56a.51.51,0,0,1-.34.14Z"/><g id="Remember_Me-6" data-name="Remember Me-6" class="cls-2"><text class="cls-17" transform="translate(334.75 251.11)">$10 per staff user</text></g><g id="Remember_Me-7" data-name="Remember Me-7" class="cls-2"><text class="cls-17" transform="translate(446.28 260.81)">$10 per staff user</text></g><g id="Remember_Me-8" data-name="Remember Me-8" class="cls-2"><text class="cls-17" transform="translate(334.75 285.05)">student limit on fly $1</text></g><g id="Remember_Me-9" data-name="Remember Me-9" class="cls-2"><text class="cls-17" transform="translate(446.28 294.75)">student limit on fly $1</text></g><g id="Remember_Me-10" data-name="Remember Me-10" class="cls-2"><text class="cls-17" transform="translate(334.75 319)"><tspan class="cls-21">V</tspan><tspan x="3.61" y="0">ehicle management</tspan></text><text class="cls-17" transform="translate(334.75 328.7)">$250/year</text></g><g id="Remember_Me-11" data-name="Remember Me-11" class="cls-2"><text class="cls-17" transform="translate(446.28 328.7)"><tspan class="cls-21">V</tspan><tspan x="3.61" y="0">ehicle management</tspan></text><text class="cls-17" transform="translate(446.28 338.39)">$250/year</text></g><g id="Remember_Me-12" data-name="Remember Me-12" class="cls-2"><text class="cls-17" transform="translate(334.75 268.08)">$10 per instructor</text></g><g id="Remember_Me-13" data-name="Remember Me-13" class="cls-2"><text class="cls-17" transform="translate(446.28 277.78)">$10 per instructor</text></g><g id="Remember_Me-14" data-name="Remember Me-14" class="cls-2"><text class="cls-17" transform="translate(334.75 302.03)"><tspan class="cls-22">R</tspan><tspan x="3.68" y="0">eferral program $50</tspan></text></g><g id="Remember_Me-15" data-name="Remember Me-15" class="cls-2"><text class="cls-17" transform="translate(446.28 311.72)"><tspan class="cls-22">R</tspan><tspan x="3.68" y="0">eferral program $50</tspan></text></g><path id="Rectangle_1788-2" data-name="Rectangle 1788-2" class="cls-6" d="M208.68,349.71H275a8.89,8.89,0,0,1,8.89,8.89h0a8.89,8.89,0,0,1-8.89,8.89H208.68a8.89,8.89,0,0,1-8.89-8.89h0A8.89,8.89,0,0,1,208.68,349.71Z"/><path id="Rectangle_1789-2" data-name="Rectangle 1789-2" class="cls-10" d="M329.9,340h66.27a8.89,8.89,0,0,1,8.89,8.89h0a8.89,8.89,0,0,1-8.89,8.89H329.9A8.89,8.89,0,0,1,321,348.9h0A8.89,8.89,0,0,1,329.9,340Z"/><path id="Rectangle_1790-2" data-name="Rectangle 1790-2" class="cls-6" d="M443.05,349.71h66.26a8.89,8.89,0,0,1,8.89,8.89h0a8.89,8.89,0,0,1-8.89,8.89H443.05a8.89,8.89,0,0,1-8.89-8.89h0A8.89,8.89,0,0,1,443.05,349.71Z"/><path id="Path_12491" data-name="Path 12491" class="cls-10" d="M482.17,386.59a8.75,8.75,0,0,1-4.45,1.08c-1.13,0-2.25,0-3.38,0a5.64,5.64,0,0,1-5-2.7,18,18,0,0,1-2-4.26,10.56,10.56,0,0,0-1.94-3.56c-.24-.28-.52-.53-.78-.79-.83-.84-.6-1.71.54-2a4,4,0,0,1,4,1.17c.35.33.68.68,1.11,1.12a3,3,0,0,1-.08-.51q0-6.24,0-12.47a1.72,1.72,0,0,1,1.39-1.82,1.65,1.65,0,0,1,1.9,1.36h0a2.07,2.07,0,0,1,0,.35c0,1.78,0,3.55,0,5.33l0,5.19v.3c0,.2.07.36.29.35s.26-.18.27-.37c0-.95,0-1.9,0-2.85a1.84,1.84,0,0,1,.33-1.14,1.64,1.64,0,0,1,2.29-.39,1.61,1.61,0,0,1,.69,1.32c0,.86,0,1.73,0,2.6v.3c0,.22-.05.53.29.51s.27-.32.27-.54v-1.69a1.69,1.69,0,0,1,1.68-1.69,1.66,1.66,0,0,1,.49.07,1.63,1.63,0,0,1,1.15,1.51c0,.63,0,1.27,0,1.9,0,.18,0,.41.25.42s.3-.2.31-.41,0-.46,0-.69a1.68,1.68,0,0,1,1.65-1.7,1.63,1.63,0,0,1,1.65,1.62h0v.05c0,1.31,0,2.63,0,3.94s0,2.51,0,3.77a6,6,0,0,1-1,3.63A9.72,9.72,0,0,1,482.17,386.59Z"/><path id="check_1_2" data-name="check 1 2" d="M203.18,280.2a.42.42,0,0,1-.33-.13l-2.92-2.78a.44.44,0,0,1,0-.62l0,0a.48.48,0,0,1,.67,0l2.58,2.46,5.49-5.24a.5.5,0,0,1,.68,0,.45.45,0,0,1,0,.62l0,0-5.83,5.56a.46.46,0,0,1-.34.13Z"/><path id="check_1_3" data-name="check 1 3" d="M203.18,298a.46.46,0,0,1-.33-.13l-2.92-2.78a.44.44,0,0,1,0-.62l0,0a.48.48,0,0,1,.67,0l2.58,2.46,5.49-5.24a.5.5,0,0,1,.68,0,.45.45,0,0,1,0,.62l0,0-5.83,5.56a.5.5,0,0,1-.34.13Z"/><path id="check_1_4" data-name="check 1 4" d="M203.18,315.76a.46.46,0,0,1-.33-.13l-2.92-2.78a.44.44,0,0,1,0-.62l0,0a.48.48,0,0,1,.67,0l2.58,2.46,5.49-5.24a.5.5,0,0,1,.68,0,.45.45,0,0,1,0,.62l0,0-5.83,5.56a.5.5,0,0,1-.34.13Z"/><path id="check_1_5" data-name="check 1 5" d="M203.18,333.54a.46.46,0,0,1-.33-.13l-2.92-2.78a.44.44,0,0,1,0-.62l0,0a.48.48,0,0,1,.67,0l2.58,2.46,5.49-5.24a.5.5,0,0,1,.68,0,.45.45,0,0,1,0,.62l0,0-5.83,5.56a.5.5,0,0,1-.34.13Z"/><path id="check_1_6" data-name="check 1 6" d="M324.41,252.73a.48.48,0,0,1-.34-.14l-2.92-2.78a.42.42,0,0,1,0-.61l0,0a.52.52,0,0,1,.68,0l2.58,2.46,5.49-5.24a.48.48,0,0,1,.67,0,.43.43,0,0,1,0,.62l0,0-5.83,5.56a.48.48,0,0,1-.34.14Z"/><path id="check_1_7" data-name="check 1 7" d="M324.41,269.7a.51.51,0,0,1-.34-.13l-2.92-2.78a.43.43,0,0,1,0-.62l0,0a.52.52,0,0,1,.68,0l2.58,2.46,5.49-5.24a.5.5,0,0,1,.67,0,.43.43,0,0,1,0,.62l0,0-5.83,5.57a.51.51,0,0,1-.34.13Z"/><path id="check_1_8" data-name="check 1 8" d="M324.41,286.67a.51.51,0,0,1-.34-.13l-2.92-2.78a.43.43,0,0,1,0-.62l0,0a.5.5,0,0,1,.68,0l2.58,2.45,5.49-5.24a.5.5,0,0,1,.67,0,.43.43,0,0,1,0,.62l0,0-5.83,5.56a.51.51,0,0,1-.34.13Z"/><path id="check_1_9" data-name="check 1 9" d="M324.41,303.64a.51.51,0,0,1-.34-.13l-2.92-2.78a.43.43,0,0,1,0-.62l0,0a.5.5,0,0,1,.68,0l2.58,2.46,5.49-5.24a.48.48,0,0,1,.67,0,.43.43,0,0,1,0,.62l0,0-5.83,5.56a.51.51,0,0,1-.34.13Z"/><path id="check_1_10" data-name="check 1 10" d="M324.41,320.61a.47.47,0,0,1-.34-.13l-2.92-2.78a.43.43,0,0,1,0-.62l0,0a.5.5,0,0,1,.68,0l2.58,2.46,5.49-5.24a.48.48,0,0,1,.67,0,.43.43,0,0,1,0,.62l0,0-5.83,5.56a.47.47,0,0,1-.34.13Z"/><path id="check_1_11" data-name="check 1 11" d="M435.93,262.42a.42.42,0,0,1-.33-.13l-2.92-2.78a.43.43,0,0,1,0-.62l0,0a.48.48,0,0,1,.67,0l2.58,2.46,5.49-5.24a.5.5,0,0,1,.68,0,.44.44,0,0,1,0,.62l0,0-5.83,5.56a.43.43,0,0,1-.34.13Z"/><path id="check_1_12" data-name="check 1 12" d="M435.93,279.4a.47.47,0,0,1-.33-.14l-2.92-2.78a.42.42,0,0,1,0-.61l0,0a.5.5,0,0,1,.67,0l2.58,2.46,5.49-5.24a.5.5,0,0,1,.68,0,.44.44,0,0,1,0,.62l0,0-5.83,5.56a.48.48,0,0,1-.34.14Z"/><path id="check_1_13" data-name="check 1 13" d="M435.93,296.37a.51.51,0,0,1-.33-.13l-2.92-2.78a.43.43,0,0,1,0-.62l0,0a.5.5,0,0,1,.67,0l2.58,2.46,5.49-5.24a.5.5,0,0,1,.68,0,.44.44,0,0,1,0,.62l0,0-5.83,5.57a.51.51,0,0,1-.34.13Z"/><path id="check_1_14" data-name="check 1 14" d="M435.93,313.34a.51.51,0,0,1-.33-.13l-2.92-2.78a.43.43,0,0,1,0-.62l0,0a.48.48,0,0,1,.67,0l2.58,2.45,5.49-5.24a.52.52,0,0,1,.68,0,.44.44,0,0,1,0,.62l0,0-5.83,5.56a.51.51,0,0,1-.34.13Z"/><path id="check_1_15" data-name="check 1 15" d="M435.93,330.31a.51.51,0,0,1-.33-.13l-2.92-2.78a.43.43,0,0,1,0-.62l0,0a.48.48,0,0,1,.67,0l2.58,2.46,5.49-5.24a.5.5,0,0,1,.68,0,.44.44,0,0,1,0,.62l0,0-5.83,5.56a.51.51,0,0,1-.34.13Z"/></g><path id="Path_13828" data-name="Path 13828" class="cls-6" d="M170.17,208.28a1,1,0,0,1,.55,1,7.41,7.41,0,0,0,1.12,3.68,5.69,5.69,0,0,0,4.87,2.67l.57,0a.73.73,0,0,1,.67.77.72.72,0,0,1-.73.67,13.28,13.28,0,0,0-1.78.2,5.61,5.61,0,0,0-4.22,3.75,8.65,8.65,0,0,0-.52,2.61.82.82,0,0,1-.8.82.88.88,0,0,1-.44-.12.87.87,0,0,1-.4-.83,7.78,7.78,0,0,0-.68-2.88,5.69,5.69,0,0,0-5.32-3.51l-.52,0a.72.72,0,0,1,0-1.44c.39,0,.79,0,1.18-.08a5.66,5.66,0,0,0,4.87-3.86,7.52,7.52,0,0,0,.51-2.48,1,1,0,0,1,.54-.93Zm-.29,4.39a7.51,7.51,0,0,1-3.58,3.69,7.49,7.49,0,0,1,3.59,3.67,7.45,7.45,0,0,1,3.58-3.68,7.43,7.43,0,0,1-3.59-3.68Z"/><path id="Path_13829" data-name="Path 13829" class="cls-6" d="M537.26,279.4a.58.58,0,0,1,.31.54,4.09,4.09,0,0,0,.63,2.07,3.19,3.19,0,0,0,2.74,1.5l.31,0a.41.41,0,1,1,0,.81,6.8,6.8,0,0,0-1,.11,3.14,3.14,0,0,0-2.37,2.11,4.58,4.58,0,0,0-.3,1.46.45.45,0,0,1-.45.46.42.42,0,0,1-.24-.07.48.48,0,0,1-.23-.46,4.22,4.22,0,0,0-.38-1.61,3.2,3.2,0,0,0-3-2l-.29,0a.42.42,0,0,1-.42-.39.41.41,0,0,1,.4-.42c.21,0,.44,0,.66,0a3.18,3.18,0,0,0,2.74-2.17,4.1,4.1,0,0,0,.28-1.39.55.55,0,0,1,.31-.52Zm-.16,2.47a4.23,4.23,0,0,1-2,2.07,4.21,4.21,0,0,1,2,2.06,4.15,4.15,0,0,1,2-2.06,4.21,4.21,0,0,1-2-2.07Z"/><path id="Path_13830" data-name="Path 13830" class="cls-6" d="M513,190.5a.58.58,0,0,1,.31.54,4.36,4.36,0,0,0,.63,2.08,3.2,3.2,0,0,0,2.74,1.49l.32,0a.41.41,0,1,1,0,.81,6.65,6.65,0,0,0-1,.11,3.15,3.15,0,0,0-2.38,2.11,4.86,4.86,0,0,0-.29,1.46.45.45,0,0,1-.45.46.48.48,0,0,1-.24-.06.49.49,0,0,1-.23-.47,4.51,4.51,0,0,0-.38-1.61,3.21,3.21,0,0,0-3-2l-.3,0a.41.41,0,0,1-.41-.39.4.4,0,0,1,.39-.42c.22,0,.44,0,.66,0a3.18,3.18,0,0,0,2.74-2.18,4.11,4.11,0,0,0,.29-1.39.56.56,0,0,1,.3-.52Zm-.16,2.47a4.21,4.21,0,0,1-2,2.07,4.17,4.17,0,0,1,2,2.07,4.19,4.19,0,0,1,2-2.07,4.23,4.23,0,0,1-2-2.07Z"/></g><ellipse id="Ellipse_359" data-name="Ellipse 359" class="cls-23" cx="312.53" cy="577.61" rx="235.58" ry="10.51"/><g id="Group_3108" data-name="Group 3108"><path id="Path_5178" data-name="Path 5178" class="cls-24" d="M488.73,540c.57-34.13-14.68-48.13-14.68-48.13-3.71,18.83,2.23,39,5.54,48.13Z"/><path id="Path_5179" data-name="Path 5179" class="cls-24" d="M496.89,540c16.62-22.65,13.94-40.42,13.94-40.42-14.35,12-21.78,31.84-24.36,40.05l.42.37Z"/><path id="Path_5180" data-name="Path 5180" class="cls-8" d="M506.77,539.93C520.94,525.59,523.86,514,523.86,514a61.14,61.14,0,0,0-30.55,25.92Z"/><path id="Path_5181" data-name="Path 5181" class="cls-8" d="M481.91,539.94C476.48,515.41,463.25,508,463.25,508c.29,12.7,6.08,24.83,10.24,31.94Z"/><path id="Path_5182" data-name="Path 5182" class="cls-8" d="M496.43,540c7.19-40-4.3-55.36-4.3-55.36-13.71,13.9-8.51,46.78-6.87,55.36Z"/><path id="Path_5183" data-name="Path 5183" class="cls-9" d="M493.25,539.78c-1.05-14.74-1.76-29.63-2.07-44.35a.31.31,0,0,0-.31-.31h0a.32.32,0,0,0-.31.32h0c.31,14.73,1,29.6,2.08,44.34Z"/><path id="Path_5184" data-name="Path 5184" class="cls-9" d="M484,539.72h.65A151.26,151.26,0,0,1,480.35,522l-4.6-23.19a.31.31,0,0,0-.36-.25h0a.31.31,0,0,0-.24.37l4.6,23.2A153.59,153.59,0,0,0,484,539.72Z"/><path id="Path_5185" data-name="Path 5185" class="cls-9" d="M477.49,539.67c-3.79-8.07-7.25-16.34-10.3-24.7a.32.32,0,0,0-.59.22c3,8.28,6.45,16.48,10.2,24.49Z"/><path id="Path_5186" data-name="Path 5186" class="cls-9" d="M495,539.69c.59-1.11,1.15-2.25,1.64-3.42a60.07,60.07,0,0,0,2.25-6.92c.39-1.36.78-2.77,1.23-4.13q1.71-4.89,3.9-9.61c1.27-2.86,2.59-5.82,3.64-8.82a.33.33,0,0,0-.21-.4.33.33,0,0,0-.39.19c-1,3-2.34,5.93-3.61,8.78a101.32,101.32,0,0,0-3.92,9.67c-.45,1.37-.85,2.78-1.24,4.15A61.5,61.5,0,0,1,496.1,536c-.52,1.25-1.13,2.47-1.77,3.66Z"/><path id="Path_5187" data-name="Path 5187" class="cls-9" d="M497.11,539.67c1.22-1.36,2.53-2.64,3.83-3.88l17.41-16.58a.31.31,0,1,0-.43-.45l-17.41,16.57c-1.44,1.38-2.9,2.8-4.23,4.34Z"/><path id="Path_5188" data-name="Path 5188" class="cls-10" d="M473.37,545.68l4.14,25.63a7.5,7.5,0,0,0,7.4,6.3h12.62a7.51,7.51,0,0,0,7.41-6.3l4.14-25.63Z"/><path id="Path_5189" data-name="Path 5189" d="M509.08,545.68H473.37l.57,3.55h27.53l-3.57,22.08a7.49,7.49,0,0,1-7.4,6.3h7a7.51,7.51,0,0,0,7.41-6.3l3.56-22.08h0Z"/><path id="Path_5190" data-name="Path 5190" class="cls-10" d="M509.62,538.39H473.11a3.75,3.75,0,0,0-3.73,3.73h0a3.75,3.75,0,0,0,3.73,3.74h36.51a3.75,3.75,0,0,0,3.73-3.74h0A3.74,3.74,0,0,0,509.62,538.39Z"/></g><g id="Group_5725" data-name="Group 5725"><path id="Path_5232" data-name="Path 5232" class="cls-25" d="M315.26,515.29c-1.08,17.93-10.14,35.83-25,45.69-17.69,11.75-42.43,9.15-62.57,10.64-17.41,1.3-35,2.41-52.38.56-14.28-1.52-28.68-7.16-35.5-21s-7.57-32.27-.73-46.3A44.51,44.51,0,0,1,147.62,493c.56-.56,1.14-1.12,1.72-1.67.4-.36.8-.72,1.22-1.08.62-.54,1.27-1.07,1.92-1.59l.66-.5.66-.5.67-.48.5-.36.85-.58a58.69,58.69,0,0,1,8-4.51,62.54,62.54,0,0,1,8.25-3.2c9.16-2.84,18.74-3.85,28.19-5.09A466.82,466.82,0,0,1,261,469.89c16.51,0,35.09,2.47,46.13,16.61C313.33,494.48,315.89,505.09,315.26,515.29Z"/><path id="Path_5233" data-name="Path 5233" class="cls-26" d="M281.36,484.86s4.25-4,6.5-6.31-2.66-2.38-5.08.5A6.31,6.31,0,0,0,281.36,484.86Z"/><path id="Path_5234" data-name="Path 5234" class="cls-27" d="M163.75,481.57a58.94,58.94,0,0,0-8,4.51l-.85.58-.51.36-.66.49-.66.49-.65.51c-.65.51-1.28,1-1.9,1.57h0l-1.21,1.09c-.59.54-1.17,1.1-1.72,1.67a1.12,1.12,0,0,0,.85,1c3.31.67,5,3.83,7.65,5.63a7.33,7.33,0,0,0,6.56.93c-2.41,5.11-3.74,10.19-2.7,15.91a20,20,0,0,0,1.62,5c-3.11-2.3-6.1-7.24-7.33-12.25a1.32,1.32,0,1,0-2.57.64c1.52,6.19,5.4,12.15,9.42,14.48a8.68,8.68,0,0,0,2.9,1.07,20.35,20.35,0,0,0,2.67,2.82l6,1.67,4.86-31.35Z"/><path id="Path_5235" data-name="Path 5235" class="cls-28" d="M181,502.54a128.34,128.34,0,0,1-25.81-13.29,10,10,0,0,1-4.19-9.91l6.35-37a11.42,11.42,0,0,1,6.73-8.57,112.92,112.92,0,0,1,28.84-8.07,69.22,69.22,0,0,1,11.15.22c4.11.41,13.52,3.18,19.51,5a11.59,11.59,0,0,1,7.37,6.88c2.51,6.47,6.59,17.39,7.89,23.29,4.48,20.39,3.75,18.88,3.75,18.88l4.63,31.35L198,514.13l-12.58-5.74Z"/><path id="Path_5236" data-name="Path 5236" class="cls-29" d="M211.59,390.39s-4.36-8.95-16-4.86c-8.39-1.82-14.79,8.11-8.61,21.63l11.65,2.71Z"/><path id="Path_5237" data-name="Path 5237" class="cls-26" d="M205.41,415.72v15.81a6.72,6.72,0,0,1-6.7,6.71,9.09,9.09,0,0,1-9.08-9.09V415.72Z"/><path id="Path_5238" data-name="Path 5238" class="cls-30" d="M205.42,422.28v8.63c-7,0-11.7-9.06-11.7-9.06Z"/><path id="Path_5239" data-name="Path 5239" class="cls-26" d="M212.38,413.67a31.08,31.08,0,0,1-1.9,6.41c-1.52,3.46-3.84,6.1-7.38,6.18-8.29.18-14.68-11.15-14.68-11.15l1.32-15.45,6.29-7.07,17.33,10.71A59.12,59.12,0,0,1,212.38,413.67Z"/><path id="Path_5240" data-name="Path 5240" class="cls-29" d="M189.47,410.58a22.81,22.81,0,0,1,7.67-11.47S205.81,410.42,215,405s5.19-16.23-3.37-14.57l-9.82-1.11-12.31,3.92-2.1,9.66Z"/><path id="Path_5241" data-name="Path 5241" class="cls-31" d="M198.12,490.86c-8.35-18-18.87-9.43-21.45-16.05-3.61-9.28-2.92-19.78-2.94-23l-5,28.31s11.23,1.07,15.38,7.83Z"/><path id="Path_5242" data-name="Path 5242" class="cls-32" d="M174,451.36c-.31,2.43-.68,4.84-1.06,7.25s-.81,4.81-1.21,7.22-.86,4.8-1.33,7.19l-.72,3.59c-.26,1.19-.5,2.39-.78,3.58l-.36-.06c.14-1.22.32-2.42.49-3.63l.56-3.62q.56-3.61,1.22-7.22c.45-2.4.86-4.8,1.34-7.19s.95-4.79,1.49-7.17Z"/><path id="Path_5243" data-name="Path 5243" class="cls-32" d="M222.87,446.88c.67,3.14,1.29,6.3,1.89,9.46s1.17,6.32,1.76,9.48,1.1,6.33,1.64,9.5l.77,4.76c.24,1.59.49,3.18.71,4.77l-.34.06c-.34-1.57-.65-3.15-1-4.73l-.92-4.73q-.9-4.74-1.74-9.48c-.55-3.17-1.12-6.33-1.63-9.51s-1-6.34-1.5-9.52Z"/><path id="Path_5244" data-name="Path 5244" class="cls-31" d="M225.19,461.51c.59,5.74-.29,35.47-14.13,35.91l.15,6.48L233,502.58Z"/><path id="Path_5245" data-name="Path 5245" class="cls-30" d="M196.72,496.64c9.82-4.19,11.7-4,13-4,4.53.22,11,9.27,11,9.27l-.11,1.66H195.83Z"/><rect id="Rectangle_1781" data-name="Rectangle 1781" class="cls-6" x="203.96" y="501.99" width="30.58" height="4.64"/><path id="Path_5246" data-name="Path 5246" class="cls-6" d="M276.23,506.59H223.1L235,459.11h53.13Z"/><path id="Path_5247" data-name="Path 5247" class="cls-33" d="M281,487.2c-5.25-.79-22.25-4.32-57.28,17l-.81,2.94,53.28-.55Z"/><g id="Group_3119" data-name="Group 3119"><path id="Path_5248" data-name="Path 5248" class="cls-26" d="M282.07,497.74c-.33,2.23-.44,5.52-7.37,5.1l-2-1,1.93-2.12,4.17-2.13Z"/><path id="Path_5249" data-name="Path 5249" class="cls-26" d="M282.72,491.7s3.79,5,0,6.48a21.89,21.89,0,0,1-8.12,1.49c1.77-5,7.51-4.64,7.51-4.64Z"/><path id="Path_5250" data-name="Path 5250" class="cls-26" d="M282.83,488.5s5.23,4.86.37,6.22c-6.86,1.92-9,2.06-9,2.06-.36-3.64,6.44-6,6.44-6Z"/><path id="Path_5251" data-name="Path 5251" class="cls-26" d="M281.77,484.27s7.13,4.34.44,6.77-8.28,2.39-8.28,2.39c-.37-3.64,6.81-4.89,6.81-4.89Z"/><path id="Path_5252" data-name="Path 5252" class="cls-34" d="M273.93,493.43s7.78-1.1,10.1-3"/><path id="Path_5253" data-name="Path 5253" class="cls-34" d="M274.22,496.78s8.1-1.14,10.64-2.91"/><path id="Path_5254" data-name="Path 5254" class="cls-34" d="M274.59,499.67s4.8.16,7.51-1.16"/></g><path id="Path_5255" data-name="Path 5255" class="cls-29" d="M199.05,569.41c.8-.44,13.61,2.35,27.81-8.17L208.54,556Z"/><path id="Path_5256" data-name="Path 5256" class="cls-27" d="M280.5,508.54c.61-.87,1.13-2.15.36-2.88s-2.1-.1-2.94.63a35.36,35.36,0,0,0-4.06,4.15l-30.94,5.75-42.38,10.3,7.28,9.3c21.2,1.55,33.27,1.94,46.53-.4,6.76-1.19,12.8-2.42,17.31-6.09,1.08-.88,2.09-2.36,1.39-3.55a2.58,2.58,0,0,0-2.43-1,31.76,31.76,0,0,0,6.55-2.34c.93-.45,2-1.16,1.95-2.19a1.93,1.93,0,0,0-1.31-1.63,4.88,4.88,0,0,0-2.18-.19,30,30,0,0,0-8.27,1.82C272.18,516.84,277.1,513.35,280.5,508.54Zm-13.21,11.72v0l.05,0Z"/><path id="Path_5257" data-name="Path 5257" class="cls-29" d="M209.51,512.57s41.28-19.65,54.75-18.77,13,17.66,7.95,24.95-17,17-60.93,14.13Z"/><path id="Path_5258" data-name="Path 5258" d="M226.83,582.43c-2.24.63-5.41.79-9.77.09,0,0-5.65,1.47-11.21,2.62a52.09,52.09,0,0,1-9.39,1.36l-.5,0c-3.65-.26-8.25-2.16-10.69-4.88l0,0a6.87,6.87,0,0,1-1.46-2.43c-1.32-4.12,1.48-9.12,16.64-8.1,0,0,5-1.17,6.18-4.85s-7.51-21.34-7.51-21.34l12.37-8.39,12.14,13.47s1.84,12.14,1.84,16.11c0,0,5.15,7.36,5.89,10.6C231.81,578.7,230.77,581.31,226.83,582.43Z"/><path id="Path_5259" data-name="Path 5259" class="cls-32" d="M160.41,481.77a43.27,43.27,0,0,1,4.31-1.39c.73-.2,1.47-.39,2.22-.54.37-.07.75-.14,1.13-.19a5.42,5.42,0,0,1,.58-.06,4.26,4.26,0,0,1,.62,0,18.4,18.4,0,0,1,4.45,1.19c1.42.54,2.82,1.15,4.18,1.81s2.7,1.37,4,2.12,2.6,1.55,3.85,2.41a41.64,41.64,0,0,1,6.95,5.83l-.26.26q-1.67-1.5-3.47-2.84t-3.69-2.55a75.69,75.69,0,0,0-7.8-4.4c-1.34-.66-2.7-1.27-4.09-1.82a19.83,19.83,0,0,0-4.21-1.26,4.36,4.36,0,0,0-.51,0l-.54,0c-.36,0-.72.09-1.09.16-.73.12-1.46.27-2.19.44-1.46.33-2.91.72-4.34,1.16Z"/><path id="Path_5260" data-name="Path 5260" class="cls-27" d="M167.83,539.64c5-.33,9.85,0,13.4-1.21,3.79-1.33,13.68-.44,13.68-.44l-5.44-7.84-22.08,5.52Z"/><path id="Path_5261" data-name="Path 5261" class="cls-32" d="M168.07,525.26C163,517.09,163,501,169.4,493.69c7.32-8.33,23-11.48,31.13-1.77s23.18,45.26,26.27,69.32c0,0-16.56-5.52-27.82,8.17,0,0-14.79-33.78-17.88-46.14l-8.39,6.62Z"/><path id="Path_5262" data-name="Path 5262" d="M181,523.19s-2.21-.8-5.3,1.25c0,0-24.13-.51-29.51,4.93s-1.25,12.73,6.63,13.54c6.6.68,19.43-4.44,23.39-6.11a7.8,7.8,0,0,1,2.52-.6l6.54-.42Z"/><path id="Path_5263" data-name="Path 5263" class="cls-26" d="M190.75,411s-1.62-5.37-5.18-4-1.67,8.33,5.36,10.27Z"/><path id="Path_5264" data-name="Path 5264" class="cls-32" d="M187,440.71a25.44,25.44,0,0,0,5.61,3.06,16.59,16.59,0,0,0,6.18,1.17,13.8,13.8,0,0,0,6-1.5l.71-.36c.23-.13.44-.29.66-.43a11.71,11.71,0,0,0,1.29-.93l.62-.51.31-.25a3.76,3.76,0,0,0,.29-.28l1.14-1.13.27.22L209.05,441a4,4,0,0,1-.28.3l-.29.29-.61.56a10,10,0,0,1-1.29,1c-.22.16-.44.33-.67.48l-.73.41a13.14,13.14,0,0,1-6.4,1.7,16.24,16.24,0,0,1-6.47-1.35,21.08,21.08,0,0,1-5.55-3.48Z"/><path id="Path_5265" data-name="Path 5265" class="cls-29" d="M177.44,509.08l1.91,6.7c.65,2.22,1.26,4.46,1.94,6.68s1.33,4.44,2,6.64c.35,1.11.69,2.22,1.07,3.31.19.54.36,1.1.56,1.64s.39,1.09.57,1.64l-.31.14c-.5-1.06-1-2.13-1.4-3.21s-.82-2.18-1.22-3.27c-.79-2.19-1.48-4.42-2.14-6.65s-1.27-4.47-1.82-6.73-1.09-4.52-1.53-6.81Z"/><path id="Path_5267" data-name="Path 5267" class="cls-29" d="M203.33,511.22a8.88,8.88,0,0,1-4.57,2.8,12.8,12.8,0,0,1-2.83.41c-3.65-.26-8.25-2.17-10.69-4.89l0,0a9.82,9.82,0,0,1-.71-1.1,17,17,0,0,0,6.58,3.91,12,12,0,0,0,1.21.35,10.73,10.73,0,0,0,1.23.25A13.67,13.67,0,0,0,203.33,511.22Z"/><path id="Path_5268" data-name="Path 5268" class="cls-30" d="M189.15,411.8a3.67,3.67,0,0,0-.57-1.35,4.21,4.21,0,0,0-1-1.05,1.11,1.11,0,0,0-1.14-.21,2.57,2.57,0,0,0-.89,1.07l-.25-.09a2.25,2.25,0,0,1,.85-1.48,1.35,1.35,0,0,1,1-.19,1.91,1.91,0,0,1,.85.37,3.78,3.78,0,0,1,1.08,1.3,2.9,2.9,0,0,1,.34,1.63Z"/><path id="Path_5269" data-name="Path 5269" class="cls-29" d="M210.21,411.66c-.16.77-.73,1.29-1.28,1.18a1.26,1.26,0,0,1-.72-1.59c.15-.76.72-1.28,1.28-1.17A1.26,1.26,0,0,1,210.21,411.66Z"/><ellipse id="Ellipse_378" data-name="Ellipse 378" class="cls-29" cx="200.58" cy="411.17" rx="1.41" ry="1.02" transform="translate(-237.51 542.96) rotate(-80.74)"/><path id="Path_5270" data-name="Path 5270" class="cls-30" d="M205.25,412.37c.05.62.08,1.25.08,1.85a1.07,1.07,0,0,0,.33.65,7.55,7.55,0,0,1,.64.74,1.48,1.48,0,0,1,.23.53,2,2,0,0,1-.37,1.6,1.43,1.43,0,0,1-.45.36,1.39,1.39,0,0,1-.57.12,1.87,1.87,0,0,1-1-.35l.12-.23a1.8,1.8,0,0,0,.83.11.79.79,0,0,0,.58-.37,1.35,1.35,0,0,0,.05-1.41c-.14-.22-.37-.42-.58-.69a1.61,1.61,0,0,1-.4-1c0-.64.12-1.27.22-1.89Z"/><path id="Path_5271" data-name="Path 5271" class="cls-29" d="M198.12,408.67a4,4,0,0,1,1.24-.85,3.38,3.38,0,0,1,1.53-.3,2.85,2.85,0,0,1,1.49.55,3.43,3.43,0,0,1,1,1.15l-.2.16a7.31,7.31,0,0,0-1.1-.82,3,3,0,0,0-1.22-.38,5.07,5.07,0,0,0-2.58.7Z"/><path id="Path_5272" data-name="Path 5272" class="cls-29" d="M207.12,409.42a1.9,1.9,0,0,1,1-1.06,2.88,2.88,0,0,1,1.41-.31,2.82,2.82,0,0,1,1.39.38,2.27,2.27,0,0,1,1,1.05l-.22.14a3.15,3.15,0,0,0-2.15-.92,2.61,2.61,0,0,0-2.12.84Z"/><path id="Path_5273" data-name="Path 5273" class="cls-9" d="M201.08,419.79l5.86.42S203.67,424.54,201.08,419.79Z"/><path id="Path_5274" data-name="Path 5274" class="cls-35" d="M212.41,413.67a31.08,31.08,0,0,1-1.9,6.41,3.38,3.38,0,0,1,1.9-6.41Z"/><circle id="Ellipse_379" data-name="Ellipse 379" class="cls-35" cx="197.47" cy="416.25" r="3.39"/></g></g></svg>