<svg xmlns="http://www.w3.org/2000/svg" xmlns:xlink="http://www.w3.org/1999/xlink" width="647" height="743" viewBox="0 0 647 743">
  <defs>
    <filter id="Rectangle_2106" x="93" y="167" width="554" height="388" filterUnits="userSpaceOnUse">
      <feOffset dy="10" input="SourceAlpha"/>
      <feGaussianBlur stdDeviation="11" result="blur"/>
      <feFlood flood-opacity="0.071"/>
      <feComposite operator="in" in2="blur"/>
      <feComposite in="SourceGraphic"/>
    </filter>
    <filter id="Path_12489" x="209.5" y="257.5" width="145" height="244" filterUnits="userSpaceOnUse">
      <feOffset dy="4" input="SourceAlpha"/>
      <feGaussianBlur stdDeviation="3.5" result="blur-2"/>
      <feFlood flood-opacity="0.071"/>
      <feComposite operator="in" in2="blur-2"/>
      <feComposite in="SourceGraphic"/>
    </filter>
    <filter id="Rectangle_1790" x="208" y="430" width="152" height="70" filterUnits="userSpaceOnUse">
      <feOffset dy="1" input="SourceAlpha"/>
      <feGaussianBlur stdDeviation="8" result="blur-3"/>
      <feFlood flood-opacity="0.161"/>
      <feComposite operator="in" in2="blur-3"/>
      <feComposite in="SourceGraphic"/>
    </filter>
    <filter id="Path_12507" x="377.001" y="378" width="137" height="142" filterUnits="userSpaceOnUse">
      <feOffset dy="10" input="SourceAlpha"/>
      <feGaussianBlur stdDeviation="8" result="blur-4"/>
      <feFlood flood-opacity="0.122"/>
      <feComposite operator="in" in2="blur-4"/>
      <feComposite in="SourceGraphic"/>
    </filter>
    <filter id="Path_12521" x="443" y="378" width="137" height="142" filterUnits="userSpaceOnUse">
      <feOffset dy="10" input="SourceAlpha"/>
      <feGaussianBlur stdDeviation="8" result="blur-5"/>
      <feFlood flood-opacity="0.122"/>
      <feComposite operator="in" in2="blur-5"/>
      <feComposite in="SourceGraphic"/>
    </filter>
    <filter id="Path_12533" x="366" y="250" width="226" height="226" filterUnits="userSpaceOnUse">
      <feOffset dy="10" input="SourceAlpha"/>
      <feGaussianBlur stdDeviation="8" result="blur-6"/>
      <feFlood flood-opacity="0.122"/>
      <feComposite operator="in" in2="blur-6"/>
      <feComposite in="SourceGraphic"/>
    </filter>
  </defs>
  <g id="Group_6574" data-name="Group 6574" transform="translate(-28 -352)">
    <path id="Path_3677" data-name="Path 3677" d="M113.029,187.453c41.52-63.7,116.381-97.6,177.765-105.994a361.035,361.035,0,0,1,54.142-3.1c178.225,2.561,270.3,106.324,258.926,156.284s-43.608,80.7,2.845,149.88,58.653,172.938,32.109,276.7S499.752,803.382,346.107,806.546,80.444,818.789,47.264,722.714s39.376-162,49.549-244.331c6.31-51.048-19.885-102.506-21.073-153.427C74.459,269.954,89.157,224.08,113.029,187.453Z" transform="translate(-10.641 273.684)" fill="#fff7e6"/>
    <text id="Plan_Overview" data-name="Plan Overview" transform="translate(347 436)" font-size="38" font-family="SegoeUI-Bold, Segoe UI" font-weight="700" letter-spacing="0.004em"><tspan x="-129" y="0">Plan Overview</tspan></text>
    <text id="Let_s_get_to_know_each_other" data-name="Let&apos;s get to know each other" transform="translate(346 486)" fill="#393939" font-size="27" font-family="SegoeUI, Segoe UI" letter-spacing="0.004em"><tspan x="-135" y="0">Please select your plan</tspan></text>
    <g id="Group_5728" data-name="Group 5728" transform="translate(0 -31)">
      <g transform="matrix(1, 0, 0, 1, 28, 383)" filter="url(#Rectangle_2106)">
        <rect id="Rectangle_2106-2" data-name="Rectangle 2106" width="488" height="322" rx="5" transform="translate(126 190)" fill="#fedc92"/>
      </g>
      <path id="Rectangle_2107" data-name="Rectangle 2107" d="M5,0H483a5,5,0,0,1,5,5V50a0,0,0,0,1,0,0H0a0,0,0,0,1,0,0V5A5,5,0,0,1,5,0Z" transform="translate(154 573)" fill="#feba26"/>
      <circle id="Ellipse_405" data-name="Ellipse 405" cx="5" cy="5" r="5" transform="translate(174 593)" fill="#e64934"/>
      <circle id="Ellipse_406" data-name="Ellipse 406" cx="5" cy="5" r="5" transform="translate(194 593)" fill="#00a651"/>
      <circle id="Ellipse_407" data-name="Ellipse 407" cx="5" cy="5" r="5" transform="translate(214 593)"/>
      <g id="Group_5729" data-name="Group 5729" transform="translate(-239 -6)">
        <g transform="matrix(1, 0, 0, 1, 267, 389)" filter="url(#Path_12489)">
          <path id="Path_12489-2" data-name="Path 12489" d="M5,0H119a5,5,0,0,1,5,5V218a5,5,0,0,1-5,5H5a5,5,0,0,1-5-5V5A5,5,0,0,1,5,0Z" transform="translate(220 264)" fill="#fff"/>
        </g>
        <path id="Union_6" data-name="Union 6" d="M56,44H68l-6,6ZM0,44V5A5,5,0,0,1,5,0H119a5,5,0,0,1,5,5V44Z" transform="translate(487 653)" fill="#feba26"/>
        <text id="BESPOKE_PLAN" data-name="BESPOKE PLAN" transform="translate(550 681)" fill="#fff" font-size="10" font-family="SegoeUI-Bold, Segoe UI" font-weight="700" letter-spacing="0.004em"><tspan x="-29" y="0">YOUR PLAN</tspan></text>
        <text id="Remember_Me" data-name="Remember Me" transform="translate(514 722)" font-family="SegoeUI, Segoe UI"><tspan x="0" y="0">................</tspan></text>
        <text id="Remember_Me-2" data-name="Remember Me" transform="translate(514 764)" font-family="SegoeUI, Segoe UI"><tspan x="0" y="0">................</tspan></text>
        <text id="Remember_Me-3" data-name="Remember Me" transform="translate(514 806)" font-family="SegoeUI, Segoe UI"><tspan x="0" y="0">................</tspan></text>
        <text id="Remember_Me-4" data-name="Remember Me" transform="translate(514 743)" font-family="SegoeUI, Segoe UI"><tspan x="0" y="0">................</tspan></text>
        <text id="Remember_Me-5" data-name="Remember Me" transform="translate(514 785)" font-family="SegoeUI, Segoe UI"><tspan x="0" y="0">................</tspan></text>
        <path id="check_1_" data-name="check (1)" d="M4.2,8.339a.6.6,0,0,1-.416-.164L.173,4.736a.542.542,0,0,1,0-.794.609.609,0,0,1,.833,0L4.2,6.984,10.995.5a.609.609,0,0,1,.833,0,.543.543,0,0,1,0,.794L4.613,8.175a.6.6,0,0,1-.416.164Zm0,0" transform="translate(497 715.661)"/>
        <g transform="matrix(1, 0, 0, 1, 267, 389)" filter="url(#Rectangle_1790)">
          <rect id="Rectangle_1790-2" data-name="Rectangle 1790" width="104" height="22" rx="11" transform="translate(232 453)" fill="#393939"/>
        </g>
        <path id="check_1_2" data-name="check (1)" d="M4.2,8.339a.6.6,0,0,1-.416-.164L.173,4.736a.542.542,0,0,1,0-.794.609.609,0,0,1,.833,0L4.2,6.984,10.995.5a.609.609,0,0,1,.833,0,.543.543,0,0,1,0,.794L4.613,8.175a.6.6,0,0,1-.416.164Zm0,0" transform="translate(497 736.66)"/>
        <path id="check_1_3" data-name="check (1)" d="M4.2,8.339a.6.6,0,0,1-.416-.164L.173,4.736a.542.542,0,0,1,0-.794.609.609,0,0,1,.833,0L4.2,6.984,10.995.5a.609.609,0,0,1,.833,0,.543.543,0,0,1,0,.794L4.613,8.175a.6.6,0,0,1-.416.164Zm0,0" transform="translate(497 757.66)"/>
        <path id="check_1_4" data-name="check (1)" d="M4.2,8.339a.6.6,0,0,1-.416-.164L.173,4.736a.542.542,0,0,1,0-.794.609.609,0,0,1,.833,0L4.2,6.984,10.995.5a.609.609,0,0,1,.833,0,.543.543,0,0,1,0,.794L4.613,8.175a.6.6,0,0,1-.416.164Zm0,0" transform="translate(497 778.66)"/>
        <path id="check_1_5" data-name="check (1)" d="M4.2,8.339a.6.6,0,0,1-.416-.164L.173,4.736a.542.542,0,0,1,0-.794.609.609,0,0,1,.833,0L4.2,6.984,10.995.5a.609.609,0,0,1,.833,0,.543.543,0,0,1,0,.794L4.613,8.175a.6.6,0,0,1-.416.164Zm0,0" transform="translate(497 799.66)"/>
      </g>
      <g id="Group_5743" data-name="Group 5743" transform="translate(-3971.999 -1852)">
        <g transform="matrix(1, 0, 0, 1, 4000, 2235)" filter="url(#Path_12507)">
          <path id="Path_12507-2" data-name="Path 12507" d="M106.629,126.739,90.408,99.158l-31.017-6.27L80.272,62.813l20.881-30.075,23.619,16.926,23.619,16.925L127.51,96.664Z" transform="translate(341.61 359.26)" fill="#feba26"/>
        </g>
        <g transform="matrix(1, 0, 0, 1, 4000, 2235)" filter="url(#Path_12521)">
          <path id="Path_12521-2" data-name="Path 12521" d="M158.2,97.012l-32.333,3.627-18.981,26.32L88.045,94.932,69.2,62.906,94.859,47.933l25.657-14.974,18.843,32.027Z" transform="translate(397.8 359.04)" fill="#feba26"/>
        </g>
        <g transform="matrix(1, 0, 0, 1, 4000, 2235)" filter="url(#Path_12533)">
          <path id="Path_12533-2" data-name="Path 12533" d="M145.074,15.132c-5.14,0-10.569-4.192-15.458-3.323-5.031.892-8.723,6.729-13.415,8.462-4.774,1.761-11.3-.288-15.638,2.26-4.381,2.57-5.877,9.332-9.728,12.616-3.867,3.29-10.695,3.616-13.945,7.537-3.234,3.91-2.376,10.783-4.91,15.224-2.513,4.4-8.827,7.067-10.564,11.907-1.71,4.757,1.426,10.91.541,16.011-.852,4.957-5.883,9.658-5.883,14.864s5.031,9.9,5.883,14.864c.885,5.1-2.245,11.248-.541,16.005,1.737,4.84,8.051,7.51,10.564,11.913,2.534,4.442,1.677,11.314,4.91,15.224,3.25,3.915,10.078,4.242,13.945,7.537,3.851,3.279,5.347,10.046,9.728,12.616,4.342,2.548,10.864.5,15.644,2.26,4.687,1.728,8.379,7.571,13.41,8.462,4.889.869,10.318-3.328,15.458-3.328s10.564,4.2,15.452,3.328c5.031-.892,8.723-6.734,13.415-8.462,4.774-1.767,11.3.288,15.638-2.26,4.381-2.57,5.877-9.337,9.734-12.616,3.862-3.3,10.695-3.622,13.939-7.537s2.376-10.783,4.911-15.224c2.513-4.4,8.827-7.072,10.564-11.913,1.71-4.757-1.42-10.91-.541-16.005.858-4.962,5.888-9.658,5.888-14.864s-5.031-9.908-5.888-14.864c-.879-5.1,2.25-11.253.541-16.011-1.737-4.84-8.051-7.51-10.564-11.907-2.534-4.442-1.677-11.32-4.911-15.224-3.25-3.921-10.078-4.248-13.939-7.537S193.96,25.1,189.58,22.531c-4.342-2.548-10.864-.5-15.638-2.26-4.692-1.733-8.384-7.571-13.415-8.462C155.638,10.94,150.209,15.132,145.074,15.132Z" transform="translate(333.93 252.31)" fill="#393939"/>
        </g>
        <g id="Ellipse_408" data-name="Ellipse 408" transform="translate(4410.999 2520)" fill="none" stroke="#fff" stroke-width="2">
          <circle cx="68" cy="68" r="68" stroke="none"/>
          <circle cx="68" cy="68" r="67" fill="none"/>
        </g>
        <g id="Group_5742" data-name="Group 5742" transform="translate(4401 2510)">
          <path id="Path_12790" data-name="Path 12790" d="M84.655,34.423a8.876,8.876,0,0,1,.318,3.507,12.068,12.068,0,0,1-.652,2.626c-.2.507-.44,1.059-.742,1.684a20.054,20.054,0,0,1-1.07,2l2.369,1.985a14.19,14.19,0,0,0,.836-1.539,13.758,13.758,0,0,0,.647-1.617,9.236,9.236,0,0,0,.256-.948,9.006,9.006,0,0,0,.145-2.62,8.732,8.732,0,0,0-.663-2.726A8.616,8.616,0,0,0,84.655,34.423Z" transform="translate(49.887 79.686)" fill="#fff"/>
          <path id="Path_12791" data-name="Path 12791" d="M91.724,34.748a10.355,10.355,0,0,0-2.693-.4,12.787,12.787,0,0,0-2.7.206,8.865,8.865,0,0,0-1.477.407c-.251.089-.5.19-.753.307s-.519.234-.775.368a10.288,10.288,0,0,0-1.232.786c-.39.279-.753.591-1.148.881l2.375,1.985c.6-.452,1.087-.9,1.578-1.277s.937-.7,1.36-.992a11.439,11.439,0,0,1,5.463-2.269Z" transform="translate(42.745 79.484)" fill="#fff"/>
          <path id="Path_12792" data-name="Path 12792" d="M88.633,39.841a9.772,9.772,0,0,0-.033-1.907,9.354,9.354,0,0,0-.4-1.656,9.084,9.084,0,0,0-1.271-2.5,8.908,8.908,0,0,0-1.338-1.472,6,6,0,0,0-.613-.485,8.794,8.794,0,0,1,1.137,3.445,11.22,11.22,0,0,1-.089,2.843,23,23,0,0,1-1.037,4.254c-1.316,3.975-1.16,6.757-.569,8.652a7.865,7.865,0,0,0,1.031,2.118,4.373,4.373,0,0,0,.585.7,12.568,12.568,0,0,1-.028-3.981,19.4,19.4,0,0,1,.847-3.462c.1-.273.2-.546.29-.814s.184-.552.273-.825c.184-.546.357-1.082.535-1.622A13.694,13.694,0,0,0,88.633,39.841Z" transform="translate(56.636 68.001)" fill="#fff"/>
          <path id="Path_12793" data-name="Path 12793" d="M90.682,38.549c.981-1.249,1.739-2.28,2.459-3.077A18.382,18.382,0,0,1,95.014,33.6,12.983,12.983,0,0,1,98.1,31.831s-.29-.022-.769-.011a12.453,12.453,0,0,0-1.946.24,12.01,12.01,0,0,0-2.581.82,8.843,8.843,0,0,0-1.332.747,10.038,10.038,0,0,0-1.338,1A19.292,19.292,0,0,0,88.268,36.7c-.284.362-.569.73-.859,1.093-.139.184-.284.362-.429.552l-.479.518a9.349,9.349,0,0,1-2.23,1.8A8.094,8.094,0,0,1,81.1,41.6a5.1,5.1,0,0,0,.82.329,7.026,7.026,0,0,0,2.174.329,7.322,7.322,0,0,0,3.128-.73A9.719,9.719,0,0,0,90.682,38.549Z" transform="translate(43.436 68.223)" fill="#fff"/>
          <path id="Path_12794" data-name="Path 12794" d="M87.243,39.253a28.369,28.369,0,0,0-.072,2.854,15.518,15.518,0,0,0,.29,2.341A9.855,9.855,0,0,0,88.7,47.805a7.73,7.73,0,0,0,1.477,1.812,3.884,3.884,0,0,0,.725.546c-.134-.34-.251-.675-.346-1-.112-.329-.206-.658-.284-.981a12.3,12.3,0,0,1-.312-1.884,22.981,22.981,0,0,1,.028-3.562c.05-.58.112-1.154.178-1.717.045-.58.089-1.143.128-1.717a13.679,13.679,0,0,0-.095-3.345,9.289,9.289,0,0,0-1.238-3.373,9.7,9.7,0,0,0-1.845-2.135A8.213,8.213,0,0,0,84.8,29a9.62,9.62,0,0,1,1.9,3.089,11.457,11.457,0,0,1,.563,2.787,18.493,18.493,0,0,1,.1,1.957C87.344,37.559,87.31,38.361,87.243,39.253Z" transform="translate(60.35 55.609)" fill="#fff"/>
          <path id="Path_12795" data-name="Path 12795" d="M90.847,37.261c.307-.725.608-1.383.9-1.968s.513-1.132.769-1.6a18.036,18.036,0,0,1,1.4-2.258A11.857,11.857,0,0,1,96.511,29a10.525,10.525,0,0,0-2.609.853,11.087,11.087,0,0,0-2.3,1.4A10.366,10.366,0,0,0,89.4,33.57a19.353,19.353,0,0,0-1.332,2.453c-.19.424-.379.842-.563,1.266-.212.418-.424.831-.658,1.243A8.323,8.323,0,0,1,85.094,40.8a7.7,7.7,0,0,1-1.266.925,6.722,6.722,0,0,1-.747.39c-.273.117-.563.223-.864.318a4.816,4.816,0,0,0,.881.139,7.027,7.027,0,0,0,2.2-.178,7.411,7.411,0,0,0,2.866-1.433,8.26,8.26,0,0,0,1.416-1.511A10.151,10.151,0,0,0,90.847,37.261Z" transform="translate(48.551 55.744)" fill="#fff"/>
          <path id="Path_12796" data-name="Path 12796" d="M91.742,37.982a13.611,13.611,0,0,1-1.449-2.631,13.415,13.415,0,0,1-.82-2.581c-.1-.429-.156-.853-.234-1.271-.084-.435-.145-.859-.206-1.277-.117-.853-.229-1.684-.34-2.52H85.6c.022.173.05.346.072.524a17.774,17.774,0,0,0,.585,2.793,18.291,18.291,0,0,0,.8,2.213,10.939,10.939,0,0,0,2,2.971,7.461,7.461,0,0,0,1.851,1.422A4.276,4.276,0,0,0,91.742,37.982Z" transform="translate(64.019 50.083)" fill="#fff"/>
          <path id="Path_12797" data-name="Path 12797" d="M82.8,35.2a4.945,4.945,0,0,0,.892-.067,7.356,7.356,0,0,0,2.113-.686,6.881,6.881,0,0,0,2.442-2.063,7.9,7.9,0,0,0,1.054-1.8,13.4,13.4,0,0,0,.725-2.431c.028-.151.061-.3.089-.457H87.028l-.452,2.024c-.078.334-.167.675-.268,1.009a8.551,8.551,0,0,1-.39.981,8.333,8.333,0,0,1-1.16,1.862A7.59,7.59,0,0,1,82.8,35.2Z" transform="translate(51.227 50.126)" fill="#fff"/>
          <path id="Path_12799" data-name="Path 12799" d="M82.654,39.6a9.68,9.68,0,0,1-2.013,2.882,10.237,10.237,0,0,1-2.2,1.572c-.479.268-1.02.546-1.639.842-.619.279-1.327.541-2.113.82l.535,3.05A14.085,14.085,0,0,0,78.395,47.3,9.059,9.059,0,0,0,81,44.84a9.342,9.342,0,0,0,1.622-4.466A5.762,5.762,0,0,0,82.654,39.6Z" transform="translate(15.802 102.436)" fill="#fff"/>
          <path id="Path_12800" data-name="Path 12800" d="M84.237,43.689s-.151-.24-.457-.63a12.242,12.242,0,0,0-1.349-1.433,11.942,11.942,0,0,0-2.2-1.567,10.884,10.884,0,0,0-3-1.109,19.519,19.519,0,0,0-2.893-.262l.535,3.044c.747.006,1.422.039,2.04.061s1.16.045,1.667.089a19.629,19.629,0,0,1,2.492.4A12.06,12.06,0,0,1,84.237,43.689Z" transform="translate(14.214 98.268)" fill="#fff"/>
          <path id="Path_12801" data-name="Path 12801" d="M87.378,46.92a9.957,9.957,0,0,0,1.962-3,9.116,9.116,0,0,0,.608-2.754,8.5,8.5,0,0,0-.229-2.743c-.58,2.1-.736,4.226-6.751,8.106a18.2,18.2,0,0,0-4.059,3.25,10.761,10.761,0,0,0-1.94,3.022,7.25,7.25,0,0,0-.58,2.252,4.291,4.291,0,0,0,0,.909A13.412,13.412,0,0,1,77.6,54.279,13.676,13.676,0,0,1,78.932,52.9a22.008,22.008,0,0,1,2.877-2.1c.491-.312.987-.608,1.483-.9s.987-.569,1.455-.9A15.684,15.684,0,0,0,87.378,46.92Z" transform="translate(23.085 97.033)" fill="#fff"/>
          <path id="Path_12802" data-name="Path 12802" d="M84.6,41.649c.769-.2,1.466-.357,2.107-.485s1.215-.223,1.751-.318a12.993,12.993,0,0,1,2.648-.217,11.3,11.3,0,0,1,3.5.613,10.56,10.56,0,0,0-2.236-1.583,11.9,11.9,0,0,0-2.492-1,9.258,9.258,0,0,0-3.178-.374,14.624,14.624,0,0,0-2.765.385c-.44.112-.9.2-1.36.284s-.914.167-1.383.229a8.418,8.418,0,0,1-2.866-.056,7.1,7.1,0,0,1-1.494-.446,9.138,9.138,0,0,1-1.533-.892,5.07,5.07,0,0,0,.418.786,7.563,7.563,0,0,0,1.455,1.684,7.119,7.119,0,0,0,2.86,1.416A9.844,9.844,0,0,0,84.6,41.649Z" transform="translate(18.223 94.141)" fill="#fff"/>
          <path id="Path_12803" data-name="Path 12803" d="M83.9,46.094a17.217,17.217,0,0,0-1.884,2.152,13.6,13.6,0,0,0-1.3,1.951,10.315,10.315,0,0,0-.786,1.812,9.224,9.224,0,0,0-.413,1.567,7.76,7.76,0,0,0-.033,2.347,4.251,4.251,0,0,0,.212.875,13.935,13.935,0,0,1,1.762-3.557,18.271,18.271,0,0,1,2.314-2.7c.808-.847,1.65-1.628,2.442-2.42a17.54,17.54,0,0,0,2.074-2.648,9.058,9.058,0,0,0,1.176-6.194,8.543,8.543,0,0,0-.859-2.615c-.006.558-.006,1.093-.067,1.672a6.723,6.723,0,0,1-.457,1.923,14.083,14.083,0,0,1-1.349,2.5c-.334.485-.736.987-1.2,1.544A21.474,21.474,0,0,1,83.9,46.094Z" transform="translate(36.593 88.994)" fill="#fff"/>
          <path id="Path_12804" data-name="Path 12804" d="M87.482,40.521c.725-.323,1.344-.68,1.946-.948s1.137-.5,1.639-.7a13.759,13.759,0,0,1,2.509-.842,11.154,11.154,0,0,1,1.89-.234c.569-.017,1.1.017,1.656.033a10.5,10.5,0,0,0-2.531-1.015,11.035,11.035,0,0,0-5.843-.045,13.644,13.644,0,0,0-2.592,1.026c-.847.385-1.684.792-2.553,1.143a9.9,9.9,0,0,1-2.81.6,7.631,7.631,0,0,1-3.256-.6,4.839,4.839,0,0,0,.585.663,7.235,7.235,0,0,0,1.8,1.288,6.815,6.815,0,0,0,3.116.73,9.079,9.079,0,0,0,2.074-.223A12.6,12.6,0,0,0,87.482,40.521Z" transform="translate(28.107 87.784)" fill="#fff"/>
          <path id="Path_12805" data-name="Path 12805" d="M82.941,48.014a14.051,14.051,0,0,1,1.611-5.452c.39-.786.87-1.5,1.31-2.23.457-.736.9-1.444,1.344-2.163l-2.369-1.985c-.089.145-.178.29-.273.446a21.239,21.239,0,0,0-1.338,2.52,13.9,13.9,0,0,0-.814,2.213,10.942,10.942,0,0,0-.385,3.557,7.55,7.55,0,0,0,.507,2.286A4.357,4.357,0,0,0,82.941,48.014Z" transform="translate(47.56 86.812)" fill="#fff"/>
          <path id="Path_12806" data-name="Path 12806" d="M79.507,37.906a4.954,4.954,0,0,0,.725.513,7.344,7.344,0,0,0,2.046.831,7.032,7.032,0,0,0,3.206,0,9.317,9.317,0,0,0,1.962-.7,10.778,10.778,0,0,0,2.1-1.394c.123-.1.245-.2.368-.3l-2.375-1.985c-.535.418-1.076.836-1.622,1.271a11.367,11.367,0,0,1-1.8,1.082A7.442,7.442,0,0,1,79.507,37.906Z" transform="translate(37.013 81.836)" fill="#fff"/>
          <path id="Path_12808" data-name="Path 12808" d="M77.106,39.558a9.458,9.458,0,0,1-3.39.909,8.9,8.9,0,0,1-1.221,0c-.446-.039-.931-.106-1.472-.206s-1.137-.234-1.8-.4c-.652-.19-1.36-.446-2.146-.73L65.527,41.8c.552.212,1.1.4,1.661.569a11.01,11.01,0,0,0,1.706.346,9,9,0,0,0,6.155-1.355A8.09,8.09,0,0,0,77.106,39.558Z" transform="translate(-24.72 100.285)" fill="#fff"/>
          <path id="Path_12809" data-name="Path 12809" d="M72.469,47.55a11.593,11.593,0,0,0-2.325-8.123,14,14,0,0,0-.992-1.076c-.34-.34-.691-.663-1.054-.987l-1.55,2.676c.569.479,1.065.953,1.522,1.36s.87.775,1.227,1.132.663.7.931,1.026.513.608.719.886A12.5,12.5,0,0,1,72.469,47.55Z" transform="translate(-20.163 92.211)" fill="#fff"/>
          <path id="Path_12810" data-name="Path 12810" d="M80.759,45a9.85,9.85,0,0,0,3.434-1.031A9.517,9.517,0,0,0,86.44,42.24,8.347,8.347,0,0,0,88.018,40c-1.8,1.238-3.272,2.765-10.381,1.862-4.131-.624-6.852.011-8.624.953a7.338,7.338,0,0,0-1.9,1.36,4.4,4.4,0,0,0-.585.686,13.551,13.551,0,0,1,2.013-.5,12.869,12.869,0,0,1,1.907-.212,14.823,14.823,0,0,1,1.8.05c.585.067,1.176.106,1.751.19A28.364,28.364,0,0,0,80.759,45Z" transform="translate(-20.381 104.266)" fill="#fff"/>
          <path id="Path_12811" data-name="Path 12811" d="M72.993,46.22a26.542,26.542,0,0,1,5.631,3.406,11.5,11.5,0,0,1,2.291,2.715,10.818,10.818,0,0,0-.7-2.654,11.6,11.6,0,0,0-1.266-2.364,9.419,9.419,0,0,0-2.185-2.33c-1.489-1.187-3.222-1.817-4.8-2.854a9.4,9.4,0,0,1-1.143-.825A8.76,8.76,0,0,1,69.8,40.249a7.778,7.778,0,0,1-.859-1.293,8.77,8.77,0,0,1-.6-1.672,5.968,5.968,0,0,0-.19.875,7.392,7.392,0,0,0,.039,2.23C68.522,42.133,69.665,44.486,72.993,46.22Z" transform="translate(-13.429 91.84)" fill="#fff"/>
          <path id="Path_12814" data-name="Path 12814" d="M73.067,48.546a13.716,13.716,0,0,1,2.336-1.9,15.312,15.312,0,0,1,2.4-1.232c1.617-.708,3.278-1.076,4.861-1.667l-.535-3.05-.5.173a26.812,26.812,0,0,0-2.654,1.059,13.683,13.683,0,0,0-2.04,1.2,9.682,9.682,0,0,0-2.587,2.459,7.963,7.963,0,0,0-1.082,2.085A4.232,4.232,0,0,0,73.067,48.546Z" transform="translate(8.592 107.454)" fill="#fff"/>
          <path id="Path_12815" data-name="Path 12815" d="M72.888,38.18a5.144,5.144,0,0,0,.223.864,6.811,6.811,0,0,0,1.037,1.94,7.419,7.419,0,0,0,2.459,2.074,8.863,8.863,0,0,0,1.94.7,9.187,9.187,0,0,0,2.509.3h.468l-.535-3.044a17.959,17.959,0,0,1-4.131-.379,7.364,7.364,0,0,1-2.035-.842A7.681,7.681,0,0,1,72.888,38.18Z" transform="translate(7.817 95.944)" fill="#fff"/>
          <path id="Path_12817" data-name="Path 12817" d="M69.832,38.963a15.793,15.793,0,0,1-1.55-.518,6.812,6.812,0,0,1-1.656-.948,13.351,13.351,0,0,1-1.94-1.873,26.917,26.917,0,0,1-2.3-3.406l-2.91,1.054a17.118,17.118,0,0,0,2,2.86,9.406,9.406,0,0,0,2.893,2.135,8.9,8.9,0,0,0,1.4.524,11.667,11.667,0,0,0,1.3.256A8.4,8.4,0,0,0,69.832,38.963Z" transform="translate(-51.172 70.062)" fill="#fff"/>
          <path id="Path_12818" data-name="Path 12818" d="M61.349,42.118a10.752,10.752,0,0,0,1.695-2.135,10.986,10.986,0,0,0,.608-1.115,12.55,12.55,0,0,0,.557-1.321,10.059,10.059,0,0,0,.552-3.15,13.642,13.642,0,0,0-.251-2.877L61.6,32.579a36.217,36.217,0,0,1,.513,3.668,13.054,13.054,0,0,1,.05,2.52,10.965,10.965,0,0,1-.323,1.812C61.695,41.115,61.522,41.6,61.349,42.118Z" transform="translate(-42.617 66.913)" fill="#fff"/>
          <path id="Path_12819" data-name="Path 12819" d="M70.268,43.4a9.018,9.018,0,0,0,8.769.836A8.825,8.825,0,0,1,75.48,43.5a17.219,17.219,0,0,1-5.586-4.51,23.528,23.528,0,0,0-2.035-2.007,13.207,13.207,0,0,0-1.89-1.4q-.46-.284-.9-.5c-.284-.151-.569-.279-.842-.4a9,9,0,0,0-1.55-.5,7.435,7.435,0,0,0-2.341-.167,4.114,4.114,0,0,0-.892.162,12.432,12.432,0,0,1,3.445,1.968A17.793,17.793,0,0,1,65.468,38.6c.786.886,1.528,1.728,2.286,2.576a12.679,12.679,0,0,0,1.2,1.187A12.362,12.362,0,0,0,70.268,43.4Z" transform="translate(-51.346 77.775)" fill="#fff"/>
          <path id="Path_12820" data-name="Path 12820" d="M63.292,42.119a29.773,29.773,0,0,1,2.13,6.233,13.489,13.489,0,0,1,0,3.557A10.4,10.4,0,0,0,66.57,49.45a12.407,12.407,0,0,0,.58-2.654,10.473,10.473,0,0,0-.569-4.538c-.162-.44-.323-.87-.485-1.3-.329-.87-.725-1.712-1-2.609a10.345,10.345,0,0,1-.452-2.838,8.266,8.266,0,0,1,.792-3.217,5.343,5.343,0,0,0-.7.546,7.106,7.106,0,0,0-1.377,1.723,7.4,7.4,0,0,0-.6,1.366,6.4,6.4,0,0,0-.217.814,8.511,8.511,0,0,0-.106.892,10.1,10.1,0,0,0,.112,2.079A10.273,10.273,0,0,0,63.292,42.119Z" transform="translate(-37.664 70.133)" fill="#fff"/>
          <path id="Path_12821" data-name="Path 12821" d="M72.526,39.712c-.429-.3-.847-.569-1.26-.808s-.792-.474-1.176-.675a13.662,13.662,0,0,0-2.169-.925,10.134,10.134,0,0,0-3.518-.6,7.516,7.516,0,0,0-2.325.379,4.3,4.3,0,0,0-.831.357,13.072,13.072,0,0,1,3.819,1.109c.546.273,1.082.546,1.594.847s1,.624,1.477.953c.931.691,1.884,1.344,2.815,1.985A13.227,13.227,0,0,0,73.9,43.927a9.99,9.99,0,0,0,1.834.507,9.511,9.511,0,0,0,1.7.1,9.236,9.236,0,0,0,2.76-.5,8.992,8.992,0,0,0,1.79-.859,6.124,6.124,0,0,0,.647-.446A8.841,8.841,0,0,1,79,42.823a10.917,10.917,0,0,1-2.7-.9c-.524-.245-1.1-.552-1.739-.9S73.273,40.22,72.526,39.712Z" transform="translate(-43.079 89.193)" fill="#fff"/>
          <path id="Path_12822" data-name="Path 12822" d="M65.929,44.4c.474.636.864,1.243,1.254,1.767s.708,1.015.992,1.472a19.056,19.056,0,0,1,1.254,2.342,13.155,13.155,0,0,1,.808,3.456,7.211,7.211,0,0,0,.229-.73,12.567,12.567,0,0,0,.329-1.929,11.679,11.679,0,0,0-.045-2.7,9.419,9.419,0,0,0-.329-1.5,9.584,9.584,0,0,0-.574-1.572,19.93,19.93,0,0,0-1.461-2.386,27.862,27.862,0,0,1-1.561-2.308,13.522,13.522,0,0,1-.647-1.266,5.994,5.994,0,0,1-.446-1.394,7.864,7.864,0,0,1,.017-3.306,5.371,5.371,0,0,0-.563.691,7.054,7.054,0,0,0-.931,2,7.253,7.253,0,0,0-.2,3.2,9.756,9.756,0,0,0,.6,1.985,10.7,10.7,0,0,0,.524,1.087A12.807,12.807,0,0,0,65.929,44.4Z" transform="translate(-31.575 79.152)" fill="#fff"/>
          <path id="Path_12823" data-name="Path 12823" d="M63.655,40.576a14.916,14.916,0,0,1,3.01.05,14.5,14.5,0,0,1,2.631.608c1.695.491,3.206,1.277,4.794,1.84l1.55-2.676c-.162-.061-.323-.128-.491-.19a28.446,28.446,0,0,0-2.715-.9,15.1,15.1,0,0,0-2.325-.39,9.813,9.813,0,0,0-3.568.223,7.914,7.914,0,0,0-2.169.9A4.261,4.261,0,0,0,63.655,40.576Z" transform="translate(-32.983 99.017)" fill="#fff"/>
          <path id="Path_12824" data-name="Path 12824" d="M66.742,36.039a5.719,5.719,0,0,0-.379.814,6.773,6.773,0,0,0-.468,2.163,7.44,7.44,0,0,0,.552,3.155,8.643,8.643,0,0,0,1.043,1.8,9.749,9.749,0,0,0,1.728,1.84c.123.1.24.2.357.3l1.55-2.676A18.706,18.706,0,0,1,68.2,40.488a7.885,7.885,0,0,1-1.015-1.951A7.508,7.508,0,0,1,66.742,36.039Z" transform="translate(-23.081 86.165)" fill="#fff"/>
          <path id="Path_12826" data-name="Path 12826" d="M64.009,34.015a9.354,9.354,0,0,1-1.516-3.183,12.812,12.812,0,0,1-.268-2.693,24.673,24.673,0,0,1,.424-4.086L59.739,23a17.926,17.926,0,0,0-.312,3.473A9.093,9.093,0,0,0,61.852,32.3,8.613,8.613,0,0,0,64.009,34.015Z" transform="translate(-51.432 29.337)" fill="#fff"/>
          <path id="Path_12827" data-name="Path 12827" d="M60.259,30.843a10.708,10.708,0,0,0,2.676-.546,10.88,10.88,0,0,0,4.895-3.172A13.389,13.389,0,0,0,69.5,24.755L66.587,23.7c-.708,1.3-1.4,2.308-1.962,3.139a12.625,12.625,0,0,1-1.594,1.957A12.233,12.233,0,0,1,60.259,30.843Z" transform="translate(-47.604 32.453)" fill="#fff"/>
          <path id="Path_12828" data-name="Path 12828" d="M60.777,38.237a9.526,9.526,0,0,0,.691,1.778,9.368,9.368,0,0,0,.937,1.422,9.473,9.473,0,0,0,2.052,1.912,9.357,9.357,0,0,0,1.762.92,5.925,5.925,0,0,0,.736.245,8.766,8.766,0,0,1-2.241-2.849,10.706,10.706,0,0,1-.892-2.7,23.2,23.2,0,0,1-.491-4.343,24.035,24.035,0,0,0-.273-2.843,13.649,13.649,0,0,0-.541-2.3A11.17,11.17,0,0,0,60.888,26.3,8.031,8.031,0,0,0,59.2,24.656a4.37,4.37,0,0,0-.792-.446,12.508,12.508,0,0,1,1.371,3.73,17.008,17.008,0,0,1,.4,3.54C60.292,33.8,60.141,36.09,60.777,38.237Z" transform="translate(-56.049 34.557)" fill="#fff"/>
          <path id="Path_12829" data-name="Path 12829" d="M64.627,31.338c-.507,1.511-.842,2.737-1.254,3.741a18.918,18.918,0,0,1-1.121,2.4A13.1,13.1,0,0,1,59.961,40.2a7.228,7.228,0,0,0,.725-.262,11.7,11.7,0,0,0,1.745-.886A11.036,11.036,0,0,0,64.572,37.4a9.74,9.74,0,0,0,1-1.16,10.247,10.247,0,0,0,.909-1.4c.864-1.684,1.249-3.5,1.951-5.235A10.585,10.585,0,0,1,69.9,27.146a8.291,8.291,0,0,1,2.682-1.957,5.484,5.484,0,0,0-.886-.033,7.3,7.3,0,0,0-2.158.435,6.837,6.837,0,0,0-2.676,1.767,8.976,8.976,0,0,0-1.249,1.656A9.821,9.821,0,0,0,64.627,31.338Z" transform="translate(-48.967 38.776)" fill="#fff"/>
          <path id="Path_12830" data-name="Path 12830" d="M65.142,36.522a22.353,22.353,0,0,0-.9-2.709,18.955,18.955,0,0,0-1.065-2.107,10.138,10.138,0,0,0-2.325-2.726,8.218,8.218,0,0,0-2.007-1.2,4.57,4.57,0,0,0-.859-.251,14.278,14.278,0,0,1,2.208,3.3,15.448,15.448,0,0,1,.652,1.672c.206.557.379,1.126.53,1.678.312,1.121.53,2.241.875,3.334a14.915,14.915,0,0,0,1.226,3.116,9.943,9.943,0,0,0,2.308,2.743,9.741,9.741,0,0,0,2.47,1.388,8.567,8.567,0,0,0,2.682.563C69.1,44.166,67.11,43.4,65.142,36.522Z" transform="translate(-57.989 49.201)" fill="#fff"/>
          <path id="Path_12831" data-name="Path 12831" d="M62.83,35.4a26.864,26.864,0,0,1-.909,6.528A11.7,11.7,0,0,1,60.327,45.1a10.8,10.8,0,0,0,2.158-1.689,10.994,10.994,0,0,0,1.672-2.1,9.565,9.565,0,0,0,1.293-2.932,16.373,16.373,0,0,0,.424-2.76,24.693,24.693,0,0,1,.3-2.776c.084-.468.173-.925.3-1.383a8.242,8.242,0,0,1,.58-1.36,7.478,7.478,0,0,1,2.141-2.531,5.945,5.945,0,0,0-.875.178,7.113,7.113,0,0,0-2.013.925,7.488,7.488,0,0,0-2.2,2.33,7.865,7.865,0,0,0-.825,1.907A10.928,10.928,0,0,0,62.83,35.4Z" transform="translate(-47.293 49.404)" fill="#fff"/>
          <path id="Path_12832" data-name="Path 12832" d="M58.334,30.862a12.465,12.465,0,0,1,2.258,1.985A13.444,13.444,0,0,1,62.248,35c.234.368.452.741.658,1.121s.418.758.63,1.126c.4.769.792,1.505,1.182,2.252l2.91-1.054-.251-.468a17.669,17.669,0,0,0-1.516-2.425,14.724,14.724,0,0,0-1.5-1.812,10.791,10.791,0,0,0-1.505-1.271,9.649,9.649,0,0,0-1.383-.847,7.563,7.563,0,0,0-2.23-.708A4.131,4.131,0,0,0,58.334,30.862Z" transform="translate(-56.411 64.021)" fill="#fff"/>
          <path id="Path_12833" data-name="Path 12833" d="M65.906,30a4.893,4.893,0,0,0-.8.362,7.177,7.177,0,0,0-1.756,1.366,7.267,7.267,0,0,0-.909,1.176,8.058,8.058,0,0,0-.691,1.589,9.012,9.012,0,0,0-.385,2.052,13.091,13.091,0,0,0,.156,2.514c.022.162.045.307.067.468l2.91-1.059c-.095-.68-.184-1.36-.273-2.052-.039-.346-.078-.68-.089-1.031s.011-.7.039-1.059a8.018,8.018,0,0,1,.446-2.141A8.55,8.55,0,0,1,65.906,30Z" transform="translate(-42.602 60.235)" fill="#fff"/>
          <path id="Path_12835" data-name="Path 12835" d="M65.3,26.958a8.888,8.888,0,0,1,.9-3.4,10.039,10.039,0,0,1,1.516-2.241,21.852,21.852,0,0,1,2.949-2.843L69.116,15.8c-.452.368-.9.741-1.321,1.143a12.238,12.238,0,0,0-1.143,1.316,10.854,10.854,0,0,0-1.02,1.611,9.412,9.412,0,0,0-.881,4.393,8.886,8.886,0,0,0,.307,1.951A6.192,6.192,0,0,0,65.3,26.958Z" transform="translate(-28.142 -2.005)" fill="#fff"/>
          <path id="Path_12836" data-name="Path 12836" d="M64.852,18.959a6.745,6.745,0,0,0,.641.424,12.933,12.933,0,0,0,1.762.87,10.881,10.881,0,0,0,2.6.73,10.349,10.349,0,0,0,1.528.117,9.58,9.58,0,0,0,1.672-.111,9.868,9.868,0,0,0,1.416-.329c.463-.128.925-.262,1.383-.424l-1.55-2.676c-1.422.474-2.542.886-3.529,1.137a18.653,18.653,0,0,1-2.475.485A13.294,13.294,0,0,1,64.852,18.959Z" transform="translate(-27.694 6.061)" fill="#fff"/>
          <path id="Path_12837" data-name="Path 12837" d="M63.312,28.286a9,9,0,0,0-.457,6.283,9.714,9.714,0,0,0,.73,1.823,6.2,6.2,0,0,0,.413.669,9.346,9.346,0,0,1,.123-3.629,10.616,10.616,0,0,1,1.059-2.637,19.364,19.364,0,0,1,.987-1.689q.61-.886,1.427-1.957a25.6,25.6,0,0,0,1.633-2.336,18.072,18.072,0,0,0,1.048-2.118,10.187,10.187,0,0,0,.792-3.49,7.861,7.861,0,0,0-.234-2.325,4.051,4.051,0,0,0-.312-.842,14.07,14.07,0,0,1-1.332,3.741,16.713,16.713,0,0,1-.942,1.528c-.329.5-.675.976-1.037,1.427s-.725.9-1.087,1.338c-.362.452-.708.9-1.054,1.355A13.649,13.649,0,0,0,63.312,28.286Z" transform="translate(-38.101 -0.902)" fill="#fff"/>
          <path id="Path_12838" data-name="Path 12838" d="M72.055,20.5c-.658.44-1.266.82-1.834,1.154s-1.054.658-1.522.909a17.722,17.722,0,0,1-2.408,1.109,11.722,11.722,0,0,1-3.518.608,6.385,6.385,0,0,0,.725.268A11.905,11.905,0,0,0,65.416,25a11.1,11.1,0,0,0,5.815-.624,17.685,17.685,0,0,0,2.464-1.321c.4-.24.781-.5,1.171-.741.407-.24.814-.468,1.232-.68s.847-.413,1.293-.585a7.789,7.789,0,0,1,1.422-.346,7.205,7.205,0,0,1,3.306.217,4.763,4.763,0,0,0-.663-.6,6.654,6.654,0,0,0-1.946-1.07,7.371,7.371,0,0,0-3.178-.368,8.264,8.264,0,0,0-2.013.479A9.892,9.892,0,0,0,72.055,20.5Z" transform="translate(-36.916 11.044)" fill="#fff"/>
          <path id="Path_12839" data-name="Path 12839" d="M64.756,29.794c1.8-3.78,1.951-6.567,1.567-8.53a7.591,7.591,0,0,0-.758-2.208,4.08,4.08,0,0,0-.5-.753,12.417,12.417,0,0,1-.095,2.068,11.567,11.567,0,0,1-.346,1.879,21.46,21.46,0,0,1-1.243,3.328,28.757,28.757,0,0,0-2.531,6.3,9.988,9.988,0,0,0,0,3.579,9.35,9.35,0,0,0,1.009,2.648,8.5,8.5,0,0,0,1.684,2.158C62.889,38.2,61.852,36.339,64.756,29.794Z" transform="translate(-45.645 8.573)" fill="#fff"/>
          <path id="Path_12840" data-name="Path 12840" d="M69.368,23.631a27.094,27.094,0,0,1-4.884,4.421,11.506,11.506,0,0,1-3.272,1.4,10.844,10.844,0,0,0,2.743.095,11.148,11.148,0,0,0,2.631-.524,9.526,9.526,0,0,0,2.871-1.427c1.561-1.082,2.665-2.559,4.114-3.774A8.213,8.213,0,0,1,76,22.293a7.342,7.342,0,0,1,1.489-.452,9.1,9.1,0,0,1,1.773-.1,5.074,5.074,0,0,0-.775-.424,7.153,7.153,0,0,0-2.146-.6C74.564,20.526,71.983,20.944,69.368,23.631Z" transform="translate(-43.244 19.112)" fill="#fff"/>
          <path id="Path_12841" data-name="Path 12841" d="M60.142,21.076a13.16,13.16,0,0,1,.457,2.971,13.548,13.548,0,0,1-.117,2.709c-.056.435-.139.859-.223,1.282-.067.429-.151.853-.24,1.271-.173.842-.379,1.661-.541,2.486l2.91,1.054c.022-.167.067-.334.1-.513a17.755,17.755,0,0,0,.407-2.832,16.564,16.564,0,0,0,.011-2.347,11.087,11.087,0,0,0-.853-3.479A7.515,7.515,0,0,0,60.806,21.7,4.458,4.458,0,0,0,60.142,21.076Z" transform="translate(-51.172 20.852)" fill="#fff"/>
          <path id="Path_12842" data-name="Path 12842" d="M70.827,23.191a4.64,4.64,0,0,0-.853-.24,7.232,7.232,0,0,0-2.219-.084,6.836,6.836,0,0,0-3,1.093,8.142,8.142,0,0,0-1.6,1.327,13.185,13.185,0,0,0-1.516,2.024c-.078.139-.167.268-.24.4l2.91,1.059c.362-.58.73-1.171,1.109-1.745.19-.29.39-.569.6-.847a7.783,7.783,0,0,1,.7-.786,8.526,8.526,0,0,1,1.723-1.355A8.06,8.06,0,0,1,70.827,23.191Z" transform="translate(-42.411 28.592)" fill="#fff"/>
          <path id="Path_12844" data-name="Path 12844" d="M72.977,20.262a9.418,9.418,0,0,1,2.877-2.029A11.587,11.587,0,0,1,77,17.814a12.752,12.752,0,0,1,1.449-.312,21.178,21.178,0,0,1,4.092-.284l.535-3.05c-.591-.011-1.171-.011-1.756.028a13.584,13.584,0,0,0-1.717.268A8.832,8.832,0,0,0,76.316,15.9a9.328,9.328,0,0,0-2.024,1.957A8.083,8.083,0,0,0,72.977,20.262Z" transform="translate(8.188 -9.485)" fill="#fff"/>
          <path id="Path_12845" data-name="Path 12845" d="M72.977,15.271a11.1,11.1,0,0,0,1,2.548,11.433,11.433,0,0,0,1.528,2.224,11.079,11.079,0,0,0,2.447,2.063,9.759,9.759,0,0,0,1.3.652c.435.206.881.4,1.327.574l.535-3.044c-1.388-.558-2.52-.959-3.434-1.4-.457-.217-.87-.44-1.232-.647a10.267,10.267,0,0,1-.976-.574A12.924,12.924,0,0,1,72.977,15.271Z" transform="translate(8.219 -4.411)" fill="#fff"/>
          <path id="Path_12846" data-name="Path 12846" d="M75.214,18.039a9.132,9.132,0,0,0-4.393,4.538,8.435,8.435,0,0,0-.73,2.654,9.291,9.291,0,0,1,2.425-2.715,14.18,14.18,0,0,1,2.509-1.344,28.669,28.669,0,0,1,4.192-1.238c4.1-.814,6.422-2.341,7.772-3.847A7.28,7.28,0,0,0,88.3,14.17a4.034,4.034,0,0,0,.307-.847,12.857,12.857,0,0,1-1.717,1.154,11.377,11.377,0,0,1-1.712.853,23.183,23.183,0,0,1-3.412,1c-.563.123-1.132.229-1.695.334s-1.126.19-1.672.34A17.289,17.289,0,0,0,75.214,18.039Z" transform="translate(-4.67 -13.323)" fill="#fff"/>
          <path id="Path_12847" data-name="Path 12847" d="M79.633,18.528c-1.578-.151-2.854-.385-3.9-.574a13.623,13.623,0,0,1-2.559-.7,12.06,12.06,0,0,1-3.077-1.778,10.694,10.694,0,0,0,1.561,2.252A10.872,10.872,0,0,0,76.5,20.959a12.853,12.853,0,0,0,2.737.591c.452.045.914.134,1.377.206s.92.162,1.377.256a8.414,8.414,0,0,1,2.693,1.037,7.934,7.934,0,0,1,1.249.925,8.938,8.938,0,0,1,1.148,1.366,5.48,5.48,0,0,0-.128-.886,7.359,7.359,0,0,0-.8-2.079C85.241,20.847,83.351,19.03,79.633,18.528Z" transform="translate(-4.636 -3.487)" fill="#fff"/>
          <path id="Path_12848" data-name="Path 12848" d="M75.048,22.094a23.187,23.187,0,0,0,2.5-1.371,13.145,13.145,0,0,0,1.9-1.4,11.074,11.074,0,0,0,2.28-2.748,7.732,7.732,0,0,0,.842-2.2,4.35,4.35,0,0,0,.1-.9A12.63,12.63,0,0,1,79.793,16.2a16.428,16.428,0,0,1-3.1,1.756L73.56,19.407a15.043,15.043,0,0,0-1.477.8,14.1,14.1,0,0,0-1.371.97,9.153,9.153,0,0,0-3.239,5.4,8.586,8.586,0,0,0-.084,2.765c.2-.518.374-1.031.63-1.567a7.183,7.183,0,0,1,1.1-1.628A17.069,17.069,0,0,1,75.048,22.094Z" transform="translate(-16.855 -12.628)" fill="#fff"/>
          <path id="Path_12849" data-name="Path 12849" d="M77.316,17.11a29.968,29.968,0,0,1-6.573.251,10.251,10.251,0,0,1-1.868-.44c-.535-.178-1.026-.39-1.539-.585a10.463,10.463,0,0,0,2.024,1.806,12.228,12.228,0,0,0,2.369,1.316,11.363,11.363,0,0,0,3.111.747,9.79,9.79,0,0,0,1.4.017c.468-.028.925-.061,1.388-.095.92-.056,1.845-.19,2.776-.2a10.456,10.456,0,0,1,2.849.379A8.3,8.3,0,0,1,86.1,22a4.957,4.957,0,0,0-.318-.82,7.287,7.287,0,0,0-1.254-1.823,6.935,6.935,0,0,0-2.676-1.767,10.085,10.085,0,0,0-2.018-.5A10.9,10.9,0,0,0,77.316,17.11Z" transform="translate(-16.807 0.457)" fill="#fff"/>
          <path id="Path_12850" data-name="Path 12850" d="M72.9,14.394a13.445,13.445,0,0,1-1.544,2.592,17.963,17.963,0,0,1-1.834,1.99,21.292,21.292,0,0,1-2,1.656c-.68.513-1.338,1.054-2,1.583l1.55,2.676c.139-.112.273-.217.413-.335.407-.329.786-.652,1.137-.987.357-.307.686-.619.987-.925a13.643,13.643,0,0,0,1.505-1.817,10.126,10.126,0,0,0,1.589-3.2,7.867,7.867,0,0,0,.3-2.336A4.255,4.255,0,0,0,72.9,14.394Z" transform="translate(-24.686 -8.423)" fill="#fff"/>
          <path id="Path_12851" data-name="Path 12851" d="M76.672,20.781a5.11,5.11,0,0,0-.507-.741,6.812,6.812,0,0,0-1.633-1.466,7.34,7.34,0,0,0-3.016-1.1,9.185,9.185,0,0,0-2.068.011q-.569.059-1.187.184a13.147,13.147,0,0,0-1.271.4c-.145.056-.3.106-.44.156l1.55,2.676c.658-.2,1.288-.463,1.957-.641a13.384,13.384,0,0,1,2.052-.418,7.341,7.341,0,0,1,2.2.084A7.766,7.766,0,0,1,76.672,20.781Z" transform="translate(-20.199 5.405)" fill="#fff"/>
          <path id="Path_12853" data-name="Path 12853" d="M80.844,19.546c2.118-.045,4.137-.463,9.282,3.813L92.5,21.375a15.728,15.728,0,0,0-2.843-2.007,9.771,9.771,0,0,0-3.44-1.02,9.338,9.338,0,0,0-2.821.2A8.366,8.366,0,0,0,80.844,19.546Z" transform="translate(42.269 8.724)" fill="#fff"/>
          <path id="Path_12854" data-name="Path 12854" d="M81.756,18.549a10.83,10.83,0,0,0-.875,2.6,11.281,11.281,0,0,0-.245,2.67,9.682,9.682,0,0,0,.541,3.155A16.243,16.243,0,0,0,82.4,29.61l2.375-1.99a24.775,24.775,0,0,1-2.631-5.642A11.767,11.767,0,0,1,81.756,18.549Z" transform="translate(42.12 9.717)" fill="#fff"/>
          <path id="Path_12855" data-name="Path 12855" d="M87.038,16.666a9.081,9.081,0,0,0-6.277.652A8.349,8.349,0,0,0,78.5,18.885a9.236,9.236,0,0,1,3.6-.53,13.894,13.894,0,0,1,2.787.585,16.255,16.255,0,0,1,1.817.708c.663.3,1.4.613,2.185,1.048a18.161,18.161,0,0,0,2.592,1.2,17.043,17.043,0,0,0,2.252.68,10.594,10.594,0,0,0,1.951.234,9.44,9.44,0,0,0,1.622-.056,7.508,7.508,0,0,0,2.247-.641,4.077,4.077,0,0,0,.786-.446,15.33,15.33,0,0,1-7.164-2.113c-1.043-.535-2.018-1.132-3.022-1.656A18.315,18.315,0,0,0,87.038,16.666Z" transform="translate(32.239 0.711)" fill="#fff"/>
          <path id="Path_12856" data-name="Path 12856" d="M84.046,25.319c-.535-.6-1.043-1.093-1.466-1.589s-.8-.964-1.143-1.371a12.91,12.91,0,0,1-1.516-2.174A11.974,11.974,0,0,1,78.7,16.851a10.628,10.628,0,0,0-.251,2.721,10.944,10.944,0,0,0,1.634,5.6,12.664,12.664,0,0,0,1.717,2.2c.613.7,1.238,1.394,1.817,2.124a7.845,7.845,0,0,1,1.739,5.815,4.668,4.668,0,0,0,.474-.753,7.109,7.109,0,0,0,.714-2.1,6.982,6.982,0,0,0,.106-1.489,7.5,7.5,0,0,0-.3-1.712,8.817,8.817,0,0,0-.8-1.918A13.207,13.207,0,0,0,84.046,25.319Z" transform="translate(32.388 2.818)" fill="#fff"/>
          <path id="Path_12857" data-name="Path 12857" d="M86.359,18.476a20.3,20.3,0,0,0,2.8.552,12.616,12.616,0,0,0,2.353.156,11.111,11.111,0,0,0,3.518-.641A7.809,7.809,0,0,0,97.085,17.4a4.267,4.267,0,0,0,.658-.63,12.592,12.592,0,0,1-3.969.24,16.485,16.485,0,0,1-3.5-.647c-1.126-.284-2.23-.613-3.323-.9a15.469,15.469,0,0,0-3.323-.479c-.34-.006-.669,0-.981.017-.318.039-.63.084-.925.145a9.31,9.31,0,0,0-1.628.479,8.4,8.4,0,0,0-2.42,1.422,8.5,8.5,0,0,0-1.84,2.063,8.723,8.723,0,0,1,3.378-1.344,12.89,12.89,0,0,1,2.843-.089c.585.061,1.227.145,1.94.273.357.061.73.128,1.132.206S85.924,18.359,86.359,18.476Z" transform="translate(20.553 -5.726)" fill="#fff"/>
          <path id="Path_12858" data-name="Path 12858" d="M82.981,22.74c-.329-.212-.636-.446-.937-.641s-.585-.39-.847-.574c-.541-.368-1.015-.719-1.433-1.054a15.463,15.463,0,0,1-1.979-1.762,13.739,13.739,0,0,1-1.957-2.971,10.833,10.833,0,0,0,.4,2.693,13.135,13.135,0,0,0,.97,2.52,10.321,10.321,0,0,0,.814,1.31c.162.206.335.418.513.624s.368.429.574.636a14.994,14.994,0,0,0,2.185,1.734c.753.546,1.528,1.054,2.258,1.639a10.317,10.317,0,0,1,1.923,2.124,7.984,7.984,0,0,1,1.1,3.133,5.824,5.824,0,0,0,.29-.847,7.291,7.291,0,0,0,.206-2.191,6.928,6.928,0,0,0-.914-3.077,10.145,10.145,0,0,0-1.226-1.684A12.549,12.549,0,0,0,82.981,22.74Z" transform="translate(20.753 -2.274)" fill="#fff"/>
          <path id="Path_12859" data-name="Path 12859" d="M85.9,13.938a13.153,13.153,0,0,1-2.854,1,18.189,18.189,0,0,1-2.682.34,22.4,22.4,0,0,1-2.6-.017c-.853-.039-1.706-.05-2.542-.067l-.535,3.05c.173,0,.351.006.53.006.524.011,1.026.006,1.5-.028.474-.011.925-.028,1.355-.067a13.4,13.4,0,0,0,2.325-.429A10.378,10.378,0,0,0,83.674,16.3a7.913,7.913,0,0,0,1.734-1.6A4.152,4.152,0,0,0,85.9,13.938Z" transform="translate(15.744 -10.509)" fill="#fff"/>
          <path id="Path_12860" data-name="Path 12860" d="M80.986,24.628a5.077,5.077,0,0,0,.084-.881,7.148,7.148,0,0,0-1.907-4.962,10.112,10.112,0,0,0-1.589-1.332,11.851,11.851,0,0,0-1.037-.613c-.374-.173-.786-.346-1.221-.507-.151-.056-.3-.106-.44-.162l-.535,3.044c.636.262,1.288.468,1.918.758a13.335,13.335,0,0,1,1.834,1,6.566,6.566,0,0,1,1.633,1.483A8.1,8.1,0,0,1,80.986,24.628Z" transform="translate(14.267 -0.293)" fill="#fff"/>
          <path id="Path_12862" data-name="Path 12862" d="M84.759,26.108a16.241,16.241,0,0,1,1.277,1.02,6.883,6.883,0,0,1,.63.641,6.954,6.954,0,0,1,.6.82,12.987,12.987,0,0,1,1.176,2.425,28.294,28.294,0,0,1,1,3.981h3.094a17.774,17.774,0,0,0-.9-3.362,9.4,9.4,0,0,0-1.985-2.988,8.676,8.676,0,0,0-2.269-1.667A8.521,8.521,0,0,0,84.759,26.108Z" transform="translate(60.18 43.074)" fill="#fff"/>
          <path id="Path_12863" data-name="Path 12863" d="M90.161,26.109a10.777,10.777,0,0,0-2.325,1.427A13.474,13.474,0,0,0,85.9,29.421a10.352,10.352,0,0,0-1.6,2.765,13.45,13.45,0,0,0-.741,2.8h3.089a31.986,31.986,0,0,1,.786-3.624,12.579,12.579,0,0,1,.808-2.386,9.557,9.557,0,0,1,.468-.87c.151-.262.307-.5.463-.725C89.492,26.94,89.826,26.533,90.161,26.109Z" transform="translate(54.695 43.079)" fill="#fff"/>
          <path id="Path_12864" data-name="Path 12864" d="M92.011,27.111a11.069,11.069,0,0,0-1.249-1.433A9.339,9.339,0,0,0,86.8,23.565a8.663,8.663,0,0,0-1.962-.268,5.533,5.533,0,0,0-.781.028,8.728,8.728,0,0,1,3.083,1.912,12.263,12.263,0,0,1,.864.937,11.907,11.907,0,0,1,.892,1.3c.307.5.63,1.054.97,1.7s.63,1.388.976,2.219c1.544,3.891,3.457,5.921,5.123,6.991a7.46,7.46,0,0,0,2.146.964,4.082,4.082,0,0,0,.9.156,12.484,12.484,0,0,1-2.576-3.033,19.7,19.7,0,0,1-1.572-3.194c-.4-1.093-.842-2.163-1.26-3.211a16.486,16.486,0,0,0-.7-1.528A15.673,15.673,0,0,0,92.011,27.111Z" transform="translate(56.987 30.585)" fill="#fff"/>
          <path id="Path_12865" data-name="Path 12865" d="M88.226,33.228c-.05-.792-.045-1.516-.078-2.169s-.033-1.238-.022-1.773.056-1.02.095-1.449a9.879,9.879,0,0,1,.145-1.187,13.115,13.115,0,0,1,1.226-3.345A7.345,7.345,0,0,0,89,23.8a12.689,12.689,0,0,0-1.344,1.433,11.309,11.309,0,0,0-1.444,2.291,11.01,11.01,0,0,0-.552,1.427,9.314,9.314,0,0,0-.468,3.027c0,.457-.022.931-.006,1.388a27.426,27.426,0,0,1,.033,2.793,9.364,9.364,0,0,1-.546,2.815,8.153,8.153,0,0,1-1.84,2.743,4.574,4.574,0,0,0,.842-.273A6.958,6.958,0,0,0,85.561,40.3a7.187,7.187,0,0,0,1.923-2.564,9.87,9.87,0,0,0,.6-1.979,8.851,8.851,0,0,0,.156-1.2A13.171,13.171,0,0,0,88.226,33.228Z" transform="translate(51.378 30.6)" fill="#fff"/>
          <path id="Path_12866" data-name="Path 12866" d="M91.195,27.329c.307.413.6.808.9,1.2.29.374.585.719.875,1.037a18.545,18.545,0,0,0,1.723,1.611,9.983,9.983,0,0,0,3.122,1.767,7.808,7.808,0,0,0,2.291.446,4.128,4.128,0,0,0,.9-.056A14.5,14.5,0,0,1,97.8,30.98a14.881,14.881,0,0,1-1.193-1.349c-.385-.457-.736-.925-1.076-1.4s-.652-.959-.97-1.433-.663-.937-1-1.394a13.653,13.653,0,0,0-2.23-2.5,9.272,9.272,0,0,0-3.111-1.784,9.656,9.656,0,0,0-2.782-.457,8.448,8.448,0,0,0-2.709.385A9.472,9.472,0,0,1,86.166,22.2a11.036,11.036,0,0,1,2.224,1.773,17.227,17.227,0,0,1,1.338,1.433C90.18,25.963,90.665,26.6,91.195,27.329Z" transform="translate(50.907 19.015)" fill="#fff"/>
          <path id="Path_12867" data-name="Path 12867" d="M85.793,30.713q-.351-1.137-.585-2.091c-.151-.636-.323-1.193-.435-1.723a17.547,17.547,0,0,1-.374-2.626,11.478,11.478,0,0,1,.429-3.535,10.619,10.619,0,0,0-1.455,2.325,11.282,11.282,0,0,0-.864,2.548,10.472,10.472,0,0,0-.2,3.2,19.507,19.507,0,0,0,.552,2.737c.123.446.268.886.379,1.332s.217.914.3,1.371a11.816,11.816,0,0,1,.184,1.4,7.719,7.719,0,0,1-.072,1.466A7.312,7.312,0,0,1,82.5,40.218a4.919,4.919,0,0,0,.758-.457,6.931,6.931,0,0,0,1.589-1.555,7.475,7.475,0,0,0,1.266-2.938,7.725,7.725,0,0,0,.117-2.068,10.4,10.4,0,0,0-.134-1.193c-.033-.212-.072-.429-.117-.647S85.86,30.936,85.793,30.713Z" transform="translate(48.743 19.299)" fill="#fff"/>
          <path id="Path_12868" data-name="Path 12868" d="M93.832,24.769a14.125,14.125,0,0,1-2.8-1.076,13.186,13.186,0,0,1-2.28-1.461c-.675-.546-1.36-1.087-1.99-1.661s-1.221-1.182-1.884-1.706L82.509,20.85c.134.117.268.229.407.346a18.048,18.048,0,0,0,4.276,2.944,10.84,10.84,0,0,0,3.451.992,7.626,7.626,0,0,0,2.325-.095A3.66,3.66,0,0,0,93.832,24.769Z" transform="translate(49.887 11.139)" fill="#fff"/>
          <path id="Path_12869" data-name="Path 12869" d="M82.542,30.607a4.578,4.578,0,0,0,.636-.63,6.995,6.995,0,0,0,1.728-5.023,9.966,9.966,0,0,0-1.344-4.376c-.084-.139-.162-.268-.24-.4l-2.375,1.99c.351.58.652,1.21.97,1.823a10.409,10.409,0,0,1,.775,1.946,8.368,8.368,0,0,1,.3,2.18A7.527,7.527,0,0,1,82.542,30.607Z" transform="translate(43.525 16.895)" fill="#fff"/>
        </g>
        <path id="Union_9" data-name="Union 9" d="M27.583,68.617A3.424,3.424,0,1,1,31.007,72,3.406,3.406,0,0,1,27.583,68.617Zm15.062-2.528a2.56,2.56,0,1,1,2.56,2.529A2.545,2.545,0,0,1,42.645,66.089Zm-29.544,0a2.56,2.56,0,1,1,2.563,2.525A2.549,2.549,0,0,1,13.1,66.091Zm41.785-6.97a2.049,2.049,0,1,1,2.048,2.024A2.031,2.031,0,0,1,54.886,59.121Zm-51.849,0a2.049,2.049,0,1,1,2.048,2.024A2.035,2.035,0,0,1,3.037,59.121ZM6.052,47.3a.374.374,0,0,1-.373-.373V42.7a.373.373,0,0,1,.373-.373h49.9a.373.373,0,0,1,.373.373v4.228a.374.374,0,0,1-.373.373ZM10.8,39.831C10.611,30.1,7.543,19.976,3.455,9.7a2.518,2.518,0,0,1-.953.186,2.473,2.473,0,1,1,0-4.946A2.488,2.488,0,0,1,5,7.412a2.439,2.439,0,0,1-.3,1.179l0,0,9.149,5.183a8.109,8.109,0,0,0,10.491-2.236l5.179-7.062.007-.01a2.5,2.5,0,1,1,2.893.03l0,.005,4.858,6.911a8.107,8.107,0,0,0,10.491,2.4l9.517-5.241A2.438,2.438,0,0,1,57,7.412a2.5,2.5,0,1,1,2.5,2.473,2.517,2.517,0,0,1-1.07-.237c-4.557,10.028-7.352,20.1-7.225,30.183Zm18.167-19.3a10.518,10.518,0,0,0-1.515,5.48,10.381,10.381,0,0,0,1.515,5.473A9.733,9.733,0,0,0,31,33.976a10.1,10.1,0,0,0,2.042-2.487,10.565,10.565,0,0,0,1.516-5.473,10.716,10.716,0,0,0-1.516-5.48A10.44,10.44,0,0,0,31,18.03,10.057,10.057,0,0,0,28.971,20.536Zm18.546-.884a8.352,8.352,0,0,0-3.75,5.809,6.134,6.134,0,0,0,.02,1.859,6.374,6.374,0,0,0,1.708-.778,8.652,8.652,0,0,0,2.516-2.513,8.438,8.438,0,0,0,1.215-3.3,6.577,6.577,0,0,0,0-1.859A6.252,6.252,0,0,0,47.517,19.652ZM12.767,20.727a8.33,8.33,0,0,0,3.751,5.817,6.1,6.1,0,0,0,1.708.778,5.772,5.772,0,0,0,0-1.859,8.212,8.212,0,0,0-1.235-3.3,8.814,8.814,0,0,0-2.5-2.506,6.547,6.547,0,0,0-1.708-.785A6.118,6.118,0,0,0,12.767,20.727Z" transform="translate(4447.999 2552)" fill="#fff"/>
      </g>
      <path id="Path_13147" data-name="Path 13147" d="M530.655,308.5a1.272,1.272,0,0,1,.682,1.2,9.239,9.239,0,0,0,1.389,4.559,7.058,7.058,0,0,0,6.024,3.3,6.4,6.4,0,0,1,.7.039.893.893,0,0,1-.067,1.784,15.967,15.967,0,0,0-2.2.238,6.953,6.953,0,0,0-5.226,4.644,10.65,10.65,0,0,0-.645,3.228,1,1,0,0,1-1.527.863,1.062,1.062,0,0,1-.5-1.019,9.786,9.786,0,0,0-.843-3.563,7.047,7.047,0,0,0-6.578-4.35c-.214-.011-.43-.017-.643-.041a.905.905,0,0,1-.914-.868.893.893,0,0,1,.861-.916c.482-.061.977-.038,1.458-.1a6.992,6.992,0,0,0,6.029-4.779,9.185,9.185,0,0,0,.626-3.069,1.219,1.219,0,0,1,.672-1.148Zm-.353,5.434a9.241,9.241,0,0,1-4.43,4.56,9.231,9.231,0,0,1,4.437,4.546,9.179,9.179,0,0,1,4.43-4.549A9.262,9.262,0,0,1,530.3,313.935Z" transform="translate(80.694 355.5)" fill="#feba26"/>
      <path id="Path_13148" data-name="Path 13148" d="M380.677,392.242c.015.535-.38.871-1.093.894a4.5,4.5,0,0,0-4.338,2.762,7,7,0,0,0-.563,2.341.98.98,0,0,1-1.021,1.027c-.6-.008-.947-.389-.993-1.053a6.781,6.781,0,0,0-.505-2.2,4.522,4.522,0,0,0-4.424-2.881c-.677-.018-1.063-.351-1.064-.867s.406-.843,1.064-.881c.058,0,.117,0,.176,0a4.425,4.425,0,0,0,3.895-2.162,5.673,5.673,0,0,0,.632-1.533,7.782,7.782,0,0,0,.232-1.467.956.956,0,0,1,.987-.953.967.967,0,0,1,1.017.979,6.578,6.578,0,0,0,.826,2.905,4.42,4.42,0,0,0,3.963,2.232C380.245,391.408,380.662,391.705,380.677,392.242Zm-4.653.024a6.552,6.552,0,0,1-2.348-2.359,6.6,6.6,0,0,1-2.332,2.362,6.554,6.554,0,0,1,2.336,2.36A6.469,6.469,0,0,1,376.023,392.266Z" transform="translate(34.323 288.733)" fill="#feba26"/>
      <path id="Union_10" data-name="Union 10" d="M.286,7.677A.973.973,0,0,1,.369,6.228Q1.077,5.492,1.82,4.79a.947.947,0,0,1,1.13-.2.941.941,0,0,1,.577.869,1.008,1.008,0,0,1-.329.781c-.467.468-.929.941-1.41,1.395A1.186,1.186,0,0,1,.985,8,.956.956,0,0,1,.286,7.677Zm6.065.081c-.573-.526-1.133-1.069-1.66-1.64a.97.97,0,0,1,.054-1.324.953.953,0,0,1,1.324-.078c.592.533,1.145,1.11,1.7,1.683a.733.733,0,0,1,.185.547.96.96,0,0,1-.562.933,1.033,1.033,0,0,1-.457.114A.85.85,0,0,1,6.351,7.758ZM4.567,2.927a.9.9,0,0,1,.127-1.039C5.231,1.322,5.78.763,6.357.239A.964.964,0,0,1,7.646.256a.922.922,0,0,1,.175,1.263A13.586,13.586,0,0,1,6.008,3.338a.856.856,0,0,1-.53.157A.943.943,0,0,1,4.567,2.927ZM1.834,3.22C1.291,2.721.768,2.2.264,1.658A.89.89,0,0,1,.136.575a.929.929,0,0,1,.9-.533.892.892,0,0,1,.686.272c.5.49,1.009.972,1.489,1.482a.963.963,0,0,1,0,1.406.995.995,0,0,1-1.376.018Z" transform="translate(465 633)" fill="#feba26"/>
      <path id="Union_11" data-name="Union 11" d="M4.89,9.99a.923.923,0,0,1-.878-.928c-.022-.351,0-.7,0-1.055s-.019-.7,0-1.055a.979.979,0,0,1,.916-.962.952.952,0,0,1,1.04.828,9.707,9.707,0,0,1-.011,2.4A.9.9,0,0,1,5.034,10,1.075,1.075,0,0,1,4.89,9.99Zm-3.92-4A.953.953,0,0,1,0,5.029.975.975,0,0,1,.914,4,10.72,10.72,0,0,1,2.021,4c.111,0,.223,0,.334-.007A5.387,5.387,0,0,1,3.07,4a1.007,1.007,0,0,1,.923,1.027.982.982,0,0,1-.983.961q-.51.019-1.021.019T.969,5.992Zm6.941,0V5.985a9.622,9.622,0,0,1-1.049-.007.889.889,0,0,1-.847-.886.879.879,0,0,1,.734-1.039,7.791,7.791,0,0,1,2.494,0,.925.925,0,0,1,.749,1.037.94.94,0,0,1-.914.9c-.15.01-.3.014-.45.014C8.388,6,8.148,5.992,7.91,5.992ZM4.912,4a.95.95,0,0,1-.9-.963c-.019-.351,0-.7,0-1.055h0c0-.352-.02-.7,0-1.055A.956.956,0,0,1,4.957,0a.919.919,0,0,1,1,.8,9.4,9.4,0,0,1,.006,2.4A.918.918,0,0,1,5,4.007Z" transform="translate(548 641)" fill="#feba26"/>
      <path id="Path_13827" data-name="Path 13827" d="M380.677,392.242c.015.535-.38.871-1.093.894a4.5,4.5,0,0,0-4.338,2.762,7,7,0,0,0-.563,2.341.98.98,0,0,1-1.021,1.027c-.6-.008-.947-.389-.993-1.053a6.781,6.781,0,0,0-.505-2.2,4.522,4.522,0,0,0-4.424-2.881c-.677-.018-1.063-.351-1.064-.867s.406-.843,1.064-.881c.058,0,.117,0,.176,0a4.425,4.425,0,0,0,3.895-2.162,5.673,5.673,0,0,0,.632-1.533,7.782,7.782,0,0,0,.232-1.467.956.956,0,0,1,.987-.953.967.967,0,0,1,1.017.979,6.578,6.578,0,0,0,.826,2.905,4.42,4.42,0,0,0,3.963,2.232C380.245,391.408,380.662,391.705,380.677,392.242Zm-4.653.024a6.552,6.552,0,0,1-2.348-2.359,6.6,6.6,0,0,1-2.332,2.362,6.554,6.554,0,0,1,2.336,2.36A6.469,6.469,0,0,1,376.023,392.266Z" transform="translate(-182.677 397.732)" fill="#feba26"/>
      <path id="Path_13828" data-name="Path 13828" d="M530.655,308.5a1.272,1.272,0,0,1,.682,1.2,9.239,9.239,0,0,0,1.389,4.559,7.058,7.058,0,0,0,6.024,3.3,6.4,6.4,0,0,1,.7.039.893.893,0,0,1-.067,1.784,15.967,15.967,0,0,0-2.2.238,6.953,6.953,0,0,0-5.226,4.644,10.65,10.65,0,0,0-.645,3.228,1,1,0,0,1-1.527.863,1.062,1.062,0,0,1-.5-1.019,9.786,9.786,0,0,0-.843-3.563,7.047,7.047,0,0,0-6.578-4.35c-.214-.011-.43-.017-.643-.041a.905.905,0,0,1-.914-.868.893.893,0,0,1,.861-.916c.482-.061.977-.038,1.458-.1a6.992,6.992,0,0,0,6.029-4.779,9.185,9.185,0,0,0,.626-3.069,1.219,1.219,0,0,1,.672-1.148Zm-.353,5.434a9.241,9.241,0,0,1-4.43,4.56,9.231,9.231,0,0,1,4.437,4.546,9.179,9.179,0,0,1,4.43-4.549A9.262,9.262,0,0,1,530.3,313.935Z" transform="translate(-311.306 408.5)" fill="#feba26"/>
    </g>
    <ellipse id="Ellipse_359" data-name="Ellipse 359" cx="291.5" cy="13" rx="291.5" ry="13" transform="translate(59 1069)" fill="#e8e8e8"/>
    <g id="Group_5725" data-name="Group 5725" transform="translate(-41.731 20.844)">
      <path id="Path_5232" data-name="Path 5232" d="M621.073,1157.684c-1.347,22.176-12.549,44.335-30.912,56.529-21.889,14.538-52.5,11.32-77.423,13.172-21.55,1.6-43.264,2.977-64.82.688-17.663-1.879-35.479-8.861-43.916-25.972-8.454-17.149-9.368-39.937-.914-57.294a55.614,55.614,0,0,1,10.545-14.756c.69-.7,1.407-1.393,2.135-2.065.493-.453.991-.9,1.5-1.339.777-.672,1.577-1.328,2.387-1.967.268-.208.537-.415.81-.623s.542-.41.816-.612.548-.4.827-.6l.624-.443q.517-.369,1.051-.721a73.387,73.387,0,0,1,9.888-5.583,78.855,78.855,0,0,1,10.206-3.961c11.339-3.513,23.182-4.759,34.882-6.294,24.83-3.251,50.108-4.36,75.135-4.343,20.422.005,43.417,3.054,57.072,20.548C618.675,1131.924,621.845,1145.053,621.073,1157.684Z" transform="translate(-225.455 -173.636)" fill="#f2a499"/>
      <path id="Path_5233" data-name="Path 5233" d="M1226.6,1151.8s5.256-4.937,8.042-7.8-3.292-2.95-6.287.611A7.8,7.8,0,0,0,1226.6,1151.8Z" transform="translate(-872.932 -205.414)" fill="#f9b384"/>
      <path id="Path_5234" data-name="Path 5234" d="M492.279,1168.3a73.187,73.187,0,0,0-9.867,5.583q-.533.352-1.049.721l-.623.443c-.279.2-.552.4-.825.6s-.546.4-.814.612-.541.415-.809.623q-1.2.951-2.349,1.95l-.033.016c-.508.437-1.005.885-1.5,1.339-.727.672-1.442,1.36-2.131,2.065a1.392,1.392,0,0,0,1.057,1.263c4.1.83,6.154,4.742,9.459,6.966a9.076,9.076,0,0,0,8.128,1.157c-2.988,6.328-4.636,12.606-3.346,19.689a25.252,25.252,0,0,0,2,6.2c-3.84-2.852-7.539-8.962-9.06-15.158a1.639,1.639,0,0,0-3.184.782c1.883,7.671,6.678,15.041,11.66,17.923a10.707,10.707,0,0,0,3.584,1.324,25.1,25.1,0,0,0,3.3,3.492l7.365,2.06,6.01-38.789Z" transform="translate(-284.14 -225.982)" fill="#e58578"/>
      <path id="Path_5235" data-name="Path 5235" d="M528.114,947.009a158.963,158.963,0,0,1-31.935-16.436A12.337,12.337,0,0,1,491,918.3l7.852-45.769a14.118,14.118,0,0,1,8.324-10.6,139.639,139.639,0,0,1,35.685-9.985,85.888,85.888,0,0,1,13.795.273c5.088.5,16.737,3.934,24.141,6.234a14.348,14.348,0,0,1,9.126,8.516c3.1,8,8.148,21.516,9.756,28.82,5.554,25.222,4.644,23.356,4.644,23.356l5.736,38.789-60.916,3.415-15.57-7.1Z" transform="translate(-298.631 21.253)" fill="#708cd5"/>
      <path id="Path_5236" data-name="Path 5236" d="M714.376,626.907s-5.395-11.063-19.736-6.01c-10.38-2.254-18.3,10.039-10.653,26.77l14.409,3.346Z" transform="translate(-447.039 202.582)" fill="#102048"/>
      <path id="Path_5237" data-name="Path 5237" d="M729.114,796.25v19.57a8.3,8.3,0,0,1-8.293,8.293,11.238,11.238,0,0,1-11.238-11.238V796.25Z" transform="translate(-469.421 64.584)" fill="#f9b384"/>
      <path id="Path_5238" data-name="Path 5238" d="M747.186,831.485v10.675c-8.7.044-14.478-11.211-14.478-11.211Z" transform="translate(-487.485 37.475)" fill="#e28b6d"/>
      <path id="Path_5239" data-name="Path 5239" d="M732.352,691.707A37.768,37.768,0,0,1,730,699.634c-1.879,4.289-4.748,7.556-9.129,7.649-10.255.219-18.165-13.795-18.165-13.795l1.639-19.122,7.785-8.741,21.443,13.249A72.414,72.414,0,0,1,732.352,691.707Z" transform="translate(-464.043 166.595)" fill="#f9b384"/>
      <path id="Path_5240" data-name="Path 5240" d="M699.366,673.235a28.209,28.209,0,0,1,9.492-14.2s10.722,14,22.058,7.239,6.419-20.078-4.166-18.029l-12.156-1.366-15.229,4.849-2.6,11.951Z" transform="translate(-459.398 181.248)" fill="#102048"/>
      <path id="Path_5241" data-name="Path 5241" d="M627.723,1048.688c-10.33-22.321-23.351-11.667-26.538-19.862-4.466-11.483-3.619-24.473-3.642-28.409l-6.222,35.033s13.891,1.321,19.027,9.685Z" transform="translate(-377.055 -94.872)" fill="#1f3c88" opacity="0.4"/>
      <path id="Path_5242" data-name="Path 5242" d="M597.052,997.4c-.387,3-.844,5.982-1.316,8.964s-1,5.955-1.494,8.933q-.778,4.461-1.646,8.906l-.89,4.441c-.322,1.476-.622,2.956-.967,4.427l-.452-.08c.181-1.5.407-2.994.611-4.49l.688-4.477q.7-4.474,1.51-8.93c.557-2.967,1.07-5.942,1.663-8.9s1.176-5.923,1.841-8.871Z" transform="translate(-376.263 -92.461)" fill="#1f3c88"/>
      <path id="Path_5243" data-name="Path 5243" d="M895.916,972.328c.827,3.892,1.59,7.8,2.338,11.7s1.446,7.822,2.173,11.732q1.04,5.874,2.031,11.757l.953,5.89c.294,1.967.609,3.931.882,5.9l-.42.075c-.426-1.944-.809-3.9-1.213-5.844l-1.141-5.856q-1.105-5.863-2.157-11.735c-.67-3.921-1.38-7.834-2.016-11.76s-1.281-7.851-1.85-11.79Z" transform="translate(-614.623 -72.935)" fill="#1f3c88"/>
      <path id="Path_5244" data-name="Path 5244" d="M848.108,1055c.728,7.1-.364,43.888-17.483,44.435l.182,8.013,26.952-1.639Z" transform="translate(-563.94 -137.5)" fill="#1f3c88" opacity="0.4"/>
      <path id="Path_5245" data-name="Path 5245" d="M745.676,1236.077c12.156-5.19,14.48-5,16.117-4.917,5.6.273,13.658,11.473,13.658,11.473l-.137,2.049H744.583Z" transform="translate(-496.744 -275.111)" fill="#e28b6d"/>
      <rect id="Rectangle_1781" data-name="Rectangle 1781" width="37.833" height="5.736" transform="translate(257.888 967.579)" fill="#feba26"/>
      <path id="Path_5246" data-name="Path 5246" d="M963.867,1100.144H898.125l14.751-58.749h65.742Z" transform="translate(-616.553 -126.868)" fill="#feba26"/>
      <path id="Path_5247" data-name="Path 5247" d="M969.174,1197.168c-6.5-.972-27.538-5.342-70.88,21.064l-1,3.642,65.924-.678Z" transform="translate(-615.924 -247.889)" fill="#efb026"/>
      <g id="Group_3119" data-name="Group 3119" transform="translate(342.902 945.66)">
        <path id="Path_5248" data-name="Path 5248" d="M1190.29,1259.145c-.41,2.766-.546,6.829-9.117,6.317l-2.527-1.3,2.39-2.629,5.156-2.629Z" transform="translate(-1178.646 -1242.482)" fill="#f9b384"/>
        <path id="Path_5249" data-name="Path 5249" d="M1199.645,1225.833s4.69,6.128-.023,8.013a27.118,27.118,0,0,1-10.039,1.844c2.185-6.146,9.288-5.737,9.288-5.737Z" transform="translate(-1187.193 -1216.636)" fill="#f9b384"/>
        <path id="Path_5250" data-name="Path 5250" d="M1198.09,1207.708s6.465,6.01.455,7.694c-8.487,2.379-11.109,2.549-11.109,2.549-.455-4.507,7.967-7.421,7.967-7.421Z" transform="translate(-1185.501 -1202.472)" fill="#f9b384"/>
        <path id="Path_5251" data-name="Path 5251" d="M1195.47,1183.75s8.832,5.372.546,8.377-10.244,2.959-10.244,2.959c-.455-4.507,8.423-6.055,8.423-6.055Z" transform="translate(-1184.202 -1183.75)" fill="#f9b384"/>
        <path id="Path_5252" data-name="Path 5252" d="M1185.833,1222.438s9.629-1.366,12.5-3.688" transform="translate(-1184.262 -1211.101)" fill="none" stroke="#e28b6d" stroke-width="2.5"/>
        <path id="Path_5253" data-name="Path 5253" d="M1187.5,1241.722s10.016-1.411,13.157-3.6" transform="translate(-1185.565 -1226.242)" fill="none" stroke="#e28b6d" stroke-width="2.5"/>
        <path id="Path_5254" data-name="Path 5254" d="M1189.583,1265.809s5.941.2,9.288-1.434" transform="translate(-1187.193 -1246.756)" fill="none" stroke="#e28b6d" stroke-width="2.5"/>
      </g>
      <path id="Path_5255" data-name="Path 5255" d="M762.708,1605.739c1-.546,16.845,2.914,34.419-10.107l-22.673-6.465Z" transform="translate(-510.894 -554.732)" fill="#102048"/>
      <path id="Path_5256" data-name="Path 5256" d="M869.573,1306.614c.754-1.076,1.4-2.661.453-3.568-.989-.951-2.606-.115-3.644.781a43.721,43.721,0,0,0-5.026,5.135l-38.276,7.113-52.448,12.746,9.017,11.51c26.224,1.912,41.16,2.4,57.571-.492,8.365-1.476,15.842-3,21.42-7.543,1.328-1.087,2.584-2.912,1.721-4.393a3.236,3.236,0,0,0-3.016-1.251,38.745,38.745,0,0,0,8.108-2.89c1.153-.557,2.437-1.431,2.409-2.71a2.372,2.372,0,0,0-1.612-2.021,6.258,6.258,0,0,0-2.7-.235,37,37,0,0,0-10.238,2.262C859.286,1316.885,865.367,1312.563,869.573,1306.614Zm-16.346,14.5c0-.011.005-.016.016-.027a.231.231,0,0,0,.055-.022C853.276,1321.081,853.249,1321.1,853.227,1321.114Z" transform="translate(-516.973 -330.923)" fill="#e58578"/>
      <path id="Path_5257" data-name="Path 5257" d="M821.458,1260.591s51.082-24.312,67.745-23.219,16.117,21.853,9.834,30.868-21.034,21.034-75.394,17.483Z" transform="translate(-556.694 -279.916)" fill="#102048"/>
      <path id="Path_5258" data-name="Path 5258" d="M746.74,1599.384c-2.764.781-6.687.972-12.085.115,0,0-6.993,1.814-13.877,3.24-4.66.967-9.266,1.754-11.62,1.677-.2-.005-.4-.016-.612-.033-4.518-.322-10.211-2.677-13.232-6.042a.055.055,0,0,0-.022-.027,8.418,8.418,0,0,1-1.8-3c-1.639-5.1,1.825-11.293,20.58-10.02,0,0,6.19-1.453,7.649-6.01s-9.288-26.4-9.288-26.4l15.3-10.38,15.024,16.663s2.278,15.024,2.278,19.941c0,0,6.37,9.107,7.283,13.112C752.9,1594.773,751.624,1598,746.74,1599.384Z" transform="translate(-460.55 -532.264)"/>
      <path id="Path_5259" data-name="Path 5259" d="M544.855,1159.975c1.752-.674,3.537-1.219,5.342-1.72.9-.247,1.813-.478,2.739-.659q.693-.141,1.4-.239c.238-.032.475-.057.723-.076a5.193,5.193,0,0,1,.766.015,22.587,22.587,0,0,1,5.509,1.475c1.758.67,3.479,1.42,5.169,2.232s3.344,1.694,4.967,2.63,3.217,1.921,4.768,2.974a51.376,51.376,0,0,1,8.6,7.217l-.324.325q-2.06-1.864-4.29-3.517c-1.475-1.114-3-2.16-4.563-3.151a94.208,94.208,0,0,0-9.659-5.444c-1.656-.82-3.342-1.578-5.056-2.254a24.986,24.986,0,0,0-5.209-1.562,4.318,4.318,0,0,0-.628-.036c-.216.01-.443.028-.667.052-.45.05-.9.114-1.355.192-.9.158-1.81.342-2.713.545-1.8.41-3.6.889-5.367,1.435Z" transform="translate(-340.853 -217.415)" fill="#1f3c88"/>
      <path id="Path_5260" data-name="Path 5260" d="M584.5,1454.871c6.146-.41,12.186.03,16.572-1.5,4.689-1.639,16.936-.546,16.936-.546l-6.738-9.7-27.317,6.829Z" transform="translate(-371.307 -440.7)" fill="#e58578"/>
      <path id="Path_5261" data-name="Path 5261" d="M571.527,1240.925c-6.283-10.107-6.283-30.048,1.639-39.063,9.054-10.3,28.409-14.2,38.516-2.185s28.682,56,32.507,85.774c0,0-20.487-6.829-34.419,10.107,0,0-18.3-41.794-22.126-57.092l-10.38,8.195Z" transform="translate(-358.038 -244.552)" fill="#1f3c88"/>
      <path id="Path_5262" data-name="Path 5262" d="M496.691,1403.057s-2.732-1-6.556,1.548c0,0-29.866-.637-36.513,6.1s-1.548,15.752,8.195,16.754c8.177.84,24.051-5.5,28.942-7.563a9.675,9.675,0,0,1,3.125-.74l8.089-.529Z" transform="translate(-267.207 -409.235)"/>
      <path id="Path_5263" data-name="Path 5263" d="M685.351,751.291s-2-6.639-6.41-4.979-2.06,10.3,6.639,12.705Z" transform="translate(-443.804 103.749)" fill="#f9b384"/>
      <path id="Path_5264" data-name="Path 5264" d="M693.619,932.463a31.727,31.727,0,0,0,6.952,3.789,20.53,20.53,0,0,0,7.648,1.443,16.912,16.912,0,0,0,7.48-1.857l.873-.443c.286-.158.548-.356.823-.531a12.761,12.761,0,0,0,1.593-1.152l.767-.623.385-.311c.125-.108.236-.231.355-.346q.7-.7,1.42-1.4l.327.275q-.645.779-1.313,1.549c-.113.127-.217.262-.337.382l-.37.351-.743.7a13.444,13.444,0,0,1-1.6,1.277c-.279.2-.545.417-.837.6l-.895.511a16.417,16.417,0,0,1-7.917,2.1,20.233,20.233,0,0,1-8.005-1.67,26.271,26.271,0,0,1-6.87-4.308Z" transform="translate(-456.741 -40.706)" fill="#1f3c88"/>
      <path id="Path_5265" data-name="Path 5265" d="M639.257,1323.942l2.367,8.282c.805,2.755,1.558,5.524,2.4,8.266.823,2.747,1.644,5.494,2.508,8.227.432,1.366.859,2.735,1.332,4.087.231.677.44,1.365.685,2.037s.483,1.349.714,2.029l-.394.165q-.915-1.959-1.721-3.968c-.537-1.339-1.026-2.693-1.521-4.047-.97-2.714-1.828-5.463-2.641-8.225-.788-2.768-1.568-5.538-2.252-8.333s-1.346-5.594-1.891-8.422Z" transform="translate(-414.181 -347.581)" fill="#102048"/>
      <path id="Path_5267" data-name="Path 5267" d="M722.243,1795.133a10.9,10.9,0,0,1-5.649,3.464,15.446,15.446,0,0,1-3.5.508c-4.518-.322-10.211-2.677-13.232-6.042a.054.054,0,0,0-.022-.027,12.855,12.855,0,0,1-.885-1.36,22.021,22.021,0,0,0,5.239,3.655,20.813,20.813,0,0,0,2.9,1.18c.486.186.994.3,1.5.437a13.1,13.1,0,0,0,1.53.306A16.906,16.906,0,0,0,722.243,1795.133Z" transform="translate(-465.13 -816.13)" fill="#102048"/>
      <path id="Path_5268" data-name="Path 5268" d="M690.076,759.669a4.5,4.5,0,0,0-.712-1.661,4.984,4.984,0,0,0-1.2-1.3,1.34,1.34,0,0,0-1.4-.258,3.162,3.162,0,0,0-1.111,1.316l-.3-.105a2.734,2.734,0,0,1,1.048-1.831,1.638,1.638,0,0,1,1.19-.245,2.552,2.552,0,0,1,1.045.459,4.517,4.517,0,0,1,1.336,1.614,3.5,3.5,0,0,1,.426,2.017Z" transform="translate(-450.506 96.313)" fill="#e28b6d"/>
      <path id="Path_5269" data-name="Path 5269" d="M816.9,766.531c-.192.943-.9,1.594-1.586,1.454a1.561,1.561,0,0,1-.89-1.959c.192-.942.9-1.593,1.586-1.454A1.561,1.561,0,0,1,816.9,766.531Z" transform="translate(-551.275 89.286)" fill="#102048"/>
      <ellipse id="Ellipse_378" data-name="Ellipse 378" cx="1.741" cy="1.263" rx="1.741" ry="1.263" transform="translate(252.182 856.716) rotate(-80.739)" fill="#102048"/>
      <path id="Path_5270" data-name="Path 5270" d="M793.139,777.481c.065.776.1,1.547.1,2.3a1.374,1.374,0,0,0,.406.8,8.493,8.493,0,0,1,.794.913,1.883,1.883,0,0,1,.283.662,2.359,2.359,0,0,1,.046.7,2.3,2.3,0,0,1-.5,1.27,1.745,1.745,0,0,1-.562.449,1.6,1.6,0,0,1-.7.147,2.26,2.26,0,0,1-1.2-.435l.151-.282a2.153,2.153,0,0,0,1.019.145,1,1,0,0,0,.72-.463,1.669,1.669,0,0,0,.061-1.743c-.168-.269-.448-.523-.712-.856a1.985,1.985,0,0,1-.5-1.287c.059-.793.154-1.571.275-2.344Z" transform="translate(-533.652 79.205)" fill="#e28b6d"/>
      <path id="Path_5271" data-name="Path 5271" d="M757.591,751.555a5.117,5.117,0,0,1,1.534-1.054,4.06,4.06,0,0,1,1.9-.363,3.459,3.459,0,0,1,1.839.674,4.387,4.387,0,0,1,1.228,1.423l-.253.2a8.9,8.9,0,0,0-1.364-1.014,3.569,3.569,0,0,0-1.508-.466,6.342,6.342,0,0,0-3.19.863Z" transform="translate(-506.924 100.556)" fill="#102048"/>
      <path id="Path_5272" data-name="Path 5272" d="M808.457,754.835a2.335,2.335,0,0,1,1.2-1.313,3.628,3.628,0,0,1,1.743-.39,3.569,3.569,0,0,1,1.724.474,2.79,2.79,0,0,1,1.18,1.3l-.268.175a3.853,3.853,0,0,0-2.657-1.137,3.224,3.224,0,0,0-2.631,1.029Z" transform="translate(-546.65 98.211)" fill="#102048"/>
      <path id="Path_5273" data-name="Path 5273" d="M774.325,819.63l7.247.516S777.529,825.508,774.325,819.63Z" transform="translate(-519.993 46.245)" fill="#fff"/>
      <path id="Path_5274" data-name="Path 5274" d="M821.4,784.838a37.77,37.77,0,0,1-2.349,7.927,4.184,4.184,0,0,1,1.8-7.966A3.693,3.693,0,0,1,821.4,784.838Z" transform="translate(-553.056 73.464)" fill="#ee6f57" opacity="0.4"/>
      <circle id="Ellipse_379" data-name="Ellipse 379" cx="4.189" cy="4.189" r="4.189" transform="translate(244.379 859.255) rotate(-22.78)" fill="#ee6f57" opacity="0.4"/>
    </g>
    <g id="Group_3108" data-name="Group 3108" transform="translate(533 967)">
      <path id="Path_5178" data-name="Path 5178" d="M661.985,266.349c.7-42.23-18.162-59.554-18.162-59.554-4.6,23.3,2.752,48.245,6.847,59.554Z" transform="translate(-630.454 -197.848)" fill="#7fd2a8"/>
      <path id="Path_5179" data-name="Path 5179" d="M666.226,262.96c20.565-28.029,17.248-50.02,17.248-50.02-17.765,14.81-26.951,39.4-30.147,49.561l.524.459Z" transform="translate(-624.595 -194.542)" fill="#7fd2a8"/>
      <path id="Path_5180" data-name="Path 5180" d="M675.54,256.58c17.536-17.743,21.147-32.072,21.147-32.072-21.665,8.738-32.3,22.914-37.8,32.072Z" transform="translate(-621.686 -188.208)" fill="#00a651"/>
      <path id="Path_5181" data-name="Path 5181" d="M657.711,259.229c-6.712-30.359-23.086-39.524-23.086-39.524.354,15.713,7.526,30.721,12.666,39.524Z" transform="translate(-634.625 -190.84)" fill="#00a651"/>
      <path id="Path_5182" data-name="Path 5182" d="M667.153,269.529c8.9-49.451-5.318-68.5-5.318-68.5-16.961,17.2-10.533,57.886-8.5,68.5Z" transform="translate(-626.097 -201.028)" fill="#00a651"/>
      <path id="Path_5183" data-name="Path 5183" d="M659.877,264.622c-1.3-18.245-2.181-36.659-2.565-54.881a.388.388,0,0,0-.388-.38h-.008a.389.389,0,0,0-.38.4c.383,18.216,1.268,36.623,2.563,54.864Z" transform="translate(-622.749 -196.432)" fill="#fff"/>
      <path id="Path_5184" data-name="Path 5184" d="M655.075,263.069h.813a188.525,188.525,0,0,1-5.263-21.879l-5.692-28.7a.382.382,0,0,0-.456-.306.388.388,0,0,0-.3.456l5.692,28.7A191.758,191.758,0,0,0,655.075,263.069Z" transform="translate(-629.466 -194.959)" fill="#fff"/>
      <path id="Path_5185" data-name="Path 5185" d="M650.786,255.933c-4.693-9.992-8.98-20.228-12.753-30.563a.388.388,0,0,0-.728.267c3.739,10.243,7.982,20.388,12.624,30.3Z" transform="translate(-633.161 -187.874)" fill="#fff"/>
      <path id="Path_5186" data-name="Path 5186" d="M660.478,259.636c.729-1.381,1.424-2.79,2.026-4.234a75.654,75.654,0,0,0,2.794-8.569c.475-1.682.965-3.419,1.519-5.1a127.077,127.077,0,0,1,4.822-11.894c1.576-3.539,3.207-7.2,4.5-10.921a.389.389,0,0,0-.734-.256c-1.281,3.7-2.9,7.337-4.475,10.86a128.261,128.261,0,0,0-4.85,11.968c-.557,1.7-1.05,3.443-1.528,5.132a75.532,75.532,0,0,1-2.763,8.48c-.644,1.545-1.4,3.053-2.191,4.533Z" transform="translate(-621.143 -191.554)" fill="#fff"/>
      <path id="Path_5187" data-name="Path 5187" d="M662.283,254.214c1.5-1.683,3.13-3.264,4.741-4.8L688.565,228.9a.388.388,0,0,0-.535-.563l-21.542,20.511c-1.786,1.7-3.593,3.458-5.235,5.362Z" transform="translate(-620.381 -186.163)" fill="#fff"/>
      <path id="Path_5188" data-name="Path 5188" d="M642.81,249.872l5.123,31.711a9.285,9.285,0,0,0,9.165,7.8h15.611a9.285,9.285,0,0,0,9.165-7.8L687,249.872Z" transform="translate(-630.29 -174.385)" fill="#393939"/>
      <path id="Path_5189" data-name="Path 5189" d="M687,249.872H642.81l.709,4.394h34.066l-4.414,27.317a9.284,9.284,0,0,1-9.165,7.8h8.7a9.284,9.284,0,0,0,9.165-7.8l4.414-27.317h0Z" transform="translate(-630.29 -174.385)"/>
      <path id="Path_5190" data-name="Path 5190" d="M689.306,243.992H644.133a4.631,4.631,0,0,0-4.617,4.617h0a4.63,4.63,0,0,0,4.617,4.617h45.173a4.63,4.63,0,0,0,4.617-4.617h0A4.631,4.631,0,0,0,689.306,243.992Z" transform="translate(-631.928 -177.519)" fill="#393939"/>
    </g>
  </g>
</svg>
