<svg id="Layer_1" data-name="Layer 1" xmlns="http://www.w3.org/2000/svg" viewBox="0 0 600 600"><defs><style>.cls-1{fill:#fff7e7;}.cls-19,.cls-2,.cls-23,.cls-3,.cls-5{isolation:isolate;}.cls-3{font-size:31.83px;font-family:SegoeUI-Bold, Segoe UI;font-weight:700;letter-spacing:-0.02em;}.cls-4{letter-spacing:0em;}.cls-5{font-size:22.62px;font-family:SegoeUI, Segoe UI;letter-spacing:0em;}.cls-10,.cls-5{fill:#393939;}.cls-6{fill:#fedc92;}.cls-7{fill:#fdb926;}.cls-8{fill:#e64934;}.cls-9{fill:#00a64f;}.cls-11{fill:#fff;}.cls-12{fill:#e8e8e8;}.cls-13{fill:#f2a499;}.cls-14{fill:#f9b384;}.cls-15{fill:#e58478;}.cls-16{fill:#748bc6;}.cls-17{fill:#142047;}.cls-18{fill:#e28a6c;}.cls-19,.cls-20{fill:#253e86;}.cls-19,.cls-23{opacity:0.4;}.cls-21{fill:#eeb023;}.cls-22{fill:none;stroke:#e28a6c;stroke-miterlimit:10;stroke-width:2.5px;}.cls-23{fill:#ed6e57;}.cls-24{fill:#83cba6;}</style></defs><g id="Group_6349" data-name="Group 6349"><path id="Path_3677" data-name="Path 3677" class="cls-1" d="M101.58,91.83c34.78-51.9,97.49-79.52,148.9-86.35A311.12,311.12,0,0,1,295.83,3C445.12,5,522.24,89.57,512.71,130.27S476.19,196,515.1,252.37,564.22,393.26,542,477.79,425.51,593.6,296.81,596.18s-222.52,10-250.31-68.3,33-132,41.5-199c5.29-41.59-16.65-83.51-17.65-125C69.28,159,81.59,121.66,101.58,91.83Z"/><g id="Registration_" data-name="Registration " class="cls-2"><text class="cls-3" transform="translate(209.34 73.27)">R<tspan class="cls-4" x="20.11" y="0">egistration</tspan></text></g><g id="Let_s_get_to_know_each_other" data-name="Let s get to know each other" class="cls-2"><text class="cls-5" transform="translate(162.79 110.97)">Let&apos;s get to know each other</text></g><path id="Path_13831-2" data-name="Path 13831-2" class="cls-6" d="M149,136.93H549.38a4.19,4.19,0,0,1,4.19,4.19V402.46a4.19,4.19,0,0,1-4.19,4.19H149a4.19,4.19,0,0,1-4.18-4.19V141.12A4.19,4.19,0,0,1,149,136.93Z"/><path id="Rectangle_2107" data-name="Rectangle 2107" class="cls-7" d="M149,136.93H549.38a4.19,4.19,0,0,1,4.19,4.19v37.69H144.82V141.12A4.19,4.19,0,0,1,149,136.93Z"/><circle id="Ellipse_405" data-name="Ellipse 405" class="cls-8" cx="165.76" cy="157.87" r="4.19"/><circle id="Ellipse_406" data-name="Ellipse 406" class="cls-9" cx="182.51" cy="157.87" r="4.19"/><circle id="Ellipse_407" data-name="Ellipse 407" cx="199.26" cy="157.87" r="4.19"/><path id="Path_5219" data-name="Path 5219" class="cls-7" d="M365.86,205.49a20.5,20.5,0,0,1-.32,2.06,16.74,16.74,0,0,1-14.41,13,19.66,19.66,0,0,1-4.2,0,16,16,0,0,1-8.68-3.93,16.37,16.37,0,0,1-5.51-15.84,15.77,15.77,0,0,1,5.05-9.13,16.35,16.35,0,0,1,13.67-4.33,16,16,0,0,1,8.75,4,16.57,16.57,0,0,1,5.6,10.63A14.88,14.88,0,0,1,365.86,205.49Zm-20.65.1a7.06,7.06,0,1,1,8,0,11.6,11.6,0,0,1,7.18,8,14.77,14.77,0,1,0-22.34,0,11.6,11.6,0,0,1,7.2-8Zm4.06,13.16c.5,0,1.11,0,1.72-.12a14.71,14.71,0,0,0,7.52-3.21.29.29,0,0,0,.13-.3,11.76,11.76,0,0,0-.31-1.43,9.55,9.55,0,0,0-18.61,1.44.27.27,0,0,0,.13.29,14.83,14.83,0,0,0,9.42,3.33Zm-.1-13.92a5.09,5.09,0,1,0-5.08-5.12,5.09,5.09,0,0,0,5.08,5.12Z"/><path id="Rectangle_1779-2" data-name="Rectangle 1779-2" class="cls-10" d="M314.85,363.09h68.69a9.21,9.21,0,0,1,9.21,9.21h0a9.22,9.22,0,0,1-9.21,9.22H314.85a9.21,9.21,0,0,1-9.21-9.22h0A9.21,9.21,0,0,1,314.85,363.09Z"/><g id="Group_5919" data-name="Group 5919"><rect id="Rectangle_1772-3" data-name="Rectangle 1772-3" class="cls-11" x="225.23" y="232.42" width="107.21" height="34.34" rx="4.19"/><path id="Union_8" data-name="Union 8" class="cls-7" d="M242.18,258.39H233.6v-3.8a3.52,3.52,0,0,1,2.35-3.36l2.27-.76a7.81,7.81,0,0,1,5,0l2.26.76a3.52,3.52,0,0,1,2.35,3.36v3.8Zm-5.25-13.89a3.8,3.8,0,1,1,3.79,3.7A3.74,3.74,0,0,1,236.93,244.5Z"/><circle id="Ellipse_361" data-name="Ellipse 361" class="cls-7" cx="267.94" cy="250.01" r="3.35"/><circle id="Ellipse_376" data-name="Ellipse 376" class="cls-7" cx="303.12" cy="250.01" r="3.35"/><circle id="Ellipse_374" data-name="Ellipse 374" class="cls-7" cx="286.37" cy="250.01" r="3.35"/><circle id="Ellipse_375" data-name="Ellipse 375" class="cls-7" cx="320.71" cy="250.01" r="3.35"/></g><ellipse id="Ellipse_359" data-name="Ellipse 359" class="cls-12" cx="309.41" cy="586.73" rx="244.16" ry="10.89"/><g id="Group_5725" data-name="Group 5725"><path id="Path_5232" data-name="Path 5232" class="cls-13" d="M312.24,524.66c-1.12,18.57-10.51,37.13-25.89,47.35-18.33,12.18-44,9.48-64.85,11-18.05,1.34-36.24,2.49-54.29.58-14.8-1.58-29.72-7.42-36.79-21.76s-7.85-33.45-.76-48a46.52,46.52,0,0,1,8.83-12.36c.58-.58,1.18-1.16,1.79-1.73.41-.38.83-.75,1.25-1.12.65-.56,1.32-1.11,2-1.65l.68-.52.68-.51c.23-.17.46-.34.7-.5l.52-.37.88-.61a61.88,61.88,0,0,1,8.28-4.67,64.32,64.32,0,0,1,8.55-3.32c9.5-2.94,19.42-4,29.22-5.27A481.33,481.33,0,0,1,256,477.6c17.11,0,36.37,2.56,47.81,17.21C310.23,503.08,312.89,514.08,312.24,524.66Z"/><path id="Path_5233" data-name="Path 5233" class="cls-14" d="M277.11,493.11s4.4-4.13,6.73-6.53-2.76-2.47-5.26.51A6.49,6.49,0,0,0,277.11,493.11Z"/><path id="Path_5234" data-name="Path 5234" class="cls-15" d="M155.21,489.7a62.31,62.31,0,0,0-8.27,4.68l-.88.61-.52.37-.69.5c-.23.17-.46.33-.68.51s-.45.35-.68.52c-.67.53-1.32,1.08-2,1.64h0c-.43.37-.84.74-1.26,1.12-.61.56-1.21,1.14-1.78,1.73a1.16,1.16,0,0,0,.88,1.06c3.44.69,5.16,4,7.92,5.83a7.61,7.61,0,0,0,6.81,1c-2.5,5.3-3.88,10.56-2.8,16.49a20.66,20.66,0,0,0,1.68,5.2c-3.22-2.39-6.32-7.51-7.59-12.7a1.38,1.38,0,0,0-2.67.66c1.58,6.42,5.59,12.59,9.77,15a8.9,8.9,0,0,0,3,1.11,20.61,20.61,0,0,0,2.76,2.92l6.17,1.73,5-32.49Z"/><path id="Path_5235" data-name="Path 5235" class="cls-16" d="M173.09,511.44a133.48,133.48,0,0,1-26.75-13.77A10.34,10.34,0,0,1,142,487.39l6.58-38.34a11.82,11.82,0,0,1,7-8.88,117.22,117.22,0,0,1,29.89-8.36A71.86,71.86,0,0,1,197,432c4.27.42,14,3.29,20.22,5.22a12,12,0,0,1,7.65,7.13c2.6,6.7,6.82,18,8.17,24.14,4.65,21.13,3.89,19.57,3.89,19.57l4.8,32.49-51,2.86-13-6Z"/><path id="Path_5236" data-name="Path 5236" class="cls-17" d="M204.79,395.2s-4.52-9.27-16.53-5c-8.69-1.88-15.33,8.41-8.92,22.43l12.07,2.8Z"/><path id="Path_5237" data-name="Path 5237" class="cls-14" d="M198.39,421.45v16.39a7,7,0,0,1-6.95,7,9.41,9.41,0,0,1-9.41-9.41V421.45Z"/><path id="Path_5238" data-name="Path 5238" class="cls-18" d="M198.4,428.26v8.94c-7.29,0-12.13-9.39-12.13-9.39Z"/><path id="Path_5239" data-name="Path 5239" class="cls-14" d="M205.61,419.33a31.3,31.3,0,0,1-2,6.64c-1.58,3.59-4,6.33-7.65,6.41-8.59.18-15.21-11.56-15.21-11.56l1.37-16,6.52-7.32,18,11.09A60.5,60.5,0,0,1,205.61,419.33Z"/><path id="Path_5240" data-name="Path 5240" class="cls-17" d="M181.87,416.13a23.62,23.62,0,0,1,7.95-11.89s9,11.73,18.48,6.06,5.37-16.82-3.49-15.1l-10.19-1.14-12.75,4.06-2.18,10Z"/><path id="Path_5241" data-name="Path 5241" class="cls-19" d="M190.83,499.34c-8.65-18.7-19.56-9.78-22.23-16.64-3.74-9.62-3-20.5-3-23.8l-5.21,29.35s11.64,1.1,15.94,8.11Z"/><path id="Path_5242" data-name="Path 5242" class="cls-20" d="M165.8,458.4c-.32,2.51-.7,5-1.1,7.5s-.84,5-1.25,7.49-.89,5-1.38,7.46l-.74,3.72c-.27,1.23-.52,2.47-.81,3.7l-.38-.06c.15-1.26.34-2.51.51-3.76l.58-3.75c.39-2.5.81-5,1.26-7.48s.9-5,1.39-7.46,1-5,1.55-7.43Z"/><path id="Path_5243" data-name="Path 5243" class="cls-20" d="M216.48,453.75c.7,3.26,1.34,6.53,2,9.8s1.21,6.55,1.82,9.83,1.15,6.56,1.7,9.85l.8,4.93c.25,1.65.51,3.29.74,4.94l-.35.06c-.36-1.62-.68-3.26-1-4.89l-.95-4.91q-.93-4.91-1.81-9.83c-.56-3.28-1.16-6.56-1.69-9.85s-1.07-6.57-1.55-9.87Z"/><path id="Path_5244" data-name="Path 5244" class="cls-19" d="M218.89,468.92c.61,5.94-.3,36.76-14.64,37.22l.15,6.71L227,511.48Z"/><path id="Path_5245" data-name="Path 5245" class="cls-18" d="M189.38,505.32c10.18-4.34,12.13-4.18,13.5-4.11,4.69.22,11.44,9.61,11.44,9.61l-.12,1.71H188.46Z"/><rect id="Rectangle_1781" data-name="Rectangle 1781" class="cls-7" x="196.88" y="510.86" width="31.69" height="4.8"/><path id="Path_5246" data-name="Path 5246" class="cls-7" d="M271.78,515.64H216.72l12.35-49.21h55.07Z"/><path id="Path_5247" data-name="Path 5247" class="cls-21" d="M276.76,495.54c-5.45-.82-23.07-4.48-59.37,17.64l-.84,3.05,55.22-.57Z"/><g id="Group_3119" data-name="Group 3119"><path id="Path_5248" data-name="Path 5248" class="cls-14" d="M277.84,506.46c-.34,2.32-.46,5.72-7.64,5.29l-2.11-1.09,2-2.2,4.32-2.2Z"/><path id="Path_5249" data-name="Path 5249" class="cls-14" d="M278.52,500.21s3.93,5.13,0,6.71a22.59,22.59,0,0,1-8.41,1.54c1.83-5.14,7.78-4.8,7.78-4.8Z"/><path id="Path_5250" data-name="Path 5250" class="cls-14" d="M278.63,496.89s5.42,5,.38,6.44c-7.11,2-9.3,2.14-9.3,2.14-.38-3.78,6.67-6.22,6.67-6.22Z"/><path id="Path_5251" data-name="Path 5251" class="cls-14" d="M277.53,492.5s7.39,4.5.45,7S269.4,502,269.4,502c-.38-3.78,7.06-5.07,7.06-5.07Z"/><path id="Path_5252" data-name="Path 5252" class="cls-22" d="M269.4,502s8.07-1.14,10.47-3.09"/><path id="Path_5253" data-name="Path 5253" class="cls-22" d="M269.71,505.47s8.39-1.18,11-3"/><path id="Path_5254" data-name="Path 5254" class="cls-22" d="M270.09,508.46s5,.17,7.78-1.2"/></g><path id="Path_5255" data-name="Path 5255" class="cls-17" d="M191.79,580.74c.84-.45,14.11,2.45,28.83-8.46l-19-5.42Z"/><path id="Path_5256" data-name="Path 5256" class="cls-15" d="M276.21,517.66c.63-.9,1.17-2.23.38-3s-2.18-.1-3,.65a36.46,36.46,0,0,0-4.21,4.31l-32.06,6-43.93,10.68,7.55,9.64c22,1.6,34.48,2,48.22-.41,7-1.24,13.27-2.51,17.94-6.32,1.12-.91,2.17-2.44,1.44-3.68a2.7,2.7,0,0,0-2.52-1,32.13,32.13,0,0,0,6.79-2.42c1-.46,2-1.2,2-2.27a2,2,0,0,0-1.35-1.69,5.24,5.24,0,0,0-2.26-.2,30.74,30.74,0,0,0-8.58,1.9C267.59,526.26,272.69,522.64,276.21,517.66ZM262.52,529.8v0l.05,0Z"/><path id="Path_5257" data-name="Path 5257" class="cls-17" d="M202.64,521.83s42.79-20.36,56.74-19.45,13.5,18.31,8.24,25.86S250,545.86,204.47,542.88Z"/><path id="Path_5258" data-name="Path 5258" d="M220.59,594.24c-2.32.66-5.61.82-10.13.1,0,0-5.85,1.52-11.62,2.71a53.94,53.94,0,0,1-9.73,1.41l-.52,0c-3.78-.27-8.55-2.24-11.08-5.06l0,0a7,7,0,0,1-1.51-2.51c-1.37-4.27,1.53-9.46,17.24-8.39,0,0,5.19-1.22,6.41-5s-7.78-22.11-7.78-22.11l12.81-8.69,12.59,13.95s1.91,12.59,1.91,16.71c0,0,5.33,7.63,6.1,11C225.74,590.38,224.68,593.08,220.59,594.24Z"/><path id="Path_5259" data-name="Path 5259" class="cls-20" d="M151.74,489.91c1.47-.57,3-1,4.48-1.44.75-.21,1.52-.4,2.29-.56l1.17-.2.61-.06a4.56,4.56,0,0,1,.64,0,18.9,18.9,0,0,1,4.62,1.24c1.47.56,2.91,1.19,4.33,1.87s2.8,1.42,4.16,2.2,2.69,1.61,4,2.49a43.41,43.41,0,0,1,7.2,6.05l-.27.27q-1.72-1.56-3.59-2.95t-3.82-2.64a81.38,81.38,0,0,0-8.09-4.56c-1.39-.68-2.8-1.32-4.24-1.88a20.1,20.1,0,0,0-4.36-1.31,4.71,4.71,0,0,0-.53,0l-.56,0c-.37,0-.75.1-1.13.16-.76.13-1.52.29-2.27.46-1.51.34-3,.74-4.5,1.2Z"/><path id="Path_5260" data-name="Path 5260" class="cls-15" d="M159.44,549.89c5.15-.34,10.21,0,13.88-1.26,3.93-1.37,14.19-.45,14.19-.45l-5.65-8.13L159,545.77Z"/><path id="Path_5261" data-name="Path 5261" class="cls-20" d="M159.69,535c-5.26-8.46-5.26-25.17,1.37-32.72,7.59-8.62,23.8-11.89,32.26-1.83s24,46.91,27.23,71.85c0,0-17.16-5.72-28.83,8.46,0,0-15.33-35-18.53-47.82l-8.7,6.87Z"/><path id="Path_5262" data-name="Path 5262" d="M173.09,532.85s-2.29-.84-5.49,1.29c0,0-25-.53-30.59,5.11s-1.29,13.2,6.87,14c6.85.71,20.14-4.6,24.24-6.33a8.16,8.16,0,0,1,2.62-.62l6.77-.44Z"/><path id="Path_5263" data-name="Path 5263" class="cls-14" d="M183.19,416.6s-1.67-5.56-5.37-4.17-1.72,8.63,5.56,10.64Z"/><path id="Path_5264" data-name="Path 5264" class="cls-20" d="M179.28,447.35a26.54,26.54,0,0,0,5.82,3.18,17.17,17.17,0,0,0,6.41,1.21,14.15,14.15,0,0,0,6.27-1.56l.73-.37c.24-.13.46-.3.69-.44a11.29,11.29,0,0,0,1.33-1l.64-.52.33-.26.29-.29,1.19-1.17.28.23-1.1,1.29c-.1.11-.19.22-.29.32l-.31.3-.62.58A11.43,11.43,0,0,1,199.6,450c-.23.17-.46.35-.7.51l-.75.42a13.66,13.66,0,0,1-6.63,1.76,16.85,16.85,0,0,1-6.71-1.4,21.9,21.9,0,0,1-5.75-3.6Z"/><path id="Path_5265" data-name="Path 5265" class="cls-17" d="M169.4,518.22l2,6.94c.67,2.3,1.3,4.62,2,6.92s1.38,4.6,2.1,6.89c.36,1.15.72,2.29,1.11,3.43.2.56.37,1.14.58,1.7l.6,1.7-.33.14c-.51-1.09-1-2.2-1.45-3.32s-.85-2.26-1.27-3.39c-.81-2.28-1.53-4.58-2.21-6.89s-1.31-4.64-1.89-7-1.13-4.69-1.58-7.06Z"/><path id="Path_5267" data-name="Path 5267" class="cls-17" d="M196.23,520.43a9.08,9.08,0,0,1-4.73,2.9,12.65,12.65,0,0,1-2.93.43c-3.79-.27-8.56-2.24-11.09-5.06a0,0,0,0,0,0,0c-.27-.37-.51-.75-.74-1.14a18.5,18.5,0,0,0,4.39,3.06,18.21,18.21,0,0,0,2.43,1,13,13,0,0,0,1.26.36,11.16,11.16,0,0,0,1.28.26A14.16,14.16,0,0,0,196.23,520.43Z"/><path id="Path_5268" data-name="Path 5268" class="cls-18" d="M181.54,417.39a3.92,3.92,0,0,0-.6-1.39,4.19,4.19,0,0,0-1-1.09,1.12,1.12,0,0,0-1.17-.22,2.75,2.75,0,0,0-.93,1.1l-.25-.08a2.28,2.28,0,0,1,.88-1.54,1.38,1.38,0,0,1,1-.2,2.17,2.17,0,0,1,.88.38,3.85,3.85,0,0,1,1.12,1.35,3,3,0,0,1,.36,1.69Z"/><path id="Path_5269" data-name="Path 5269" class="cls-17" d="M203.36,417.25c-.16.79-.75,1.34-1.33,1.22a1.31,1.31,0,0,1-.74-1.64c.16-.79.75-1.34,1.32-1.22A1.3,1.3,0,0,1,203.36,417.25Z"/><ellipse id="Ellipse_378" data-name="Ellipse 378" class="cls-17" cx="193.38" cy="416.73" rx="1.46" ry="1.06" transform="translate(-249.04 540.53) rotate(-80.74)"/><path id="Path_5270" data-name="Path 5270" class="cls-18" d="M198.22,418c.05.65.08,1.29.08,1.92a1.17,1.17,0,0,0,.34.67,8.21,8.21,0,0,1,.67.77,1.65,1.65,0,0,1,.23.55,1.68,1.68,0,0,1,0,.59,1.87,1.87,0,0,1-.42,1.06,1.43,1.43,0,0,1-.47.38,1.17,1.17,0,0,1-.58.12,1.9,1.9,0,0,1-1-.36l.13-.24a1.76,1.76,0,0,0,.85.12.82.82,0,0,0,.6-.38,1.42,1.42,0,0,0,.06-1.46c-.14-.23-.38-.44-.6-.72a1.71,1.71,0,0,1-.42-1.08c.05-.66.13-1.31.23-2Z"/><path id="Path_5271" data-name="Path 5271" class="cls-17" d="M190.83,414.15a4.44,4.44,0,0,1,1.29-.89,3.45,3.45,0,0,1,1.59-.3,3,3,0,0,1,1.54.56,3.85,3.85,0,0,1,1,1.2l-.22.16a7.34,7.34,0,0,0-1.14-.85,3.14,3.14,0,0,0-1.26-.39,5.23,5.23,0,0,0-2.67.73Z"/><path id="Path_5272" data-name="Path 5272" class="cls-17" d="M200.16,414.93a2,2,0,0,1,1-1.1,3.06,3.06,0,0,1,2.9.07,2.33,2.33,0,0,1,1,1.09l-.23.15a3.21,3.21,0,0,0-2.22-1,2.71,2.71,0,0,0-2.2.86Z"/><path id="Path_5273" data-name="Path 5273" class="cls-11" d="M193.9,425.68l6.07.43S196.58,430.6,193.9,425.68Z"/><path id="Path_5274" data-name="Path 5274" class="cls-23" d="M205.64,419.33a31.3,31.3,0,0,1-2,6.64,3.5,3.5,0,0,1,1.51-6.67Z"/><circle id="Ellipse_379" data-name="Ellipse 379" class="cls-23" cx="190.16" cy="422.01" r="3.51"/></g><g id="Group_3108" data-name="Group 3108"><path id="Path_5178" data-name="Path 5178" class="cls-24" d="M492,551.13c.59-35.37-15.21-49.88-15.21-49.88-3.85,19.52,2.3,40.41,5.73,49.88Z"/><path id="Path_5179" data-name="Path 5179" class="cls-24" d="M500.49,551.07c17.23-23.48,14.45-41.9,14.45-41.9-14.88,12.4-22.57,33-25.25,41.51l.44.39Z"/><path id="Path_5180" data-name="Path 5180" class="cls-9" d="M510.73,551c14.69-14.87,17.71-26.87,17.71-26.87A63.4,63.4,0,0,0,496.78,551Z"/><path id="Path_5181" data-name="Path 5181" class="cls-9" d="M485,551c-5.62-25.43-19.34-33.1-19.34-33.1.3,13.16,6.31,25.73,10.61,33.1Z"/><path id="Path_5182" data-name="Path 5182" class="cls-9" d="M500,551.13c7.46-41.42-4.45-57.37-4.45-57.37-14.21,14.41-8.83,48.48-7.12,57.37Z"/><path id="Path_5183" data-name="Path 5183" class="cls-11" d="M496.72,550.87c-1.09-15.28-1.83-30.7-2.15-46a.32.32,0,0,0-.32-.32h0a.32.32,0,0,0-.32.33h0c.32,15.26,1.06,30.68,2.15,46Z"/><path id="Path_5184" data-name="Path 5184" class="cls-11" d="M487.07,550.81h.68a160.29,160.29,0,0,1-4.41-18.33l-4.76-24a.32.32,0,0,0-.37-.26h0a.32.32,0,0,0-.26.38l4.77,24A162.74,162.74,0,0,0,487.07,550.81Z"/><path id="Path_5185" data-name="Path 5185" class="cls-11" d="M480.38,550.76c-3.93-8.36-7.52-16.94-10.68-25.6a.33.33,0,0,0-.61.23c3.13,8.58,6.69,17.08,10.58,25.38Z"/><path id="Path_5186" data-name="Path 5186" class="cls-11" d="M498.57,550.78c.61-1.15,1.19-2.33,1.7-3.54a64.69,64.69,0,0,0,2.34-7.18c.39-1.41.8-2.86,1.27-4.27a104.8,104.8,0,0,1,4-10c1.32-3,2.68-6,3.77-9.15a.33.33,0,0,0-.62-.22c-1.07,3.1-2.43,6.15-3.75,9.1-1.52,3.27-2.87,6.62-4.06,10-.46,1.43-.88,2.89-1.28,4.3a63.4,63.4,0,0,1-2.31,7.11c-.54,1.29-1.18,2.55-1.84,3.79Z"/><path id="Path_5187" data-name="Path 5187" class="cls-11" d="M500.72,550.76c1.26-1.41,2.62-2.74,4-4l18-17.19a.32.32,0,1,0-.44-.47l-18,17.18c-1.49,1.43-3,2.9-4.38,4.49Z"/><path id="Path_5188" data-name="Path 5188" class="cls-10" d="M476.11,557l4.29,26.56a7.78,7.78,0,0,0,7.68,6.53h13.07a7.78,7.78,0,0,0,7.68-6.53L513.12,557Z"/><path id="Path_5189" data-name="Path 5189" d="M513.12,557h-37l.59,3.68h28.54l-3.7,22.88a7.78,7.78,0,0,1-7.68,6.53h7.29a7.78,7.78,0,0,0,7.68-6.53l3.69-22.88h0Z"/><path id="Path_5190" data-name="Path 5190" class="cls-10" d="M513.68,549.44H475.84A3.86,3.86,0,0,0,472,553.3h0a3.87,3.87,0,0,0,3.86,3.87h37.84a3.88,3.88,0,0,0,3.87-3.87h0A3.87,3.87,0,0,0,513.68,549.44Z"/></g><g id="Group_5918" data-name="Group 5918"><rect id="Rectangle_2154-3" data-name="Rectangle 2154-3" class="cls-11" x="365.95" y="291.89" width="107.21" height="34.34" rx="4.19"/><circle id="Ellipse_418" data-name="Ellipse 418" class="cls-7" cx="408.66" cy="309.48" r="3.35"/><circle id="Ellipse_419" data-name="Ellipse 419" class="cls-7" cx="443.84" cy="309.48" r="3.35"/><circle id="Ellipse_420" data-name="Ellipse 420" class="cls-7" cx="427.09" cy="309.48" r="3.35"/><circle id="Ellipse_421" data-name="Ellipse 421" class="cls-7" cx="461.43" cy="309.48" r="3.35"/><g id="Group_3100" data-name="Group 3100"><rect id="Rectangle_1760" data-name="Rectangle 1760" class="cls-7" x="374.32" y="306.97" width="14.24" height="10.89" rx="1.05"/><path id="Path_5147" data-name="Path 5147" class="cls-7" d="M386.47,307.11H385.1v-2.06a3.66,3.66,0,0,0-7.32,0v2.06h-1.37v-2.06a5,5,0,0,1,10.06,0Z"/><path id="Path_5148" data-name="Path 5148" class="cls-11" d="M382.85,311.42a1.41,1.41,0,1,0-2.82-.12v.12a1.49,1.49,0,0,0,.71,1.27l-.48,2.9h2.36l-.49-2.9A1.48,1.48,0,0,0,382.85,311.42Z"/></g></g><g id="Group_5920" data-name="Group 5920"><rect id="Rectangle_1772-4" data-name="Rectangle 1772-4" class="cls-11" x="365.95" y="232.42" width="107.21" height="34.34" rx="4.19"/><circle id="Ellipse_361-2" data-name="Ellipse 361-2" class="cls-7" cx="408.66" cy="250.01" r="3.35"/><circle id="Ellipse_376-2" data-name="Ellipse 376-2" class="cls-7" cx="443.84" cy="250.01" r="3.35"/><circle id="Ellipse_374-2" data-name="Ellipse 374-2" class="cls-7" cx="427.09" cy="250.01" r="3.35"/><circle id="Ellipse_375-2" data-name="Ellipse 375-2" class="cls-7" cx="461.43" cy="250.01" r="3.35"/><g id="Group_5921" data-name="Group 5921"><path id="Path_13320" data-name="Path 13320" class="cls-7" d="M392.75,247.54v7.91c-.05,0,0,.05-.05.08a1.69,1.69,0,0,1-1.74,1.18H376.11a1.64,1.64,0,0,1-1.78-1.49c0-.06,0-.12,0-.18v-7.55l.07,0,7.49,4.63a2.92,2.92,0,0,0,3.32,0l7.42-4.59S392.69,247.48,392.75,247.54Z"/><path id="Path_13321" data-name="Path 13321" class="cls-7" d="M392.75,245.12h0a1.83,1.83,0,0,1-1,1.09q-3.57,2.13-7.13,4.27a1.89,1.89,0,0,1-2.2,0l-7.32-4.4a1.4,1.4,0,0,1-.73-1.69,1.72,1.72,0,0,1,1.63-1.1H390.9a1.68,1.68,0,0,1,1.82,1.28l0,0Z"/></g></g><g id="Group_5922" data-name="Group 5922"><rect id="Rectangle_2154-4" data-name="Rectangle 2154-4" class="cls-11" x="225.23" y="291.89" width="107.21" height="34.34" rx="4.19"/><circle id="Ellipse_418-2" data-name="Ellipse 418-2" class="cls-7" cx="267.94" cy="309.48" r="3.35"/><circle id="Ellipse_419-2" data-name="Ellipse 419-2" class="cls-7" cx="303.12" cy="309.48" r="3.35"/><circle id="Ellipse_420-2" data-name="Ellipse 420-2" class="cls-7" cx="286.37" cy="309.48" r="3.35"/><circle id="Ellipse_421-2" data-name="Ellipse 421-2" class="cls-7" cx="320.71" cy="309.48" r="3.35"/><path id="Union_13" data-name="Union 13" class="cls-7" d="M240.1,317.69a34.89,34.89,0,0,1-4.6-5.54,12.43,12.43,0,0,1-1.65-3.42,6.41,6.41,0,0,1,1.41-6.07,6.63,6.63,0,0,1,4.13-2.31,5.62,5.62,0,0,1,1-.08,6.86,6.86,0,0,1,6.79,5.69,6.71,6.71,0,0,1-.58,4,20.78,20.78,0,0,1-2.83,4.46,37.17,37.17,0,0,1-3,3.3.52.52,0,0,1-.36.19A.51.51,0,0,1,240.1,317.69Zm-4.54-10.6a4.89,4.89,0,1,0,4.9-4.86h0a4.88,4.88,0,0,0-4.88,4.86Zm6.19,3.23a.43.43,0,0,1-.47-.38v-1.49c0-.35-.16-.5-.5-.5h-.72a.43.43,0,0,0-.46.38v1.47c0,.37-.14.52-.52.52h-.82a.43.43,0,0,1-.47-.38V307.4c0-.13,0-.17-.15-.15h-.23A.45.45,0,0,1,237,307a.41.41,0,0,1,.14-.48l1.83-1.67,1.15-1a.42.42,0,0,1,.6-.09l.08.08,3,2.7a.41.41,0,0,1,.15.49.44.44,0,0,1-.46.28c-.34,0-.34,0-.34.34v2.22a.44.44,0,0,1-.51.51Z"/></g><path id="Path_13147" data-name="Path 13147" class="cls-7" d="M508.63,249.17a1.07,1.07,0,0,1,.57,1,7.74,7.74,0,0,0,1.17,3.82,5.9,5.9,0,0,0,5,2.76,5.83,5.83,0,0,1,.59,0,.76.76,0,0,1,.7.8.76.76,0,0,1-.76.7,12.63,12.63,0,0,0-1.84.2,5.83,5.83,0,0,0-4.38,3.89,8.94,8.94,0,0,0-.54,2.7.83.83,0,0,1-1.28.72.9.9,0,0,1-.42-.85,8.07,8.07,0,0,0-.7-3,5.9,5.9,0,0,0-5.51-3.65l-.54,0a.75.75,0,0,1,0-1.5c.4-.05.81,0,1.22-.08a5.85,5.85,0,0,0,5-4,7.55,7.55,0,0,0,.52-2.57,1,1,0,0,1,.56-1Zm-.29,4.56a7.73,7.73,0,0,1-3.71,3.81,7.73,7.73,0,0,1,3.71,3.81,7.73,7.73,0,0,1,3.71-3.81,7.74,7.74,0,0,1-3.72-3.81Z"/><path id="Path_13148" data-name="Path 13148" class="cls-7" d="M220.2,193.87c0,.45-.32.73-.91.75a3.77,3.77,0,0,0-3.64,2.31,5.8,5.8,0,0,0-.47,2,.82.82,0,0,1-.78.86h-.08c-.5,0-.79-.32-.83-.88a5.54,5.54,0,0,0-.42-1.84,3.8,3.8,0,0,0-3.71-2.42c-.56,0-.89-.29-.89-.72s.34-.71.89-.74h.15a3.68,3.68,0,0,0,3.26-1.81,4.62,4.62,0,0,0,.53-1.28,6.57,6.57,0,0,0,.2-1.23.8.8,0,0,1,.8-.8h0a.82.82,0,0,1,.86.77v0a5.45,5.45,0,0,0,.69,2.43,3.69,3.69,0,0,0,3.32,1.87C219.84,193.17,220.19,193.42,220.2,193.87Zm-3.9,0a5.47,5.47,0,0,1-2-2,5.55,5.55,0,0,1-2,2,5.47,5.47,0,0,1,2,2,5.47,5.47,0,0,1,2-2Z"/><path id="Union_10" data-name="Union 10" class="cls-7" d="M161.81,238.85a.81.81,0,0,1,0-1.15l.07-.06c.39-.41.8-.81,1.21-1.21a.84.84,0,0,1,1.43.56.86.86,0,0,1-.27.66c-.39.39-.78.79-1.18,1.17a1,1,0,0,1-.68.3A.78.78,0,0,1,161.81,238.85Zm5.08.07c-.48-.44-.95-.9-1.39-1.37a.82.82,0,0,1,0-1.11.8.8,0,0,1,1.11-.07c.5.45,1,.93,1.42,1.41a.61.61,0,0,1,.16.46.81.81,0,0,1-.47.78,1,1,0,0,1-.38.1A.68.68,0,0,1,166.89,238.92Zm-1.5-4a.76.76,0,0,1,.11-.87c.45-.47.91-.94,1.39-1.38a.81.81,0,0,1,1.08,0,.76.76,0,0,1,.15,1.05,11.57,11.57,0,0,1-1.52,1.53.71.71,0,0,1-.44.13A.8.8,0,0,1,165.39,234.87Zm-2.29.25c-.45-.42-.89-.86-1.31-1.31a.76.76,0,0,1-.11-.91.78.78,0,0,1,.76-.44.76.76,0,0,1,.57.22c.42.41.85.82,1.25,1.25a.81.81,0,0,1,0,1.14l0,0a.84.84,0,0,1-1.16,0Z"/><path id="Union_11" data-name="Union 11" class="cls-7" d="M478.93,212.31a.76.76,0,0,1-.73-.78c0-.29,0-.58,0-.88s0-.59,0-.88A.82.82,0,0,1,479,209a.79.79,0,0,1,.87.69,8.45,8.45,0,0,1,0,2,.77.77,0,0,1-.78.66ZM475.65,209a.79.79,0,0,1-.81-.78v0a.82.82,0,0,1,.76-.87h1.81a.85.85,0,0,1,.77.86.83.83,0,0,1-.82.81h-1.71Zm5.81,0h0a8.64,8.64,0,0,1-.88,0,.83.83,0,0,1-.13-1.61h0a6.66,6.66,0,0,1,2.09,0,.76.76,0,0,1,.62.87.78.78,0,0,1-.76.75h-1ZM479,207.29a.79.79,0,0,1-.75-.8c0-.3,0-.59,0-.89h0c0-.29,0-.58,0-.88a.8.8,0,0,1,.79-.78.78.78,0,0,1,.84.67,8.45,8.45,0,0,1,0,2,.77.77,0,0,1-.81.68Z"/></g></svg>