<svg xmlns="http://www.w3.org/2000/svg" width="1366.002" height="1239.996" viewBox="0 0 1366.002 1239.996">
  <path id="Union_69" data-name="Union 69" d="M8137.949,19548.893c-48.591-2.031-88.8-13.209-121.77-44.852-19.352-18.572-38.493-17.713-60.23-16.855-15.3.6-31.879,1.207-50.726-4.961a157.15,157.15,0,0,0-20.679-5.225H7807.9c-16.326,2.129-32.791,5.133-49.287,8.135-43.542,7.924-87.354,15.85-129.744,7.723-21.445-4.113-42.182-12.311-63.525-15.857h-37.429c-20.582,3.795-39.794,13.373-58.2,22.82-22.748,11.674-46.525,23.764-72.781,25.172s-67.325-11.383-72.934-34.117l0-13.875h0V18380.715c47.119,20.609,103.487,1.58,149.674-20.613s95.284-48.541,147.3-41.883c30.873,3.949,58.925,19.406,89.975,22.016,29.033,2.439,56.884-6.486,84.793-15.416,26.364-8.43,52.782-16.865,80.309-15.711,48.6,2.031,128.8,13.209,161.77,44.852,18.861,18.1,37.517,14.471,58.572,10.844,15.755-2.709,32.855-5.422,52.389.973,46.791,15.318,67.9,6.2,91.373-2.916,20.4-7.924,42.586-15.848,84.984-7.719,28.92,5.551,56.564,18.529,86.133,17.5,26.28-.908,50.27-12.787,73.021-24.461s106.525-13.768,132.776-15.176,67.33,11.383,72.934,34.115l-.015,84.863H8689V19406h1v71.285q-.5-.22-1-.432v.146H8592.8c-18.2,5.457-35.989,12.977-52.479,20.9-46.187,22.189-95.279,48.543-147.3,41.885-30.868-3.949-58.925-19.406-89.975-22.016-29.038-2.445-56.889,6.486-84.793,15.41-24.74,7.91-49.519,15.824-75.217,15.822Q8140.5,19549,8137.949,19548.893Z" transform="translate(-7323.998 -18309.002)" fill="#f5f5f5"/>
</svg>
