<svg xmlns="http://www.w3.org/2000/svg" width="134" height="130" viewBox="0 0 134 130">
  <g id="Group_20" data-name="Group 20" transform="translate(-177 -2026)">
    <path id="Path_10" data-name="Path 10" d="M364.624,494.517l-1.678,4.47c-5.536,0-11.446-.085-16.981.007a21.29,21.29,0,0,0-20.457,19.824c-.642,11.087,7.367,21.954,18.132,23.375a29.491,29.491,0,0,0,3.893.234q7.956,0,15.911,0,0,2.238,0,4.475c-5.489,0-10.978.013-16.467,0-14.855-.048-26.276-12.753-25.96-27.592a25.762,25.762,0,0,1,22.316-24.574,30.611,30.611,0,0,1,3.754-.234Z" transform="translate(-144.011 1593.766)"/>
    <path id="Path_11" data-name="Path 11" d="M564.847,372.926q0-2.222,0-4.444c5.55,0,11.477-.011,17.027.006,15.011.045,26.574,11.7,26.226,26.411-.29,12.232-10.185,22.876-22.6,24.353a35.152,35.152,0,0,1-4.22.226c-5.6-.009-13.57-.02-19.168-.03.578-1.517,1.094-2.924,1.713-4.432,5.644,0,13.668.124,19.309-.013a21.29,21.29,0,0,0,20.4-19.214c1.04-10.163-6.266-20.053-16.481-22.306a23.582,23.582,0,0,0-5.173-.568C576.326,372.933,570.4,372.925,564.847,372.926Z" transform="translate(-297.107 1672.521)"/>
    <path id="Path_14" data-name="Path 14" d="M576.656,620.509q0,2.22,0,4.44l-9.583.019q0-2.239,0-4.477Z" transform="translate(-299.663 1515.7)"/>
    <path id="Path_27" data-name="Path 27" d="M15.412,0A15.412,15.412,0,1,1,0,15.412,15.412,15.412,0,0,1,15.412,0Z" transform="translate(276.382 2122.155)" fill="#00a651"/>
    <path id="Path_25" data-name="Path 25" d="M4717.47,2229.837l9-9.176-2.684-2.743-6.314,6.45-2.452-2.5-2.7,2.761Z" transform="translate(-4426.872 -85.473)" fill="#fff"/>
    <g id="Group_17" data-name="Group 17" transform="translate(0 1)">
      <rect id="Rectangle_759" data-name="Rectangle 759" width="50" height="36" rx="4" transform="translate(218 2119)" fill="#feba26"/>
      <rect id="Rectangle_760" data-name="Rectangle 760" width="38" height="4" rx="1" transform="translate(224 2125)" fill="#fff"/>
      <rect id="Rectangle_766" data-name="Rectangle 766" width="38" height="4" rx="1" transform="translate(224 2135)" fill="#fff"/>
      <rect id="Rectangle_767" data-name="Rectangle 767" width="38" height="4" rx="1" transform="translate(224 2145)" fill="#fff"/>
    </g>
    <g id="Group_18" data-name="Group 18" transform="translate(0 -93)">
      <rect id="Rectangle_759-2" data-name="Rectangle 759" width="50" height="36" rx="4" transform="translate(218 2119)" fill="#feba26"/>
      <rect id="Rectangle_760-2" data-name="Rectangle 760" width="38" height="4" rx="1" transform="translate(224 2125)" fill="#fff"/>
      <rect id="Rectangle_766-2" data-name="Rectangle 766" width="38" height="4" rx="1" transform="translate(224 2135)" fill="#fff"/>
      <rect id="Rectangle_767-2" data-name="Rectangle 767" width="38" height="4" rx="1" transform="translate(224 2145)" fill="#fff"/>
    </g>
    <g id="Group_19" data-name="Group 19">
      <path id="Path_26" data-name="Path 26" d="M5,0H47a4,4,0,0,1,4,4L46,32a4,4,0,0,1-4,4H0a4,4,0,0,1-4-4L1,4A4,4,0,0,1,5,0Z" transform="translate(218 2073)" fill="#e64934"/>
      <rect id="Rectangle_760-3" data-name="Rectangle 760" width="38" height="4" rx="1" transform="translate(226 2079)" fill="#fff"/>
      <rect id="Rectangle_766-3" data-name="Rectangle 766" width="38" height="4" rx="1" transform="translate(223 2089)" fill="#fff"/>
      <rect id="Rectangle_767-3" data-name="Rectangle 767" width="38" height="4" rx="1" transform="translate(220 2099)" fill="#fff"/>
    </g>
  </g>
</svg>
