<svg xmlns="http://www.w3.org/2000/svg" width="130" height="130" viewBox="0 0 130 130">
  <g id="Group_25" data-name="Group 25" transform="translate(-1062 -2026)">
    <rect id="Rectangle_768" data-name="Rectangle 768" width="60" height="74" rx="5" transform="translate(1062 2037)" fill="#feba26"/>
    <rect id="Rectangle_779" data-name="Rectangle 779" width="60" height="50" rx="5" transform="translate(1132 2106)" fill="#e64934"/>
    <rect id="Rectangle_769" data-name="Rectangle 769" width="6" height="22" rx="3" transform="translate(1076 2026)"/>
    <rect id="Rectangle_771" data-name="Rectangle 771" width="6" height="22" rx="3" transform="translate(1102 2026)"/>
    <rect id="Rectangle_774" data-name="Rectangle 774" width="25" height="4" rx="2" transform="translate(1092 2057)" fill="#fff"/>
    <path id="Path_32" data-name="Path 32" d="M3138.877,2065.247l4.888,4.276,9.112-9" transform="translate(-1983.877 79.477)" fill="none" stroke="#fff" stroke-linecap="round" stroke-width="4"/>
    <path id="Path_35" data-name="Path 35" d="M322.157,308.5h3.515c.009.015.016.042.029.045a1.824,1.824,0,0,1,1.536,1.646q.146,1.013.249,2.032a.364.364,0,0,0,.293.367,7.036,7.036,0,0,1,1.265.525.305.305,0,0,0,.388-.043c.526-.42,1.059-.829,1.591-1.241a1.856,1.856,0,0,1,2.632.146q.928.914,1.842,1.842a1.852,1.852,0,0,1,.164,2.609q-.623.813-1.259,1.615a.3.3,0,0,0-.045.387,7.269,7.269,0,0,1,.537,1.291.328.328,0,0,0,.329.261c.678.074,1.356.154,2.032.249a1.837,1.837,0,0,1,1.664,1.455c.006.022.036.037.054.056v3.574c-.078.015-.067.088-.085.137a1.877,1.877,0,0,1-1.635,1.315c-.667.09-1.335.176-2,.245a.364.364,0,0,0-.367.294,6.573,6.573,0,0,1-.513,1.239.339.339,0,0,0,.053.437c.422.525.833,1.058,1.242,1.592a1.852,1.852,0,0,1-.152,2.59q-.934.951-1.885,1.884a1.845,1.845,0,0,1-2.566.15c-.549-.422-1.1-.845-1.639-1.278a.287.287,0,0,0-.362-.044,7.993,7.993,0,0,1-1.319.549.311.311,0,0,0-.248.3c-.076.678-.161,1.356-.248,2.033a1.882,1.882,0,0,1-1.966,1.734c-.908,0-1.816.007-2.724,0a1.826,1.826,0,0,1-1.81-1.527c-.122-.731-.2-1.468-.288-2.2a.351.351,0,0,0-.273-.352,6.91,6.91,0,0,1-1.266-.524.325.325,0,0,0-.413.047q-.8.64-1.616,1.259a1.852,1.852,0,0,1-2.589-.163q-.938-.926-1.864-1.864a1.846,1.846,0,0,1-.158-2.587c.421-.55.843-1.1,1.277-1.639a.285.285,0,0,0,.036-.362,7.763,7.763,0,0,1-.537-1.293.33.33,0,0,0-.323-.268c-.679-.073-1.356-.159-2.033-.247a1.88,1.88,0,0,1-1.725-1.973c0-.9-.006-1.8,0-2.695a1.829,1.829,0,0,1,1.536-1.831c.721-.12,1.449-.2,2.175-.284a.368.368,0,0,0,.374-.285,7.1,7.1,0,0,1,.523-1.266.3.3,0,0,0-.036-.387c-.434-.54-.857-1.089-1.277-1.639a1.85,1.85,0,0,1,.174-2.588q.929-.935,1.865-1.863a1.843,1.843,0,0,1,2.565-.165c.56.425,1.112.858,1.665,1.291.1.076.172.127.308.055a8.52,8.52,0,0,1,1.4-.581c.156-.05.186-.145.2-.279.061-.523.152-1.044.185-1.569a2.143,2.143,0,0,1,1.513-2.184C322.153,308.525,322.154,308.509,322.157,308.5Zm1.631,21.248a6.252,6.252,0,1,0-6.062-6.471A6.28,6.28,0,0,0,323.787,329.748Z" transform="translate(768.028 1807.5)" fill="#00a651"/>
    <rect id="Rectangle_780" data-name="Rectangle 780" width="25" height="4" rx="2" transform="translate(1092 2066)" fill="#fff"/>
    <path id="Path_36" data-name="Path 36" d="M120.739,106.844q-2.695,2.188-5.389,4.377-7.732,6.314-15.459,12.634c-.065.054-.136.1-.212.157-.116-.145-.059-.295-.059-.429q-.006-4.884,0-9.768c0-.288,0-.434-.386-.4-9.051.856-15.8,5.233-20.038,13.283-1.23,2.333-2.123,4.844-3.181,7.268-.054.124,0,.368-.266.343v-.176c.149-.128.084-.3.084-.453q.008-4.413,0-8.826c0-.137.152-3.151.288-3.854A24.925,24.925,0,0,1,88.97,103.2a23.88,23.88,0,0,1,10.24-2.984c.213-.014.418.02.416-.335-.017-3.461-.015-6.923-.018-10.384H99.7c.009.141.142.171.225.238q10.294,8.389,20.591,16.776C120.614,106.6,120.8,106.644,120.739,106.844Z" transform="translate(1266.313 1977.25) rotate(90)" fill="#00a651"/>
    <rect id="Rectangle_781" data-name="Rectangle 781" width="49" height="4" rx="2" transform="translate(1067 2080)" fill="#fff"/>
    <rect id="Rectangle_782" data-name="Rectangle 782" width="49" height="4" rx="2" transform="translate(1067 2089)" fill="#fff"/>
    <rect id="Rectangle_783" data-name="Rectangle 783" width="49" height="4" rx="2" transform="translate(1067 2098)" fill="#fff"/>
    <g id="Group_23" data-name="Group 23" transform="translate(737.405 1756.997)">
      <path id="Path_37" data-name="Path 37" d="M332.8,505.85a6.4,6.4,0,0,0-.757-.212,3.469,3.469,0,0,1-2.4-3.167,12.6,12.6,0,0,1,.729-5.549,4.679,4.679,0,0,1,1.962-2.542,4.006,4.006,0,0,1,1.979-.529,1.134,1.134,0,0,1,.647.24c.315.212.624.435.94.643a4.521,4.521,0,0,0,5.391,0c.257-.17.517-.336.758-.53a1.676,1.676,0,0,1,1.4-.309,4.018,4.018,0,0,1,3.061,2.345,10.678,10.678,0,0,1,1,3.779,15.987,15.987,0,0,1,.083,1.99,3.621,3.621,0,0,1-3.227,3.8c-.029,0-.054.008-.061.045Z" transform="translate(0 -187.846)" fill="#fff"/>
      <path id="Path_38" data-name="Path 38" d="M409.222,301a5,5,0,1,1-4.992-5A5,5,0,0,1,409.222,301Z" transform="translate(-65.627)" fill="#fff"/>
    </g>
    <g id="Group_24" data-name="Group 24" transform="translate(823.405 1814.997)">
      <path id="Path_37-2" data-name="Path 37" d="M332.8,505.85a6.4,6.4,0,0,0-.757-.212,3.469,3.469,0,0,1-2.4-3.167,12.6,12.6,0,0,1,.729-5.549,4.679,4.679,0,0,1,1.962-2.542,4.006,4.006,0,0,1,1.979-.529,1.134,1.134,0,0,1,.647.24c.315.212.624.435.94.643a4.521,4.521,0,0,0,5.391,0c.257-.17.517-.336.758-.53a1.676,1.676,0,0,1,1.4-.309,4.018,4.018,0,0,1,3.061,2.345,10.678,10.678,0,0,1,1,3.779,15.987,15.987,0,0,1,.083,1.99,3.621,3.621,0,0,1-3.227,3.8c-.029,0-.054.008-.061.045Z" transform="translate(0 -187.846)" fill="#fff"/>
      <path id="Path_38-2" data-name="Path 38" d="M409.222,301a5,5,0,1,1-4.992-5A5,5,0,0,1,409.222,301Z" transform="translate(-65.627)" fill="#fff"/>
    </g>
  </g>
</svg>
