<svg xmlns="http://www.w3.org/2000/svg" width="120" height="130" viewBox="0 0 120 130">
  <g id="Group_22" data-name="Group 22" transform="translate(-629 -2026)">
    <rect id="Rectangle_768" data-name="Rectangle 768" width="90" height="104" rx="5" transform="translate(629 2037)" fill="#feba26"/>
    <rect id="Rectangle_769" data-name="Rectangle 769" width="6" height="22" rx="3" transform="translate(648 2026)"/>
    <rect id="Rectangle_771" data-name="Rectangle 771" width="6" height="22" rx="3" transform="translate(694 2026)"/>
    <rect id="Rectangle_774" data-name="Rectangle 774" width="43" height="4" rx="2" transform="translate(666 2103)" fill="#fff"/>
    <path id="Path_31" data-name="Path 31" d="M3138.877,2065.771l5.237,4.752,9.763-10" transform="translate(-2498.877 39.477)" fill="none" stroke="#fff" stroke-linecap="round" stroke-width="4"/>
    <rect id="Rectangle_775" data-name="Rectangle 775" width="43" height="4" rx="2" transform="translate(666 2123)" fill="#fff"/>
    <path id="Path_32" data-name="Path 32" d="M3138.877,2065.771l5.237,4.752,9.763-10" transform="translate(-2498.877 59.477)" fill="none" stroke="#fff" stroke-linecap="round" stroke-width="4"/>
    <circle id="Ellipse_7" data-name="Ellipse 7" cx="24" cy="24" r="24" transform="translate(701 2108)" fill="#00a651"/>
    <g id="Group_21" data-name="Group 21">
      <rect id="Rectangle_776" data-name="Rectangle 776" width="16" height="4" rx="2" transform="translate(711 2130)" fill="#fff"/>
      <rect id="Rectangle_777" data-name="Rectangle 777" width="4" height="20" rx="2" transform="translate(723 2114)" fill="#fff"/>
    </g>
    <circle id="Ellipse_8" data-name="Ellipse 8" cx="5" cy="5" r="5" transform="translate(720 2127)" fill="#feba26"/>
    <rect id="Rectangle_778" data-name="Rectangle 778" width="6" height="22" rx="3" transform="translate(671 2026)"/>
    <path id="Path_33" data-name="Path 33" d="M15,0A15,15,0,1,1,0,15,15,15,0,0,1,15,0Z" transform="translate(659 2058)" fill="#e64934"/>
    <path id="Path_34" data-name="Path 34" d="M4717.415,2229.918l8.9-9.239-2.655-2.761-6.246,6.494-2.425-2.522-2.673,2.78Z" transform="translate(-4045.316 -150.918)" fill="#fff"/>
  </g>
</svg>
