<svg xmlns="http://www.w3.org/2000/svg" xmlns:xlink="http://www.w3.org/1999/xlink" width="134" height="125" viewBox="0 0 134 125">
  <defs>
    <clipPath id="clip-path">
      <rect id="Rectangle_807" data-name="Rectangle 807" width="27" height="13" fill="#fff"/>
    </clipPath>
  </defs>
  <g id="Group_29" data-name="Group 29" transform="translate(-1056 -2464)">
    <path id="Path_43" data-name="Path 43" d="M337.534,308.5h7.615c.021.034.036.091.062.1a3.952,3.952,0,0,1,3.327,3.566q.317,2.195.54,4.4a.789.789,0,0,0,.634.795,15.241,15.241,0,0,1,2.74,1.137.661.661,0,0,0,.84-.093c1.139-.91,2.3-1.8,3.447-2.69a4.021,4.021,0,0,1,5.7.316q2.011,1.98,3.991,3.991a4.013,4.013,0,0,1,.355,5.653q-1.349,1.761-2.726,3.5a.659.659,0,0,0-.1.839,15.752,15.752,0,0,1,1.162,2.8.711.711,0,0,0,.712.564c1.469.16,2.938.334,4.4.539a3.98,3.98,0,0,1,3.6,3.152,44.389,44.389,0,0,1-.066,8.162,4.067,4.067,0,0,1-3.541,2.849c-1.445.2-2.891.381-4.341.53a.789.789,0,0,0-.8.636,14.247,14.247,0,0,1-1.11,2.685.735.735,0,0,0,.114.946c.913,1.137,1.805,2.292,2.692,3.45a4.013,4.013,0,0,1-.33,5.611q-2.023,2.06-4.083,4.083a4,4,0,0,1-5.56.325c-1.19-.914-2.379-1.831-3.55-2.769a.621.621,0,0,0-.785-.1,17.314,17.314,0,0,1-2.857,1.189.673.673,0,0,0-.537.661c-.166,1.47-.349,2.938-.537,4.405a4.078,4.078,0,0,1-4.258,3.757c-1.967,0-3.934.016-5.9,0a3.956,3.956,0,0,1-3.92-3.308c-.264-1.583-.44-3.181-.623-4.776a.76.76,0,0,0-.592-.762,14.967,14.967,0,0,1-2.742-1.135.7.7,0,0,0-.894.1q-1.732,1.387-3.5,2.728a4.012,4.012,0,0,1-5.608-.354q-2.032-2.006-4.038-4.039a4,4,0,0,1-.342-5.606c.912-1.192,1.826-2.382,2.766-3.552a.618.618,0,0,0,.078-.785,16.819,16.819,0,0,1-1.163-2.8.715.715,0,0,0-.7-.581c-1.47-.157-2.938-.344-4.4-.535a4.074,4.074,0,0,1-3.737-4.276c0-1.946-.012-3.893,0-5.839A3.962,3.962,0,0,1,312.307,334c1.562-.259,3.138-.438,4.712-.615a.8.8,0,0,0,.811-.617,15.375,15.375,0,0,1,1.134-2.743.655.655,0,0,0-.077-.839c-.94-1.169-1.856-2.359-2.767-3.551a4.009,4.009,0,0,1,.377-5.606q2.012-2.026,4.039-4.037a3.992,3.992,0,0,1,5.556-.358c1.212.92,2.41,1.859,3.608,2.8.211.165.373.275.667.12a18.453,18.453,0,0,1,3.033-1.258c.337-.107.4-.315.436-.6.132-1.133.329-2.262.4-3.4.14-2.257.955-4,3.278-4.731C337.526,308.555,337.528,308.52,337.534,308.5Zm3.532,46.036a13.545,13.545,0,1,0-13.132-14.021A13.606,13.606,0,0,0,341.067,354.536Z" transform="translate(781.028 2155.5)" fill="#00a651"/>
    <path id="Path_47" data-name="Path 47" d="M322.154,308.5h3.515c.009.015.016.042.029.045a1.824,1.824,0,0,1,1.536,1.646q.146,1.013.249,2.032a.364.364,0,0,0,.293.367,7.033,7.033,0,0,1,1.264.525.305.305,0,0,0,.387-.043c.526-.42,1.059-.829,1.591-1.241a1.856,1.856,0,0,1,2.632.146q.928.914,1.842,1.842a1.852,1.852,0,0,1,.164,2.609q-.622.813-1.258,1.615a.3.3,0,0,0-.045.387,7.271,7.271,0,0,1,.536,1.291.328.328,0,0,0,.329.261c.678.074,1.356.154,2.031.249a1.837,1.837,0,0,1,1.664,1.455,20.492,20.492,0,0,1-.03,3.767,1.877,1.877,0,0,1-1.634,1.315c-.667.09-1.334.176-2,.245a.364.364,0,0,0-.367.294,6.575,6.575,0,0,1-.512,1.239.339.339,0,0,0,.053.437c.422.525.833,1.058,1.242,1.592a1.852,1.852,0,0,1-.152,2.59q-.933.951-1.885,1.884a1.845,1.845,0,0,1-2.566.15c-.549-.422-1.1-.845-1.638-1.278a.287.287,0,0,0-.362-.044,7.991,7.991,0,0,1-1.319.549.311.311,0,0,0-.248.3c-.076.678-.161,1.356-.248,2.033a1.882,1.882,0,0,1-1.965,1.734c-.908,0-1.816.007-2.724,0a1.826,1.826,0,0,1-1.809-1.527c-.122-.731-.2-1.468-.288-2.2a.351.351,0,0,0-.273-.352,6.907,6.907,0,0,1-1.266-.524.325.325,0,0,0-.412.047q-.8.64-1.616,1.259a1.852,1.852,0,0,1-2.588-.163q-.938-.926-1.864-1.864a1.846,1.846,0,0,1-.158-2.587c.421-.55.843-1.1,1.277-1.639a.285.285,0,0,0,.036-.362,7.765,7.765,0,0,1-.537-1.293.33.33,0,0,0-.323-.268c-.679-.073-1.356-.159-2.033-.247a1.88,1.88,0,0,1-1.725-1.973c0-.9-.006-1.8,0-2.695a1.829,1.829,0,0,1,1.536-1.831c.721-.12,1.448-.2,2.175-.284a.368.368,0,0,0,.374-.285,7.1,7.1,0,0,1,.523-1.266.3.3,0,0,0-.036-.387c-.434-.54-.857-1.089-1.277-1.639a1.85,1.85,0,0,1,.174-2.588q.928-.935,1.864-1.863a1.842,1.842,0,0,1,2.564-.165c.559.425,1.112.858,1.665,1.291.1.076.172.127.308.055a8.518,8.518,0,0,1,1.4-.581c.156-.05.185-.145.2-.279.061-.523.152-1.044.185-1.569a2.143,2.143,0,0,1,1.513-2.184C322.151,308.525,322.152,308.509,322.154,308.5Zm1.63,21.248a6.252,6.252,0,1,0-6.061-6.471A6.28,6.28,0,0,0,323.785,329.748Z" transform="translate(851.028 2198.5)" fill="#00a651"/>
    <path id="Path_46" data-name="Path 46" d="M322.154,308.5h3.515c.009.015.016.042.029.045a1.824,1.824,0,0,1,1.536,1.646q.146,1.013.249,2.032a.364.364,0,0,0,.293.367,7.033,7.033,0,0,1,1.264.525.305.305,0,0,0,.387-.043c.526-.42,1.059-.829,1.591-1.241a1.856,1.856,0,0,1,2.632.146q.928.914,1.842,1.842a1.852,1.852,0,0,1,.164,2.609q-.622.813-1.258,1.615a.3.3,0,0,0-.045.387,7.271,7.271,0,0,1,.536,1.291.328.328,0,0,0,.329.261c.678.074,1.356.154,2.031.249a1.837,1.837,0,0,1,1.664,1.455,20.492,20.492,0,0,1-.03,3.767,1.877,1.877,0,0,1-1.634,1.315c-.667.09-1.334.176-2,.245a.364.364,0,0,0-.367.294,6.575,6.575,0,0,1-.512,1.239.339.339,0,0,0,.053.437c.422.525.833,1.058,1.242,1.592a1.852,1.852,0,0,1-.152,2.59q-.933.951-1.885,1.884a1.845,1.845,0,0,1-2.566.15c-.549-.422-1.1-.845-1.638-1.278a.287.287,0,0,0-.362-.044,7.991,7.991,0,0,1-1.319.549.311.311,0,0,0-.248.3c-.076.678-.161,1.356-.248,2.033a1.882,1.882,0,0,1-1.965,1.734c-.908,0-1.816.007-2.724,0a1.826,1.826,0,0,1-1.809-1.527c-.122-.731-.2-1.468-.288-2.2a.351.351,0,0,0-.273-.352,6.907,6.907,0,0,1-1.266-.524.325.325,0,0,0-.412.047q-.8.64-1.616,1.259a1.852,1.852,0,0,1-2.588-.163q-.938-.926-1.864-1.864a1.846,1.846,0,0,1-.158-2.587c.421-.55.843-1.1,1.277-1.639a.285.285,0,0,0,.036-.362,7.765,7.765,0,0,1-.537-1.293.33.33,0,0,0-.323-.268c-.679-.073-1.356-.159-2.033-.247a1.88,1.88,0,0,1-1.725-1.973c0-.9-.006-1.8,0-2.695a1.829,1.829,0,0,1,1.536-1.831c.721-.12,1.448-.2,2.175-.284a.368.368,0,0,0,.374-.285,7.1,7.1,0,0,1,.523-1.266.3.3,0,0,0-.036-.387c-.434-.54-.857-1.089-1.277-1.639a1.85,1.85,0,0,1,.174-2.588q.928-.935,1.864-1.863a1.842,1.842,0,0,1,2.564-.165c.559.425,1.112.858,1.665,1.291.1.076.172.127.308.055a8.518,8.518,0,0,1,1.4-.581c.156-.05.185-.145.2-.279.061-.523.152-1.044.185-1.569a2.143,2.143,0,0,1,1.513-2.184C322.151,308.525,322.152,308.509,322.154,308.5Zm1.63,21.248a6.252,6.252,0,1,0-6.061-6.471A6.28,6.28,0,0,0,323.785,329.748Z" transform="translate(747.028 2198.5)" fill="#00a651"/>
    <g id="Group_30" data-name="Group 30" transform="translate(6 5)">
      <path id="Path_48" data-name="Path 48" d="M1080,2539.024l7.4-19.985,5.516-3.28h51.117l4.233,3.28,7.312,19.985Z" transform="translate(-1.134 -0.2)" fill="#e64934"/>
      <g id="Mask_Group_1" data-name="Mask Group 1" transform="translate(1147.839 2538.808) rotate(180)" clip-path="url(#clip-path)">
        <g id="Ellipse_17" data-name="Ellipse 17" transform="translate(0 -14)" fill="none" stroke="#050505" stroke-width="4">
          <circle cx="13.5" cy="13.5" r="13.5" stroke="none"/>
          <circle cx="13.5" cy="13.5" r="11.5" fill="none"/>
        </g>
      </g>
      <path id="Path_44" data-name="Path 44" d="M12.24,45.867a11.312,11.312,0,0,1,3.726-6.354c.78-.682,1.517-1.414,2.308-2.083a3.134,3.134,0,0,0,.928-1.359c2.1-5.627,4.244-11.241,6.323-16.877a8.459,8.459,0,0,1,7.862-6.011c.208.009.417.026.625.026q24.489,0,48.977,0c.208,0,.416-.018.625-.028,4.1.25,6.7,2.361,8.073,6.135,1.778,4.882,3.725,9.705,5.449,14.6a14.049,14.049,0,0,0,3.581,5.655,10.112,10.112,0,0,1,3.146,7.454q.063,13.982,0,27.965a7.91,7.91,0,0,1-7.3,7.992,31.292,31.292,0,0,1-7.157-.021,7.962,7.962,0,0,1-6.943-6.414,22.184,22.184,0,0,1-.141-4.577c.013-.688-.168-.88-.884-.877-7.353.028-14.706.017-22.058.017q-12.464,0-24.928-.014c-.647,0-.885.118-.861.81a36.489,36.489,0,0,1-.055,3.966,8,8,0,0,1-6.873,7.079,33.98,33.98,0,0,1-6.981.07,7.861,7.861,0,0,1-7.3-5.8S11.394,66.364,12.24,45.867ZM58.588,17.082q-12.281,0-24.563,0c-2.544,0-3.84.888-4.727,3.233q-2.788,7.372-5.572,14.745c-.347.918-.345.92.647.92,12.431,0,67.572-.047,68.524.015.8.052.858-.169.595-.856-1.89-4.934-3.742-9.882-5.609-14.825-.882-2.335-2.194-3.232-4.731-3.233Q70.869,17.08,58.588,17.082Z" transform="translate(1058.102 2500.819)" fill="#feba26"/>
      <rect id="Rectangle_805" data-name="Rectangle 805" width="23" height="4" rx="2" transform="translate(1104.896 2549.501)" fill="#e64934"/>
      <rect id="Rectangle_806" data-name="Rectangle 806" width="23" height="4" rx="2" transform="translate(1104.896 2556.404)" fill="#e64934"/>
      <rect id="Rectangle_808" data-name="Rectangle 808" width="18" height="13" rx="2" transform="translate(1079 2548.44)" fill="#fff"/>
      <rect id="Rectangle_809" data-name="Rectangle 809" width="17" height="13" rx="2" transform="translate(1135.794 2548.44)" fill="#fff"/>
    </g>
  </g>
</svg>
