<svg id="Layer_1" data-name="Layer 1" xmlns="http://www.w3.org/2000/svg" viewBox="0 0 600 600"><defs><style>.cls-1{fill:#fff7e7;}.cls-2,.cls-28,.cls-29,.cls-3,.cls-30,.cls-4{isolation:isolate;}.cls-3{font-size:31.61px;font-family:SegoeUI-Bold, Segoe UI;letter-spacing:0em;}.cls-28,.cls-29,.cls-3{font-weight:700;}.cls-4{font-size:22.46px;font-family:SegoeUI, Segoe UI;letter-spacing:0em;}.cls-10,.cls-14,.cls-4{fill:#393939;}.cls-5{fill:#9dd4b7;}.cls-12,.cls-13,.cls-19,.cls-6,.cls-7{fill:none;}.cls-6,.cls-7{stroke:#fff;}.cls-19,.cls-6,.cls-7{stroke-miterlimit:10;}.cls-7{stroke-width:1.18px;}.cls-8{fill:#83cba6;}.cls-9{fill:#00a64f;}.cls-11{fill:#fff;}.cls-12,.cls-13,.cls-14{stroke:#393939;}.cls-12,.cls-13{stroke-linecap:round;stroke-linejoin:round;}.cls-12{stroke-width:0.98px;}.cls-13{stroke-width:0.68px;}.cls-15{fill:#506cb4;}.cls-16{fill:#748bc6;}.cls-17{fill:#f3ae98;}.cls-18{fill:#fab8a0;}.cls-19{stroke:#00a64f;}.cls-20{fill:#fdb926;}.cls-21{fill:#f3b423;}.cls-22{fill:#fedc92;}.cls-23{fill:#f8c8c1;}.cls-24{fill:#1b1b1b;}.cls-25{fill:#e7f1fa;}.cls-26{fill:#4e4e4e;}.cls-27{fill:#f1b020;}.cls-28,.cls-29{font-size:5.82px;font-family:OpenSans-Bold, Open Sans;}.cls-28{letter-spacing:0.11em;}.cls-29{letter-spacing:0.11em;}.cls-30{fill:#ebaf24;opacity:0.5;}</style></defs><g id="Group_6465" data-name="Group 6465"><path id="Path_3677" data-name="Path 3677" class="cls-1" d="M106.51,93c34.54-51.54,96.81-79,147.87-85.75a306.75,306.75,0,0,1,45-2.51c148.25,2.07,224.84,86,215.38,126.43s-36.27,65.3,2.37,121.26S566,392.35,543.87,476.3s-115.68,115-243.48,117.57-221,9.9-248.58-67.82S84.56,395,93,328.38c5.25-41.3-16.54-82.93-17.53-124.13C74.43,159.75,86.65,122.64,106.51,93Z"/><g id="Contact_Us" data-name="Contact Us" class="cls-2"><text class="cls-3" transform="translate(229.19 76.25)">Contact Us</text></g><g id="Let_s_get_to_know_each_other" data-name="Let s get to know each other" class="cls-2"><text class="cls-4" transform="translate(167.29 117.84)">Let&apos;s get to know each other</text></g><g id="Group_5838" data-name="Group 5838"><path id="Path_13196" data-name="Path 13196" class="cls-5" d="M498.94,548.11c-7.56-1.33-15.75-23.38-1.66-30.77s18.83-11.3,21.78-28.5,13-9,10.7,1,12.78,8.82,15.92,13.62c5.43,8.32-6.59,9.65-13.48,14.39s5.41,8,.52,16S511.84,550.38,498.94,548.11Z"/><path id="Path_13197" data-name="Path 13197" class="cls-6" d="M498.32,547.68c.7-.83,15-24.82,23.67-36.33"/><line id="Line_1" data-name="Line 1" class="cls-7" x1="506.1" y1="535.18" x2="524.53" y2="530.9"/><line id="Line_2" data-name="Line 2" class="cls-6" x1="513.61" y1="523.52" x2="513.99" y2="512.48"/><path id="Path_13198" data-name="Path 13198" class="cls-8" d="M501.66,558.78s-4.24-8.29,3-13.6,10.45-12.13,6.32-18.41-14.74-2.36-19.23-5.36-2.56-9.41-6.24-16.35c-4.93-9.3-14.47-6.85-16.7-5.41s-6.19,5.82-1,14.27,1.36,11.39-2.76,18,3.1,9.2,14.83,11.44S493.62,560,493.62,560l8-1.23"/><path id="Path_13199" data-name="Path 13199" class="cls-6" d="M498.68,567.1s1.76-31.24-23.86-59.79"/><path id="Path_13200" data-name="Path 13200" class="cls-6" d="M494.41,541.25s-6.68-9.2-22.73-7.63"/><path id="Path_13201" data-name="Path 13201" class="cls-6" d="M495.36,544.76s-3.28-13.24,10.14-17.52"/><path id="Path_13202" data-name="Path 13202" class="cls-9" d="M526.7,554.61c13.43,3.4,13.76-8.3,5.53-14.83-5.15-4.08,5.35-6.26,9.42-10.23,7-6.81-4.22-15.38-10-9.41s-9.42,7.8-13.65,8.33-16.19.65-15.16,8.25c.64,4.74-3.45,8.78-2.89,13.53C512.34,546.05,519.7,552.84,526.7,554.61Z"/><path id="Path_13203" data-name="Path 13203" class="cls-6" d="M500,550.25s18-13.5,32.73-20.61"/><line id="Line_3" data-name="Line 3" class="cls-6" x1="513.85" y1="540.68" x2="515.54" y2="530.33"/><line id="Line_4" data-name="Line 4" class="cls-6" x1="510.14" y1="543.1" x2="529.21" y2="543.16"/><path id="Path_13204" data-name="Path 13204" d="M514.4,572H494.75l-4.58-19.65H519Z"/><rect id="Rectangle_2136" data-name="Rectangle 2136" class="cls-10" x="487.09" y="547.44" width="34.96" height="7.91"/></g><g id="Group_5895" data-name="Group 5895"><circle id="Ellipse_412" data-name="Ellipse 412" class="cls-10" cx="82.9" cy="300.84" r="19.96"/><circle id="Ellipse_413" data-name="Ellipse 413" class="cls-11" cx="82.9" cy="300.84" r="15.8"/><line id="Line_5" data-name="Line 5" class="cls-12" x1="82.9" y1="300.01" x2="82.9" y2="290.86"/><line id="Line_6" data-name="Line 6" class="cls-12" x1="82.9" y1="300.84" x2="88.72" y2="304.17"/><line id="Line_7" data-name="Line 7" class="cls-13" x1="82.9" y1="314.98" x2="82.9" y2="313.32"/><line id="Line_8" data-name="Line 8" class="cls-13" x1="91.27" y1="313.07" x2="89.61" y2="311.41"/><line id="Line_9" data-name="Line 9" class="cls-13" x1="95.37" y1="308.32" x2="93.71" y2="307.49"/><line id="Line_10" data-name="Line 10" class="cls-13" x1="97.04" y1="300.84" x2="95.37" y2="300.84"/><line id="Line_11" data-name="Line 11" class="cls-13" x1="95.37" y1="294.18" x2="93.71" y2="295.02"/><line id="Line_12" data-name="Line 12" class="cls-13" x1="91.27" y1="288.95" x2="89.61" y2="290.61"/><line id="Line_13" data-name="Line 13" class="cls-13" x1="82.9" y1="288.36" x2="82.9" y2="286.7"/><line id="Line_14" data-name="Line 14" class="cls-13" x1="78.3" y1="290.61" x2="76.64" y2="288.95"/><line id="Line_15" data-name="Line 15" class="cls-13" x1="72.92" y1="295.02" x2="71.25" y2="294.18"/><line id="Line_16" data-name="Line 16" class="cls-13" x1="70.42" y1="300.84" x2="68.76" y2="300.84"/><line id="Line_17" data-name="Line 17" class="cls-13" x1="72.92" y1="307.49" x2="71.25" y2="308.32"/><line id="Line_18" data-name="Line 18" class="cls-13" x1="78.3" y1="311.41" x2="76.64" y2="313.07"/><circle id="Ellipse_414" data-name="Ellipse 414" class="cls-14" cx="82.9" cy="300.84" r="0.83"/></g><g id="Group_5900" data-name="Group 5900"><path id="Path_13211" data-name="Path 13211" d="M150.56,413s2.19-9.68-7.11-18-23.69-7.54-31.58-3.21c-10.22,5.61-20.25,20.46-11.08,41.67S68,446,82,474.69s38.46,8.9,47.22,20.81,39.08-19.31,13.17-41.14S148.6,432.63,150.56,413Z"/><path id="Path_13212" data-name="Path 13212" class="cls-15" d="M152.93,476.34c10.63,4.53,19.44,31.47,20.26,88.95H150.28S136.35,469.27,152.93,476.34Z"/><path id="Path_13213" data-name="Path 13213" class="cls-16" d="M124.5,467.77c-12.56-1.24-33,.85-40.41,9-1.62,1.8-1.63,5.16-.76,9.81C86.41,503,100.46,535.47,93,571.73h65.42s-6.21-28.34-2.74-37.28c4-10.22,7.4-19.46,3.49-28-8.88-19.44-.92-27.49-6.56-30.3A81.84,81.84,0,0,0,124.5,467.77Z"/><path id="Path_13214" data-name="Path 13214" class="cls-15" d="M97.51,515.89c2.73,15.87,21.12,17.83,30.33,14.73,0,0-13.41,8.12-23.08,3.56,0,0-2.46,7.75,1.22,32.14H94a.94.94,0,0,1,0-.12,121.68,121.68,0,0,0-.36-36.05,50.49,50.49,0,0,0-1.28-7.42l0-.07c-1.52-7.77-3.43-14.88-5.14-21.09a68.94,68.94,0,0,1-1-12.51A65.65,65.65,0,0,1,97.51,515.89Z"/><path id="Path_13215" data-name="Path 13215" class="cls-17" d="M96.82,550s11.43,14,17,10.23c7.32-5,13.33-4.94,18.17-2.05a17.8,17.8,0,0,1,6.94,8.18H99.66l-11.41-9.88Z"/><path id="Path_13216" data-name="Path 13216" class="cls-16" d="M83.67,477.32s-10.09,26.34-18.73,47.87c-7,17.38,35.11,41.07,35.11,41.07l7-9.32L82.76,530.07l14.82-31.26s8.6-17.05-4.45-23.09C85.87,472.36,83.67,477.32,83.67,477.32Z"/><path id="Path_13217" data-name="Path 13217" class="cls-17" d="M115.9,442.12s1.59,20-3.2,25.18c-6.16,6.71,4.65,21.17,20.89,32.12,0,0,9.08-10.08,2-26.51s-.22-25.69-.22-25.69Z"/><path id="Path_13218" data-name="Path 13218" class="cls-18" d="M112.7,433.5c0,13.68,9.64,24.76,17.78,24.76s18.32-9.1,19.68-25.93c1.11-13.64-6.23-23.6-17.34-23.6S112.7,419.82,112.7,433.5Z"/><path id="Path_13219" data-name="Path 13219" d="M146.63,405.52c1.14.66,3.62,2.27,6.51,4.19,3.15,2.1,6.5,5.72,7.65,9.69,2,6.82-3,15.45-13,12.4S133,412.76,125,422c-10.06,11.5-13.71,5.09-13.71,5.09s2-14.31,12.21-20.75C128.91,402.88,137.14,400.05,146.63,405.52Z"/><g id="Group_5837" data-name="Group 5837"><path id="Path_13222" data-name="Path 13222" class="cls-19" d="M113.16,431.21s-1.65,18.26,15.14,20"/><g id="Group_5836" data-name="Group 5836"><path id="Path_13220" data-name="Path 13220" class="cls-9" d="M106,428.57c0,4.46,2.64,8.08,5.89,8.08s5.9-3.62,5.9-8.08-2.64-8.08-5.9-8.08S106,424.11,106,428.57Z"/><path id="Path_13221" data-name="Path 13221" class="cls-9" d="M130.42,401.64c9.06-1.75,17.8,1.68,22.72,8.07a26.39,26.39,0,0,0-19.84-3.92c-12,2.32-20.56,12.1-20.85,22.95a19.69,19.69,0,0,1-.55-2.17C109.71,415.19,118,404,130.42,401.64Z"/><path id="Path_13223" data-name="Path 13223" class="cls-9" d="M129.4,453H132a1.54,1.54,0,0,0,1.55-1.55h0a1.54,1.54,0,0,0-1.55-1.55H129.4a1.55,1.55,0,0,0-1.56,1.55h0A1.55,1.55,0,0,0,129.4,453Z"/></g></g><g id="Group_5831" data-name="Group 5831"><rect id="Rectangle_2137" data-name="Rectangle 2137" class="cls-20" x="87.76" y="566.26" width="100.1" height="5.47" rx="1.93"/></g><path id="Path_13224" data-name="Path 13224" class="cls-21" d="M134.22,571.73h88a5.69,5.69,0,0,0,5.34-3.74l20.52-56.38a5.7,5.7,0,0,0-3.4-7.29,5.6,5.6,0,0,0-2-.34h-88a5.69,5.69,0,0,0-5.35,3.74L128.88,564.1a5.68,5.68,0,0,0,3.39,7.29A5.93,5.93,0,0,0,134.22,571.73Z"/><path id="Path_13225" data-name="Path 13225" class="cls-20" d="M244.77,504.35c-.34,33.32-45,60.27-100,60.27-5.39,0-10.69-.26-15.85-.76l20.44-56.14a5.68,5.68,0,0,1,5.34-3.74h88A5.67,5.67,0,0,1,244.77,504.35Z"/><path id="Path_13226" data-name="Path 13226" class="cls-22" d="M183.13,536.73a6.66,6.66,0,1,0,6.66-6.66h0a6.66,6.66,0,0,0-6.66,6.66Z"/></g><g id="Group_5901" data-name="Group 5901"><path id="Path_13227" data-name="Path 13227" class="cls-22" d="M516.93,209a15.71,15.71,0,1,1,3,24.58,2.33,2.33,0,0,0-1.86-.23l-4,1.19a.41.41,0,0,1-.5-.27.45.45,0,0,1,0-.23l1.19-4a2.35,2.35,0,0,0-.23-1.87A15.72,15.72,0,0,1,516.93,209Z"/><circle id="Ellipse_415" data-name="Ellipse 415" class="cls-11" cx="519.31" cy="220.15" r="2.54"/><circle id="Ellipse_416" data-name="Ellipse 416" class="cls-11" cx="528.02" cy="220.15" r="2.54"/><circle id="Ellipse_417" data-name="Ellipse 417" class="cls-11" cx="536.74" cy="220.15" r="2.54"/></g><path id="Rectangle_2138" data-name="Rectangle 2138" d="M70.42,572H544.55A7.49,7.49,0,0,1,552,579.5h0a7.48,7.48,0,0,1-7.49,7.48H70.42a7.49,7.49,0,0,1-7.49-7.48h0A7.49,7.49,0,0,1,70.42,572Z"/><path id="Rectangle_2139" data-name="Rectangle 2139" class="cls-10" d="M75.41,587H539.56a4.16,4.16,0,0,1,4.16,4.16h0a4.16,4.16,0,0,1-4.16,4.16H75.41a4.16,4.16,0,0,1-4.16-4.16h0A4.16,4.16,0,0,1,75.41,587Z"/><g id="Group_5896" data-name="Group 5896"><path id="Path_13244" data-name="Path 13244" class="cls-23" d="M143.76,156.3a14.13,14.13,0,0,1,12.23,24l1.91,3.88-4.28-2a14.14,14.14,0,1,1-9.86-25.93Z"/><path id="Path_13245" data-name="Path 13245" class="cls-11" d="M151.81,177.09l1.43-1.7a1.54,1.54,0,0,0-.19-2.17h0l-1.64-1.36a1.56,1.56,0,0,0-2.19.19s-.76,1.14-1.65.94a13.23,13.23,0,0,1-4.4-3.07c-.83-.88.57-2.42.57-2.42a1.54,1.54,0,0,0-.19-2.17h0L141.89,164a1.55,1.55,0,0,0-2.19.2l-1.43,1.7C135.06,169.68,149,180.44,151.81,177.09Z"/></g><g id="Group_5899" data-name="Group 5899"><path id="Path_13248" data-name="Path 13248" class="cls-24" d="M323.86,538.27l-25.17-13.46,6.63-19.68L336,521Z"/><path id="Path_13249" data-name="Path 13249" class="cls-24" d="M336,521l-30.63-15.86,21.84-4.67Z"/><rect id="Rectangle_2140" data-name="Rectangle 2140" class="cls-11" x="304.33" y="508.03" width="23.33" height="27.62" transform="translate(-292.7 562.52) rotate(-62.63)"/><path id="Path_13250" data-name="Path 13250" class="cls-10" d="M305.32,505.14,295,525.05l20.11-1.32Z"/><path id="Path_13251" data-name="Path 13251" class="cls-10" d="M336,521l-10.31,19.91-10.52-17.18Z"/><path id="Path_13252" data-name="Path 13252" class="cls-25" d="M325.64,540.91,295,525.05l23.29-7.38Z"/><path id="Path_13253" data-name="Path 13253" class="cls-26" d="M325.64,540.91,295,525.05l21.84-4.66Z"/></g><g id="Group_5898" data-name="Group 5898"><path id="Path_13282" data-name="Path 13282" class="cls-27" d="M367.38,147.78,238.45,260.56V415.63H496.31V260.56Z"/><rect id="Rectangle_2142" data-name="Rectangle 2142" class="cls-22" x="251.75" y="190.21" width="231.24" height="212.11" rx="8.32"/><path id="Rectangle_2143" data-name="Rectangle 2143" class="cls-11" d="M273,203.52H461.79a7.9,7.9,0,0,1,7.9,7.9h0a7.9,7.9,0,0,1-7.9,7.9H273a7.91,7.91,0,0,1-7.91-7.9h0A7.9,7.9,0,0,1,273,203.52Z"/><path id="Rectangle_2144" data-name="Rectangle 2144" class="cls-11" d="M273,227.64H461.79a7.9,7.9,0,0,1,7.9,7.9h0a7.9,7.9,0,0,1-7.9,7.9H273a7.91,7.91,0,0,1-7.91-7.9h0A7.91,7.91,0,0,1,273,227.64Z"/><rect id="Rectangle_2145" data-name="Rectangle 2145" class="cls-11" x="265.06" y="251.76" width="204.63" height="108.14" rx="8.32"/><g id="EMAIL" class="cls-2"><text class="cls-28" transform="translate(273.38 237.62)">EMAIL</text></g><g id="MESSAGE" class="cls-2"><text class="cls-29" transform="translate(273.38 265.9)">MESSAGE</text></g><path id="Path_13283" data-name="Path 13283" class="cls-30" d="M367.38,360.67,238.45,261.74V401.49H496.31V261.74Z"/><path id="Path_13284" data-name="Path 13284" class="cls-20" d="M367.38,376,238.45,261.74V416.46H496.31V261.74Z"/><path id="Path_13285" data-name="Path 13285" class="cls-30" d="M367.38,295,238.45,416.46H496.31Z"/><path id="Path_13286" data-name="Path 13286" class="cls-20" d="M367.38,306.66,238.45,416.46H496.31Z"/><g id="NAME" class="cls-2"><text class="cls-28" transform="translate(273.38 213.5)">NAME</text></g></g></g></svg>