<svg xmlns="http://www.w3.org/2000/svg" xmlns:xlink="http://www.w3.org/1999/xlink" width="647" height="713" viewBox="0 0 647 713">
  <defs>
    <filter id="Rectangle_2106" x="93" y="136" width="554" height="388" filterUnits="userSpaceOnUse">
      <feOffset dy="10" input="SourceAlpha"/>
      <feGaussianBlur stdDeviation="11" result="blur"/>
      <feFlood flood-opacity="0.071"/>
      <feComposite operator="in" in2="blur"/>
      <feComposite in="SourceGraphic"/>
    </filter>
    <filter id="Rectangle_2128" x="294" y="428" width="152" height="70" filterUnits="userSpaceOnUse">
      <feOffset dy="10" input="SourceAlpha"/>
      <feGaussianBlur stdDeviation="8" result="blur-2"/>
      <feFlood flood-opacity="0.161"/>
      <feComposite operator="in" in2="blur-2"/>
      <feComposite in="SourceGraphic"/>
    </filter>
    <filter id="Path_13186" x="142" y="257" width="252" height="176" filterUnits="userSpaceOnUse">
      <feOffset dy="10" input="SourceAlpha"/>
      <feGaussianBlur stdDeviation="8" result="blur-3"/>
      <feFlood flood-opacity="0.122"/>
      <feComposite operator="in" in2="blur-3"/>
      <feComposite in="SourceGraphic"/>
    </filter>
  </defs>
  <g id="Group_6575" data-name="Group 6575" transform="translate(-28 -352)">
    <path id="Path_3677" data-name="Path 3677" d="M113.029,184.463c41.52-61.957,116.381-94.928,177.765-103.09a371.078,371.078,0,0,1,54.142-3.015c178.225,2.491,270.3,103.411,258.926,152s-43.608,78.494,2.845,145.774,58.653,168.2,32.109,269.12S499.752,783.517,346.107,786.594,80.444,798.5,47.264,705.059,86.64,547.5,96.813,467.423c6.31-49.649-19.885-99.7-21.073-149.223C74.459,264.7,89.157,220.086,113.029,184.463Z" transform="translate(-10.641 273.684)" fill="#fff7e6"/>
    <text id="Make_Payment" data-name="Make Payment" transform="translate(346 425)" font-size="38" font-family="SegoeUI-Bold, Segoe UI" font-weight="700" letter-spacing="0.004em"><tspan x="-133" y="0">Make Payment</tspan></text>
    <text id="Let_s_get_to_know_each_other" data-name="Let&apos;s get to know each other" transform="translate(346 475)" fill="#393939" font-size="27" font-family="SegoeUI, Segoe UI" letter-spacing="0.004em"><tspan x="-142" y="0">Complete Your Payment</tspan></text>
    <ellipse id="Ellipse_359" data-name="Ellipse 359" cx="291.5" cy="13" rx="291.5" ry="13" transform="translate(59 1039)" fill="#e8e8e8"/>
    <g id="Group_5801" data-name="Group 5801" transform="translate(-7404 -10)">
      <g transform="matrix(1, 0, 0, 1, 7432, 362)" filter="url(#Rectangle_2106)">
        <rect id="Rectangle_2106-2" data-name="Rectangle 2106" width="488" height="322" rx="5" transform="translate(126 159)" fill="#fedc92"/>
      </g>
      <path id="Rectangle_2107" data-name="Rectangle 2107" d="M5,0H483a5,5,0,0,1,5,5V50a0,0,0,0,1,0,0H0a0,0,0,0,1,0,0V5A5,5,0,0,1,5,0Z" transform="translate(7558 521)" fill="#feba26"/>
      <circle id="Ellipse_405" data-name="Ellipse 405" cx="5" cy="5" r="5" transform="translate(7578 541)" fill="#e64934"/>
      <circle id="Ellipse_406" data-name="Ellipse 406" cx="5" cy="5" r="5" transform="translate(7598 541)" fill="#00a651"/>
      <circle id="Ellipse_407" data-name="Ellipse 407" cx="5" cy="5" r="5" transform="translate(7618 541)"/>
      <path id="Path_13162" data-name="Path 13162" d="M446.519,215.218a8.319,8.319,0,0,0-2.175.771l-2.313-2.62-2.812,2.587,2.214,2.508a8.616,8.616,0,0,0-1.2,2.224l-3.864-.205-.2,3.859,3.565.189a8.77,8.77,0,0,0,.886,3.139l-2.567,2.362,2.533,2.871,2.457-2.261a8.369,8.369,0,0,0,2.618,1.375l-.167,3.273,3.781.2.161-3.162a8.356,8.356,0,0,0,3.195-1.177l2.213,2.507,2.812-2.586-2.313-2.62a8.742,8.742,0,0,0,.977-2.129l3.651.194.2-3.86-3.543-.187a8.778,8.778,0,0,0-1.153-3.261l2.457-2.26-2.534-2.872-2.567,2.361a8.4,8.4,0,0,0-2.525-1.131l.185-3.616-3.782-.2Zm4.263,6.141a3.6,3.6,0,0,1-.255,5,3.424,3.424,0,0,1-4.9-.261,3.6,3.6,0,0,1,.256-5A3.423,3.423,0,0,1,450.782,221.358Z" transform="translate(7457.829 375.51)" fill="#feba26"/>
      <path id="Path_13163" data-name="Path 13163" d="M44.379,204.78a8.318,8.318,0,0,0-2.175.771l-2.313-2.62-2.812,2.587,2.214,2.507a8.65,8.65,0,0,0-1.2,2.224l-3.864-.2-.2,3.859,3.564.189a8.792,8.792,0,0,0,.887,3.139l-2.567,2.362,2.533,2.871,2.457-2.261a8.412,8.412,0,0,0,2.618,1.375l-.167,3.273,3.781.2.161-3.162a8.39,8.39,0,0,0,3.195-1.177l2.213,2.507,2.812-2.587-2.313-2.62a8.668,8.668,0,0,0,.976-2.129l3.652.194.2-3.859-3.543-.188a8.78,8.78,0,0,0-1.153-3.26l2.457-2.26-2.534-2.872L50.69,206a8.4,8.4,0,0,0-2.525-1.131l.184-3.616-3.781-.2Zm4.263,6.141a3.6,3.6,0,0,1-.255,5,3.424,3.424,0,0,1-4.9-.26,3.6,3.6,0,0,1,.255-5A3.425,3.425,0,0,1,48.642,210.92Z" transform="translate(7559.969 576.948)" fill="#fff"/>
      <g id="Group_5800" data-name="Group 5800" transform="translate(3.055 -202.789)">
        <g id="Group_5768" data-name="Group 5768" transform="translate(7976.945 973.789)">
          <g id="Group_5750" data-name="Group 5750" transform="translate(4.133 40.16)">
            <path id="Path_13164" data-name="Path 13164" d="M386.874,214.619a5.919,5.919,0,1,1-5.92-5.92A5.927,5.927,0,0,1,386.874,214.619Zm-1.857,0a4.063,4.063,0,1,0-4.063,4.063A4.067,4.067,0,0,0,385.017,214.619Z" transform="translate(-375.035 -208.699)" fill="#feba26"/>
          </g>
          <g id="Group_5752" data-name="Group 5752" transform="translate(30.789 23.175)">
            <g id="Group_5751" data-name="Group 5751">
              <path id="Path_13165" data-name="Path 13165" d="M412.952,197.333a5.92,5.92,0,1,1-5.92-5.92A5.927,5.927,0,0,1,412.952,197.333Zm-1.857,0a4.063,4.063,0,1,0-4.063,4.063A4.067,4.067,0,0,0,411.1,197.333Z" transform="translate(-401.112 -191.413)" fill="#feba26"/>
            </g>
          </g>
          <g id="Group_5759" data-name="Group 5759" transform="translate(32.647)">
            <g id="Group_5755" data-name="Group 5755" transform="translate(5.748)">
              <g id="Group_5753" data-name="Group 5753" transform="translate(0 7.166)">
                <path id="Path_13166" data-name="Path 13166" d="M409.646,174.994a.928.928,0,0,0-.928.929v4.1a.929.929,0,0,0,1.857,0v-4.1A.929.929,0,0,0,409.646,174.994Z" transform="translate(-408.718 -174.994)" fill="#feba26"/>
              </g>
              <g id="Group_5754" data-name="Group 5754">
                <path id="Path_13167" data-name="Path 13167" d="M409.646,167.828a.928.928,0,0,0-.928.929v4.1a.929.929,0,0,0,1.857,0v-4.1A.929.929,0,0,0,409.646,167.828Z" transform="translate(-408.718 -167.828)" fill="#feba26"/>
              </g>
            </g>
            <g id="Group_5758" data-name="Group 5758" transform="translate(0 5.631)">
              <g id="Group_5756" data-name="Group 5756" transform="translate(7.817)">
                <path id="Path_13168" data-name="Path 13168" d="M415.394,173.459h-3.679a.928.928,0,0,0,0,1.857h3.679a.928.928,0,1,0,0-1.857Z" transform="translate(-410.787 -173.459)" fill="#feba26"/>
              </g>
              <g id="Group_5757" data-name="Group 5757">
                <path id="Path_13169" data-name="Path 13169" d="M407.577,173.459H403.9a.928.928,0,0,0,0,1.857h3.679a.928.928,0,0,0,0-1.857Z" transform="translate(-402.97 -173.459)" fill="#feba26"/>
              </g>
            </g>
          </g>
          <g id="Group_5767" data-name="Group 5767" transform="translate(0 15.18)">
            <g id="Group_5766" data-name="Group 5766">
              <g id="Group_5762" data-name="Group 5762" transform="translate(5.748)">
                <g id="Group_5760" data-name="Group 5760" transform="translate(0 7.166)">
                  <path id="Path_13170" data-name="Path 13170" d="M377.579,190.452a.929.929,0,0,0-.929.929v4.1a.929.929,0,0,0,1.858,0v-4.1A.929.929,0,0,0,377.579,190.452Z" transform="translate(-376.65 -190.452)" fill="#feba26"/>
                </g>
                <g id="Group_5761" data-name="Group 5761">
                  <path id="Path_13171" data-name="Path 13171" d="M377.579,183.286a.929.929,0,0,0-.929.929v4.1a.929.929,0,0,0,1.858,0v-4.1A.929.929,0,0,0,377.579,183.286Z" transform="translate(-376.65 -183.286)" fill="#feba26"/>
                </g>
              </g>
              <g id="Group_5765" data-name="Group 5765" transform="translate(0 5.631)">
                <g id="Group_5763" data-name="Group 5763" transform="translate(7.818)">
                  <path id="Path_13172" data-name="Path 13172" d="M383.327,188.917h-3.679a.928.928,0,0,0,0,1.857h3.679a.928.928,0,1,0,0-1.857Z" transform="translate(-378.72 -188.917)" fill="#feba26"/>
                </g>
                <g id="Group_5764" data-name="Group 5764">
                  <path id="Path_13173" data-name="Path 13173" d="M375.51,188.917h-3.679a.928.928,0,1,0,0,1.857h3.679a.928.928,0,0,0,0-1.857Z" transform="translate(-370.902 -188.917)" fill="#feba26"/>
                </g>
              </g>
            </g>
          </g>
        </g>
      </g>
      <g id="Group_5795" data-name="Group 5795" transform="translate(-128 -310.004)">
        <g id="Group_5789" data-name="Group 5789" transform="translate(7706 901.004)">
          <g id="Group_5770" data-name="Group 5770" transform="translate(14.656 5.059)">
            <g id="Group_5769" data-name="Group 5769">
              <path id="Path_13174" data-name="Path 13174" d="M120.418,111.941a5.92,5.92,0,1,1,5.919-5.92A5.927,5.927,0,0,1,120.418,111.941Zm0-1.857a4.063,4.063,0,1,0-4.063-4.063A4.067,4.067,0,0,0,120.418,110.084Z" transform="translate(-114.498 -100.102)" fill="#feba26"/>
            </g>
          </g>
          <g id="Group_5772" data-name="Group 5772" transform="translate(31.716 24.648)">
            <g id="Group_5771" data-name="Group 5771">
              <path id="Path_13175" data-name="Path 13175" d="M137.344,131.495a5.919,5.919,0,1,1,5.919-5.92A5.926,5.926,0,0,1,137.344,131.495Zm0-1.857a4.063,4.063,0,1,0-4.063-4.063A4.067,4.067,0,0,0,137.344,129.638Z" transform="translate(-131.424 -119.656)" fill="#feba26"/>
            </g>
          </g>
          <g id="Group_5779" data-name="Group 5779" transform="translate(46.881)">
            <g id="Group_5775" data-name="Group 5775" transform="translate(0 5.748)">
              <g id="Group_5773" data-name="Group 5773">
                <path id="Path_13176" data-name="Path 13176" d="M152.412,101.72a.928.928,0,0,0-.928-.929h-4.095a.929.929,0,1,0,0,1.858h4.095A.928.928,0,0,0,152.412,101.72Z" transform="translate(-146.46 -100.791)" fill="#feba26"/>
              </g>
              <g id="Group_5774" data-name="Group 5774" transform="translate(7.167)">
                <path id="Path_13177" data-name="Path 13177" d="M159.579,101.72a.929.929,0,0,0-.929-.929h-4.1a.929.929,0,0,0,0,1.858h4.1A.929.929,0,0,0,159.579,101.72Z" transform="translate(-153.627 -100.791)" fill="#feba26"/>
              </g>
            </g>
            <g id="Group_5778" data-name="Group 5778" transform="translate(5.631)">
              <g id="Group_5776" data-name="Group 5776" transform="translate(0 7.818)">
                <path id="Path_13178" data-name="Path 13178" d="M153.948,107.468v-3.679a.928.928,0,0,0-1.857,0v3.679a.928.928,0,0,0,1.857,0Z" transform="translate(-152.091 -102.861)" fill="#feba26"/>
              </g>
              <g id="Group_5777" data-name="Group 5777">
                <path id="Path_13179" data-name="Path 13179" d="M153.948,99.65V95.972a.928.928,0,1,0-1.857,0V99.65a.928.928,0,1,0,1.857,0Z" transform="translate(-152.091 -95.043)" fill="#feba26"/>
              </g>
            </g>
          </g>
          <g id="Group_5788" data-name="Group 5788" transform="translate(0 34.647)">
            <g id="Group_5787" data-name="Group 5787">
              <g id="Group_5783" data-name="Group 5783" transform="translate(0 5.748)">
                <g id="Group_5780" data-name="Group 5780">
                  <path id="Path_13180" data-name="Path 13180" d="M105.909,136.314a.929.929,0,0,0-.929-.928h-4.094a.928.928,0,1,0,0,1.857h4.094A.929.929,0,0,0,105.909,136.314Z" transform="translate(-99.957 -135.386)" fill="#feba26"/>
                </g>
                <g id="Group_5782" data-name="Group 5782" transform="translate(7.166)">
                  <g id="Group_5781" data-name="Group 5781">
                    <path id="Path_13181" data-name="Path 13181" d="M113.075,136.314a.928.928,0,0,0-.928-.928h-4.1a.928.928,0,1,0,0,1.857h4.1A.928.928,0,0,0,113.075,136.314Z" transform="translate(-107.123 -135.386)" fill="#feba26"/>
                  </g>
                </g>
              </g>
              <g id="Group_5786" data-name="Group 5786" transform="translate(5.631)">
                <g id="Group_5784" data-name="Group 5784" transform="translate(0 7.817)">
                  <path id="Path_13182" data-name="Path 13182" d="M107.445,142.062v-3.678a.929.929,0,1,0-1.857,0v3.678a.929.929,0,1,0,1.857,0Z" transform="translate(-105.588 -137.455)" fill="#feba26"/>
                </g>
                <g id="Group_5785" data-name="Group 5785">
                  <path id="Path_13183" data-name="Path 13183" d="M107.445,134.245v-3.679a.929.929,0,0,0-1.857,0v3.679a.929.929,0,1,0,1.857,0Z" transform="translate(-105.588 -129.638)" fill="#feba26"/>
                </g>
              </g>
            </g>
          </g>
        </g>
      </g>
      <g transform="matrix(1, 0, 0, 1, 7432, 362)" filter="url(#Rectangle_2128)">
        <rect id="Rectangle_2128-2" data-name="Rectangle 2128" width="104" height="22" rx="11" transform="translate(318 442)" fill="#393939"/>
      </g>
      <g id="Group_5797" data-name="Group 5797" transform="translate(-30 -329)">
        <path id="Path_13184" data-name="Path 13184" d="M270.976,202.772V335.028a14,14,0,0,1-28,0V202.772a14.013,14.013,0,0,1,23.888-9.8A13.761,13.761,0,0,1,270.976,202.772Z" transform="translate(7567.024 757.1)" fill="#1c1c1c"/>
        <path id="Path_13185" data-name="Path 13185" d="M270.734,202.725V334.5a13.872,13.872,0,0,1-9.5,13.113,13.873,13.873,0,0,1-9.5-13.113V202.725a13.873,13.873,0,0,1,9.5-13.113,13.911,13.911,0,0,1,5.427,3.351A13.75,13.75,0,0,1,270.734,202.725Z" transform="translate(7567.266 757.388)" fill="#393939"/>
        <g transform="matrix(1, 0, 0, 1, 7462, 691)" filter="url(#Path_13186)">
          <path id="Path_13186-2" data-name="Path 13186" d="M264.841,214.351V324.425a8.948,8.948,0,0,1-8.929,8.963H69.766a8.941,8.941,0,0,1-8.925-8.963V214.351a8.945,8.945,0,0,1,8.925-8.963H255.912A8.948,8.948,0,0,1,264.841,214.351Z" transform="translate(105.16 65.61)" fill="#feba26"/>
        </g>
        <rect id="Rectangle_2116" data-name="Rectangle 2116" width="204.114" height="24.308" transform="translate(7628 985.381)" fill="#505050"/>
        <rect id="Rectangle_2117" data-name="Rectangle 2117" width="48" height="16" rx="4.242" transform="translate(7769 1059)" fill="#fff"/>
        <rect id="Rectangle_2125" data-name="Rectangle 2125" width="204.114" height="4.66" transform="translate(7628 972.5)" fill="#fff"/>
        <rect id="Rectangle_2126" data-name="Rectangle 2126" width="25" height="25" rx="6.929" transform="translate(7638 1055)" fill="#fff"/>
        <rect id="Rectangle_2127" data-name="Rectangle 2127" width="88" height="8" rx="2.377" transform="translate(7673 1063)" fill="#fff"/>
        <g id="Group_5796" data-name="Group 5796" transform="translate(6)">
          <rect id="Rectangle_2118" data-name="Rectangle 2118" width="16" height="9" rx="2" transform="translate(7638 1029)" fill="#fff"/>
          <rect id="Rectangle_2129" data-name="Rectangle 2129" width="16" height="9" rx="2" transform="translate(7664 1029)" fill="#fff"/>
          <rect id="Rectangle_2130" data-name="Rectangle 2130" width="16" height="9" rx="2" transform="translate(7690 1029)" fill="#fff"/>
          <rect id="Rectangle_2131" data-name="Rectangle 2131" width="16" height="9" rx="2" transform="translate(7716 1029)" fill="#fff"/>
          <rect id="Rectangle_2132" data-name="Rectangle 2132" width="16" height="9" rx="2" transform="translate(7742 1029)" fill="#fff"/>
          <rect id="Rectangle_2133" data-name="Rectangle 2133" width="16" height="9" rx="2" transform="translate(7768 1029)" fill="#fff"/>
          <rect id="Rectangle_2134" data-name="Rectangle 2134" width="16" height="9" rx="2" transform="translate(7794 1029)" fill="#fff"/>
        </g>
      </g>
      <g id="Group_5798" data-name="Group 5798" transform="translate(7387.166 426.004)">
        <path id="Path_13187" data-name="Path 13187" d="M583.683,217.6c-5.668,3.909-16.231,8.4-32.539,4.8-16.858-3.706-24.976-13.383-28.642-19.834a3.075,3.075,0,0,0-5.368.008,37.467,37.467,0,0,1-2.551,3.907,38.666,38.666,0,0,1-5.159,5.638,40.1,40.1,0,0,1-3.445,2.76,46.934,46.934,0,0,1-17.455,7.52,55.522,55.522,0,0,1-8.572,1.229q-1.332.081-2.6.088a43.493,43.493,0,0,1-4.625-.211,39.761,39.761,0,0,1-4.468-.691,36.955,36.955,0,0,1-3.793-1.03,34.378,34.378,0,0,1-4.779-1.984c-.472-.239-.921-.48-1.353-.725-.864-.492-1.65-.988-2.358-1.478a3.254,3.254,0,0,0-1.73-.584,3.336,3.336,0,0,0-2.926,1.559,3.25,3.25,0,0,0-.49,1.761c.012,1.657.038,3.561.089,5.672.034,1.406.08,2.908.137,4.487.088,2.372.2,4.927.362,7.626a296.344,296.344,0,0,0,3.789,33.643q.287,1.625.6,3.248c2.078,10.826,5.008,21.571,9.135,30.825q1.236,2.778,2.621,5.365a164.424,164.424,0,0,0,10.984,17.944c1.851,2.585,3.728,4.983,5.654,7.221a80.77,80.77,0,0,0,12.342,11.694,82.624,82.624,0,0,0,6.97,4.772c2.436,1.5,4.994,2.906,7.692,4.254s5.547,2.635,8.558,3.885c.024.008.04.016.066.024,12.073-5,21.445-10.585,29.653-18.354S564.72,324.929,572.1,311.2c14.782-27.533,16.607-73.188,16.734-90.867A3.29,3.29,0,0,0,583.683,217.6Z" transform="translate(0 0)" fill="#feba26"/>
        <path id="Path_13188" data-name="Path 13188" d="M514.652,343.959q-2.271-1.022-4.408-2.1c-2.5-1.257-4.762-2.518-6.928-3.859a73.64,73.64,0,0,1-6.149-4.236,71.538,71.538,0,0,1-10.85-10.365c-1.72-2.014-3.435-4.226-5.1-6.565A155.207,155.207,0,0,1,470.938,299.9c-.793-1.49-1.569-3.088-2.3-4.744-3.433-7.757-6.272-17.442-8.434-28.791-.2-1.032-.385-2.076-.569-3.118a286.689,286.689,0,0,1-3.637-32.571c-.148-2.572-.259-5.009-.344-7.278.368.133.735.261,1.109.383a45.147,45.147,0,0,0,4.732,1.293,48.409,48.409,0,0,0,5.475.855,52.055,52.055,0,0,0,5.2.259l.368,0q1.491-.009,3.068-.1a64.84,64.84,0,0,0,9.958-1.431A55.86,55.86,0,0,0,506.3,215.6a48.917,48.917,0,0,0,4.222-3.407,47.882,47.882,0,0,0,4.139-4.232c5.586,6.422,14.72,13.509,29.092,16.695a62.172,62.172,0,0,0,13.411,1.534,48.157,48.157,0,0,0,16.483-2.791c-.753,19.45-3.748,54.875-15.276,76.507-7.057,13.226-13.427,22.2-20.654,29.082C531.491,334.925,524.274,339.621,514.652,343.959Z" transform="translate(5.183 6.037)" fill="#fedc92"/>
        <path id="Path_13189" data-name="Path 13189" d="M504.411,241.7a13,13,0,1,0-17.55,12.047l-4.45,17.555a1.228,1.228,0,0,0,1.2,1.523h15.6a1.228,1.228,0,0,0,1.2-1.523l-4.45-17.555A12.872,12.872,0,0,0,504.411,241.7Z" transform="translate(28.423 30.171)" fill="#feba26"/>
      </g>
      <path id="Path_13191" data-name="Path 13191" d="M582.962,190.378H517.345c-6.733,0-12.191-5.82-12.191-13h0c0-7.18,5.458-13,12.191-13h65.617c6.734,0,12.192,5.82,12.192,13h0C595.154,184.558,589.7,190.378,582.962,190.378Z" transform="translate(7413.846 507.622)" fill="#393939"/>
      <path id="Path_13192" data-name="Path 13192" d="M518.226,177.675a5,5,0,1,1,5,5A5,5,0,0,1,518.226,177.675Z" transform="translate(7410.774 507.325)" fill="#fff"/>
      <path id="Path_13193" data-name="Path 13193" d="M537.883,177.675a5,5,0,1,1,5,5A5,5,0,0,1,537.883,177.675Z" transform="translate(7411.117 507.325)" fill="#fff"/>
      <path id="Path_13194" data-name="Path 13194" d="M557.541,177.675a5,5,0,1,1,5,5A5,5,0,0,1,557.541,177.675Z" transform="translate(7411.459 507.325)" fill="#fff"/>
      <path id="Path_13195" data-name="Path 13195" d="M577.2,177.675a5,5,0,1,1,5,5A5,5,0,0,1,577.2,177.675Z" transform="translate(7411.802 507.325)" fill="#fff"/>
    </g>
    <g id="Group_5725" data-name="Group 5725" transform="translate(-41.731 -10.156)">
      <path id="Path_5232" data-name="Path 5232" d="M621.073,1157.684c-1.347,22.176-12.549,44.335-30.912,56.529-21.889,14.538-52.5,11.32-77.423,13.172-21.55,1.6-43.264,2.977-64.82.688-17.663-1.879-35.479-8.861-43.916-25.972-8.454-17.149-9.368-39.937-.914-57.294a55.614,55.614,0,0,1,10.545-14.756c.69-.7,1.407-1.393,2.135-2.065.493-.453.991-.9,1.5-1.339.777-.672,1.577-1.328,2.387-1.967.268-.208.537-.415.81-.623s.542-.41.816-.612.548-.4.827-.6l.624-.443q.517-.369,1.051-.721a73.387,73.387,0,0,1,9.888-5.583,78.855,78.855,0,0,1,10.206-3.961c11.339-3.513,23.182-4.759,34.882-6.294,24.83-3.251,50.108-4.36,75.135-4.343,20.422.005,43.417,3.054,57.072,20.548C618.675,1131.924,621.845,1145.053,621.073,1157.684Z" transform="translate(-225.455 -173.636)" fill="#f2a499"/>
      <path id="Path_5233" data-name="Path 5233" d="M1226.6,1151.8s5.256-4.937,8.042-7.8-3.292-2.95-6.287.611A7.8,7.8,0,0,0,1226.6,1151.8Z" transform="translate(-872.932 -205.414)" fill="#f9b384"/>
      <path id="Path_5234" data-name="Path 5234" d="M492.279,1168.3a73.187,73.187,0,0,0-9.867,5.583q-.533.352-1.049.721l-.623.443c-.279.2-.552.4-.825.6s-.546.4-.814.612-.541.415-.809.623q-1.2.951-2.349,1.95l-.033.016c-.508.437-1.005.885-1.5,1.339-.727.672-1.442,1.36-2.131,2.065a1.392,1.392,0,0,0,1.057,1.263c4.1.83,6.154,4.742,9.459,6.966a9.076,9.076,0,0,0,8.128,1.157c-2.988,6.328-4.636,12.606-3.346,19.689a25.252,25.252,0,0,0,2,6.2c-3.84-2.852-7.539-8.962-9.06-15.158a1.639,1.639,0,0,0-3.184.782c1.883,7.671,6.678,15.041,11.66,17.923a10.707,10.707,0,0,0,3.584,1.324,25.1,25.1,0,0,0,3.3,3.492l7.365,2.06,6.01-38.789Z" transform="translate(-284.14 -225.982)" fill="#e58578"/>
      <path id="Path_5235" data-name="Path 5235" d="M528.114,947.009a158.963,158.963,0,0,1-31.935-16.436A12.337,12.337,0,0,1,491,918.3l7.852-45.769a14.118,14.118,0,0,1,8.324-10.6,139.639,139.639,0,0,1,35.685-9.985,85.888,85.888,0,0,1,13.795.273c5.088.5,16.737,3.934,24.141,6.234a14.348,14.348,0,0,1,9.126,8.516c3.1,8,8.148,21.516,9.756,28.82,5.554,25.222,4.644,23.356,4.644,23.356l5.736,38.789-60.916,3.415-15.57-7.1Z" transform="translate(-298.631 21.253)" fill="#708cd5"/>
      <path id="Path_5236" data-name="Path 5236" d="M714.376,626.907s-5.395-11.063-19.736-6.01c-10.38-2.254-18.3,10.039-10.653,26.77l14.409,3.346Z" transform="translate(-447.039 202.582)" fill="#102048"/>
      <path id="Path_5237" data-name="Path 5237" d="M729.114,796.25v19.57a8.3,8.3,0,0,1-8.293,8.293,11.238,11.238,0,0,1-11.238-11.238V796.25Z" transform="translate(-469.421 64.584)" fill="#f9b384"/>
      <path id="Path_5238" data-name="Path 5238" d="M747.186,831.485v10.675c-8.7.044-14.478-11.211-14.478-11.211Z" transform="translate(-487.485 37.475)" fill="#e28b6d"/>
      <path id="Path_5239" data-name="Path 5239" d="M732.352,691.707A37.768,37.768,0,0,1,730,699.634c-1.879,4.289-4.748,7.556-9.129,7.649-10.255.219-18.165-13.795-18.165-13.795l1.639-19.122,7.785-8.741,21.443,13.249A72.414,72.414,0,0,1,732.352,691.707Z" transform="translate(-464.043 166.595)" fill="#f9b384"/>
      <path id="Path_5240" data-name="Path 5240" d="M699.366,673.235a28.209,28.209,0,0,1,9.492-14.2s10.722,14,22.058,7.239,6.419-20.078-4.166-18.029l-12.156-1.366-15.229,4.849-2.6,11.951Z" transform="translate(-459.398 181.248)" fill="#102048"/>
      <path id="Path_5241" data-name="Path 5241" d="M627.723,1048.688c-10.33-22.321-23.351-11.667-26.538-19.862-4.466-11.483-3.619-24.473-3.642-28.409l-6.222,35.033s13.891,1.321,19.027,9.685Z" transform="translate(-377.055 -94.872)" fill="#1f3c88" opacity="0.4"/>
      <path id="Path_5242" data-name="Path 5242" d="M597.052,997.4c-.387,3-.844,5.982-1.316,8.964s-1,5.955-1.494,8.933q-.778,4.461-1.646,8.906l-.89,4.441c-.322,1.476-.622,2.956-.967,4.427l-.452-.08c.181-1.5.407-2.994.611-4.49l.688-4.477q.7-4.474,1.51-8.93c.557-2.967,1.07-5.942,1.663-8.9s1.176-5.923,1.841-8.871Z" transform="translate(-376.263 -92.461)" fill="#1f3c88"/>
      <path id="Path_5243" data-name="Path 5243" d="M895.916,972.328c.827,3.892,1.59,7.8,2.338,11.7s1.446,7.822,2.173,11.732q1.04,5.874,2.031,11.757l.953,5.89c.294,1.967.609,3.931.882,5.9l-.42.075c-.426-1.944-.809-3.9-1.213-5.844l-1.141-5.856q-1.105-5.863-2.157-11.735c-.67-3.921-1.38-7.834-2.016-11.76s-1.281-7.851-1.85-11.79Z" transform="translate(-614.623 -72.935)" fill="#1f3c88"/>
      <path id="Path_5244" data-name="Path 5244" d="M848.108,1055c.728,7.1-.364,43.888-17.483,44.435l.182,8.013,26.952-1.639Z" transform="translate(-563.94 -137.5)" fill="#1f3c88" opacity="0.4"/>
      <path id="Path_5245" data-name="Path 5245" d="M745.676,1236.077c12.156-5.19,14.48-5,16.117-4.917,5.6.273,13.658,11.473,13.658,11.473l-.137,2.049H744.583Z" transform="translate(-496.744 -275.111)" fill="#e28b6d"/>
      <rect id="Rectangle_1781" data-name="Rectangle 1781" width="37.833" height="5.736" transform="translate(257.888 967.579)" fill="#feba26"/>
      <path id="Path_5246" data-name="Path 5246" d="M963.867,1100.144H898.125l14.751-58.749h65.742Z" transform="translate(-616.553 -126.868)" fill="#feba26"/>
      <path id="Path_5247" data-name="Path 5247" d="M969.174,1197.168c-6.5-.972-27.538-5.342-70.88,21.064l-1,3.642,65.924-.678Z" transform="translate(-615.924 -247.889)" fill="#efb026"/>
      <g id="Group_3119" data-name="Group 3119" transform="translate(342.902 945.66)">
        <path id="Path_5248" data-name="Path 5248" d="M1190.29,1259.145c-.41,2.766-.546,6.829-9.117,6.317l-2.527-1.3,2.39-2.629,5.156-2.629Z" transform="translate(-1178.646 -1242.482)" fill="#f9b384"/>
        <path id="Path_5249" data-name="Path 5249" d="M1199.645,1225.833s4.69,6.128-.023,8.013a27.118,27.118,0,0,1-10.039,1.844c2.185-6.146,9.288-5.737,9.288-5.737Z" transform="translate(-1187.193 -1216.636)" fill="#f9b384"/>
        <path id="Path_5250" data-name="Path 5250" d="M1198.09,1207.708s6.465,6.01.455,7.694c-8.487,2.379-11.109,2.549-11.109,2.549-.455-4.507,7.967-7.421,7.967-7.421Z" transform="translate(-1185.501 -1202.472)" fill="#f9b384"/>
        <path id="Path_5251" data-name="Path 5251" d="M1195.47,1183.75s8.832,5.372.546,8.377-10.244,2.959-10.244,2.959c-.455-4.507,8.423-6.055,8.423-6.055Z" transform="translate(-1184.202 -1183.75)" fill="#f9b384"/>
        <path id="Path_5252" data-name="Path 5252" d="M1185.833,1222.438s9.629-1.366,12.5-3.688" transform="translate(-1184.262 -1211.101)" fill="none" stroke="#e28b6d" stroke-width="2.5"/>
        <path id="Path_5253" data-name="Path 5253" d="M1187.5,1241.722s10.016-1.411,13.157-3.6" transform="translate(-1185.565 -1226.242)" fill="none" stroke="#e28b6d" stroke-width="2.5"/>
        <path id="Path_5254" data-name="Path 5254" d="M1189.583,1265.809s5.941.2,9.288-1.434" transform="translate(-1187.193 -1246.756)" fill="none" stroke="#e28b6d" stroke-width="2.5"/>
      </g>
      <path id="Path_5255" data-name="Path 5255" d="M762.708,1605.739c1-.546,16.845,2.914,34.419-10.107l-22.673-6.465Z" transform="translate(-510.894 -554.732)" fill="#102048"/>
      <path id="Path_5256" data-name="Path 5256" d="M869.573,1306.614c.754-1.076,1.4-2.661.453-3.568-.989-.951-2.606-.115-3.644.781a43.721,43.721,0,0,0-5.026,5.135l-38.276,7.113-52.448,12.746,9.017,11.51c26.224,1.912,41.16,2.4,57.571-.492,8.365-1.476,15.842-3,21.42-7.543,1.328-1.087,2.584-2.912,1.721-4.393a3.236,3.236,0,0,0-3.016-1.251,38.745,38.745,0,0,0,8.108-2.89c1.153-.557,2.437-1.431,2.409-2.71a2.372,2.372,0,0,0-1.612-2.021,6.258,6.258,0,0,0-2.7-.235,37,37,0,0,0-10.238,2.262C859.286,1316.885,865.367,1312.563,869.573,1306.614Zm-16.346,14.5c0-.011.005-.016.016-.027a.231.231,0,0,0,.055-.022C853.276,1321.081,853.249,1321.1,853.227,1321.114Z" transform="translate(-516.973 -330.923)" fill="#e58578"/>
      <path id="Path_5257" data-name="Path 5257" d="M821.458,1260.591s51.082-24.312,67.745-23.219,16.117,21.853,9.834,30.868-21.034,21.034-75.394,17.483Z" transform="translate(-556.694 -279.916)" fill="#102048"/>
      <path id="Path_5258" data-name="Path 5258" d="M746.74,1599.384c-2.764.781-6.687.972-12.085.115,0,0-6.993,1.814-13.877,3.24-4.66.967-9.266,1.754-11.62,1.677-.2-.005-.4-.016-.612-.033-4.518-.322-10.211-2.677-13.232-6.042a.055.055,0,0,0-.022-.027,8.418,8.418,0,0,1-1.8-3c-1.639-5.1,1.825-11.293,20.58-10.02,0,0,6.19-1.453,7.649-6.01s-9.288-26.4-9.288-26.4l15.3-10.38,15.024,16.663s2.278,15.024,2.278,19.941c0,0,6.37,9.107,7.283,13.112C752.9,1594.773,751.624,1598,746.74,1599.384Z" transform="translate(-460.55 -532.264)"/>
      <path id="Path_5259" data-name="Path 5259" d="M544.855,1159.975c1.752-.674,3.537-1.219,5.342-1.72.9-.247,1.813-.478,2.739-.659q.693-.141,1.4-.239c.238-.032.475-.057.723-.076a5.193,5.193,0,0,1,.766.015,22.587,22.587,0,0,1,5.509,1.475c1.758.67,3.479,1.42,5.169,2.232s3.344,1.694,4.967,2.63,3.217,1.921,4.768,2.974a51.376,51.376,0,0,1,8.6,7.217l-.324.325q-2.06-1.864-4.29-3.517c-1.475-1.114-3-2.16-4.563-3.151a94.208,94.208,0,0,0-9.659-5.444c-1.656-.82-3.342-1.578-5.056-2.254a24.986,24.986,0,0,0-5.209-1.562,4.318,4.318,0,0,0-.628-.036c-.216.01-.443.028-.667.052-.45.05-.9.114-1.355.192-.9.158-1.81.342-2.713.545-1.8.41-3.6.889-5.367,1.435Z" transform="translate(-340.853 -217.415)" fill="#1f3c88"/>
      <path id="Path_5260" data-name="Path 5260" d="M584.5,1454.871c6.146-.41,12.186.03,16.572-1.5,4.689-1.639,16.936-.546,16.936-.546l-6.738-9.7-27.317,6.829Z" transform="translate(-371.307 -440.7)" fill="#e58578"/>
      <path id="Path_5261" data-name="Path 5261" d="M571.527,1240.925c-6.283-10.107-6.283-30.048,1.639-39.063,9.054-10.3,28.409-14.2,38.516-2.185s28.682,56,32.507,85.774c0,0-20.487-6.829-34.419,10.107,0,0-18.3-41.794-22.126-57.092l-10.38,8.195Z" transform="translate(-358.038 -244.552)" fill="#1f3c88"/>
      <path id="Path_5262" data-name="Path 5262" d="M496.691,1403.057s-2.732-1-6.556,1.548c0,0-29.866-.637-36.513,6.1s-1.548,15.752,8.195,16.754c8.177.84,24.051-5.5,28.942-7.563a9.675,9.675,0,0,1,3.125-.74l8.089-.529Z" transform="translate(-267.207 -409.235)"/>
      <path id="Path_5263" data-name="Path 5263" d="M685.351,751.291s-2-6.639-6.41-4.979-2.06,10.3,6.639,12.705Z" transform="translate(-443.804 103.749)" fill="#f9b384"/>
      <path id="Path_5264" data-name="Path 5264" d="M693.619,932.463a31.727,31.727,0,0,0,6.952,3.789,20.53,20.53,0,0,0,7.648,1.443,16.912,16.912,0,0,0,7.48-1.857l.873-.443c.286-.158.548-.356.823-.531a12.761,12.761,0,0,0,1.593-1.152l.767-.623.385-.311c.125-.108.236-.231.355-.346q.7-.7,1.42-1.4l.327.275q-.645.779-1.313,1.549c-.113.127-.217.262-.337.382l-.37.351-.743.7a13.444,13.444,0,0,1-1.6,1.277c-.279.2-.545.417-.837.6l-.895.511a16.417,16.417,0,0,1-7.917,2.1,20.233,20.233,0,0,1-8.005-1.67,26.271,26.271,0,0,1-6.87-4.308Z" transform="translate(-456.741 -40.706)" fill="#1f3c88"/>
      <path id="Path_5265" data-name="Path 5265" d="M639.257,1323.942l2.367,8.282c.805,2.755,1.558,5.524,2.4,8.266.823,2.747,1.644,5.494,2.508,8.227.432,1.366.859,2.735,1.332,4.087.231.677.44,1.365.685,2.037s.483,1.349.714,2.029l-.394.165q-.915-1.959-1.721-3.968c-.537-1.339-1.026-2.693-1.521-4.047-.97-2.714-1.828-5.463-2.641-8.225-.788-2.768-1.568-5.538-2.252-8.333s-1.346-5.594-1.891-8.422Z" transform="translate(-414.181 -347.581)" fill="#102048"/>
      <path id="Path_5267" data-name="Path 5267" d="M722.243,1795.133a10.9,10.9,0,0,1-5.649,3.464,15.446,15.446,0,0,1-3.5.508c-4.518-.322-10.211-2.677-13.232-6.042a.054.054,0,0,0-.022-.027,12.855,12.855,0,0,1-.885-1.36,22.021,22.021,0,0,0,5.239,3.655,20.813,20.813,0,0,0,2.9,1.18c.486.186.994.3,1.5.437a13.1,13.1,0,0,0,1.53.306A16.906,16.906,0,0,0,722.243,1795.133Z" transform="translate(-465.13 -816.13)" fill="#102048"/>
      <path id="Path_5268" data-name="Path 5268" d="M690.076,759.669a4.5,4.5,0,0,0-.712-1.661,4.984,4.984,0,0,0-1.2-1.3,1.34,1.34,0,0,0-1.4-.258,3.162,3.162,0,0,0-1.111,1.316l-.3-.105a2.734,2.734,0,0,1,1.048-1.831,1.638,1.638,0,0,1,1.19-.245,2.552,2.552,0,0,1,1.045.459,4.517,4.517,0,0,1,1.336,1.614,3.5,3.5,0,0,1,.426,2.017Z" transform="translate(-450.506 96.313)" fill="#e28b6d"/>
      <path id="Path_5269" data-name="Path 5269" d="M816.9,766.531c-.192.943-.9,1.594-1.586,1.454a1.561,1.561,0,0,1-.89-1.959c.192-.942.9-1.593,1.586-1.454A1.561,1.561,0,0,1,816.9,766.531Z" transform="translate(-551.275 89.286)" fill="#102048"/>
      <ellipse id="Ellipse_378" data-name="Ellipse 378" cx="1.741" cy="1.263" rx="1.741" ry="1.263" transform="translate(252.182 856.716) rotate(-80.739)" fill="#102048"/>
      <path id="Path_5270" data-name="Path 5270" d="M793.139,777.481c.065.776.1,1.547.1,2.3a1.374,1.374,0,0,0,.406.8,8.493,8.493,0,0,1,.794.913,1.883,1.883,0,0,1,.283.662,2.359,2.359,0,0,1,.046.7,2.3,2.3,0,0,1-.5,1.27,1.745,1.745,0,0,1-.562.449,1.6,1.6,0,0,1-.7.147,2.26,2.26,0,0,1-1.2-.435l.151-.282a2.153,2.153,0,0,0,1.019.145,1,1,0,0,0,.72-.463,1.669,1.669,0,0,0,.061-1.743c-.168-.269-.448-.523-.712-.856a1.985,1.985,0,0,1-.5-1.287c.059-.793.154-1.571.275-2.344Z" transform="translate(-533.652 79.205)" fill="#e28b6d"/>
      <path id="Path_5271" data-name="Path 5271" d="M757.591,751.555a5.117,5.117,0,0,1,1.534-1.054,4.06,4.06,0,0,1,1.9-.363,3.459,3.459,0,0,1,1.839.674,4.387,4.387,0,0,1,1.228,1.423l-.253.2a8.9,8.9,0,0,0-1.364-1.014,3.569,3.569,0,0,0-1.508-.466,6.342,6.342,0,0,0-3.19.863Z" transform="translate(-506.924 100.556)" fill="#102048"/>
      <path id="Path_5272" data-name="Path 5272" d="M808.457,754.835a2.335,2.335,0,0,1,1.2-1.313,3.628,3.628,0,0,1,1.743-.39,3.569,3.569,0,0,1,1.724.474,2.79,2.79,0,0,1,1.18,1.3l-.268.175a3.853,3.853,0,0,0-2.657-1.137,3.224,3.224,0,0,0-2.631,1.029Z" transform="translate(-546.65 98.211)" fill="#102048"/>
      <path id="Path_5273" data-name="Path 5273" d="M774.325,819.63l7.247.516S777.529,825.508,774.325,819.63Z" transform="translate(-519.993 46.245)" fill="#fff"/>
      <path id="Path_5274" data-name="Path 5274" d="M821.4,784.838a37.77,37.77,0,0,1-2.349,7.927,4.184,4.184,0,0,1,1.8-7.966A3.693,3.693,0,0,1,821.4,784.838Z" transform="translate(-553.056 73.464)" fill="#ee6f57" opacity="0.4"/>
      <circle id="Ellipse_379" data-name="Ellipse 379" cx="4.189" cy="4.189" r="4.189" transform="translate(244.379 859.255) rotate(-22.78)" fill="#ee6f57" opacity="0.4"/>
    </g>
    <g id="Group_3108" data-name="Group 3108" transform="translate(537 939)">
      <path id="Path_5178" data-name="Path 5178" d="M661.985,266.349c.7-42.23-18.162-59.554-18.162-59.554-4.6,23.3,2.752,48.245,6.847,59.554Z" transform="translate(-630.454 -197.848)" fill="#7fd2a8"/>
      <path id="Path_5179" data-name="Path 5179" d="M666.226,262.96c20.565-28.029,17.248-50.02,17.248-50.02-17.765,14.81-26.951,39.4-30.147,49.561l.524.459Z" transform="translate(-624.595 -194.542)" fill="#7fd2a8"/>
      <path id="Path_5180" data-name="Path 5180" d="M675.54,256.58c17.536-17.743,21.147-32.072,21.147-32.072-21.665,8.738-32.3,22.914-37.8,32.072Z" transform="translate(-621.686 -188.208)" fill="#00a651"/>
      <path id="Path_5181" data-name="Path 5181" d="M657.711,259.229c-6.712-30.359-23.086-39.524-23.086-39.524.354,15.713,7.526,30.721,12.666,39.524Z" transform="translate(-634.625 -190.84)" fill="#00a651"/>
      <path id="Path_5182" data-name="Path 5182" d="M667.153,269.529c8.9-49.451-5.318-68.5-5.318-68.5-16.961,17.2-10.533,57.886-8.5,68.5Z" transform="translate(-626.097 -201.028)" fill="#00a651"/>
      <path id="Path_5183" data-name="Path 5183" d="M659.877,264.622c-1.3-18.245-2.181-36.659-2.565-54.881a.388.388,0,0,0-.388-.38h-.008a.389.389,0,0,0-.38.4c.383,18.216,1.268,36.623,2.563,54.864Z" transform="translate(-622.749 -196.432)" fill="#fff"/>
      <path id="Path_5184" data-name="Path 5184" d="M655.075,263.069h.813a188.525,188.525,0,0,1-5.263-21.879l-5.692-28.7a.382.382,0,0,0-.456-.306.388.388,0,0,0-.3.456l5.692,28.7A191.758,191.758,0,0,0,655.075,263.069Z" transform="translate(-629.466 -194.959)" fill="#fff"/>
      <path id="Path_5185" data-name="Path 5185" d="M650.786,255.933c-4.693-9.992-8.98-20.228-12.753-30.563a.388.388,0,0,0-.728.267c3.739,10.243,7.982,20.388,12.624,30.3Z" transform="translate(-633.161 -187.874)" fill="#fff"/>
      <path id="Path_5186" data-name="Path 5186" d="M660.478,259.636c.729-1.381,1.424-2.79,2.026-4.234a75.654,75.654,0,0,0,2.794-8.569c.475-1.682.965-3.419,1.519-5.1a127.077,127.077,0,0,1,4.822-11.894c1.576-3.539,3.207-7.2,4.5-10.921a.389.389,0,0,0-.734-.256c-1.281,3.7-2.9,7.337-4.475,10.86a128.261,128.261,0,0,0-4.85,11.968c-.557,1.7-1.05,3.443-1.528,5.132a75.532,75.532,0,0,1-2.763,8.48c-.644,1.545-1.4,3.053-2.191,4.533Z" transform="translate(-621.143 -191.554)" fill="#fff"/>
      <path id="Path_5187" data-name="Path 5187" d="M662.283,254.214c1.5-1.683,3.13-3.264,4.741-4.8L688.565,228.9a.388.388,0,0,0-.535-.563l-21.542,20.511c-1.786,1.7-3.593,3.458-5.235,5.362Z" transform="translate(-620.381 -186.163)" fill="#fff"/>
      <path id="Path_5188" data-name="Path 5188" d="M642.81,249.872l5.123,31.711a9.285,9.285,0,0,0,9.165,7.8h15.611a9.285,9.285,0,0,0,9.165-7.8L687,249.872Z" transform="translate(-630.29 -174.385)" fill="#393939"/>
      <path id="Path_5189" data-name="Path 5189" d="M687,249.872H642.81l.709,4.394h34.066l-4.414,27.317a9.284,9.284,0,0,1-9.165,7.8h8.7a9.284,9.284,0,0,0,9.165-7.8l4.414-27.317h0Z" transform="translate(-630.29 -174.385)"/>
      <path id="Path_5190" data-name="Path 5190" d="M689.306,243.992H644.133a4.631,4.631,0,0,0-4.617,4.617h0a4.63,4.63,0,0,0,4.617,4.617h45.173a4.63,4.63,0,0,0,4.617-4.617h0A4.631,4.631,0,0,0,689.306,243.992Z" transform="translate(-631.928 -177.519)" fill="#393939"/>
    </g>
  </g>
</svg>
