<svg xmlns="http://www.w3.org/2000/svg" xmlns:xlink="http://www.w3.org/1999/xlink" width="647" height="713" viewBox="0 0 647 713">
  <defs>
    <filter id="Rectangle_2106" x="93" y="137" width="554" height="388" filterUnits="userSpaceOnUse">
      <feOffset dy="10" input="SourceAlpha"/>
      <feGaussianBlur stdDeviation="11" result="blur"/>
      <feFlood flood-opacity="0.071"/>
      <feComposite operator="in" in2="blur"/>
      <feComposite in="SourceGraphic"/>
    </filter>
    <filter id="Rectangle_1782" x="162.5" y="232.499" width="145" height="244" filterUnits="userSpaceOnUse">
      <feOffset dy="4" input="SourceAlpha"/>
      <feGaussianBlur stdDeviation="3.5" result="blur-2"/>
      <feFlood flood-opacity="0.071"/>
      <feComposite operator="in" in2="blur-2"/>
      <feComposite in="SourceGraphic"/>
    </filter>
    <filter id="Rectangle_1783" x="312.5" y="220.499" width="145" height="245" filterUnits="userSpaceOnUse">
      <feOffset dy="4" input="SourceAlpha"/>
      <feGaussianBlur stdDeviation="3.5" result="blur-3"/>
      <feFlood flood-opacity="0.071"/>
      <feComposite operator="in" in2="blur-3"/>
      <feComposite in="SourceGraphic"/>
    </filter>
    <filter id="Rectangle_1784" x="450.5" y="232.499" width="145" height="244" filterUnits="userSpaceOnUse">
      <feOffset dy="4" input="SourceAlpha"/>
      <feGaussianBlur stdDeviation="3.5" result="blur-4"/>
      <feFlood flood-opacity="0.071"/>
      <feComposite operator="in" in2="blur-4"/>
      <feComposite in="SourceGraphic"/>
    </filter>
    <filter id="Rectangle_1788" x="159" y="403.999" width="152" height="70" filterUnits="userSpaceOnUse">
      <feOffset dy="10" input="SourceAlpha"/>
      <feGaussianBlur stdDeviation="8" result="blur-5"/>
      <feFlood flood-opacity="0.161"/>
      <feComposite operator="in" in2="blur-5"/>
      <feComposite in="SourceGraphic"/>
    </filter>
    <filter id="Rectangle_1789" x="309" y="391.999" width="152" height="70" filterUnits="userSpaceOnUse">
      <feOffset dy="10" input="SourceAlpha"/>
      <feGaussianBlur stdDeviation="8" result="blur-6"/>
      <feFlood flood-opacity="0.161"/>
      <feComposite operator="in" in2="blur-6"/>
      <feComposite in="SourceGraphic"/>
    </filter>
    <filter id="Rectangle_1790" x="449" y="403.999" width="152" height="70" filterUnits="userSpaceOnUse">
      <feOffset dy="10" input="SourceAlpha"/>
      <feGaussianBlur stdDeviation="8" result="blur-7"/>
      <feFlood flood-opacity="0.161"/>
      <feComposite operator="in" in2="blur-7"/>
      <feComposite in="SourceGraphic"/>
    </filter>
  </defs>
  <g id="Group_6350" data-name="Group 6350" transform="translate(-28 -352)">
    <path id="Path_3677" data-name="Path 3677" d="M113.029,184.463c41.52-61.957,116.381-94.928,177.765-103.09a371.078,371.078,0,0,1,54.142-3.015c178.225,2.491,270.3,103.411,258.926,152s-43.608,78.494,2.845,145.774,58.653,168.2,32.109,269.12S499.752,783.517,346.107,786.594,80.444,798.5,47.264,705.059,86.64,547.5,96.813,467.423c6.31-49.649-19.885-99.7-21.073-149.223C74.459,264.7,89.157,220.086,113.029,184.463Z" transform="translate(-10.641 273.684)" fill="#fff7e6"/>
    <text id="Plan_and_Addons" data-name="Plan and Addons" transform="translate(195 436)" font-size="38" font-family="SegoeUI-Bold, Segoe UI" font-weight="700" letter-spacing="0.004em"><tspan x="0" y="0">Plan and Addons</tspan></text>
    <text id="Let_s_get_to_know_each_other" data-name="Let&apos;s get to know each other" transform="translate(170 481)" fill="#393939" font-size="27" font-family="SegoeUI, Segoe UI" letter-spacing="0.004em"><tspan x="0" y="0">Let&apos;s get to know each other</tspan></text>
    <g id="Group_5728" data-name="Group 5728" transform="translate(0 -61)">
      <g transform="matrix(1, 0, 0, 1, 28, 413)" filter="url(#Rectangle_2106)">
        <rect id="Rectangle_2106-2" data-name="Rectangle 2106" width="488" height="322" rx="5" transform="translate(126 160)" fill="#fedc92"/>
      </g>
      <path id="Rectangle_2107" data-name="Rectangle 2107" d="M5,0H483a5,5,0,0,1,5,5V50a0,0,0,0,1,0,0H0a0,0,0,0,1,0,0V5A5,5,0,0,1,5,0Z" transform="translate(154 573)" fill="#feba26"/>
      <circle id="Ellipse_405" data-name="Ellipse 405" cx="5" cy="5" r="5" transform="translate(174 593)" fill="#e64934"/>
      <circle id="Ellipse_406" data-name="Ellipse 406" cx="5" cy="5" r="5" transform="translate(194 593)" fill="#00a651"/>
      <circle id="Ellipse_407" data-name="Ellipse 407" cx="5" cy="5" r="5" transform="translate(214 593)"/>
      <g id="Group_5730" data-name="Group 5730" transform="translate(201 640.208)">
        <g transform="matrix(1, 0, 0, 1, -173, -227.21)" filter="url(#Rectangle_1782)">
          <rect id="Rectangle_1782-2" data-name="Rectangle 1782" width="124" height="223" rx="5" transform="translate(173 239)" fill="#fff"/>
        </g>
        <g transform="matrix(1, 0, 0, 1, -173, -227.21)" filter="url(#Rectangle_1783)">
          <rect id="Rectangle_1783-2" data-name="Rectangle 1783" width="124" height="224" rx="5" transform="translate(323 227)" fill="#fff"/>
        </g>
        <g transform="matrix(1, 0, 0, 1, -173, -227.21)" filter="url(#Rectangle_1784)">
          <rect id="Rectangle_1784-2" data-name="Rectangle 1784" width="124" height="223" rx="5" transform="translate(461 239)" fill="#fff"/>
        </g>
        <path id="Union_5" data-name="Union 5" d="M56,44H68l-6,6ZM0,44V5A5,5,0,0,1,5,0H119a5,5,0,0,1,5,5V44Z" transform="translate(0 11.791)" fill="#feba26"/>
        <path id="Union_7" data-name="Union 7" d="M56,44H68l-6,6ZM0,44V5A5,5,0,0,1,5,0H119a5,5,0,0,1,5,5V44Z" transform="translate(150 -0.209)" fill="#393939"/>
        <path id="Union_6" data-name="Union 6" d="M56,44H68l-6,6ZM0,44V5A5,5,0,0,1,5,0H119a5,5,0,0,1,5,5V44Z" transform="translate(288 11.791)" fill="#feba26"/>
        <text id="STANDARD" transform="translate(62 40)" fill="#fff" font-size="10" font-family="SegoeUI-Bold, Segoe UI" font-weight="700" letter-spacing="0.004em"><tspan x="-27" y="0">STANDARD</tspan></text>
        <text id="ADDONS_STANDARD" data-name="ADDONS + STANDARD" transform="translate(213 28)" fill="#fff" font-size="10" font-family="SegoeUI-Bold, Segoe UI" font-weight="700" letter-spacing="0.004em"><tspan x="-54" y="0">ADDONS + STANDARD</tspan></text>
        <text id="BESPOKE_PLAN" data-name="BESPOKE PLAN" transform="translate(351 40)" fill="#fff" font-size="10" font-family="SegoeUI-Bold, Segoe UI" font-weight="700" letter-spacing="0.004em"><tspan x="-36" y="0">BESPOKE PLAN</tspan></text>
        <text id="Remember_Me" data-name="Remember Me" transform="translate(27 81.791)" font-size="8" font-family="SegoeUI, Segoe UI"><tspan x="0" y="0">5 Staff</tspan></text>
        <text id="Remember_Me-2" data-name="Remember Me" transform="translate(27 125.791)" font-size="8" font-family="SegoeUI, Segoe UI"><tspan x="0" y="0">1 Admin</tspan></text>
        <text id="Remember_Me-3" data-name="Remember Me" transform="translate(27 169.791)" font-size="8" font-family="SegoeUI, Segoe UI"><tspan x="0" y="0">300 Students/Year</tspan></text>
        <text id="Remember_Me-4" data-name="Remember Me" transform="translate(27 103.791)" font-size="8" font-family="SegoeUI, Segoe UI"><tspan x="0" y="0">2 Instructor</tspan></text>
        <text id="Remember_Me-5" data-name="Remember Me" transform="translate(27 147.791)" font-size="8" font-family="SegoeUI, Segoe UI"><tspan x="0" y="0">1 Owner</tspan></text>
        <path id="check_1_" data-name="check (1)" d="M4.2,8.339a.6.6,0,0,1-.416-.164L.173,4.736a.542.542,0,0,1,0-.794.609.609,0,0,1,.833,0L4.2,6.984,10.995.5a.609.609,0,0,1,.833,0,.543.543,0,0,1,0,.794L4.613,8.175a.6.6,0,0,1-.416.164Zm0,0" transform="translate(10 74.452)"/>
        <text id="Remember_Me-6" data-name="Remember Me" transform="translate(177 68.791)" font-size="8" font-family="SegoeUI, Segoe UI"><tspan x="0" y="0">$10 per staff user</tspan></text>
        <text id="Remember_Me-7" data-name="Remember Me" transform="translate(315 80.791)" font-size="8" font-family="SegoeUI, Segoe UI"><tspan x="0" y="0">$10 per staff user</tspan></text>
        <text id="Remember_Me-8" data-name="Remember Me" transform="translate(177 110.791)" font-size="8" font-family="SegoeUI, Segoe UI"><tspan x="0" y="0">student limit on fly $1</tspan></text>
        <text id="Remember_Me-9" data-name="Remember Me" transform="translate(315 122.791)" font-size="8" font-family="SegoeUI, Segoe UI"><tspan x="0" y="0">student limit on fly $1</tspan></text>
        <text id="Remember_Me-10" data-name="Remember Me" transform="translate(177 152.791)" font-size="8" font-family="SegoeUI, Segoe UI"><tspan x="0" y="0">Vehicle management</tspan><tspan x="0" y="12">$250/year</tspan></text>
        <text id="Remember_Me-11" data-name="Remember Me" transform="translate(315 164.791)" font-size="8" font-family="SegoeUI, Segoe UI"><tspan x="0" y="0">Vehicle management</tspan><tspan x="0" y="12">$250/year</tspan></text>
        <text id="Remember_Me-12" data-name="Remember Me" transform="translate(177 89.791)" font-size="8" font-family="SegoeUI, Segoe UI"><tspan x="0" y="0">$10 per instructor</tspan></text>
        <text id="Remember_Me-13" data-name="Remember Me" transform="translate(315 101.791)" font-size="8" font-family="SegoeUI, Segoe UI"><tspan x="0" y="0">$10 per instructor</tspan></text>
        <text id="Remember_Me-14" data-name="Remember Me" transform="translate(177 131.791)" font-size="8" font-family="SegoeUI, Segoe UI"><tspan x="0" y="0">Referral program $50</tspan></text>
        <text id="Remember_Me-15" data-name="Remember Me" transform="translate(315 143.791)" font-size="8" font-family="SegoeUI, Segoe UI"><tspan x="0" y="0">Referral program $50</tspan></text>
        <g transform="matrix(1, 0, 0, 1, -173, -227.21)" filter="url(#Rectangle_1788)">
          <rect id="Rectangle_1788-2" data-name="Rectangle 1788" width="104" height="22" rx="11" transform="translate(183 418)" fill="#feba26"/>
        </g>
        <g transform="matrix(1, 0, 0, 1, -173, -227.21)" filter="url(#Rectangle_1789)">
          <rect id="Rectangle_1789-2" data-name="Rectangle 1789" width="104" height="22" rx="11" transform="translate(333 406)" fill="#393939"/>
        </g>
        <g transform="matrix(1, 0, 0, 1, -173, -227.21)" filter="url(#Rectangle_1790)">
          <rect id="Rectangle_1790-2" data-name="Rectangle 1790" width="104" height="22" rx="11" transform="translate(473 418)" fill="#feba26"/>
        </g>
        <path id="Path_12491" data-name="Path 12491" d="M29.2,32.528a10.835,10.835,0,0,1-5.5,1.337c-1.395,0-2.79-.028-4.185.021a6.964,6.964,0,0,1-6.228-3.339,22.141,22.141,0,0,1-2.517-5.264,13.048,13.048,0,0,0-2.4-4.406c-.306-.344-.646-.654-.966-.978-1.028-1.04-.75-2.115.663-2.5a4.943,4.943,0,0,1,4.98,1.445c.426.407.835.843,1.366,1.381a4.537,4.537,0,0,1-.1-.628q.013-7.713.043-15.428a2.12,2.12,0,0,1,1.714-2.247,2.048,2.048,0,0,1,2.361,1.69,2.1,2.1,0,0,1,.027.436c.008,2.2-.01,4.393-.018,6.589l-.021,6.428c0,.124,0,.25,0,.375,0,.242.076.445.348.432s.333-.221.334-.458c0-1.178.015-2.36.01-3.535a2.208,2.208,0,0,1,.41-1.408,2.03,2.03,0,0,1,3.687,1.151c.025,1.071,0,2.142,0,3.213,0,.124-.006.25,0,.374.009.271-.072.658.352.635.4-.02.331-.393.334-.671,0-.694,0-1.393.007-2.089a2.083,2.083,0,0,1,2.674-2.007A2,2,0,0,1,28,14.942c.032.784,0,1.571.008,2.356,0,.229-.027.508.3.524s.382-.247.386-.512-.01-.568,0-.856a2.073,2.073,0,0,1,2.044-2.1,2.022,2.022,0,0,1,2.044,2c0,.022,0,.043,0,.066.019,1.624,0,3.249-.011,4.877,0,1.553-.018,3.107-.013,4.659a7.451,7.451,0,0,1-1.292,4.5A12.272,12.272,0,0,1,29.2,32.528Z" transform="translate(330.208 203.898)" fill="#393939"/>
        <path id="check_1_2" data-name="check (1)" d="M4.2,8.339a.6.6,0,0,1-.416-.164L.173,4.736a.542.542,0,0,1,0-.794.609.609,0,0,1,.833,0L4.2,6.984,10.995.5a.609.609,0,0,1,.833,0,.543.543,0,0,1,0,.794L4.613,8.175a.6.6,0,0,1-.416.164Zm0,0" transform="translate(10 96.451)"/>
        <path id="check_1_3" data-name="check (1)" d="M4.2,8.339a.6.6,0,0,1-.416-.164L.173,4.736a.542.542,0,0,1,0-.794.609.609,0,0,1,.833,0L4.2,6.984,10.995.5a.609.609,0,0,1,.833,0,.543.543,0,0,1,0,.794L4.613,8.175a.6.6,0,0,1-.416.164Zm0,0" transform="translate(10 118.451)"/>
        <path id="check_1_4" data-name="check (1)" d="M4.2,8.339a.6.6,0,0,1-.416-.164L.173,4.736a.542.542,0,0,1,0-.794.609.609,0,0,1,.833,0L4.2,6.984,10.995.5a.609.609,0,0,1,.833,0,.543.543,0,0,1,0,.794L4.613,8.175a.6.6,0,0,1-.416.164Zm0,0" transform="translate(10 140.451)"/>
        <path id="check_1_5" data-name="check (1)" d="M4.2,8.339a.6.6,0,0,1-.416-.164L.173,4.736a.542.542,0,0,1,0-.794.609.609,0,0,1,.833,0L4.2,6.984,10.995.5a.609.609,0,0,1,.833,0,.543.543,0,0,1,0,.794L4.613,8.175a.6.6,0,0,1-.416.164Zm0,0" transform="translate(10 162.451)"/>
        <path id="check_1_6" data-name="check (1)" d="M4.2,8.339a.6.6,0,0,1-.416-.164L.173,4.736a.542.542,0,0,1,0-.794.609.609,0,0,1,.833,0L4.2,6.984,10.995.5a.609.609,0,0,1,.833,0,.543.543,0,0,1,0,.794L4.613,8.175a.6.6,0,0,1-.416.164Zm0,0" transform="translate(160 62.451)"/>
        <path id="check_1_7" data-name="check (1)" d="M4.2,8.339a.6.6,0,0,1-.416-.164L.173,4.736a.542.542,0,0,1,0-.794.609.609,0,0,1,.833,0L4.2,6.984,10.995.5a.609.609,0,0,1,.833,0,.543.543,0,0,1,0,.794L4.613,8.175a.6.6,0,0,1-.416.164Zm0,0" transform="translate(160 83.451)"/>
        <path id="check_1_8" data-name="check (1)" d="M4.2,8.339a.6.6,0,0,1-.416-.164L.173,4.736a.542.542,0,0,1,0-.794.609.609,0,0,1,.833,0L4.2,6.984,10.995.5a.609.609,0,0,1,.833,0,.543.543,0,0,1,0,.794L4.613,8.175a.6.6,0,0,1-.416.164Zm0,0" transform="translate(160 104.451)"/>
        <path id="check_1_9" data-name="check (1)" d="M4.2,8.339a.6.6,0,0,1-.416-.164L.173,4.736a.542.542,0,0,1,0-.794.609.609,0,0,1,.833,0L4.2,6.984,10.995.5a.609.609,0,0,1,.833,0,.543.543,0,0,1,0,.794L4.613,8.175a.6.6,0,0,1-.416.164Zm0,0" transform="translate(160 125.451)"/>
        <path id="check_1_10" data-name="check (1)" d="M4.2,8.339a.6.6,0,0,1-.416-.164L.173,4.736a.542.542,0,0,1,0-.794.609.609,0,0,1,.833,0L4.2,6.984,10.995.5a.609.609,0,0,1,.833,0,.543.543,0,0,1,0,.794L4.613,8.175a.6.6,0,0,1-.416.164Zm0,0" transform="translate(160 146.451)"/>
        <path id="check_1_11" data-name="check (1)" d="M4.2,8.339a.6.6,0,0,1-.416-.164L.173,4.736a.542.542,0,0,1,0-.794.609.609,0,0,1,.833,0L4.2,6.984,10.995.5a.609.609,0,0,1,.833,0,.543.543,0,0,1,0,.794L4.613,8.175a.6.6,0,0,1-.416.164Zm0,0" transform="translate(298 74.451)"/>
        <path id="check_1_12" data-name="check (1)" d="M4.2,8.339a.6.6,0,0,1-.416-.164L.173,4.736a.542.542,0,0,1,0-.794.609.609,0,0,1,.833,0L4.2,6.984,10.995.5a.609.609,0,0,1,.833,0,.543.543,0,0,1,0,.794L4.613,8.175a.6.6,0,0,1-.416.164Zm0,0" transform="translate(298 95.451)"/>
        <path id="check_1_13" data-name="check (1)" d="M4.2,8.339a.6.6,0,0,1-.416-.164L.173,4.736a.542.542,0,0,1,0-.794.609.609,0,0,1,.833,0L4.2,6.984,10.995.5a.609.609,0,0,1,.833,0,.543.543,0,0,1,0,.794L4.613,8.175a.6.6,0,0,1-.416.164Zm0,0" transform="translate(298 116.451)"/>
        <path id="check_1_14" data-name="check (1)" d="M4.2,8.339a.6.6,0,0,1-.416-.164L.173,4.736a.542.542,0,0,1,0-.794.609.609,0,0,1,.833,0L4.2,6.984,10.995.5a.609.609,0,0,1,.833,0,.543.543,0,0,1,0,.794L4.613,8.175a.6.6,0,0,1-.416.164Zm0,0" transform="translate(298 137.451)"/>
        <path id="check_1_15" data-name="check (1)" d="M4.2,8.339a.6.6,0,0,1-.416-.164L.173,4.736a.542.542,0,0,1,0-.794.609.609,0,0,1,.833,0L4.2,6.984,10.995.5a.609.609,0,0,1,.833,0,.543.543,0,0,1,0,.794L4.613,8.175a.6.6,0,0,1-.416.164Zm0,0" transform="translate(298 158.451)"/>
      </g>
      <path id="Path_13828" data-name="Path 13828" d="M530.655,308.5a1.272,1.272,0,0,1,.682,1.2,9.239,9.239,0,0,0,1.389,4.559,7.058,7.058,0,0,0,6.024,3.3,6.4,6.4,0,0,1,.7.039.893.893,0,0,1-.067,1.784,15.967,15.967,0,0,0-2.2.238,6.953,6.953,0,0,0-5.226,4.644,10.65,10.65,0,0,0-.645,3.228,1,1,0,0,1-1.527.863,1.062,1.062,0,0,1-.5-1.019,9.786,9.786,0,0,0-.843-3.563,7.047,7.047,0,0,0-6.578-4.35c-.214-.011-.43-.017-.643-.041a.905.905,0,0,1-.914-.868.893.893,0,0,1,.861-.916c.482-.061.977-.038,1.458-.1a6.992,6.992,0,0,0,6.029-4.779,9.185,9.185,0,0,0,.626-3.069,1.219,1.219,0,0,1,.672-1.148Zm-.353,5.434a9.241,9.241,0,0,1-4.43,4.56,9.231,9.231,0,0,1,4.437,4.546,9.179,9.179,0,0,1,4.43-4.549A9.262,9.262,0,0,1,530.3,313.935Z" transform="translate(-356.306 347.5)" fill="#feba26"/>
      <path id="Path_13829" data-name="Path 13829" d="M526.124,308.5a.715.715,0,0,1,.383.674,5.194,5.194,0,0,0,.781,2.563,3.967,3.967,0,0,0,3.387,1.854,3.59,3.59,0,0,1,.394.022.5.5,0,0,1-.038,1,8.977,8.977,0,0,0-1.239.134,3.909,3.909,0,0,0-2.938,2.61,5.985,5.985,0,0,0-.363,1.815.563.563,0,0,1-.858.485.6.6,0,0,1-.279-.573,5.5,5.5,0,0,0-.474-2,3.962,3.962,0,0,0-3.7-2.445c-.12-.006-.242-.009-.361-.023a.509.509,0,0,1-.514-.488.5.5,0,0,1,.484-.515c.271-.034.549-.021.82-.057A3.931,3.931,0,0,0,525,310.87a5.165,5.165,0,0,0,.352-1.725.685.685,0,0,1,.378-.645Zm-.2,3.055a5.2,5.2,0,0,1-2.49,2.563,5.189,5.189,0,0,1,2.494,2.556,5.16,5.16,0,0,1,2.49-2.557A5.206,5.206,0,0,1,525.925,311.555Z" transform="translate(102.451 435.5)" fill="#feba26"/>
      <path id="Path_13830" data-name="Path 13830" d="M526.124,308.5a.715.715,0,0,1,.383.674,5.194,5.194,0,0,0,.781,2.563,3.967,3.967,0,0,0,3.387,1.854,3.59,3.59,0,0,1,.394.022.5.5,0,0,1-.038,1,8.977,8.977,0,0,0-1.239.134,3.909,3.909,0,0,0-2.938,2.61,5.985,5.985,0,0,0-.363,1.815.563.563,0,0,1-.858.485.6.6,0,0,1-.279-.573,5.5,5.5,0,0,0-.474-2,3.962,3.962,0,0,0-3.7-2.445c-.12-.006-.242-.009-.361-.023a.509.509,0,0,1-.514-.488.5.5,0,0,1,.484-.515c.271-.034.549-.021.82-.057A3.931,3.931,0,0,0,525,310.87a5.165,5.165,0,0,0,.352-1.725.685.685,0,0,1,.378-.645Zm-.2,3.055a5.2,5.2,0,0,1-2.49,2.563,5.189,5.189,0,0,1,2.494,2.556,5.16,5.16,0,0,1,2.49-2.557A5.206,5.206,0,0,1,525.925,311.555Z" transform="translate(72.451 325.5)" fill="#feba26"/>
    </g>
    <ellipse id="Ellipse_359" data-name="Ellipse 359" cx="291.5" cy="13" rx="291.5" ry="13" transform="translate(59 1039)" fill="#e8e8e8"/>
    <g id="Group_3108" data-name="Group 3108" transform="translate(537 937)">
      <path id="Path_5178" data-name="Path 5178" d="M661.985,266.349c.7-42.23-18.162-59.554-18.162-59.554-4.6,23.3,2.752,48.245,6.847,59.554Z" transform="translate(-630.454 -197.848)" fill="#7fd2a8"/>
      <path id="Path_5179" data-name="Path 5179" d="M666.226,262.96c20.565-28.029,17.248-50.02,17.248-50.02-17.765,14.81-26.951,39.4-30.147,49.561l.524.459Z" transform="translate(-624.595 -194.542)" fill="#7fd2a8"/>
      <path id="Path_5180" data-name="Path 5180" d="M675.54,256.58c17.536-17.743,21.147-32.072,21.147-32.072-21.665,8.738-32.3,22.914-37.8,32.072Z" transform="translate(-621.686 -188.208)" fill="#00a651"/>
      <path id="Path_5181" data-name="Path 5181" d="M657.711,259.229c-6.712-30.359-23.086-39.524-23.086-39.524.354,15.713,7.526,30.721,12.666,39.524Z" transform="translate(-634.625 -190.84)" fill="#00a651"/>
      <path id="Path_5182" data-name="Path 5182" d="M667.153,269.529c8.9-49.451-5.318-68.5-5.318-68.5-16.961,17.2-10.533,57.886-8.5,68.5Z" transform="translate(-626.097 -201.028)" fill="#00a651"/>
      <path id="Path_5183" data-name="Path 5183" d="M659.877,264.622c-1.3-18.245-2.181-36.659-2.565-54.881a.388.388,0,0,0-.388-.38h-.008a.389.389,0,0,0-.38.4c.383,18.216,1.268,36.623,2.563,54.864Z" transform="translate(-622.749 -196.432)" fill="#fff"/>
      <path id="Path_5184" data-name="Path 5184" d="M655.075,263.069h.813a188.525,188.525,0,0,1-5.263-21.879l-5.692-28.7a.382.382,0,0,0-.456-.306.388.388,0,0,0-.3.456l5.692,28.7A191.758,191.758,0,0,0,655.075,263.069Z" transform="translate(-629.466 -194.959)" fill="#fff"/>
      <path id="Path_5185" data-name="Path 5185" d="M650.786,255.933c-4.693-9.992-8.98-20.228-12.753-30.563a.388.388,0,0,0-.728.267c3.739,10.243,7.982,20.388,12.624,30.3Z" transform="translate(-633.161 -187.874)" fill="#fff"/>
      <path id="Path_5186" data-name="Path 5186" d="M660.478,259.636c.729-1.381,1.424-2.79,2.026-4.234a75.654,75.654,0,0,0,2.794-8.569c.475-1.682.965-3.419,1.519-5.1a127.077,127.077,0,0,1,4.822-11.894c1.576-3.539,3.207-7.2,4.5-10.921a.389.389,0,0,0-.734-.256c-1.281,3.7-2.9,7.337-4.475,10.86a128.261,128.261,0,0,0-4.85,11.968c-.557,1.7-1.05,3.443-1.528,5.132a75.532,75.532,0,0,1-2.763,8.48c-.644,1.545-1.4,3.053-2.191,4.533Z" transform="translate(-621.143 -191.554)" fill="#fff"/>
      <path id="Path_5187" data-name="Path 5187" d="M662.283,254.214c1.5-1.683,3.13-3.264,4.741-4.8L688.565,228.9a.388.388,0,0,0-.535-.563l-21.542,20.511c-1.786,1.7-3.593,3.458-5.235,5.362Z" transform="translate(-620.381 -186.163)" fill="#fff"/>
      <path id="Path_5188" data-name="Path 5188" d="M642.81,249.872l5.123,31.711a9.285,9.285,0,0,0,9.165,7.8h15.611a9.285,9.285,0,0,0,9.165-7.8L687,249.872Z" transform="translate(-630.29 -174.385)" fill="#393939"/>
      <path id="Path_5189" data-name="Path 5189" d="M687,249.872H642.81l.709,4.394h34.066l-4.414,27.317a9.284,9.284,0,0,1-9.165,7.8h8.7a9.284,9.284,0,0,0,9.165-7.8l4.414-27.317h0Z" transform="translate(-630.29 -174.385)"/>
      <path id="Path_5190" data-name="Path 5190" d="M689.306,243.992H644.133a4.631,4.631,0,0,0-4.617,4.617h0a4.63,4.63,0,0,0,4.617,4.617h45.173a4.63,4.63,0,0,0,4.617-4.617h0A4.631,4.631,0,0,0,689.306,243.992Z" transform="translate(-631.928 -177.519)" fill="#393939"/>
    </g>
    <g id="Group_5725" data-name="Group 5725" transform="translate(-41.731 -9.156)">
      <path id="Path_5232" data-name="Path 5232" d="M621.073,1157.684c-1.347,22.176-12.549,44.335-30.912,56.529-21.889,14.538-52.5,11.32-77.423,13.172-21.55,1.6-43.264,2.977-64.82.688-17.663-1.879-35.479-8.861-43.916-25.972-8.454-17.149-9.368-39.937-.914-57.294a55.614,55.614,0,0,1,10.545-14.756c.69-.7,1.407-1.393,2.135-2.065.493-.453.991-.9,1.5-1.339.777-.672,1.577-1.328,2.387-1.967.268-.208.537-.415.81-.623s.542-.41.816-.612.548-.4.827-.6l.624-.443q.517-.369,1.051-.721a73.387,73.387,0,0,1,9.888-5.583,78.855,78.855,0,0,1,10.206-3.961c11.339-3.513,23.182-4.759,34.882-6.294,24.83-3.251,50.108-4.36,75.135-4.343,20.422.005,43.417,3.054,57.072,20.548C618.675,1131.924,621.845,1145.053,621.073,1157.684Z" transform="translate(-225.455 -173.636)" fill="#f2a499"/>
      <path id="Path_5233" data-name="Path 5233" d="M1226.6,1151.8s5.256-4.937,8.042-7.8-3.292-2.95-6.287.611A7.8,7.8,0,0,0,1226.6,1151.8Z" transform="translate(-872.932 -205.414)" fill="#f9b384"/>
      <path id="Path_5234" data-name="Path 5234" d="M492.279,1168.3a73.187,73.187,0,0,0-9.867,5.583q-.533.352-1.049.721l-.623.443c-.279.2-.552.4-.825.6s-.546.4-.814.612-.541.415-.809.623q-1.2.951-2.349,1.95l-.033.016c-.508.437-1.005.885-1.5,1.339-.727.672-1.442,1.36-2.131,2.065a1.392,1.392,0,0,0,1.057,1.263c4.1.83,6.154,4.742,9.459,6.966a9.076,9.076,0,0,0,8.128,1.157c-2.988,6.328-4.636,12.606-3.346,19.689a25.252,25.252,0,0,0,2,6.2c-3.84-2.852-7.539-8.962-9.06-15.158a1.639,1.639,0,0,0-3.184.782c1.883,7.671,6.678,15.041,11.66,17.923a10.707,10.707,0,0,0,3.584,1.324,25.1,25.1,0,0,0,3.3,3.492l7.365,2.06,6.01-38.789Z" transform="translate(-284.14 -225.982)" fill="#e58578"/>
      <path id="Path_5235" data-name="Path 5235" d="M528.114,947.009a158.963,158.963,0,0,1-31.935-16.436A12.337,12.337,0,0,1,491,918.3l7.852-45.769a14.118,14.118,0,0,1,8.324-10.6,139.639,139.639,0,0,1,35.685-9.985,85.888,85.888,0,0,1,13.795.273c5.088.5,16.737,3.934,24.141,6.234a14.348,14.348,0,0,1,9.126,8.516c3.1,8,8.148,21.516,9.756,28.82,5.554,25.222,4.644,23.356,4.644,23.356l5.736,38.789-60.916,3.415-15.57-7.1Z" transform="translate(-298.631 21.253)" fill="#708cd5"/>
      <path id="Path_5236" data-name="Path 5236" d="M714.376,626.907s-5.395-11.063-19.736-6.01c-10.38-2.254-18.3,10.039-10.653,26.77l14.409,3.346Z" transform="translate(-447.039 202.582)" fill="#102048"/>
      <path id="Path_5237" data-name="Path 5237" d="M729.114,796.25v19.57a8.3,8.3,0,0,1-8.293,8.293,11.238,11.238,0,0,1-11.238-11.238V796.25Z" transform="translate(-469.421 64.584)" fill="#f9b384"/>
      <path id="Path_5238" data-name="Path 5238" d="M747.186,831.485v10.675c-8.7.044-14.478-11.211-14.478-11.211Z" transform="translate(-487.485 37.475)" fill="#e28b6d"/>
      <path id="Path_5239" data-name="Path 5239" d="M732.352,691.707A37.768,37.768,0,0,1,730,699.634c-1.879,4.289-4.748,7.556-9.129,7.649-10.255.219-18.165-13.795-18.165-13.795l1.639-19.122,7.785-8.741,21.443,13.249A72.414,72.414,0,0,1,732.352,691.707Z" transform="translate(-464.043 166.595)" fill="#f9b384"/>
      <path id="Path_5240" data-name="Path 5240" d="M699.366,673.235a28.209,28.209,0,0,1,9.492-14.2s10.722,14,22.058,7.239,6.419-20.078-4.166-18.029l-12.156-1.366-15.229,4.849-2.6,11.951Z" transform="translate(-459.398 181.248)" fill="#102048"/>
      <path id="Path_5241" data-name="Path 5241" d="M627.723,1048.688c-10.33-22.321-23.351-11.667-26.538-19.862-4.466-11.483-3.619-24.473-3.642-28.409l-6.222,35.033s13.891,1.321,19.027,9.685Z" transform="translate(-377.055 -94.872)" fill="#1f3c88" opacity="0.4"/>
      <path id="Path_5242" data-name="Path 5242" d="M597.052,997.4c-.387,3-.844,5.982-1.316,8.964s-1,5.955-1.494,8.933q-.778,4.461-1.646,8.906l-.89,4.441c-.322,1.476-.622,2.956-.967,4.427l-.452-.08c.181-1.5.407-2.994.611-4.49l.688-4.477q.7-4.474,1.51-8.93c.557-2.967,1.07-5.942,1.663-8.9s1.176-5.923,1.841-8.871Z" transform="translate(-376.263 -92.461)" fill="#1f3c88"/>
      <path id="Path_5243" data-name="Path 5243" d="M895.916,972.328c.827,3.892,1.59,7.8,2.338,11.7s1.446,7.822,2.173,11.732q1.04,5.874,2.031,11.757l.953,5.89c.294,1.967.609,3.931.882,5.9l-.42.075c-.426-1.944-.809-3.9-1.213-5.844l-1.141-5.856q-1.105-5.863-2.157-11.735c-.67-3.921-1.38-7.834-2.016-11.76s-1.281-7.851-1.85-11.79Z" transform="translate(-614.623 -72.935)" fill="#1f3c88"/>
      <path id="Path_5244" data-name="Path 5244" d="M848.108,1055c.728,7.1-.364,43.888-17.483,44.435l.182,8.013,26.952-1.639Z" transform="translate(-563.94 -137.5)" fill="#1f3c88" opacity="0.4"/>
      <path id="Path_5245" data-name="Path 5245" d="M745.676,1236.077c12.156-5.19,14.48-5,16.117-4.917,5.6.273,13.658,11.473,13.658,11.473l-.137,2.049H744.583Z" transform="translate(-496.744 -275.111)" fill="#e28b6d"/>
      <rect id="Rectangle_1781" data-name="Rectangle 1781" width="37.833" height="5.736" transform="translate(257.888 967.579)" fill="#feba26"/>
      <path id="Path_5246" data-name="Path 5246" d="M963.867,1100.144H898.125l14.751-58.749h65.742Z" transform="translate(-616.553 -126.868)" fill="#feba26"/>
      <path id="Path_5247" data-name="Path 5247" d="M969.174,1197.168c-6.5-.972-27.538-5.342-70.88,21.064l-1,3.642,65.924-.678Z" transform="translate(-615.924 -247.889)" fill="#efb026"/>
      <g id="Group_3119" data-name="Group 3119" transform="translate(342.902 945.66)">
        <path id="Path_5248" data-name="Path 5248" d="M1190.29,1259.145c-.41,2.766-.546,6.829-9.117,6.317l-2.527-1.3,2.39-2.629,5.156-2.629Z" transform="translate(-1178.646 -1242.482)" fill="#f9b384"/>
        <path id="Path_5249" data-name="Path 5249" d="M1199.645,1225.833s4.69,6.128-.023,8.013a27.118,27.118,0,0,1-10.039,1.844c2.185-6.146,9.288-5.737,9.288-5.737Z" transform="translate(-1187.193 -1216.636)" fill="#f9b384"/>
        <path id="Path_5250" data-name="Path 5250" d="M1198.09,1207.708s6.465,6.01.455,7.694c-8.487,2.379-11.109,2.549-11.109,2.549-.455-4.507,7.967-7.421,7.967-7.421Z" transform="translate(-1185.501 -1202.472)" fill="#f9b384"/>
        <path id="Path_5251" data-name="Path 5251" d="M1195.47,1183.75s8.832,5.372.546,8.377-10.244,2.959-10.244,2.959c-.455-4.507,8.423-6.055,8.423-6.055Z" transform="translate(-1184.202 -1183.75)" fill="#f9b384"/>
        <path id="Path_5252" data-name="Path 5252" d="M1185.833,1222.438s9.629-1.366,12.5-3.688" transform="translate(-1184.262 -1211.101)" fill="none" stroke="#e28b6d" stroke-width="2.5"/>
        <path id="Path_5253" data-name="Path 5253" d="M1187.5,1241.722s10.016-1.411,13.157-3.6" transform="translate(-1185.565 -1226.242)" fill="none" stroke="#e28b6d" stroke-width="2.5"/>
        <path id="Path_5254" data-name="Path 5254" d="M1189.583,1265.809s5.941.2,9.288-1.434" transform="translate(-1187.193 -1246.756)" fill="none" stroke="#e28b6d" stroke-width="2.5"/>
      </g>
      <path id="Path_5255" data-name="Path 5255" d="M762.708,1605.739c1-.546,16.845,2.914,34.419-10.107l-22.673-6.465Z" transform="translate(-510.894 -554.732)" fill="#102048"/>
      <path id="Path_5256" data-name="Path 5256" d="M869.573,1306.614c.754-1.076,1.4-2.661.453-3.568-.989-.951-2.606-.115-3.644.781a43.721,43.721,0,0,0-5.026,5.135l-38.276,7.113-52.448,12.746,9.017,11.51c26.224,1.912,41.16,2.4,57.571-.492,8.365-1.476,15.842-3,21.42-7.543,1.328-1.087,2.584-2.912,1.721-4.393a3.236,3.236,0,0,0-3.016-1.251,38.745,38.745,0,0,0,8.108-2.89c1.153-.557,2.437-1.431,2.409-2.71a2.372,2.372,0,0,0-1.612-2.021,6.258,6.258,0,0,0-2.7-.235,37,37,0,0,0-10.238,2.262C859.286,1316.885,865.367,1312.563,869.573,1306.614Zm-16.346,14.5c0-.011.005-.016.016-.027a.231.231,0,0,0,.055-.022C853.276,1321.081,853.249,1321.1,853.227,1321.114Z" transform="translate(-516.973 -330.923)" fill="#e58578"/>
      <path id="Path_5257" data-name="Path 5257" d="M821.458,1260.591s51.082-24.312,67.745-23.219,16.117,21.853,9.834,30.868-21.034,21.034-75.394,17.483Z" transform="translate(-556.694 -279.916)" fill="#102048"/>
      <path id="Path_5258" data-name="Path 5258" d="M746.74,1599.384c-2.764.781-6.687.972-12.085.115,0,0-6.993,1.814-13.877,3.24-4.66.967-9.266,1.754-11.62,1.677-.2-.005-.4-.016-.612-.033-4.518-.322-10.211-2.677-13.232-6.042a.055.055,0,0,0-.022-.027,8.418,8.418,0,0,1-1.8-3c-1.639-5.1,1.825-11.293,20.58-10.02,0,0,6.19-1.453,7.649-6.01s-9.288-26.4-9.288-26.4l15.3-10.38,15.024,16.663s2.278,15.024,2.278,19.941c0,0,6.37,9.107,7.283,13.112C752.9,1594.773,751.624,1598,746.74,1599.384Z" transform="translate(-460.55 -532.264)"/>
      <path id="Path_5259" data-name="Path 5259" d="M544.855,1159.975c1.752-.674,3.537-1.219,5.342-1.72.9-.247,1.813-.478,2.739-.659q.693-.141,1.4-.239c.238-.032.475-.057.723-.076a5.193,5.193,0,0,1,.766.015,22.587,22.587,0,0,1,5.509,1.475c1.758.67,3.479,1.42,5.169,2.232s3.344,1.694,4.967,2.63,3.217,1.921,4.768,2.974a51.376,51.376,0,0,1,8.6,7.217l-.324.325q-2.06-1.864-4.29-3.517c-1.475-1.114-3-2.16-4.563-3.151a94.208,94.208,0,0,0-9.659-5.444c-1.656-.82-3.342-1.578-5.056-2.254a24.986,24.986,0,0,0-5.209-1.562,4.318,4.318,0,0,0-.628-.036c-.216.01-.443.028-.667.052-.45.05-.9.114-1.355.192-.9.158-1.81.342-2.713.545-1.8.41-3.6.889-5.367,1.435Z" transform="translate(-340.853 -217.415)" fill="#1f3c88"/>
      <path id="Path_5260" data-name="Path 5260" d="M584.5,1454.871c6.146-.41,12.186.03,16.572-1.5,4.689-1.639,16.936-.546,16.936-.546l-6.738-9.7-27.317,6.829Z" transform="translate(-371.307 -440.7)" fill="#e58578"/>
      <path id="Path_5261" data-name="Path 5261" d="M571.527,1240.925c-6.283-10.107-6.283-30.048,1.639-39.063,9.054-10.3,28.409-14.2,38.516-2.185s28.682,56,32.507,85.774c0,0-20.487-6.829-34.419,10.107,0,0-18.3-41.794-22.126-57.092l-10.38,8.195Z" transform="translate(-358.038 -244.552)" fill="#1f3c88"/>
      <path id="Path_5262" data-name="Path 5262" d="M496.691,1403.057s-2.732-1-6.556,1.548c0,0-29.866-.637-36.513,6.1s-1.548,15.752,8.195,16.754c8.177.84,24.051-5.5,28.942-7.563a9.675,9.675,0,0,1,3.125-.74l8.089-.529Z" transform="translate(-267.207 -409.235)"/>
      <path id="Path_5263" data-name="Path 5263" d="M685.351,751.291s-2-6.639-6.41-4.979-2.06,10.3,6.639,12.705Z" transform="translate(-443.804 103.749)" fill="#f9b384"/>
      <path id="Path_5264" data-name="Path 5264" d="M693.619,932.463a31.727,31.727,0,0,0,6.952,3.789,20.53,20.53,0,0,0,7.648,1.443,16.912,16.912,0,0,0,7.48-1.857l.873-.443c.286-.158.548-.356.823-.531a12.761,12.761,0,0,0,1.593-1.152l.767-.623.385-.311c.125-.108.236-.231.355-.346q.7-.7,1.42-1.4l.327.275q-.645.779-1.313,1.549c-.113.127-.217.262-.337.382l-.37.351-.743.7a13.444,13.444,0,0,1-1.6,1.277c-.279.2-.545.417-.837.6l-.895.511a16.417,16.417,0,0,1-7.917,2.1,20.233,20.233,0,0,1-8.005-1.67,26.271,26.271,0,0,1-6.87-4.308Z" transform="translate(-456.741 -40.706)" fill="#1f3c88"/>
      <path id="Path_5265" data-name="Path 5265" d="M639.257,1323.942l2.367,8.282c.805,2.755,1.558,5.524,2.4,8.266.823,2.747,1.644,5.494,2.508,8.227.432,1.366.859,2.735,1.332,4.087.231.677.44,1.365.685,2.037s.483,1.349.714,2.029l-.394.165q-.915-1.959-1.721-3.968c-.537-1.339-1.026-2.693-1.521-4.047-.97-2.714-1.828-5.463-2.641-8.225-.788-2.768-1.568-5.538-2.252-8.333s-1.346-5.594-1.891-8.422Z" transform="translate(-414.181 -347.581)" fill="#102048"/>
      <path id="Path_5267" data-name="Path 5267" d="M722.243,1795.133a10.9,10.9,0,0,1-5.649,3.464,15.446,15.446,0,0,1-3.5.508c-4.518-.322-10.211-2.677-13.232-6.042a.054.054,0,0,0-.022-.027,12.855,12.855,0,0,1-.885-1.36,22.021,22.021,0,0,0,5.239,3.655,20.813,20.813,0,0,0,2.9,1.18c.486.186.994.3,1.5.437a13.1,13.1,0,0,0,1.53.306A16.906,16.906,0,0,0,722.243,1795.133Z" transform="translate(-465.13 -816.13)" fill="#102048"/>
      <path id="Path_5268" data-name="Path 5268" d="M690.076,759.669a4.5,4.5,0,0,0-.712-1.661,4.984,4.984,0,0,0-1.2-1.3,1.34,1.34,0,0,0-1.4-.258,3.162,3.162,0,0,0-1.111,1.316l-.3-.105a2.734,2.734,0,0,1,1.048-1.831,1.638,1.638,0,0,1,1.19-.245,2.552,2.552,0,0,1,1.045.459,4.517,4.517,0,0,1,1.336,1.614,3.5,3.5,0,0,1,.426,2.017Z" transform="translate(-450.506 96.313)" fill="#e28b6d"/>
      <path id="Path_5269" data-name="Path 5269" d="M816.9,766.531c-.192.943-.9,1.594-1.586,1.454a1.561,1.561,0,0,1-.89-1.959c.192-.942.9-1.593,1.586-1.454A1.561,1.561,0,0,1,816.9,766.531Z" transform="translate(-551.275 89.286)" fill="#102048"/>
      <ellipse id="Ellipse_378" data-name="Ellipse 378" cx="1.741" cy="1.263" rx="1.741" ry="1.263" transform="translate(252.182 856.716) rotate(-80.739)" fill="#102048"/>
      <path id="Path_5270" data-name="Path 5270" d="M793.139,777.481c.065.776.1,1.547.1,2.3a1.374,1.374,0,0,0,.406.8,8.493,8.493,0,0,1,.794.913,1.883,1.883,0,0,1,.283.662,2.359,2.359,0,0,1,.046.7,2.3,2.3,0,0,1-.5,1.27,1.745,1.745,0,0,1-.562.449,1.6,1.6,0,0,1-.7.147,2.26,2.26,0,0,1-1.2-.435l.151-.282a2.153,2.153,0,0,0,1.019.145,1,1,0,0,0,.72-.463,1.669,1.669,0,0,0,.061-1.743c-.168-.269-.448-.523-.712-.856a1.985,1.985,0,0,1-.5-1.287c.059-.793.154-1.571.275-2.344Z" transform="translate(-533.652 79.205)" fill="#e28b6d"/>
      <path id="Path_5271" data-name="Path 5271" d="M757.591,751.555a5.117,5.117,0,0,1,1.534-1.054,4.06,4.06,0,0,1,1.9-.363,3.459,3.459,0,0,1,1.839.674,4.387,4.387,0,0,1,1.228,1.423l-.253.2a8.9,8.9,0,0,0-1.364-1.014,3.569,3.569,0,0,0-1.508-.466,6.342,6.342,0,0,0-3.19.863Z" transform="translate(-506.924 100.556)" fill="#102048"/>
      <path id="Path_5272" data-name="Path 5272" d="M808.457,754.835a2.335,2.335,0,0,1,1.2-1.313,3.628,3.628,0,0,1,1.743-.39,3.569,3.569,0,0,1,1.724.474,2.79,2.79,0,0,1,1.18,1.3l-.268.175a3.853,3.853,0,0,0-2.657-1.137,3.224,3.224,0,0,0-2.631,1.029Z" transform="translate(-546.65 98.211)" fill="#102048"/>
      <path id="Path_5273" data-name="Path 5273" d="M774.325,819.63l7.247.516S777.529,825.508,774.325,819.63Z" transform="translate(-519.993 46.245)" fill="#fff"/>
      <path id="Path_5274" data-name="Path 5274" d="M821.4,784.838a37.77,37.77,0,0,1-2.349,7.927,4.184,4.184,0,0,1,1.8-7.966A3.693,3.693,0,0,1,821.4,784.838Z" transform="translate(-553.056 73.464)" fill="#ee6f57" opacity="0.4"/>
      <circle id="Ellipse_379" data-name="Ellipse 379" cx="4.189" cy="4.189" r="4.189" transform="translate(244.379 859.255) rotate(-22.78)" fill="#ee6f57" opacity="0.4"/>
    </g>
  </g>
</svg>
