<svg xmlns="http://www.w3.org/2000/svg" viewBox="0 0 1366 244"><g id="Layer_2" data-name="Layer 2"><g id="Layer_1-2" data-name="Layer 1"><path id="Path_3676" data-name="Path 3676" d="M0,105.88C5.6,128.61,46.68,141.41,72.93,140s50-13.5,72.78-25.17,46.74-23.56,73-24.46c29.57-1,57.21,12,86.13,17.5C396,125.34,493.75,68.58,581.22,97.23c45.63,14.93,78,50.17,111,81.81S765.36,241.86,814,243.89c56.66,2.37,108.63-35.87,165.1-31.13,31.05,2.62,59.1,18.07,90,22,52,6.66,101.11-19.69,147.3-41.88s102.55-41.22,149.67-20.62V0L0,0Z" fill="#f5f5f5"/></g></g></svg>