<?xml version="1.0" encoding="utf-8"?>
<!-- Generator: Adobe Illustrator 25.2.0, SVG Export Plug-In . SVG Version: 6.00 Build 0)  -->
<svg version="1.1" id="Layer_1" xmlns="http://www.w3.org/2000/svg" xmlns:xlink="http://www.w3.org/1999/xlink" x="0px" y="0px"
	 viewBox="0 0 1366 1240" style="enable-background:new 0 0 1366 1240;" xml:space="preserve">
<style type="text/css">
	.st0{fill:#F5F5F5;}
</style>
<path id="Union_69" class="st0" d="M814,1239.9c-48.6-2-88.8-13.2-121.8-44.9c-19.4-18.6-38.5-17.7-60.2-16.9
	c-15.3,0.6-31.9,1.2-50.7-5c-6.8-2.2-13.7-4-20.7-5.2h-76.6c-16.3,2.1-32.8,5.1-49.3,8.1c-43.5,7.9-87.4,15.8-129.7,7.7
	c-21.4-4.1-42.2-12.3-63.5-15.9h-37.4c-20.6,3.8-39.8,13.4-58.2,22.8c-22.7,11.7-46.5,23.8-72.8,25.2S5.6,1204.6,0,1181.9V1168l0,0
	V71.7c47.1,20.6,103.5,1.6,149.7-20.6S245,2.6,297,9.2c30.9,3.9,58.9,19.4,90,22c29,2.4,56.9-6.5,84.8-15.4
	C498.1,7.4,524.5-1,552.1,0.1c48.6,2,128.8,13.2,161.8,44.9c18.9,18.1,37.5,14.5,58.6,10.8c15.8-2.7,32.9-5.4,52.4,1
	c46.8,15.3,67.9,6.2,91.4-2.9c20.4-7.9,42.6-15.8,85-7.7c28.9,5.6,56.6,18.5,86.1,17.5c26.3-0.9,50.3-12.8,73-24.5
	s106.5-13.8,132.8-15.2s67.3,11.4,72.9,34.1l0,84.9h-1v954h1v71.3c-0.3-0.1-0.7-0.3-1-0.4v0.1h-96.2c-18.2,5.5-36,13-52.5,20.9
	c-46.2,22.2-95.3,48.5-147.3,41.9c-30.9-3.9-58.9-19.4-90-22c-29-2.4-56.9,6.5-84.8,15.4c-24.7,7.9-49.5,15.8-75.2,15.8
	C817.3,1240,815.7,1240,814,1239.9z"/>
</svg>
