<?xml version="1.0" encoding="utf-8"?>
<!-- Generator: Adobe Illustrator 25.2.0, SVG Export Plug-In . SVG Version: 6.00 Build 0)  -->
<svg version="1.1" id="Layer_1" xmlns="http://www.w3.org/2000/svg" xmlns:xlink="http://www.w3.org/1999/xlink" x="0px" y="0px"
	 viewBox="0 0 1366 700" style="enable-background:new 0 0 1366 700;" xml:space="preserve">
<style type="text/css">
	.st0{fill:#F5F5F5;}
</style>
<path id="Path_3676" class="st0" d="M0,550.6c5.6,22.7,46.7,35.5,72.9,34.1s50-13.5,72.8-25.2c22.7-11.7,46.7-23.6,73-24.5
	c29.6-1,57.2,12,86.1,17.5c91.2,17.5,188.9-39.3,276.4-10.6c45.6,14.9,78,50.2,111,81.8c33,31.6,73.2,62.8,121.8,64.9
	c56.7,2.4,108.6-35.9,165.1-31.1c31.1,2.6,59.1,18.1,90,22c52,6.7,101.1-19.7,147.3-41.9s102.6-41.2,149.7-20.6l0-617L0,0L0,550.6z"
	/>
</svg>
