<svg xmlns="http://www.w3.org/2000/svg" width="1366" height="963" viewBox="0 0 1366 963">
  <path id="Path_3676" data-name="Path 3676" d="M-193.59,140.6c5.6,22.733,46.68,35.529,72.934,34.118s50.029-13.5,72.778-25.176S-1.14,125.988,25.14,125.08c29.571-1.024,57.212,11.953,86.135,17.5,91.159,17.484,188.881-39.272,276.357-10.631,45.627,14.937,77.982,50.171,110.957,81.815s73.177,62.823,121.772,64.854c56.658,2.368,108.633-35.878,165.1-31.131,31.052,2.612,59.1,18.067,89.976,22.018,52.017,6.66,101.111-19.694,147.3-41.884s102.554-41.222,149.673-20.616V-684.277l-1365.984.016Z" transform="translate(193.59 684.277)" fill="#f5f5f5"/>
</svg>
